<svg xmlns="http://www.w3.org/2000/svg" width="41.47" height="40" viewBox="0 0 41.47 40">
  <defs>
    <style>
      .cls-1 {
        fill: #FFCC00;
        fill-rule: evenodd;
      }
    </style>
  </defs>
  <path class="cls-1" d="M1238.55,25.181a0.044,0.044,0,0,1-.01-0.033,8.156,8.156,0,0,0-2.02-3.963c-0.01-.006-0.01-0.011-0.02-0.017a7.354,7.354,0,0,0-4.15-1.868,25.275,25.275,0,0,0-5.82-.218,28.12,28.12,0,0,0-4.65.762,33.227,33.227,0,0,0-4.13,1.3c-0.44.168-.88,0.346-1.33,0.536l-0.01.008c-0.18.067-.35,0.142-0.53,0.226-0.2.084-.38,0.173-0.56,0.268l0.01-.008c-0.37.173-.73,0.357-1.09,0.553h0.01c-0.46.235-.91,0.483-1.34,0.746A29.043,29.043,0,0,0,1202.34,33.7c-0.14.223-.27,0.447-0.4,0.67a35.384,35.384,0,0,0-2.46,5.01V39.373a30.734,30.734,0,0,0-1.47,4.775c-0.13.553-.23,1.114-0.32,1.684a19.336,19.336,0,0,0,.01,8.16,0.058,0.058,0,0,0,.01.042,6.913,6.913,0,0,0,2.46,3.234,0.014,0.014,0,0,1,.01.008q3.78,2.513,10.85,1.349h0a33.954,33.954,0,0,0,17.03-7.775c0-.006,0-0.008.01-0.008a31.586,31.586,0,0,0,8.76-12.29V38.544a28.267,28.267,0,0,0,1.72-13.363m-11.97-5.429c0.3-.022.61-0.039,0.91-0.05q4.785,1.709,9.57,9.224l-1.39,3.284q-5.865-9.015-13.13-11.83a27.945,27.945,0,0,1,4.04-.628m-8.67,2.044a0.44,0.44,0,0,1,.08-0.025H1218a0.3,0.3,0,0,1,.1-0.042l0.33,0.126c0.15-.067.27-0.12,0.35-0.159l1.2,0.478a1.8,1.8,0,0,1-.48.285l0.84,0.4-0.13.142c-0.23.128-.46,0.257-0.68,0.385l-0.89-.419c-0.36.207-.72,0.419-1.07,0.637l0.85,0.452q-0.435.268-.87,0.545l-0.88-.436c-0.39.257-.79,0.522-1.18,0.8l0.88,0.444c-0.32.218-.63,0.441-0.94,0.67l-0.91-.419c-0.4.3-.8,0.6-1.19,0.913l0.87,0.452c-0.28.223-.55,0.452-0.83,0.687l-0.88-.461c-0.48.408-.96,0.829-1.43,1.265l0.9,0.444c-0.26.24-.51,0.483-0.76,0.729l-0.9-.461q-0.57.536-1.11,1.106l0.89,0.5c-0.23.246-.47,0.5-0.7,0.754l-0.91-.5c-0.35.374-.69,0.757-1.03,1.148l0.95,0.519q-0.345.4-.66,0.821L1206.79,33c-0.42.5-.82,1.005-1.23,1.525l1,0.62-0.54.771-1.03-.628a2.906,2.906,0,0,0-.22.335l-0.93-.721c0.05-.067.11-0.154,0.19-0.26l-0.38-.276,0.49-.737,0.44,0.285c0.41-.525.81-1.033,1.22-1.525l-0.41-.251c0.18-.246.37-0.486,0.56-0.721l0.45,0.251c0.34-.4.67-0.782,1.02-1.156l-0.49-.26c0.23-.274.47-0.539,0.71-0.8l0.49,0.276c0.34-.369.69-0.729,1.04-1.081l-0.5-.251c0.24-.24.48-0.475,0.73-0.7l0.5,0.251c0.47-.452.95-0.885,1.43-1.3l-0.47-.243c0.28-.235.56-0.464,0.85-0.687l0.44,0.235c0.36-.3.73-0.592,1.1-0.871l-0.43-.193q0.51-.377,1.05-0.737l0.39,0.193c0.39-.279.79-0.544,1.19-0.8l-0.35-.184q0.465-.293.96-0.57l0.33,0.176c0.33-.2.67-0.394,1.01-0.578l-0.33-.159c0.3-.168.59-0.313,0.84-0.436M1200.1,39.625q0.045-.117.09-0.218c1.18-.089,3.11,1.162,5.82,3.753a38.766,38.766,0,0,1,8.23,9.425l-4.26,1.935a62.014,62.014,0,0,0-7.25-8.127c-1.8-1.508-3.14-2.251-4.04-2.229A28.862,28.862,0,0,1,1200.1,39.625Z" transform="translate(-1197.28 -19)"/>
</svg>
