<?xml version="1.0" encoding="UTF-8"?>
<svg width="12px" height="12px" viewBox="0 0 12 12" version="1.1" xmlns="http://www.w3.org/2000/svg" xmlns:xlink="http://www.w3.org/1999/xlink">
    <!-- Generator: Sketch 63.1 (92452) - https://sketch.com -->
    <title>Combined Shape</title>
    <desc>Created with Sketch.</desc>
    <g id="Page-1" stroke="none" stroke-width="1" fill="#FFCC00" fill-rule="evenodd">
        <g id="Icon/US-Football" transform="translate(-6.000000, -6.000000)" fill="#FFCC00">
            <path d="M14.4655647,6.02128173 C15.040197,5.97871827 15.5994373,6 16.1432857,6.08512691 C16.6358276,6.15961296 17.036018,6.34582809 17.3438567,6.64377229 L17.3438567,6.64377229 L17.3592486,6.65973359 C17.656826,7.00024125 17.8517906,7.39395322 17.9441422,7.84086953 L17.9441422,7.84086953 L17.9441422,7.85683082 C18.0980615,9.18693886 17.9338809,10.5223673 17.4516002,11.8631162 C16.9180131,13.2570695 16.0714566,14.4860893 14.9119308,15.5501757 L14.9119308,15.5501757 L14.9119308,15.566137 C13.434305,16.8323999 11.7924985,17.609183 9.98651137,17.8964863 C8.62175973,18.1199444 7.56997745,17.9816132 6.83116453,17.4814926 C6.52332582,17.2580344 6.28731613,16.9334881 6.12313549,16.5078535 L6.12313549,16.5078535 L6.12313549,16.4918922 C5.95895484,15.8321586 5.95895484,15.0181325 6.12313549,14.0498139 C6.14365807,13.87956 6.17444194,13.7146266 6.2154871,13.5550137 C6.31810001,13.0655339 6.46175807,12.586695 6.6464613,12.118497 C6.83116453,11.6077355 7.06717421,11.1076149 7.35449035,10.6181351 C7.38527422,10.5436491 7.42118874,10.4744834 7.4622339,10.4106383 C8.19078553,9.15501627 9.21178393,8.13349329 10.5252291,7.34606934 C10.6483646,7.26094242 10.7766307,7.18645637 10.9100275,7.12261118 C11.0126404,7.058766 11.120384,7.00024125 11.2332582,6.94703692 L11.2332582,6.94703692 L11.2178662,6.96299822 C11.2691727,6.93107563 11.3256098,6.90447347 11.3871775,6.88319174 C11.438484,6.85126914 11.4897904,6.82466698 11.5410969,6.80338526 C11.6744937,6.75018093 11.8027598,6.69697661 11.9258953,6.64377229 C12.3260856,6.48415933 12.7262759,6.35646895 13.1264663,6.26070118 C13.5779631,6.14365167 14.0243292,6.06384519 14.4655647,6.02128173 Z M6.84655647,12.118497 C6.83629518,12.1397787 6.82603389,12.1663809 6.8157726,12.1983035 C6.64133066,12.6345789 6.50793388,13.0868156 6.41558227,13.5550137 C6.67211453,13.5443728 7.06204357,13.7678309 7.58536939,14.2253881 C8.45757908,15.097939 9.15534684,15.9119651 9.67867265,16.6674665 L9.67867265,16.6674665 L10.9100275,16.0768985 C10.3559178,15.1192207 9.56066781,14.1775042 8.52427747,13.251749 C7.74441939,12.4749659 7.18517906,12.0972152 6.84655647,12.118497 Z M12.2183421,6.80338526 C12.1978195,6.81402612 12.1670356,6.82998742 12.1259904,6.85126914 L12.1259904,6.85126914 L12.0182469,6.81934655 C12.0079856,6.81934655 12.002855,6.82466698 12.002855,6.83530785 L12.002855,6.83530785 L11.9720711,6.83530785 C11.9002421,6.87787131 11.8181517,6.92575519 11.7258001,6.97895952 L11.7258001,6.97895952 L11.8181517,7.01088211 C11.7258001,7.0747273 11.6283179,7.13325205 11.5257049,7.18645637 L11.5257049,7.18645637 L11.4333533,7.13857248 C11.3410017,7.1917768 11.2486501,7.25030156 11.1562985,7.31414674 L11.1562985,7.31414674 L11.264042,7.36203063 C11.1409066,7.43651668 11.0229017,7.51632316 10.9100275,7.60145008 L10.9100275,7.60145008 L10.802284,7.53760489 L10.802284,7.53760489 L10.4944452,7.76106304 L10.6175807,7.82490823 L10.6175807,7.82490823 L10.309742,8.08028897 L10.1712146,8.01644379 C10.0891243,8.08028897 10.0070339,8.14945459 9.92494362,8.22394064 L9.92494362,8.22394064 L10.063471,8.28778583 C9.93007427,8.4154762 9.79154685,8.548487 9.64788878,8.68681824 L9.64788878,8.68681824 L9.50936136,8.60701176 C9.43753233,8.68149781 9.36570329,8.75066342 9.29387426,8.81450861 L9.29387426,8.81450861 L9.44779362,8.89431509 C9.34518071,9.00072374 9.24256781,9.10713238 9.1399549,9.21354102 L9.1399549,9.21354102 L9.00142748,9.13373454 C8.92959844,9.21886145 8.85776941,9.29866794 8.78594038,9.37315399 L8.78594038,9.37315399 L8.93985973,9.45296047 C8.83724683,9.57000998 8.73976457,9.68705948 8.64741295,9.80410899 L8.64741295,9.80410899 L8.50888553,9.72430251 C8.45757908,9.79878856 8.40114198,9.87327461 8.33957424,9.94776066 L8.33957424,9.94776066 L8.46270973,10.0116058 C8.34983553,10.1605779 8.23183069,10.3148705 8.1086952,10.4744834 L8.1086952,10.4744834 L7.98555972,10.394677 L7.84703229,10.6181351 L7.95477584,10.6979416 C7.93425326,10.7298642 7.91373068,10.7564663 7.8932081,10.7777481 L7.8932081,10.7777481 L8.17026295,10.9852449 C8.20104682,10.9320406 8.2215694,10.900118 8.23183069,10.8894772 L8.23183069,10.8894772 L8.52427747,11.0810127 C8.57558392,10.9958858 8.62689037,10.9160793 8.67819683,10.8415933 L8.67819683,10.8415933 L8.40114198,10.6500577 C8.51401618,10.5010856 8.63202102,10.3521135 8.75515651,10.2031414 L8.75515651,10.2031414 L9.03221135,10.3787157 C9.0835178,10.2935887 9.14508555,10.2084618 9.21691458,10.1233349 L9.21691458,10.1233349 L8.93985973,9.97968325 C9.04247264,9.86263374 9.1399549,9.74558424 9.23230651,9.62853473 L9.23230651,9.62853473 L9.50936136,9.7721864 C9.5709291,9.69770035 9.63762749,9.6232143 9.70945652,9.54872825 L9.70945652,9.54872825 L9.44779362,9.40507658 C9.55040652,9.28802707 9.65815007,9.176298 9.77102427,9.06988935 L9.77102427,9.06988935 L10.0326872,9.21354102 C10.1045162,9.13905497 10.1763452,9.06456892 10.2481743,8.99008287 L10.2481743,8.99008287 L9.98651137,8.8623925 C10.1199081,8.72406126 10.2584356,8.59637089 10.4020936,8.47932138 L10.4020936,8.47932138 L10.6637565,8.62297305 C10.7355856,8.548487 10.8125453,8.47932138 10.8946356,8.4154762 L10.8946356,8.4154762 L10.6483646,8.27182453 C10.7612388,8.17605675 10.874113,8.0856094 10.9869872,8.00048249 L10.9869872,8.00048249 L11.2486501,8.12817286 C11.3410017,8.05368681 11.4333533,7.98452119 11.5257049,7.92067601 L11.5257049,7.92067601 L11.264042,7.79298564 C11.3769162,7.70785872 11.4949211,7.62805224 11.6180566,7.55356619 L11.6180566,7.55356619 L11.8643275,7.68125656 L11.8643275,7.68125656 L12.1105985,7.5216436 L11.8643275,7.37799193 C11.9669404,7.31414674 12.074684,7.25030156 12.1875582,7.18645637 L12.1875582,7.18645637 L12.4338292,7.31414674 C12.5056582,7.28222415 12.5723566,7.24498112 12.6339243,7.20241767 L12.6339243,7.20241767 L12.6801001,7.15453378 L12.4338292,7.0428047 C12.4851356,7.02152297 12.5313114,6.98960038 12.5723566,6.94703692 L12.5723566,6.94703692 Z M14.7426195,6.21281729 C14.6502679,6.21281729 14.5630469,6.21813772 14.4809566,6.22877858 C14.0910276,6.26070118 13.7010985,6.32454636 13.3111695,6.42031414 C14.706705,6.98427995 15.9739744,8.16541589 17.1129776,9.96372196 L17.1129776,9.96372196 L17.513168,8.97412157 C16.5896518,7.47375971 15.6661357,6.55332494 14.7426195,6.21281729 Z" id="Combined-Shape"></path>
        </g>
    </g>
</svg>
