<svg xmlns="http://www.w3.org/2000/svg" width="40" height="40" viewBox="0 0 40 40">
  <defs>
    <style>
      .cls-1 {
        fill: #ffffff;
        fill-rule: evenodd;
      }
    </style>
  </defs>
  <path class="cls-1" d="M393.664,30.568l-0.992.993a2.082,2.082,0,0,1-1.892-.535,1.963,1.963,0,0,1,.193-2.215l1.172-1.12q-0.541-.917-1.172-1.833a18.961,18.961,0,0,0-4.982,13.076v0.153a18.961,18.961,0,0,0,4.982,13.076q0.632-.917,1.172-1.833l-1.172-1.12a1.963,1.963,0,0,1-.193-2.215,2.081,2.081,0,0,1,1.892-.535l0.992,0.993a18.406,18.406,0,0,0,.721-1.77l-1.185-.395,0.013-.013a1.83,1.83,0,0,1-.8-1.63,1.465,1.465,0,0,1,1.622-1.121h0.026l1.133,0.357a19.423,19.423,0,0,0,.36-2.381h-1.48a1.829,1.829,0,0,1-1.223-1.426V38.945a1.829,1.829,0,0,1,1.223-1.426h1.48a19.428,19.428,0,0,0-.36-2.381l-1.133.356h-0.026a1.465,1.465,0,0,1-1.622-1.12,1.83,1.83,0,0,1,.8-1.63l-0.013-.013,1.185-.395a18.393,18.393,0,0,0-.721-1.77m24.1-4.876q0.579-.917,1.249-1.821a19.427,19.427,0,0,0-12.307-4.851,2.253,2.253,0,0,0-.245-0.013h-0.927a2.253,2.253,0,0,0-.245.013,19.427,19.427,0,0,0-12.307,4.851q0.671,0.9,1.249,1.821l1.2-1.146,0.039,0.013a1.478,1.478,0,0,1,1.493.407,2.054,2.054,0,0,1,.142,2.126v0.051L395.826,28.4a27.016,27.016,0,0,1,1.352,3l1.584-.535,0.064-.013a1.609,1.609,0,0,1,1.8.815,1.747,1.747,0,0,1-.656,1.973v0.013l-1.906.586a20.8,20.8,0,0,1,.528,3.272h1.571a1.5,1.5,0,0,1,1.3,1.311,1.229,1.229,0,0,1,0,.357,1.5,1.5,0,0,1-1.3,1.311h-1.571a20.8,20.8,0,0,1-.528,3.272l1.906,0.586v0.013a1.747,1.747,0,0,1,.656,1.974,1.609,1.609,0,0,1-1.8.815l-0.064-.013-1.584-.535a27.016,27.016,0,0,1-1.352,3l1.275,1.261v0.051a2.054,2.054,0,0,1-.142,2.126,1.478,1.478,0,0,1-1.493.407l-0.039.013-1.2-1.146q-0.579.917-1.249,1.821A19.427,19.427,0,0,0,405.288,59a2.254,2.254,0,0,0,.245.013h0.927A2.254,2.254,0,0,0,406.705,59a19.427,19.427,0,0,0,12.307-4.851q-0.671-.9-1.249-1.821l-1.2,1.146-0.039-.013a1.478,1.478,0,0,1-1.493-.407,2.054,2.054,0,0,1-.142-2.126V50.875l1.275-1.261a27.016,27.016,0,0,1-1.352-3l-1.584.535-0.064.013a1.609,1.609,0,0,1-1.8-.815,1.747,1.747,0,0,1,.656-1.974V44.356l1.906-.586A20.682,20.682,0,0,1,413.4,40.5h-1.571a1.478,1.478,0,0,1-1.287-1.311,0.624,0.624,0,0,1,0-.357,1.478,1.478,0,0,1,1.287-1.311H413.4a20.683,20.683,0,0,1,.528-3.272l-1.906-.586V33.649a1.747,1.747,0,0,1-.656-1.973,1.609,1.609,0,0,1,1.8-.815l0.064,0.013,1.584,0.535a27.016,27.016,0,0,1,1.352-3l-1.275-1.261V27.092a2.054,2.054,0,0,1,.142-2.126,1.478,1.478,0,0,1,1.493-.407l0.039-.013,1.2,1.146m1.558,5.87-0.992-.993a18.393,18.393,0,0,0-.721,1.77l1.185,0.395-0.013.013a1.83,1.83,0,0,1,.8,1.63,1.465,1.465,0,0,1-1.622,1.12H417.93l-1.133-.356a19.428,19.428,0,0,0-.36,2.381h1.48a1.831,1.831,0,0,1,1.223,1.426,0.162,0.162,0,0,1,0,.127,1.831,1.831,0,0,1-1.223,1.426h-1.48a19.423,19.423,0,0,0,.36,2.381l1.133-.357h0.026a1.466,1.466,0,0,1,1.622,1.121,1.83,1.83,0,0,1-.8,1.63l0.013,0.013-1.185.395a18.406,18.406,0,0,0,.721,1.77l0.992-.993a2.081,2.081,0,0,1,1.892.535,1.963,1.963,0,0,1-.193,2.215l-1.172,1.12q0.541,0.917,1.172,1.833A18.961,18.961,0,0,0,426,39.085V38.932a18.961,18.961,0,0,0-4.982-13.076q-0.631.917-1.172,1.833l1.172,1.12a1.963,1.963,0,0,1,.193,2.215A2.082,2.082,0,0,1,419.321,31.561Z" transform="translate(-386 -19)"/>
</svg>
