
<svg xmlns="http://www.w3.org/2000/svg" viewBox="0 0 70 70">
  <defs>
    <style>
      .cls-1 {
        fill: #FFCC00;
        fill-rule: evenodd;
      }
    </style>
  </defs>
  <path class="cls-1" d="M1234,306.977a41.263,41.263,0,0,0-.25-4.582c-0.1-.643-0.19-1.252-0.29-1.826a33.641,33.641,0,0,0-9.7-18.33,41.473,41.473,0,0,0-4.48-3.831c-0.67-.5-1.33-0.955-2-1.361a35.586,35.586,0,0,0-36.42-.072l-0.5.287c-0.67.429-1.33,0.9-2,1.4a37.477,37.477,0,0,0-4.12,3.579,35.277,35.277,0,0,0-6.48,8.772,19.153,19.153,0,0,0-.89,1.9,32.952,32.952,0,0,0-2.69,10.777,14.4,14.4,0,0,0-.14,1.968q-0.03.681-.03,1.325a34.408,34.408,0,0,0,2.21,12.458,32.27,32.27,0,0,0,1.33,3.149,35.969,35.969,0,0,0,6.7,9.1,36.869,36.869,0,0,0,5.76,4.8c0.53,0.334,1.07.68,1.65,1.037a35.247,35.247,0,0,0,42.1-5.836l1.15-1.146c0.38-.429.74-0.847,1.07-1.253a33.436,33.436,0,0,0,8.02-22.308m-1.23-6.3c0.1,0.574.19,1.17,0.29,1.79q-37.02-8.736-60.44-.859a50.717,50.717,0,0,0,.72,8.342,9.575,9.575,0,0,1,1.54-.322q5.715-.176,16.22,6.336,21.69,14.25,34.33,12.889c-0.33.406-.68,0.814-1.03,1.225a24.02,24.02,0,0,1-10.39-.86q-11.34-2.9-27.03-13.317a22.211,22.211,0,0,0-11.6-4.153,9.615,9.615,0,0,0-1.72.143q0.615,3.044,1.54,6.265a85.9,85.9,0,0,0,5.01,11.815c0.05,0.094.1,0.19,0.15,0.287q3.315,5.727,1.61,6.658c-0.55-.334-1.09-0.668-1.61-1q1.32-.035-1.58-5.948a87.2,87.2,0,0,1-5.01-11.815q-0.9-3.079-1.47-5.978-5.655,1.719-4.15,10.1a28.783,28.783,0,0,1-1.33-3.079q-0.39-6.767,5.12-8.807a52.11,52.11,0,0,1-.79-8.27c-0.43.144-.84,0.3-1.25,0.466a16.287,16.287,0,0,0-5.19,3.114,15.615,15.615,0,0,1,.11-1.933,16.951,16.951,0,0,1,4.94-2.908c0.46-.191.93-0.358,1.4-0.5a37.69,37.69,0,0,1,1.01-7.842,7.527,7.527,0,0,1-4.69.644c0.26-.62.56-1.241,0.89-1.861a6.693,6.693,0,0,0,4.26-.609,32.108,32.108,0,0,1,6.13-11.492c0.64-.478,1.3-0.931,1.96-1.362a35.7,35.7,0,0,0-6.47,12.208,100.471,100.471,0,0,0,12.1-6.873q16.515-10.848,30.58-5.55c0.65,0.406,1.3.848,1.97,1.325q-13.92-6.194-32.98,6.086a89.664,89.664,0,0,1-12.17,6.839,38.726,38.726,0,0,0-1.07,7.948q23.355-7.806,60.1.864h-0.01Z" transform="translate(-1164 -272)"/>
</svg>
