<svg xmlns="http://www.w3.org/2000/svg" width="30" height="40" viewBox="0 0 30 40">
  <defs>
    <style>
      .cls-1 {
        fill: #ffffff;
        fill-rule: evenodd;
      }
    </style>
  </defs>
  <path class="cls-1" d="M1460.69,49.591c-0.14.521-1.64,0.88-4.49,1.075a51.763,51.763,0,0,1-8.42-.1q-4.14-.4-5.14-1.383l0.72,7.06q1.26,2.631,8.56,2.752c4.85,0.075,7.78-.89,8.77-2.895V49.591m-19.55-20.225a10.384,10.384,0,0,0,.08-1.256,1.973,1.973,0,0,0-.16-0.744,3.442,3.442,0,0,0-.36-0.579,0.787,0.787,0,0,0-.26-0.18,2.15,2.15,0,0,0-.93-0.173,3.469,3.469,0,0,0-2.06.835,6.594,6.594,0,0,0-1.26,1.466,8.411,8.411,0,0,0-.81,1.767,8.244,8.244,0,0,0-.34,1.6,10.371,10.371,0,0,0-.04,1.669,7.5,7.5,0,0,0,.3,1.744,13.42,13.42,0,0,0,.65,1.8c0.19,0.421.39,0.84,0.59,1.256,0.11,0.211.22,0.421,0.34,0.632l4.09,7.067c0.09,0.065.17,0.13,0.26,0.2s0.18,0.113.27,0.173c0.09,0.045.18,0.1,0.28,0.15l0.3,0.135c0.1,0.04.21,0.078,0.32,0.113,0.22,0.075.44,0.143,0.67,0.2,0.11,0.025.23,0.048,0.35,0.068a5.018,5.018,0,0,0-.32-1.075,5.18,5.18,0,0,0-.51-0.992q-0.3-.459-0.6-0.925c-0.18-.3-0.35-0.6-0.52-0.91s-0.34-.587-0.49-0.887c-0.29-.561-0.56-1.128-0.82-1.7-0.24-.531-0.45-1.07-0.64-1.616a13.566,13.566,0,0,1-.44-1.5,11.832,11.832,0,0,1-.24-1.429,9.761,9.761,0,0,1-.05-1.323,3.306,3.306,0,0,1,.28-1.2,5.715,5.715,0,0,1,.66-1.12,8.378,8.378,0,0,0,.91-1.489,5.838,5.838,0,0,0,.5-1.774m23.31,4.429c0.14-1.323.26-2.644,0.35-3.962a2.494,2.494,0,0,0-1.29-2.4,1.918,1.918,0,0,0-1.91-.143c-1.31.541-2.64,1.048-3.98,1.519a16.7,16.7,0,0,1-6.72.895,20.714,20.714,0,0,1-5.18-.707,14.1,14.1,0,0,1-3.32-1.226,5.761,5.761,0,0,1,.09,2.015,5.043,5.043,0,0,1-.82,2.481,14.381,14.381,0,0,0-1.34,2.549,5.264,5.264,0,0,0,.07,3.707,23.2,23.2,0,0,0,1.68,3.97q1.065,1.955,3.17,5.068l-1.81.692a0.856,0.856,0,0,0,.28.241,6.46,6.46,0,0,0,2.04.654,26.271,26.271,0,0,0,4.13.248c-0.08-.506-0.14-0.877-0.19-1.113a13.306,13.306,0,0,1-.04-5.789,3.644,3.644,0,0,1,2.2-2.564,1.1,1.1,0,0,1,.82-0.045,2.878,2.878,0,0,1,2.06,2.165,14.5,14.5,0,0,1,.39,3.338,31.085,31.085,0,0,1-.2,3.767,18.753,18.753,0,0,0,2.75-.038,8.583,8.583,0,0,0,2.3-.474,1.636,1.636,0,0,0,.99-0.7,0.986,0.986,0,0,0-.31-1.023l2.26-5.624c0.29-.912.53-1.83,0.74-2.752a41.3,41.3,0,0,0,.79-4.752m0.52-8.135a4.9,4.9,0,0,0-1.65-4.368,5.922,5.922,0,0,0-3-1.526,33.863,33.863,0,0,0-5.13-.684,28.449,28.449,0,0,0-5.19.083,26.9,26.9,0,0,0-5.71,1.241c-1.87.617-2.86,1.724-2.99,3.323q-0.18,2.444,2.59,3.564a16.727,16.727,0,0,0,5.51,1.218,19.828,19.828,0,0,0,6.1-.459,20.1,20.1,0,0,0,4.22-1.632,5.084,5.084,0,0,1,3.74-.519,2.215,2.215,0,0,1,1.41.97Z" transform="translate(-1435 -19)"/>
</svg>
