<svg xmlns="http://www.w3.org/2000/svg" width="32.56" height="40" viewBox="0 0 32.56 40">
  <defs>
    <style>
      .cls-1 {
        fill: #ffffff;
        fill-rule: evenodd;
      }
    </style>
  </defs>
  <path class="cls-1" d="M1561.67,30.867a1.426,1.426,0,0,0-1.55,1.684V58.992h4.73V32.551a1.426,1.426,0,0,0-1.55-1.684h-1.63m-9.64.368-1.62.155a1.423,1.423,0,0,0-1.38,1.839l2.58,25.764h4.76l-2.63-26.248a1.423,1.423,0,0,0-1.71-1.51m7.57-4.1a0.643,0.643,0,0,0,.29-0.774l1.57-.426a0.765,0.765,0,0,0,.19-0.232,0.737,0.737,0,0,0,.08-0.581,0.854,0.854,0,0,0-.37-0.5,0.752,0.752,0,0,0-.25-0.077l-1.57.426a0.742,0.742,0,0,0-.81-0.484l-5.15,1.394a0.7,0.7,0,0,0-.44.794l-1.59.426a0.937,0.937,0,0,0-.18.194,0.791,0.791,0,0,0-.05.619,0.7,0.7,0,0,0,.36.484,0.682,0.682,0,0,0,.29.1l1.57-.407a0.664,0.664,0,0,0,.64.5l5.42-1.452m19.14,7.414a1.425,1.425,0,0,0-1.91,1.239l-6.21,23.209h4.89l5.89-21.97a1.457,1.457,0,0,0-1.07-2.052l-1.59-.426m-6.71-10.162a5.989,5.989,0,0,0-1.47.174,0.222,0.222,0,0,1-.02.077h-0.02a5.948,5.948,0,0,0,.17,8.188c0.12,0.116.23,0.226,0.35,0.329a5.676,5.676,0,0,0,3.85,1.413,4.882,4.882,0,0,0,.62-0.039h0.02a0.182,0.182,0,0,1,.08.019c0.14-.129.29-0.264,0.44-0.407a5.687,5.687,0,0,0,0-8.091,5.478,5.478,0,0,0-4.02-1.665m-3.54,1.219a5.243,5.243,0,0,0-.51.445,5.723,5.723,0,0,0,6.08,9.388H1574a6.266,6.266,0,0,1-4.18-1.51l-0.02-.019c-0.13-.116-0.25-0.239-0.37-0.368a6.458,6.458,0,0,1-.94-7.936m1.47-.852a4.182,4.182,0,0,0-.7.329,0.182,0.182,0,0,1-.04.116,5.832,5.832,0,0,0-1.31,3.794,5.908,5.908,0,0,0,1.78,4.317c0.11,0.116.23,0.226,0.34,0.329a5.907,5.907,0,0,0,3.97,1.452,6.46,6.46,0,0,0,.72-0.039,0.112,0.112,0,0,1,.11.019c0.08-.052.17-0.1,0.26-0.155h-0.2a5.961,5.961,0,0,1-4.06-1.51,3.817,3.817,0,0,1-.39-0.329,6.109,6.109,0,0,1-1.82-4.452,6.011,6.011,0,0,1,1.34-3.871m10.74,0.426a0.842,0.842,0,0,0,.31-0.019,0.736,0.736,0,0,0,.48-0.368,0.792,0.792,0,0,0,.08-0.6,0.629,0.629,0,0,0-.12-0.252l-1.41-.813a0.769,0.769,0,0,0-.23-0.91l-4.61-2.652a0.765,0.765,0,0,0-.91.252L1572.88,19a0.561,0.561,0,0,0-.25.019,0.8,0.8,0,0,0-.49.387,0.671,0.671,0,0,0-.07.581,0.419,0.419,0,0,0,.13.271l1.4,0.832a0.686,0.686,0,0,0,.07.813l4.86,2.787a0.652,0.652,0,0,0,.76-0.329Z" transform="translate(-1549.03 -19)"/>
</svg>
