<svg xmlns="http://www.w3.org/2000/svg" width="45.65" height="40" viewBox="0 0 45.65 40">
  <defs>
    <style>
      .cls-1 {
        fill: #FFCC00;
        fill-rule: evenodd;
      }
    </style>
  </defs>
  <path class="cls-1" d="M1668.14,41.073a8.975,8.975,0,0,0-6.35,15.312A8.972,8.972,0,1,0,1674.48,43.7a8.633,8.633,0,0,0-6.34-2.625m-6.9,8.975a6.909,6.909,0,1,1,2.02,4.877,6.658,6.658,0,0,1-2.02-4.877m34.6-8.975a8.968,8.968,0,0,0-6.34,15.312A8.969,8.969,0,1,0,1702.18,43.7a8.633,8.633,0,0,0-6.34-2.625m-6.9,8.975a6.894,6.894,0,0,1,6.91-6.9,6.9,6.9,0,0,1,4.87,11.781,6.9,6.9,0,0,1-11.78-4.877m0.67-14.921a2.252,2.252,0,0,0,1.76,1.13h7.43q2.22,0.031,2.22-1.9a1.762,1.762,0,0,0-2.16-1.535l-6.7-.044-4.67-7.177q-2.1-2.6-5.71-.607a1.082,1.082,0,0,1-.11.062l-8.61,6.469q-2.925,3.588.08,6.522c0.01,0.012.03,0.023,0.04,0.035l7.44,4.622v0.044l-0.98,8.276q-0.135,2.146,1.62,2.6,2.055,0.317,2.55-2.348l1.42-8.931a2.755,2.755,0,0,0-1.31-3.474l-4.7-2.775,6.94-5.035a0.651,0.651,0,0,1,.61.273l2.84,3.791m7.99-11.908A4.209,4.209,0,0,0,1693.38,19a4.968,4.968,0,0,0-.59.035h-9.09l6.69,7.172A4.22,4.22,0,0,0,1697.6,23.219Z" transform="translate(-1659.16 -19)"/>
</svg>
