<svg xmlns="http://www.w3.org/2000/svg" width="40" height="40" viewBox="0 0 40 40">
  <defs>
    <style>
      .cls-1 {
        fill: #FFCC00;
        fill-rule: evenodd;
      }
    </style>
  </defs>
  <path class="cls-1" d="M1814.86,57.577a2.305,2.305,0,0,0,.08.652,2.509,2.509,0,0,0,.35.767H1818V55.1q-0.15-.026-0.3-0.038a1.464,1.464,0,0,0-.25-0.019h-0.06a2.686,2.686,0,0,0-.96.211,2.325,2.325,0,0,0-.69.441,0.786,0.786,0,0,0-.12.1,2.624,2.624,0,0,0-.55.748,2.519,2.519,0,0,0-.19.882,0.406,0.406,0,0,0-.02.153m-21.14-2.895a22.491,22.491,0,0,0-.18,2.876c0,0.485.02,0.964,0.04,1.438h2.56c-0.03-.48-0.04-0.965-0.04-1.457a20.214,20.214,0,0,1,.15-2.492l-2.53-.364m-11.22-1.63c-0.01.018-.01,0.037-0.02,0.057l11.24,1.572c0.01-.043.01-0.088,0.02-0.134V54.51a21.648,21.648,0,0,1,2.08-7.094l-10.2-4.889a31.459,31.459,0,0,0-3.12,10.525m15.66-4.525v0.019a19.053,19.053,0,0,0-1.89,6.25v0.038a1.34,1.34,0,0,0-.02.211l15.59,2.186a5.352,5.352,0,0,1,.47-1.917l-14.15-6.787m4.12-5.656V42.854l-1.85-1.706c-0.02.039-.05,0.077-0.07,0.115h-0.04a23.3,23.3,0,0,0-4.46,6.077v0.038a0.078,0.078,0,0,1-.04.038l2.34,1.112a0.617,0.617,0,0,1,.04-0.1V48.413a20.272,20.272,0,0,1,3.96-5.426l0.02-.019a0.4,0.4,0,0,1,.1-0.1m-9.74-9.682c-0.1.106-.22,0.214-0.33,0.326l8.22,7.63,0.12-.134a24.94,24.94,0,0,1,6.14-4.41h0.02a0.464,0.464,0,0,0,.1-0.057l-5.2-9.873a0.058,0.058,0,0,1-.02.019,35.81,35.81,0,0,0-9.05,6.5m21.18,20.284a6.1,6.1,0,0,1,1.51-.959l-7.26-13.746a0.256,0.256,0,0,1-.1.058,21.242,21.242,0,0,0-5.49,3.93c-0.04.036-.07,0.068-0.1,0.1l11.44,10.621M1818,36.642h-0.49a21.008,21.008,0,0,0-2.69.172l2.51,15.28h0.14c0.18,0,.35.006,0.53,0.019V36.642m-3.57-2.3c-0.08.016-.15,0.029-0.22,0.038h-0.06a23.273,23.273,0,0,0-7.34,2.166l1.16,2.224h0.02a20.585,20.585,0,0,1,6.53-1.936h0.06a1.344,1.344,0,0,1,.24-0.019h0l-0.39-2.473m3.06-11.235a40.862,40.862,0,0,0-4.87.288l1.81,10.947a26.743,26.743,0,0,1,3.06-.173H1818V23.107h-0.51M1818,19h-0.51a43.226,43.226,0,0,0-5.52.345,37.416,37.416,0,0,0-12.28,3.681,39.818,39.818,0,0,0-10.11,7.266c-0.13.128-.27,0.262-0.41,0.4h0a37.965,37.965,0,0,0-7.32,10.027h0a35.073,35.073,0,0,0-3.53,11.791,39.935,39.935,0,0,0-.32,5.061c0,0.473.01,0.946,0.02,1.419h4.2c-0.01-.476-0.02-0.955-0.02-1.438a33.933,33.933,0,0,1,.28-4.448l-3.38-.479V52.612a34.36,34.36,0,0,1,3.45-11.541V41.051l3.07,1.476a0.089,0.089,0,0,0,.02-0.019,34.19,34.19,0,0,1,6.55-8.953,0.058,0.058,0,0,0,.02-0.038l-2.47-2.281,0.02-.019c0.12-.131.25-0.259,0.37-0.383a38.985,38.985,0,0,1,9.91-7.113h0l1.57,2.953a33.811,33.811,0,0,1,10.95-3.259,0.1,0.1,0,0,0,.06-0.019l-0.53-3.278a42.01,42.01,0,0,1,5.4-.345H1818V19Z" transform="translate(-1778 -19)"/>
</svg>
