<svg xmlns="http://www.w3.org/2000/svg" width="40" height="40" viewBox="0 0 40 40">
  <defs>
    <style>
      .cls-1 {
        fill: #ffffff;
        fill-rule: evenodd;
      }
    </style>
  </defs>
  <path class="cls-1" d="M637.263,19.04H638.5a0.019,0.019,0,0,1,.022-0.022H638.5A0.019,0.019,0,0,0,638.477,19H638a4.185,4.185,0,0,0-.737.022h-0.021V19.04h0.021Zm0.044,0q0.281,0.108.563,0.238a5.054,5.054,0,0,1,.563-0.238h-1.126m13.843,5a0.422,0.422,0,0,1-.022-0.13,18.923,18.923,0,0,0-9.878-4.658,0.412,0.412,0,0,1-.13.022,6.506,6.506,0,0,0-1.517.087,5.344,5.344,0,0,0-1.43.455v2.4a18.768,18.768,0,0,1,6.889,4.181,15.574,15.574,0,0,1,6.218.39,5.705,5.705,0,0,0-.065-2.47,1.651,1.651,0,0,1-.065-0.282m4.788,10.139a9.036,9.036,0,0,1,1.6.325,19.28,19.28,0,0,0-5.394-9.64,1.894,1.894,0,0,0-.239-0.238,6.468,6.468,0,0,1-.086,2.578,0.2,0.2,0,0,1,.108.108l4.008,6.867m-0.433.477a0.019,0.019,0,0,1-.022-0.022l-4.095-7.019a0.346,0.346,0,0,1-.043-0.152,14.78,14.78,0,0,0-6.174-.433l-2.643,6.434A32.619,32.619,0,0,1,646.8,40.9H646.9l6.153,0.238a15.237,15.237,0,0,0,2.448-6.478m-1.972,13.908,1.82,0.477A19.309,19.309,0,0,0,658,39.015a21.63,21.63,0,0,0-.325-3.813,0.267,0.267,0,0,0-.152-0.043,8.393,8.393,0,0,0-1.43-.3,15.44,15.44,0,0,1-2.513,6.629,13.064,13.064,0,0,1-.043,7.084M639.82,32.905l0.086,0.022h0.109a15.021,15.021,0,0,1,1.95.238l2.621-6.348a17.792,17.792,0,0,0-6.716-4.051,18.169,18.169,0,0,0-6.716,4.051l2.6,6.348a15.656,15.656,0,0,1,1.971-.238h0.109a0.06,0.06,0,0,1,.043-0.022q0.932-.065,1.993-0.043,0.932,0,1.95.043m-6,15.533a15.556,15.556,0,0,0,2.946.347l1.105,0.043,1.105-.043a15.478,15.478,0,0,0,2.925-.347,33.612,33.612,0,0,0,4.354-7.236,32.15,32.15,0,0,0-4.268-7.409,16.474,16.474,0,0,0-2.036-.238h-0.044l-0.086-.022q-1.041-.043-1.95-0.043-1.039-.022-1.95.043h-0.043a0.089,0.089,0,0,1-.065.022h-0.043a15.761,15.761,0,0,0-2.015.238,31.164,31.164,0,0,0-4.268,7.409,33.048,33.048,0,0,0,4.333,7.236m12.738,4.29a0.313,0.313,0,0,1,.087.152,0.275,0.275,0,0,1,.108-0.065,13.588,13.588,0,0,0,6.131-4.224,12.257,12.257,0,0,0,.109-6.824l-6.11-.26H646.8a34.12,34.12,0,0,1-4.29,7.193,0.019,0.019,0,0,1,.022.022l4.029,4.008m-1.993,3.055a7.222,7.222,0,0,0,1.3-1.776,4.017,4.017,0,0,0,.347-0.758,0.137,0.137,0,0,1-.087-0.065l-4.03-4.008c-0.028-.043-0.05-0.079-0.065-0.108a19.592,19.592,0,0,1-3.032.347l-1.127.043-1.148-.043a19.513,19.513,0,0,1-3.012-.347,1.1,1.1,0,0,1-.064.108l-4.03,4.008a0.337,0.337,0,0,1-.087.065,7.024,7.024,0,0,0,.932,1.668,9.694,9.694,0,0,0,1.646,1.712,8.438,8.438,0,0,0,1.344.91,1.35,1.35,0,0,0,.151.087,1.953,1.953,0,0,0,.433.173,0.28,0.28,0,0,0,.065.043,14.281,14.281,0,0,0,2.059.368,15.957,15.957,0,0,0,1.668.043h0.086a12.275,12.275,0,0,0,2.188-.108h0.022a7.442,7.442,0,0,0,1.365-.3,6.113,6.113,0,0,0,.65-0.26V57.6a0.274,0.274,0,0,1,.108-0.065,6.289,6.289,0,0,0,.672-0.39,13.366,13.366,0,0,0,1.646-1.365m-1.3,1.885c-0.1.072-.209,0.144-0.325,0.217l0.369,0.2a0.062,0.062,0,0,1,.043.022l0.3,0.152a19.541,19.541,0,0,0,8.493-5.113,20.458,20.458,0,0,0,2.881-3.531l-1.8-.477a14.031,14.031,0,0,1-6.283,4.268,0.406,0.406,0,0,1-.13.022,8.309,8.309,0,0,1-.411.91V54.309A7.946,7.946,0,0,1,645,56.216a10.987,10.987,0,0,1-1.733,1.452m-0.368.78V58.426l-0.563-.238a7.258,7.258,0,0,1-2.145.563,11.3,11.3,0,0,1-2.318.108h-0.022q-0.865.022-1.733-.022a12.2,12.2,0,0,1-2.188-.412h-0.022q-0.3-.108-0.584-0.238l-0.39.2A19.975,19.975,0,0,0,638,59.01a20.67,20.67,0,0,0,4.9-.563M624.547,24.218a4.062,4.062,0,0,0-.109.455,5.516,5.516,0,0,0,.022,2.123,15.536,15.536,0,0,1,6.218-.39,18.561,18.561,0,0,1,6.867-4.181v-2.4a5.233,5.233,0,0,0-1.343-.433,6.243,6.243,0,0,0-1.582-.108h-0.043a19,19,0,0,0-10.03,4.939m-4.2,10.247a0.382,0.382,0,0,1-.109.108,14.977,14.977,0,0,0,2.427,6.564l6.152-.238h0.109a32.173,32.173,0,0,1,4.289-7.431l-2.643-6.434a14.78,14.78,0,0,0-6.174.433,0.36,0.36,0,0,1-.043.152l-4.008,6.846m-1.842-.043a8.6,8.6,0,0,1,1.062-.2,0.213,0.213,0,0,1,.2.043,0.527,0.527,0,0,1,.065-0.13l3.986-6.824a0.2,0.2,0,0,1,.087-0.108,6.46,6.46,0,0,1-.13-2.231,19.2,19.2,0,0,0-5.265,9.446m4.225,7.409a12.151,12.151,0,0,0,.13,6.759,13.609,13.609,0,0,0,6.109,4.224,0.552,0.552,0,0,1,.13.065,0.313,0.313,0,0,1,.087-0.152l4.029-4.008a0.019,0.019,0,0,1,.022-0.022,33.508,33.508,0,0,1-4.311-7.193h-0.087l-6.109.26v0.065m-0.238,7.3-1.517.412a19.8,19.8,0,0,0,2.9,3.6,19.417,19.417,0,0,0,8.319,5.048l0.585-.3a9.422,9.422,0,0,1-1.062-.758,10.562,10.562,0,0,1-1.754-1.841,7.853,7.853,0,0,1-1.04-1.863,0.639,0.639,0,0,1-.152-0.022,14.18,14.18,0,0,1-6.282-4.268m-1.864-.152,1.56-.412a12.9,12.9,0,0,1-.086-6.889,0.483,0.483,0,0,1,.086-0.13,15.86,15.86,0,0,1-2.556-6.694,7.1,7.1,0,0,0-1.105.217,0.27,0.27,0,0,0-.152.043,20.114,20.114,0,0,0-.368,3.9A19.239,19.239,0,0,0,620.625,48.98Z" transform="translate(-618 -19)"/>
</svg>
