<svg xmlns="http://www.w3.org/2000/svg" width="40" height="40" viewBox="0 0 40 40">
  <defs>
    <style>
      .cls-1 {
        fill: #ffffff;
        fill-rule: evenodd;
      }
    </style>
  </defs>
  <path class="cls-1" d="M761.8,57.653l1.517-.788-1.215.292-0.3.5m10.166-9.707a18.184,18.184,0,0,0,.989-2.358,3.587,3.587,0,0,1-1.165.5,8.354,8.354,0,0,1,.176,1.863m-0.982,1.729a7.625,7.625,0,0,0,.025-3.585l-3.588-1.964a22.066,22.066,0,0,1-6.54,3.992,17.8,17.8,0,0,1-2.165,6.026,12.61,12.61,0,0,0,3.26,2.371l2.846-.591a21.529,21.529,0,0,0,6.162-6.249m-26.319,7.19,1.517,0.788-0.3-.5-1.215-.292m-8.454-10.782a3.573,3.573,0,0,1-1.164-.5,18.092,18.092,0,0,0,.982,2.365,8.652,8.652,0,0,1,.182-1.869m9.808,10.432a12.714,12.714,0,0,0,3.267-2.371,17.685,17.685,0,0,1-2.172-6.026,22.171,22.171,0,0,1-6.54-3.992l-3.588,1.964a7.73,7.73,0,0,0,.025,3.585,21.669,21.669,0,0,0,6.169,6.249l2.839,0.591m7.17-1.3a23.711,23.711,0,0,1-3.444-.464,14.109,14.109,0,0,1-3.109,2.308l0.629,0.884A19.712,19.712,0,0,0,753.4,59a0.425,0.425,0,0,1,.076-0.006h0c0.139,0,.276.006,0.409,0.006h0.239c0.133,0,.266,0,0.4-0.006h0.012a0.321,0.321,0,0,1,.07.006,19.719,19.719,0,0,0,6.131-1.055l0.629-.884a14.111,14.111,0,0,1-3.109-2.308,23.7,23.7,0,0,1-3.437.464,0.408,0.408,0,0,1-.145.026h-1.335a0.383,0.383,0,0,1-.144-0.026m-5.338-7.247a0.1,0.1,0,0,1,.006.032q0.285,1.366.636,2.517,0.25,0.8.541,1.494h0a10.949,10.949,0,0,0,1.013,1.913,0.148,0.148,0,0,1,.019.019,0.342,0.342,0,0,1,.044.108,17.955,17.955,0,0,0,7.775,0,0.535,0.535,0,0,1,.05-0.108,0.2,0.2,0,0,1,.025-0.025,10.734,10.734,0,0,0,.774-1.392,16.552,16.552,0,0,0,.888-2.4q0.288-.991.516-2.13l0.013-.032L754,44.481l-6.15,3.49M740.675,35.3a28.5,28.5,0,0,0,.233,8.105,21.494,21.494,0,0,0,6.4,3.967,0.08,0.08,0,0,0,.031-0.006h-0.006l0.05-.006,6.169-3.5,0.013-.006a0.108,0.108,0,0,0,0-.026,0.077,0.077,0,0,0,.013-0.019,0.327,0.327,0,0,1,.018-0.032V35.517l-6.565-3.84a0.027,0.027,0,0,1-.013.013,0.005,0.005,0,0,1-.006,0,33.722,33.722,0,0,0-6.333,3.611m-4.022-2.111a9.158,9.158,0,0,0-2.512,3.325A22,22,0,0,0,734,39a20.813,20.813,0,0,0,.642,5.232,3.325,3.325,0,0,0,1.964,1.157l0.038,0.006-0.013.019,3.519-1.926a29.191,29.191,0,0,1-.239-8.22l-3.261-2.079M734.487,34.4a10.231,10.231,0,0,1,1.8-1.888V32.51a13.649,13.649,0,0,1,1.032-4.66,18.8,18.8,0,0,0-2.833,6.554m12.162-3.382,2.537-6.351L745.755,22.1a18.153,18.153,0,0,0-6.672,3.859,0.222,0.222,0,0,1-.013.032L739.064,26a14.371,14.371,0,0,0-2.021,6.529l3.267,2.092a34.779,34.779,0,0,1,6.339-3.6m-0.913-9.714a6.529,6.529,0,0,1,.869-1.011,18.844,18.844,0,0,0-4.633,2.638,14.15,14.15,0,0,1,3.764-1.627m28.126,15.206a9.212,9.212,0,0,0-2.518-3.325l-3.254,2.079a29.058,29.058,0,0,1-.246,8.22l3.487,1.907a0.074,0.074,0,0,0,.026-0.006h0.037a3.325,3.325,0,0,0,1.964-1.157A21,21,0,0,0,773.994,39a23,23,0,0,0-.132-2.486m-2.153-4.005a10.128,10.128,0,0,1,1.8,1.894,18.716,18.716,0,0,0-2.839-6.554,13.543,13.543,0,0,1,1.038,4.66M761,31.7A0.018,0.018,0,0,1,761,31.69a0.059,0.059,0,0,1-.025-0.006h0l-6.559,3.833v8.258a0.054,0.054,0,0,0,.006.013,0.1,0.1,0,0,1,.019.044,0.059,0.059,0,0,1,.006.025l6.182,3.5a0.284,0.284,0,0,0,.044.006h0.006a0.05,0.05,0,0,0,.019.006,21.483,21.483,0,0,0,6.4-3.967,28.464,28.464,0,0,0,.233-8.105A33.594,33.594,0,0,0,761,31.7m-0.454-.648-2.524-6.306a22.923,22.923,0,0,0-4.016-.458H754a22.951,22.951,0,0,0-4.022.458l-2.518,6.306L754,34.875l6.546-3.827M755.1,23.5a0.374,0.374,0,0,1,.252.1,20.38,20.38,0,0,1,3.034.439h0.006l3.185-2.384a7.665,7.665,0,0,0-2.3-1.983,0.09,0.09,0,0,1-.051-0.026,0.573,0.573,0,0,1-.056-0.051A20.271,20.271,0,0,0,754.612,19a0.3,0.3,0,0,1-.113.006C754.333,19,754.167,19,754,19s-0.335,0-.5.006a0.36,0.36,0,0,1-.12-0.006,20.232,20.232,0,0,0-4.551.591,0.28,0.28,0,0,1-.069.057,0.009,0.009,0,0,1-.006.006,7.669,7.669,0,0,0-2.323,2l3.185,2.384h0a20.347,20.347,0,0,1,3.034-.439,0.373,0.373,0,0,1,.252-0.1q0.567,0,1.1.019H754q0.533-.019,1.1-0.019m6.3-3.2a6.4,6.4,0,0,1,.869,1.011,14.128,14.128,0,0,1,3.764,1.627,18.8,18.8,0,0,0-4.633-2.638m7.541,5.7-0.019-.038a18.087,18.087,0,0,0-6.672-3.859l-3.431,2.568,2.537,6.344a34.646,34.646,0,0,1,6.339,3.6l3.267-2.092a12.136,12.136,0,0,0-.453-2.842h0.006a15.685,15.685,0,0,0-.554-1.6A18.386,18.386,0,0,0,768.933,26Z" transform="translate(-734 -19)"/>
</svg>
