<svg xmlns="http://www.w3.org/2000/svg" width="42.56" height="40" viewBox="0 0 42.56 40">
  <defs>
    <style>
      .cls-1 {
        fill: #FFCC00;
        fill-rule: evenodd;
      }
    </style>
  </defs>
  <path class="cls-1" d="M2128.62,40.234a0.02,0.02,0,0,0-.01.02c-2.45,2.492-3.48,4.98-3.11,7.465,0,0.054.02,0.225,0.04,0.514v0.131a4.136,4.136,0,0,0,2.05.685l1.67-9.44a3.333,3.333,0,0,0-.64.625m-0.79-.544c0,0.007-.01.013-0.01,0.02q-3.57,3.738-3.03,7.465a2.04,2.04,0,0,0,.35.806,1.361,1.361,0,0,0-.05-0.2q-0.615-3.909,3.23-7.808a3.7,3.7,0,0,1,.91-0.836l-0.3-.373a3.389,3.389,0,0,0-1.1.927m10.32-1.128h-3.72a8.857,8.857,0,0,0-4.71.756l-1.73,9.732a59.574,59.574,0,0,0,18.81-4.342,0.1,0.1,0,0,1,.02-0.01,13.709,13.709,0,0,0,4.58-2.519l-1.13-6.145a34.947,34.947,0,0,1-12.12,2.529m1.05-.987c-0.44.04-.87,0.064-1.3,0.071h-3.7c-0.13-.007-0.26-0.01-0.38-0.01a11.275,11.275,0,0,0-2.96.292,12.121,12.121,0,0,0-1.66.574l0.39,0.433a12.54,12.54,0,0,1,1.51-.494,11.317,11.317,0,0,1,2.96-.292c0.13,0,.25,0,0.38.01h3.7c0.43-.007.86-0.03,1.3-0.071l0.42-.04c0.41-.04.82-0.077,1.24-0.111,0.65-.074,1.3-0.168,1.96-0.282,0.98-.154,1.95-0.349,2.9-0.584a23.58,23.58,0,0,0,3.19-1.028c0.2-.074.39-0.148,0.59-0.222l-1.12-.171a24.772,24.772,0,0,1-2.9.907q-1.425.353-2.91,0.584c-0.65.114-1.31,0.208-1.95,0.282-0.42.034-.84,0.071-1.24,0.111l-0.42.04m23.45,13.47c-0.03.833-.92,1.551-2.69,2.156-0.23.081-.47,0.158-0.71,0.232a23.962,23.962,0,0,1-11.46,0c-0.25-.074-0.5-0.151-0.73-0.232q-2.64-.907-2.67-2.156V55.92q0.03,1.249,2.67,2.156c0.16,0.054.34,0.111,0.53,0.171a23.608,23.608,0,0,0,11.85,0c0.18-.06.35-0.117,0.52-0.171,1.77-.6,2.66-1.323,2.69-2.156V51.044m0-.705V50.278c-0.03-.846-0.92-1.575-2.69-2.186a23.15,23.15,0,0,0-12.9,0q-2.64.917-2.67,2.186v0.061a0.874,0.874,0,0,0,.05.312c0.2,0.712,1.07,1.333,2.62,1.864a15.716,15.716,0,0,0,2.2.574,25.91,25.91,0,0,0,8.52,0,15.075,15.075,0,0,0,2.18-.574q2.325-.8,2.64-1.864a1.172,1.172,0,0,0,.05-0.312m-2.81-18.749L2167.29,19h-2.98l-7.44,11.656a14.469,14.469,0,0,1-6.23,5.209l1.11,6.024a40.23,40.23,0,0,0,8.09-10.3M2163.83,19h-1.16l-7.33,11.112a14.325,14.325,0,0,1-6.09,5.229l1.15,0.2a14.248,14.248,0,0,0,6.13-5.108Z" transform="translate(-2124.72 -19)"/>
</svg>
