<svg xmlns="http://www.w3.org/2000/svg" width="31" height="39.969" viewBox="0 0 31 39.969">
  <defs>
    <style>
      .cls-1 {
        fill: #FFCC00;
        fill-rule: evenodd;
      }
    </style>
  </defs>
  <path class="cls-1" d="M2265.82,58.593a3.289,3.289,0,0,0,2.02-2.458l0.48-8.14-3.82,2.334-1.04,8.615a16.474,16.474,0,0,0,2.36-.351m-12.19-3.409a8.15,8.15,0,0,0,1.01,1.136,11.736,11.736,0,0,0,6.66,2.644c0.42,0.027.86,0.034,1.3,0.021l0.72-8.491a17.884,17.884,0,0,1-11.53-4.793l0.75,7.024a6.878,6.878,0,0,0,1.09,2.458m4.92,1.859-2.34-2.252-1.51.578,0.38-2.169-1.51-2.087,1.98,0.764,1.1-2.252a25.893,25.893,0,0,0,.43,2.851l2.29,0.909-1.86.909a16.84,16.84,0,0,0,1.04,2.748m3.57-9.937c-0.91-.234-1.8-0.5-2.66-0.806a26.731,26.731,0,0,1-10.27-6.508,21.13,21.13,0,0,0,2.56,3.884,16.228,16.228,0,0,0,2.09,2.087q5.085,3.14,9,3.285l-0.72-1.942m1.63-26.816a3.634,3.634,0,0,1,1.43,1.529l1.34-.847a7.434,7.434,0,0,0-2.77-.682m4.57,1.281a2.08,2.08,0,0,1,1.69,1.632l0.48-.269,0.93,0.269,0.31-.744a2.681,2.681,0,0,0-1.3-.517,2.051,2.051,0,0,0-1.26-.6l-0.85.227m5.33,5.144a1.568,1.568,0,0,0-.04-0.372,0.331,0.331,0,0,1-.02-0.145,2.483,2.483,0,0,0-.48-0.888,2.8,2.8,0,0,0-.6-0.5,5.93,5.93,0,0,0-2.15-.764l-7.1,6.136a26.32,26.32,0,0,1,5.41-5.5q0.27-.207.54-0.392V23.72a2.555,2.555,0,0,0-1.99-1.777,0.3,0.3,0,0,0-.1-0.021,2.863,2.863,0,0,0-.54-0.124l-9.85,6.487a25.8,25.8,0,0,1,7.62-5.991,9.3,9.3,0,0,0-1.24-1.529,4.978,4.978,0,0,0-2.35-1.24l-8.31,5.723,0.44-.434a32.184,32.184,0,0,1,6.53-5.165,2.517,2.517,0,0,0-2.22-.62,9.164,9.164,0,0,0-2.21.5l-5.06,3.719a15.2,15.2,0,0,0-2.81,4.545q-1.815,4.938,1.63,9.958a25.945,25.945,0,0,0,11.95,7.086,10.747,10.747,0,0,0,1.17.269,9.535,9.535,0,0,1-.2-2.954,3.548,3.548,0,0,1,.06-0.475,12.393,12.393,0,0,1,3.99-7.024,24.874,24.874,0,0,0,3.22-3.677,6.523,6.523,0,0,1-2.03,3.677,12.373,12.373,0,0,0-3.98,7.024c-0.02.151-.03,0.31-0.04,0.475a9.226,9.226,0,0,0,.18,2.954l1.01,3.884,4.36-2.748a8.007,8.007,0,0,1,1.9-3.822l1.2-1.425a3.658,3.658,0,0,0,.31-0.785c0.33-1.432-.2-2.961-1.61-4.586l3.41-8.9m-1.3-2.851a0.88,0.88,0,0,1,.1.083l0.74,0.475a3.666,3.666,0,0,1,1.14,2.335l-3.02,8.863a5.441,5.441,0,0,1,1.1,3.967l1.94-2.107a2.414,2.414,0,0,0,.68-1.26l0.46-2.066a2.709,2.709,0,0,1,.49-1.384l1.04-1.983a2.271,2.271,0,0,0,.33-2.21,3.385,3.385,0,0,0-.33-0.558l-0.56-.95a5.809,5.809,0,0,1-.81-1.8l-0.51-2.748a1.321,1.321,0,0,0-.21-0.558,0.792,0.792,0,0,0-.27-0.289,1.125,1.125,0,0,0-.91-0.041c-0.08.027-.16,0.055-0.25,0.083A2.428,2.428,0,0,0,2272.35,23.865Z" transform="translate(-2246.5 -19.031)"/>
</svg>
