<svg xmlns="http://www.w3.org/2000/svg" width="43.562" height="40" viewBox="0 0 43.562 40">
  <defs>
    <style>
      .cls-1 {
        fill: #ffffff;
        fill-rule: evenodd;
      }
    </style>
  </defs>
  <path class="cls-1" d="M848.215,50.2a0.6,0.6,0,0,0,.019.1,0.186,0.186,0,0,0,.173.077l-0.192-.173m4.869-17.323v0.077l0.039-.116a0.166,0.166,0,0,1-.039.039m11.107-10.163a0.247,0.247,0,0,0-.1.019,0.047,0.047,0,0,1-.038.019,0.058,0.058,0,0,1-.019.038,0.277,0.277,0,0,0-.02.1q0.346-.173.174-0.173M884.5,19.694a0.148,0.148,0,0,1-.039,0H884.5m0.1,0.192a0.241,0.241,0,0,0-.135,0q-9.816-2.733-20.249,3a0.017,0.017,0,0,1-.019.019,39.587,39.587,0,0,0-10.914,10.028v0.019a25.331,25.331,0,0,0-4.908,17.035,0.082,0.082,0,0,1,0,.058,0.772,0.772,0,0,1,.019.116,0.017,0.017,0,0,0,.019.019,9.222,9.222,0,0,0,5.736,7.218q8.046,3.407,17.728-.462,11.74-5.216,16.823-14.86,5.409-10.433,1.347-18.036a9,9,0,0,0-5.447-4.158m-1.694.25q0.732,0.154,1.444.346a0.209,0.209,0,0,0,.1.019,8.412,8.412,0,0,1,5.062,3.83q3.869,7.353-1.366,17.458-4.986,9.47-16.5,14.571a0.018,0.018,0,0,0-.02.019q-9.411,3.753-17.227.462A8.722,8.722,0,0,1,849,50.106q-0.078-1-.077-1.963h0.058Q859.88,33.071,882.9,20.137m6.6,6.891a1.463,1.463,0,0,0-1.135-.654q-7.237-.52-19.307,7.7a25.863,25.863,0,0,0-2.1,1.655q-12.549,10.587-13.7,18.825a1.846,1.846,0,0,0,1.135,1.193q8.855,3.869,19.114-1.6a29.349,29.349,0,0,0,7.122-4.639q2.772-2.521,2.791-2.541l0.019-.019Q892.351,35.362,889.5,27.028Z" transform="translate(-848.219 -19)"/>
</svg>
