<svg xmlns="http://www.w3.org/2000/svg" width="44.32" height="40" viewBox="0 0 44.32 40">
  <defs>
    <style>
      .cls-1 {
        fill: #FFCC00;
        fill-rule: evenodd;
      }
    </style>
  </defs>
  <path class="cls-1" d="M2515.37,50.09c-0.02-.03-0.03-0.06-0.05-0.09l-16.08-27.922a0.717,0.717,0,0,0-.05-0.079,6.376,6.376,0,0,0-.98-1.27,5.735,5.735,0,0,0-3.99-1.742h-0.45a5.735,5.735,0,0,0-3.99,1.742,6.376,6.376,0,0,0-.98,1.27,0.234,0.234,0,0,0-.05.079L2472.67,50a0.4,0.4,0,0,0-.05.09,0.09,0.09,0,0,0-.02.045A5.967,5.967,0,0,0,2477.81,59h32.37a5.945,5.945,0,0,0,5.96-5.957,5.828,5.828,0,0,0-.74-2.911l-0.03-.045m-1.27.382a0.09,0.09,0,0,0,.02.045,4.841,4.841,0,0,1-4.24,7.194h-31.77a4.823,4.823,0,0,1-4.84-4.834,4.6,4.6,0,0,1,.61-2.36,0.09,0.09,0,0,1,.02-0.045c0.01-.023.03-0.045,0.04-0.068L2489.85,22.9l0.03-.067a5.143,5.143,0,0,1,.8-1.023,4.681,4.681,0,0,1,3.03-1.405,1.45,1.45,0,0,1,.18-0.011h0.22a1.45,1.45,0,0,1,.18.011,4.635,4.635,0,0,1,3.02,1.405,5.084,5.084,0,0,1,.79,1.023,0.293,0.293,0,0,1,.05.067l15.9,27.506c0.02,0.023.03,0.045,0.05,0.068m-20.05-1.461a3.686,3.686,0,1,0,2.61,1.079,3.535,3.535,0,0,0-2.61-1.079m7.87,0a3.686,3.686,0,1,0,2.61,1.079,3.557,3.557,0,0,0-2.61-1.079m-0.36-3.282a3.686,3.686,0,1,0-1.08,2.619,3.552,3.552,0,0,0,1.08-2.619m-20.64,4.361a3.519,3.519,0,0,0-2.6-1.079,3.693,3.693,0,1,0,0,7.385,3.519,3.519,0,0,0,2.6-1.079,3.7,3.7,0,0,0,0-5.227m7.87,0a3.7,3.7,0,1,0,1.08,2.608,3.551,3.551,0,0,0-1.08-2.608m-4.04-6.969a3.7,3.7,0,1,0,1.08,2.608,3.557,3.557,0,0,0-1.08-2.608m2.65,0a3.684,3.684,0,1,0,2.61-1.079,3.552,3.552,0,0,0-2.61,1.079m2.36-4.137a3.685,3.685,0,1,0-7.37,0,3.6,3.6,0,0,0,1.07,2.619,3.69,3.69,0,0,0,6.3-2.619m15.74,0a3.686,3.686,0,1,0-1.08,2.619,3.551,3.551,0,0,0,1.08-2.619m-7.87,0a3.686,3.686,0,1,0-1.08,2.619,3.551,3.551,0,0,0,1.08-2.619m-5.02-4.125a3.7,3.7,0,0,0,0-5.227,3.519,3.519,0,0,0-2.6-1.079,3.693,3.693,0,1,0,0,7.385,3.519,3.519,0,0,0,2.6-1.079m5.27-6.306a3.686,3.686,0,1,0,2.6,1.079,3.557,3.557,0,0,0-2.6-1.079m-3.83-6.677a3.687,3.687,0,0,0-2.6,6.295,3.686,3.686,0,0,0,5.21-5.216,3.557,3.557,0,0,0-2.61-1.079M2512.4,50.09a3.7,3.7,0,1,0,1.08,2.608,3.557,3.557,0,0,0-1.08-2.608m-2.97-4.361a3.686,3.686,0,1,0-1.08,2.619A3.552,3.552,0,0,0,2509.43,45.729Z" transform="translate(-2471.84 -19)"/>
</svg>
