<svg id="Layer_1" data-name="Layer 1" xmlns="http://www.w3.org/2000/svg" viewBox="0 0 90 90"><defs><style>.cls-1{fill:#FFCC00;}</style></defs><title>soccer</title><polygon class="cls-1" points="61.9 36.5 56.3 21.1 38 16.8 26.4 29.2 32 47.1 49.4 50.2 61.9 36.5"/><polygon class="cls-1" points="53.5 68.1 68.1 70.7 79.9 58 77 41.3 63.7 38 51.1 51.9 53.5 68.1"/><polygon class="cls-1" points="12.3 29.3 4.9 43.5 9.7 58.7 22 61.5 29.8 48 24.1 30 12.3 29.3"/><path class="cls-1" d="M86.8,28.3a1.45,1.45,0,0,1-.2-.7A45.2,45.2,0,1,0,90,45,46.37,46.37,0,0,0,86.8,28.3ZM41.5,87.4a41.48,41.48,0,0,1-11.2-2.5c-.4-.2-.9-.3-1.3-.5l.1-.6,5.5-.4L34.5,77,22,64,10.1,61.3l.7,9.1c-.4-.6-.9-1.2-1.3-1.8A42.59,42.59,0,0,1,2.4,45c0-.3.1-2.5.1-2.8h.4l7.7-14.6,3.3-11.7c.6-.6,1.1-1.2,1.7-1.8.4-.3,3.5-3,4.7-3.9l9.2-4h0l1.9-.8h0l5.5-2.2a36.21,36.21,0,0,1,4.6-.6,21.75,21.75,0,0,1,2.6-.1l.1.3L32.9,7.4l5.3,7.1L56.9,19l9.2-5.7-6-7.9.1-.1c.7.3,1.3.5,2,.8s1.6.7,2.4,1.1l4.6,6L81.7,27l2,.3c.2.4.4.9.6,1.3s.3.9.5,1.3L82,29.5l-2.8,11,2.9,17.1,3.3.9c-.1.4-.3.7-.4,1.1a42.27,42.27,0,0,1-18.1,22,9.13,9.13,0,0,1-1.3.8L67.2,73,52.6,70.5,36.9,77.4V84l5.9,2.8-.2.7A4.48,4.48,0,0,1,41.5,87.4Z"/></svg>