
<svg xmlns="http://www.w3.org/2000/svg" version="1.1" xmlns:xlink="http://www.w3.org/1999/xlink" preserveAspectRatio="none" x="0px" y="0px" width="20px" height="20px" viewBox="0 0 20 20">
<defs>
<g id="Layer0_0_FILL">
<path fill="#FFCC00" stroke="none" d="
M 16.35 16.35
Q 15.75 17 15.75 17.85 15.75 18.75 16.35 19.35 16.95 19.95 17.85 19.95 18.7 19.95 19.35 19.35 19.95 18.75 19.95 17.85 19.95 17 19.35 16.35 18.75 15.75 17.85 15.75 16.95 15.75 16.35 16.35
M 19.45 8.1
Q 19.8 5.95 18.8 3.95 17.75 1.9 15.7 0.85 13.7 -0.15 11.55 0.2 9.4 0.55 7.75 1.9 6.05 3.2 4.95 5 3.7 6.85 4.1 9.15
L 4.05 9.2
Q 4.25 10 4.55 10.8 4.8 11.45 4.6 12.15
L 4.55 12.2
Q 4.55 12.3 4.5 12.35 2.75 14.9 0.25 16.7 0.15 16.8 0.1 16.95 0.05 17.1 0.1 17.25 0.5 17.95 1.05 18.5 1.6 19.15 2.4 19.55 2.55 19.6 2.7 19.55 2.85 19.5 2.95 19.4 4.1 17.85 5.5 16.45 6.35 15.5 7.65 15.1 7.85 15 8.1 15.05 8.15 15 8.2 15.05 9.35 15.2 10.4 15.55 10.45 15.6 10.5 15.55 12.75 16 14.7 14.75 16.45 13.6 17.8 11.95 19.1 10.25 19.45 8.1
M 4.9 10.65
Q 4.65 9.9 4.5 9.05
L 10.6 15.15
Q 9.4 14.75 8.25 14.6 7.85 14.6 7.45 14.7 6.15 15.1 5.2 16.15 3.8 17.55 2.6 19.15 1.85 18.8 1.35 18.2 0.85 17.7 0.5 17.05 3.05 15.2 4.85 12.6 4.95 12.5 5 12.25 5.2 11.45 4.9 10.65 Z"/>
</g>
</defs>

<g transform="matrix( 1, 0, 0, 1, 0,0) ">
<use xlink:href="#Layer0_0_FILL"/>
</g>
</svg>
