
<svg xmlns="http://www.w3.org/2000/svg" viewBox="0 0 70 70">
  <defs>
    <style>
      .cls-1 {
        fill: #FFCC00;
        fill-rule: evenodd;
      }
    </style>
  </defs>
  <path class="cls-1" d="M1071.7,294.075a35.074,35.074,0,1,0-57.57,37.53l0.09,0.093a38.091,38.091,0,0,0,5.53,4.6c0.68,0.429,1.38.858,2.12,1.288a35.064,35.064,0,0,0,52.13-30.54,38.694,38.694,0,0,0-.92-8.554,5.521,5.521,0,0,0-.19-0.644c-0.36-1.288-.76-2.545-1.19-3.772m-20.63,16.466,3.22,0.184q8.565-.461,13.54-5.335a12.212,12.212,0,0,0,2.3-10.671,35.466,35.466,0,0,1,1.11,3.588c0.06,0.184.12,0.4,0.18,0.644a14.2,14.2,0,0,1-1.93,9.566c-0.13.184-.25,0.368-0.37,0.552q-6.825,7.543-18.51,5.243-5.8-1.011-11.79-1.471-14.28.368-19.81,8a15.71,15.71,0,0,0-1.47,3.68,10.04,10.04,0,0,0,3.13,10.394,34.675,34.675,0,0,1-5.25-4.323l-0.09-.092q-3.315-6.44.92-13.982,5.52-7.635,19.8-8A150.032,150.032,0,0,1,1051.07,310.541Z" transform="translate(-1004 -272)"/>
</svg>
