<svg xmlns="http://www.w3.org/2000/svg" width="40" height="40" viewBox="0 0 40 40">
  <defs>
    <style>
      .cls-1 {
        fill: #ffffff;
        fill-rule: evenodd;
      }
    </style>
  </defs>
  <path class="cls-1" d="M1334.27,55.314a0.223,0.223,0,0,1-.04-0.065l0.01,0.019a12.21,12.21,0,0,1-1.98-4.631,0.183,0.183,0,0,1-.03-0.1A32.351,32.351,0,0,1,1332.4,39a33.52,33.52,0,0,0-8.1-5.36q-2.025,19.167,6.43,25.1a21.509,21.509,0,0,0,7.53-.157,10.361,10.361,0,0,1-3.99-3.275m-7.73-34.934a19.757,19.757,0,0,0-6.58,4.4q7.695-1.963,23.17,7.915a13.471,13.471,0,0,0,2.83-3.183q-9.7-10.808-19.42-9.133m-3.14,12.9a11.55,11.55,0,0,0-3.73-.793q-6.06,14.828,3.75,23.533a0.033,0.033,0,0,1,.03.018h0.01a18.6,18.6,0,0,0,5.28,2.306q-7.32-6.711-5.34-25.064m-8.55-.2a7.451,7.451,0,0,1,4.48-1.513h0.05a12.258,12.258,0,0,1,4.63.969,0.286,0.286,0,0,1,.09.028,33.145,33.145,0,0,1,8.88,5.729,40.086,40.086,0,0,0,9.39-4.972q-16.575-10.53-23.78-7.048a18.945,18.945,0,0,0-3.74,6.808m3.81-.544a6.572,6.572,0,0,0-4.23,2.186,21.338,21.338,0,0,0-.42,4.29,19.126,19.126,0,0,0,4.91,13.127q-4.89-7.978-.26-19.6m29.53,20.618a19.315,19.315,0,0,0,5.42-9.778q-3.735,8.309-18.18,11.928a10.069,10.069,0,0,0,4.34,2.924,19.556,19.556,0,0,0,8.42-5.074m5.8-15.728V37.409a19.993,19.993,0,0,0-.97-4.935q-1.365,8.226-19.79,18.265a11.227,11.227,0,0,0,1.6,3.755q18.735-4.571,19.16-17.075m-7.57-8.773a6.35,6.35,0,0,0,.04-5.341A19.164,19.164,0,0,0,1334.03,19a21.756,21.756,0,0,0-3.5.277q7.965,0.656,15.89,9.372m1.77-3.782a0.037,0.037,0,0,1-.02-0.018h-0.01c-0.12-.124-0.24-0.247-0.37-0.369a7.346,7.346,0,0,1-.84,5.184v0.009h-0.01v0.009h-0.01c0,0.01,0,.016-0.01.018a14.092,14.092,0,0,1-3.47,3.93,38.616,38.616,0,0,1-10.15,5.526,32.349,32.349,0,0,0-.27,10.645q19.95-10.925,19.14-19.418A20.543,20.543,0,0,0,1348.19,24.863Z" transform="translate(-1314 -19)"/>
</svg>
