<?xml version="1.0" encoding="UTF-8"?>
<svg xmlns="http://www.w3.org/2000/svg" xmlns:xlink="http://www.w3.org/1999/xlink" width="25px" height="25px" viewBox="0 0 25 25" version="1.1">
    
    <title>Atom / Icon / 18</title>
    <desc>Created with Sketch.</desc>
    <defs>
        <path d="M15,0.250045289 L15,2.29944572 C14.1987752,2.10375311 13.361504,2 12.5,2 C6.70101013,2 2,6.70101013 2,12.5 C2,18.2989899 6.70101013,23 12.5,23 C18.2989899,23 23,18.2989899 23,12.5 C23,11.272776 22.7894602,10.0947262 22.40253,9 L24.5033845,9 C24.8266683,10.1105964 25,11.2850563 25,12.5 C25,19.4035594 19.4035594,25 12.5,25 C5.59644063,25 0,19.4035594 0,12.5 C0,5.59644063 5.59644063,0 12.5,0 C13.3561646,0 14.1922251,0.0860756485 15,0.250045289 Z M10.4052734,16.9277344 L8.85302734,16.9277344 L8.85302734,10.9443359 L7,11.519043 L7,10.2568359 L10.2387695,9.09667969 L10.4052734,9.09667969 L10.4052734,16.9277344 Z M17.0429688,11.1860352 C17.0429688,11.5655943 16.9480804,11.9021795 16.7583008,12.1958008 C16.5685212,12.489422 16.3071306,12.7239575 15.9741211,12.8994141 C16.3536803,13.0820322 16.6544585,13.3335759 16.8764648,13.6540527 C17.0984712,13.9745296 17.2094727,14.3513976 17.2094727,14.784668 C17.2094727,15.4793329 16.9731469,16.0280742 16.5004883,16.4309082 C16.0278297,16.8337422 15.3850952,17.0351562 14.5722656,17.0351562 C13.759436,17.0351562 13.1149112,16.8328471 12.6386719,16.4282227 C12.1624325,16.0235982 11.9243164,15.4757522 11.9243164,14.784668 C11.9243164,14.3513976 12.0353179,13.9736344 12.2573242,13.6513672 C12.4793305,13.3291 12.7783184,13.0784514 13.1542969,12.8994141 C12.8212874,12.7239575 12.560792,12.489422 12.3728027,12.1958008 C12.1848135,11.9021795 12.0908203,11.5655943 12.0908203,11.1860352 C12.0908203,10.5200162 12.3128233,9.98917841 12.7568359,9.59350586 C13.2008486,9.19783331 13.8041954,9 14.5668945,9 C15.3260129,9 15.9284646,9.19604296 16.3742676,9.58813477 C16.8200706,9.98022657 17.0429688,10.5128547 17.0429688,11.1860352 Z M15.6518555,14.671875 C15.6518555,14.331704 15.5533864,14.0595713 15.3564453,13.8554688 C15.1595042,13.6513662 14.8945329,13.5493164 14.5615234,13.5493164 C14.2320947,13.5493164 13.9689137,13.650471 13.7719727,13.8527832 C13.5750316,14.0550954 13.4765625,14.3281233 13.4765625,14.671875 C13.4765625,15.0048845 13.5732412,15.2734365 13.7666016,15.4775391 C13.9599619,15.6816416 14.2285139,15.7836914 14.5722656,15.7836914 C14.9088558,15.7836914 15.172932,15.6852223 15.364502,15.4882812 C15.5560719,15.2913402 15.6518555,15.0192075 15.6518555,14.671875 Z M21,3 L24,3 L24,5 L21,5 L21,8 L19,8 L19,5 L16,5 L16,3 L19,3 L19,0 L21,0 L21,3 Z M15.4907227,11.2612305 C15.4907227,11.5727555 15.4110522,11.823404 15.251709,12.0131836 C15.0923657,12.2029632 14.8658869,12.2978516 14.5722656,12.2978516 C14.2786444,12.2978516 14.0512703,12.2029632 13.8901367,12.0131836 C13.7290031,11.823404 13.6484375,11.5727555 13.6484375,11.2612305 C13.6484375,10.9461247 13.7290031,10.6990569 13.8901367,10.5200195 C14.0512703,10.3409822 14.276854,10.2514648 14.5668945,10.2514648 C14.8605158,10.2514648 15.0878898,10.3436677 15.2490234,10.5280762 C15.4101571,10.7124846 15.4907227,10.956867 15.4907227,11.2612305 Z" id="path-1"/>
    </defs>
    <g id="Organism-/-Footer" stroke="none" stroke-width="1" fill="none" fill-rule="evenodd">
        <g transform="translate(-1375.000000, -254.000000)" id="Footer">
            <g>
                <g id="Row" transform="translate(37.000000, 254.000000)">
                    <g id="Atom-/-Icon-/-Footer-/-18" transform="translate(1338.000000, 0.000000)">
                        <mask id="mask-2" fill="white">
                            <use xlink:href="#path-1"/>
                        </mask>
                        <g id="Over-18"/>
                        <g id="Palette/UI/White/White--Opacify-1.0" mask="url(#mask-2)" fill="#FFFFFF" fill-rule="evenodd">
                            <g transform="translate(-37.000000, -38.000000)">
                                <rect x="0" y="0" width="100" height="100"/>
                            </g>
                        </g>
                    </g>
                </g>
            </g>
        </g>
    </g>
</svg>
