<?xml version="1.0" encoding="utf-8"?>
<!-- Generator: Adobe Illustrator 21.0.0, SVG Export Plug-In . SVG Version: 6.00 Build 0)  -->
<svg version="1.1" id="Layer_1" xmlns="http://www.w3.org/2000/svg" xmlns:xlink="http://www.w3.org/1999/xlink" x="0px" y="0px"
	 viewBox="0 0 581.2 333.1" enable-background="new 0 0 581.2 333.1" xml:space="preserve" fill="#ffffff">
<path fill-rule="evenodd" clip-rule="evenodd" d="M581.2,144.7c-1.3,8.5-2.5,17-4,25.4c-4,21.4-8.7,42.6-12.1,64.1
	c-1.3,8.3-0.1,17.1,0.5,25.6c0.4,5.2,0.8,5.1-4.3,5.1c-16.6,0-33.1-0.1-49.7,0.1c-3.1,0-4.5-0.7-4.9-4c-1-8.7-1.2-8.7-8.5-4
	c-16.5,10.5-34.1,15.6-53.7,11.3c-20-4.4-33.1-20.6-31.3-39.5c1.8-18.4,11.2-32.4,25.9-43.2c10.2-7.5,21.8-12,33.7-16
	c13.9-4.6,27.6-9.6,41.2-15c13.2-5.2,15.9-17.7,13.4-29c-0.8-3.4-3.2-5.9-6.7-6.9c-8.5-2.3-19.3-0.6-21.4,8.5
	c-0.5,2.3-0.5,4.8-0.1,7.1c1.3,7.3,0.4,9.8-6.5,12.6c-8.5,3.4-17,6.8-26.5,5.2c-7.6-1.2-13.1-5.4-16.7-12c-6.4-11.6-7.7-23.9-5-36.7
	c0.3-1.6,0.7-3.2,2.8-1.9c10.7,6.6,22.5,4.5,33.8,3.8c12.2-0.8,24.2-3.4,36.3-4.4c14.7-1.2,29.3,0.2,43.3,5.1
	c12.5,4.4,18.2,13.9,19.6,26.6c0.2,1.6,0.5,3.1,0.8,4.7C581.2,139.8,581.2,142.2,581.2,144.7z M520.6,169.1
	c-5.1,2.2-9.8,3.6-13.7,6.1c-13.2,8.3-23.5,19.5-31.2,33.1c-3.9,7-5.3,14.6-4.4,22.6c1.2,10.6,10.6,17.7,19.5,14
	c9.9-4,18.3-9.9,19.3-22c0.2-2.1,0.8-4.2,1.2-6.3C514.3,201.2,517.3,185.8,520.6,169.1z"/>
<path fill-rule="evenodd" clip-rule="evenodd" d="M328.4,310.1c-0.2,0-0.5-0.1-0.7-0.1c-3-0.4-6-1.3-8.9-2.1c0,0,1.2-1.3,1.4-1.4
	c11.7-8.8,17.5-21.1,20.3-35.1c8.5-42.1,16.8-84.2,25.2-126.4c0.8-3.9,1.4-7.9,2.4-11.8c2.2-9.1,1.7-17.8-2.5-26.3
	c-2-4.1-1.7-4.3,2.8-4.3c18.3,0,36.6,0.1,54.9-0.1c2.8,0,3.6,0.5,3,3.5c-6.2,31.2-12.2,62.4-18.3,93.7c-4.9,25.4-10,50.8-14.8,76.3
	c-1.9,9.9-7.1,17.3-15.4,22.6c-11.2,7.3-25.1,11.1-38.4,11.7C335.7,310.7,332,310.5,328.4,310.1z"/>
<circle cx="402.1" cy="56.6" r="34.6"/>
<g>
	<path d="M91.7,193.3c2.5-16.2,5.1-32.1,7.7-49.2c-16.2,16.8-31.7,32.7-47.6,49.2C65.7,193.3,78.4,193.3,91.7,193.3z"/>
	<path d="M243.9,92.7c-7.4,1-13.4,4.8-18,10.6c-10.9,13.9-14.8,30.1-16.1,48c0.5,3.6,0.8,7.9,1.6,12.1c2.4,11.5,9.4,16.4,21,14.6
		c8-1.2,14.3-5.5,19.3-11.6c13.9-16.9,17.8-36.4,14-57.5C263.5,96.5,255.7,91.1,243.9,92.7z"/>
	<path d="M166.6,0C74.6,0,0,74.6,0,166.6c0,92,74.6,166.6,166.6,166.6s166.6-74.6,166.6-166.6C333.1,74.6,258.6,0,166.6,0z
		 M147.9,206.4h-13.3c-2-0.1-2.7,0.7-3,2.5c-0.9,4.6-1.8,9.2-2.7,13.8c-0.1,0.5-0.2,0.9-0.2,1.4c-0.2,1.1-0.4,2.3-0.6,3.4
		c-0.1,0.9-0.2,1.7-0.3,2.6c0,0.1,0,0.1,0,0.2c-0.2,2.9-0.1,5.8,0.1,8.7v0c0.2,2.4,0.4,4.8,0.6,7.2c0,0.3,0.1,0.6,0.1,0.9
		c0,0.6,0.1,1.2,0.1,1.6c0.2,2.3-0.1,2.3-3.2,2.3c0.2,0,0.4,0,0.6,0c0,0,0,0,0,0c0.2,0,0.1,0,0,0c0,0,0,0.1,0,0.1
		c-13.8,0-22.5,0-36.4,0c-1.6,0-3.2,0-4.8,0c-2.4,0-4.8,0-7.1,0c-0.6,0-1.2-0.1-2.1-0.1c0.2-0.5,0.4-1,0.5-1.4
		c0.1-0.2,0.2-0.4,0.3-0.6c3.3-4.9,5.5-10.2,7.2-15.6c1.6-5.2,2.8-10.5,3.8-15.9c0.3-1.8,0.7-3.6,1.1-5.3c0.4-1.8,0.7-3.6,1.1-5.4
		c-0.3,0-0.6,0-0.9,0c-18.5,0-37,0-55.4-0.1c-1.5,0-3.1-0.1-4.6-0.2c-1.7-0.1-3.3-0.3-4.9-0.6c-3.8-0.6-5.1-2.6-4.9-6.4
		c0.2-3.2,1.1-5.9,2.9-8.5c6.7-7.3,13.5-14.6,20.2-22c2.9-3.1,5.7-6.2,8.6-9.3c9.8-10.7,19.6-21.3,29.3-32c9.1-10,18.2-20,27.3-30.1
		c1.1-1.2,2.2-2.3,3.3-3.4c7.4-6.9,8.1-9.7,18.7-9.7c5,0,16,0.7,16,0.7c1.5,0.2,2.6,0.4,3.6,0.6c3.9,1.1,3.4,3,2.7,7.6
		c-2.1,13.5-15.6,92.8-16.4,96.8c-0.1,0.4,0,0.7,0,1c0.2,0.9,0.8,1.7,1.7,2.1h13.8c0.8,0,1.3,0.1,1.7,0.4c0.4,0.4,0.4,1,0.2,2
		c-0.7,2.8-1.3,5.6-1.7,8.5C150.5,206.1,149.6,206.4,147.9,206.4z M256,243c-15.3,8.2-31.7,11.5-49,11.3
		c-12.9-0.2-25.5-2.1-37.4-7.1c-4.1-1.7-8.1-4-11.6-6.8c-9.3-7.5-9.7-19.9-1.4-28.9c12.3-13.3,37-12.9,49,0.7
		c1.8,2.1,2.2,3.2-0.4,5.1c-5.2,3.6-8.6,8.6-7.7,15.3c0.7,5.9,5.9,10.4,12.4,11.5c6.7,1.2,12.9-0.2,17.6-5
		c4.6-4.7,8.8-9.9,12.2-15.6c7.7-12.9,12.4-27,14.9-41.9c0.2-0.9-0.2-1.9-0.3-2.8c-0.8,0.4-1.6,0.6-2.3,1.1
		c-14.6,10.6-30.8,16.2-49,15.6c-14.8-0.5-27.7-5.2-36.8-17.5c-7.7-10.4-9-22.1-6.7-34.4c5.4-29.8,24.8-46.7,51.9-56.5
		c10.8-3.9,22-5.3,34.3-5.4c15.6,0.2,31.2,3.4,44.3,14.2c13.3,10.9,20.7,25.1,22.1,42.2C314.7,170,299.5,219.7,256,243z"/>
	<g>
		<path d="M126,251.1C126,251.1,126,251.1,126,251.1C126.1,251.1,126.2,251.1,126,251.1z"/>
	</g>
	<g>
		<path d="M125.2,251.1c0.1,0,0.1,0,0.2,0C125.2,251.1,125,251.1,125.2,251.1z"/>
	</g>
</g>
</svg>
