<svg xmlns="http://www.w3.org/2000/svg" width="57.44" height="40" viewBox="0 0 57.44 40">
  <defs>
    <style>
      .cls-1 {
        fill: #ffffff;
        fill-rule: evenodd;
      }
    </style>
  </defs>
  <path class="cls-1" d="M2701.83,37.461a4.635,4.635,0,0,1,.75-0.157c1.85-.058,4.49.97,7.89,3.084a50.443,50.443,0,0,0,9.02,4.878,2.958,2.958,0,0,1,.32-0.017,6.782,6.782,0,0,1,4.07,1.289l0.56,0.07a16.518,16.518,0,0,1,.05-14.078q-13.71-2.265-23.01.871a24.079,24.079,0,0,0,.35,4.06m24.6,14.914a7.07,7.07,0,0,0-.18-1.62q-0.015-.07-0.03-0.122c-0.07-.244-0.15-0.482-0.23-0.714a5.671,5.671,0,0,0-.52-1.028,7.042,7.042,0,0,0-.98-1.2c-0.12-.128-0.25-0.25-0.38-0.366a6.327,6.327,0,0,0-1.93-1.167c-0.31-.081-0.61-0.169-0.93-0.261a6.482,6.482,0,0,0-1.44-.157,6.789,6.789,0,0,0-1.22.1,6.649,6.649,0,0,0-5.4,6.534q0,0.331.03,0.662a6.267,6.267,0,0,0,1.88,3.99l0.02,0.017a7.361,7.361,0,0,0,1.05.871c0.12,0.081.26,0.163,0.4,0.244a6.639,6.639,0,0,0,9.86-5.785m-0.73-2.335q0.12,0.331.21,0.679,0.015,0.052.03,0.122a2.676,2.676,0,0,1-.37,1.812,0.636,0.636,0,0,1-.07.1,3.474,3.474,0,0,1-3.5.993c-0.73-.128-1.47-0.221-2.23-0.279-1.8.047-3.05,0.552-3.74,1.516a2.9,2.9,0,0,0-.28.7,1.9,1.9,0,0,0,.59,1.969,6.253,6.253,0,0,1-.99-0.819l-0.02-.017a2.669,2.669,0,0,1,.17-2.648q1.05-1.446,3.75-1.516a28.481,28.481,0,0,1,2.84.383l0.61,0.035a3.809,3.809,0,0,0,2.56-1.011,2.316,2.316,0,0,0,.44-2.021m3.17-22.946a18.447,18.447,0,0,0-2.51-3.119,20.445,20.445,0,0,0-2.18-1.864,10.553,10.553,0,0,0-.98-0.662,17.292,17.292,0,0,0-17.71-.035l-0.25.139c-0.32.209-.65,0.436-0.97,0.68a18.589,18.589,0,0,0-2.01,1.742,17.173,17.173,0,0,0-3.15,4.269c-0.16.3-.31,0.61-0.44,0.923a16.014,16.014,0,0,0-1.3,5.244,6.077,6.077,0,0,0-.07.958c-0.01.221-.02,0.436-0.02,0.645a16.731,16.731,0,0,0,1.08,6.063c0.19,0.523.4,1.034,0.64,1.533a17.693,17.693,0,0,0,3.26,4.426,18.382,18.382,0,0,0,2.81,2.335c0.25,0.163.52,0.331,0.8,0.505A16.183,16.183,0,0,0,2712.73,53q-0.03-.314-0.03-0.627a7.03,7.03,0,0,1,5.09-6.847,57.267,57.267,0,0,1-9.32-5.175,10.807,10.807,0,0,0-5.65-2.021,4.774,4.774,0,0,0-.84.07q0.3,1.481.75,3.049a43.138,43.138,0,0,0,2.44,5.749,0.913,0.913,0,0,1,.07.139c1.08,1.858,1.34,2.939.79,3.241-0.27-.163-0.53-0.325-0.79-0.488,0.43-.012.18-0.976-0.76-2.892a41.846,41.846,0,0,1-2.44-5.749q-0.435-1.5-.72-2.91c-1.83.557-2.51,2.2-2.02,4.913a13.777,13.777,0,0,1-.64-1.5q-0.195-3.293,2.49-4.286a25.183,25.183,0,0,1-.39-4.025c-0.21.07-.41,0.145-0.61,0.227a7.939,7.939,0,0,0-2.52,1.516c0-.325.02-0.639,0.05-0.941a8.312,8.312,0,0,1,2.4-1.411c0.23-.093.45-0.174,0.68-0.244a18.712,18.712,0,0,1,.49-3.816,3.649,3.649,0,0,1-2.28.314c0.13-.3.27-0.6,0.43-0.906a3.282,3.282,0,0,0,2.08-.3,15.574,15.574,0,0,1,2.98-5.593q0.465-.348.96-0.662a17.236,17.236,0,0,0-3.16,5.941,48.6,48.6,0,0,0,5.89-3.345q8.04-5.279,14.88-2.7,0.465,0.3.96,0.645-6.78-3.014-16.05,2.962a43.873,43.873,0,0,1-5.92,3.328,18.633,18.633,0,0,0-.52,3.868q9.45-3.154,23.39-.767a17.179,17.179,0,0,1,2.74-3.554c0.4-.395.81-0.767,1.24-1.115m24.76,6.708a0.518,0.518,0,0,1-.07-0.244,15.472,15.472,0,0,0-5.72-6.917,15.311,15.311,0,0,0-8.8-2.7,14.957,14.957,0,0,0-9.93,3.554c-0.39.325-.78,0.674-1.15,1.045a15.838,15.838,0,0,0-2.56,3.31q-0.225.366-.42,0.767a15.976,15.976,0,0,0,.02,14.06c0.12,0.232.24,0.459,0.37,0.68,0.19,0.349.41,0.691,0.64,1.028a17.485,17.485,0,0,0,1.95,2.317,15.68,15.68,0,0,0,26.76-11.081,16.134,16.134,0,0,0-1.09-5.819m-9.33-7.98,0.04-.035,1.53,0.662,1.61,2.091,4.35,4.809,0.7,0.1,0.38,0.906-0.97-.139-0.98,3.833,1.01,5.959,1.15,0.314-0.14.383a14.508,14.508,0,0,1-2.49,4.391,14.88,14.88,0,0,1-3.82,3.276l-0.45.279,0.56-3.276-5.09-.871-5.47,2.4,0.02,2.3,2.05,0.976-0.07.244a1.947,1.947,0,0,1-.4-0.035,14.562,14.562,0,0,1-3.9-.871l-0.45-.174,0.03-.209,1.92-.139-0.04-2.23-4.33-4.53-4.15-.941,0.24,3.171-0.45-.627a0.235,0.235,0,0,1-.05-0.087q-0.165-.227-0.3-0.453-0.18-.3-0.33-0.575a14.578,14.578,0,0,1-1.79-7.109l0.01-.976h0.16l2.67-5.088,1.16-4.077,0.6-.627c0.05-.046.29-0.244,0.71-0.592,0.24-.2.55-0.453,0.92-0.767l5.79-2.439a11.507,11.507,0,0,1,1.6-.209,8.345,8.345,0,0,1,.91-0.035l0.01,0.1-3.92,1.6,1.83,2.474,6.54,1.568,3.19-1.986-2.1-2.753m6.92,18.329-1.03-5.819-4.61-1.15-4.39,4.844L2742,47.67l5.09,0.906,4.13-4.425M2736.6,29.794l-4.02,4.321,1.93,6.237,6.08,1.08,4.36-4.774L2743,31.293l-6.4-1.5m-4.82,4.6-4.13-.244-2.56,4.948,1.67,5.3,4.29,0.976,2.71-4.7Z" transform="translate(-2697.28 -19)"/>
</svg>
