
<svg xmlns="http://www.w3.org/2000/svg" version="1.1" xmlns:xlink="http://www.w3.org/1999/xlink" preserveAspectRatio="none" x="0px" y="0px" width="100px" height="100px" viewBox="0 0 100 100">
<defs>
<g id="Layer0_0_FILL">
<path fill="#FFCC00" stroke="none" d="
M 50.6 4.25
L 50.4 4.25
Q 45.2 4.35 41.5 8.05 37.7 11.85 37.7 17.2 37.7 22.55 41.5 26.35 43.1 28 45.05 28.9 45.8 29.3 46.6 29.55
L 46.6 50
Q 48.1 51.15 49.65 51.45 49.85 51.45 50.05 51.5
L 50.9 51.5
Q 51.1 51.45 51.35 51.45 52.85 51.15 54.35 50
L 54.35 29.55
Q 55.15 29.3 55.9 28.9 57.85 28 59.45 26.35 63.25 22.55 63.25 17.2 63.25 11.85 59.45 8.05 55.75 4.35 50.6 4.25
M 91.75 60.65
Q 91.85 55.25 87.45 52.15
L 57.55 35
Q 56.7 34.5 55.9 34.1
L 55.9 45.25
Q 58.15 46 60.05 47.4 64 50.3 64 54.45 64 58.6 60.05 61.5 59.55 61.9 59 62.2 54.95 64.3 50.5 64.45
L 50.45 64.45
Q 45.95 64.25 41.95 62.2 41.45 61.9 40.95 61.5 37 58.6 37 54.45 37 50.3 40.95 47.4 42.8 46 45.05 45.25
L 45.05 34.1
Q 44.25 34.5 43.4 35
L 13.5 52.15
Q 9.1 55.25 9.25 60.65
L 9.25 67.4
Q 9.3 73.6 13.85 76.15
L 44.25 93.75
Q 47.1 95.55 49.85 95.7 50.15 95.75 50.5 95.75 50.8 95.75 51.1 95.7 53.85 95.55 56.7 93.75
L 87.1 76.15
Q 91.7 73.6 91.75 67.4
L 91.75 60.65
M 29 58.2
Q 27.05 59.65 24.25 59.65 21.45 59.65 19.5 58.2 17.5 56.7 17.5 54.65 17.5 52.6 19.5 51.1 21.45 49.65 24.25 49.65 27.05 49.65 29 51.1 31 52.6 31 54.65 31 56.7 29 58.2
M 27.45 52.35
Q 26.15 51.4 24.25 51.4 22.4 51.4 21.05 52.35 19.7 53.25 19.7 54.55 19.7 55.85 21.05 56.8 22.4 57.7 24.25 57.7 26.15 57.7 27.45 56.8 28.8 55.85 28.8 54.55 28.8 53.25 27.45 52.35 Z"/>
</g>
</defs>

<g transform="matrix( 1, 0, 0, 1, 0,0) ">
<use xlink:href="#Layer0_0_FILL"/>
</g>
</svg>
