<?xml version="1.0" encoding="UTF-8"?>
<svg width="15px" height="13px" viewBox="0 0 15 13" version="1.1" xmlns="http://www.w3.org/2000/svg" xmlns:xlink="http://www.w3.org/1999/xlink">
    <!-- Generator: Sketch 47.1 (45422) - http://www.bohemiancoding.com/sketch -->
    <title>Combined Shape</title>
    <desc>Created with Sketch.</desc>
    <defs></defs>
    <g id="Sportsbook" stroke="none" stroke-width="1" fill="none" fill-rule="evenodd">
        <g id="Login" transform="translate(-15.000000, -16.000000)" fill="#FFFFFF">
            <g id="Header-::-Out-Session" transform="translate(8.000000, 8.000000)">
                <g id="Back">
                    <path d="M10.9142136,13 L14.1819805,9.73223305 C14.5725048,9.34170876 14.5725048,8.70854378 14.1819805,8.31801948 L14.1819805,8.31801948 L14.1819805,8.31801948 C13.7914562,7.92749519 13.1582912,7.92749519 12.767767,8.31801948 L12.767767,8.31801948 L7.81801948,13.267767 C7.71314834,13.3726381 7.63643923,13.4950069 7.58789214,13.6254757 C7.49038758,13.6728694 7.39898831,13.7370507 7.31801948,13.8180195 L7.31801948,13.8180195 L7.31801948,13.8180195 C6.92749519,14.2085438 6.92749519,14.8417088 7.31801948,15.232233 L12.267767,20.1819805 C12.6582912,20.5725048 13.2914562,20.5725048 13.6819805,20.1819805 C14.0725048,19.7914562 14.0725048,19.1582912 13.6819805,18.767767 L9.91023979,14.9960262 C9.9398085,14.9986566 9.96974736,15 10,15 L21,15 C21.5522847,15 22,14.5522847 22,14 C22,13.4477153 21.5522847,13 21,13 L10.9142136,13 Z" id="Combined-Shape"></path>
                </g>
            </g>
        </g>
    </g>
</svg>