<?xml version="1.0" encoding="UTF-8"?>
<svg width="12px" height="13px" viewBox="0 0 12 13" version="1.1" xmlns="http://www.w3.org/2000/svg" xmlns:xlink="http://www.w3.org/1999/xlink">
    <!-- Generator: sketchtool 49.3 (51167) - http://www.bohemiancoding.com/sketch -->
    <title>09A7B87E-AE45-4939-96AE-98458E2FC7C2</title>
    <desc>Created with sketchtool.</desc>
    <defs></defs>
    <g id="Symbols" stroke="none" stroke-width="1" fill="none" fill-rule="evenodd">
        <g id="Footer" transform="translate(-277.000000, -30.000000)" fill="#FFFFFF">
            <g id="Top">
                <g transform="translate(266.000000, 20.000000)">
                    <path d="M18.0057999,13.397374 L18.0057999,22 C18.0057999,22.5522847 17.5580846,23 17.0057999,23 C16.4535151,23 16.0057999,22.5522847 16.0057999,22 L16.0057999,13.4310532 L13.4871056,15.9497475 C13.0965813,16.3402718 12.4634163,16.3402718 12.072892,15.9497475 C11.6823677,15.5592232 11.6823677,14.9260582 12.072892,14.5355339 L16.3155327,10.2928932 C16.706057,9.90236893 17.339222,9.90236893 17.7297462,10.2928932 L21.9723869,14.5355339 C22.3629112,14.9260582 22.3629112,15.5592232 21.9723869,15.9497475 C21.5818626,16.3402718 20.9486977,16.3402718 20.5581734,15.9497475 L18.0057999,13.397374 Z"></path>
                </g>
            </g>
        </g>
    </g>
</svg>