<svg xmlns="http://www.w3.org/2000/svg" width="40" height="40" viewBox="0 0 40 40">
  <defs>
    <style>
      .cls-1 {
        fill: #ffffff;
        fill-rule: evenodd;
      }
    </style>
  </defs>
  <path class="cls-1" d="M542.011,39a23.826,23.826,0,0,0-.143-2.619q-0.083-.552-0.164-1.044a19.221,19.221,0,0,0-5.546-10.477,23.425,23.425,0,0,0-2.557-2.19q-0.573-.43-1.146-0.778a20.331,20.331,0,0,0-20.812-.041l-0.286.164q-0.573.368-1.146,0.8a22,22,0,0,0-2.354,2.046,20.131,20.131,0,0,0-3.7,5.014,11.17,11.17,0,0,0-.511,1.085,18.828,18.828,0,0,0-1.535,6.16,7.611,7.611,0,0,0-.082,1.125q-0.019.389-.02,0.757a19.665,19.665,0,0,0,1.268,7.121,17.391,17.391,0,0,0,.758,1.8,20.6,20.6,0,0,0,3.826,5.2,21.286,21.286,0,0,0,3.295,2.742q0.45,0.287.941,0.593a20.149,20.149,0,0,0,24.065-3.336l0.655-.655q0.329-.368.614-0.716A19.13,19.13,0,0,0,542.011,39m-0.7-3.6c0.055,0.328.109,0.669,0.164,1.023q-21.159-4.993-34.543-.491a29.229,29.229,0,0,0,.41,4.768,5.569,5.569,0,0,1,.88-0.184q3.273-.1,9.27,3.622,12.4,8.145,19.624,7.367-0.287.348-.593,0.7a13.716,13.716,0,0,1-5.935-.491q-6.486-1.658-15.45-7.612a12.681,12.681,0,0,0-6.63-2.374,5.491,5.491,0,0,0-.982.082q0.348,1.739.88,3.581a49.374,49.374,0,0,0,2.865,6.753c0.027,0.054.054,0.109,0.082,0.164q1.9,3.274.92,3.806-0.47-.287-0.92-0.573,0.756-.02-0.9-3.4a49.628,49.628,0,0,1-2.865-6.753q-0.512-1.76-.839-3.417-3.233.982-2.374,5.771a16.927,16.927,0,0,1-.757-1.76q-0.225-3.868,2.927-5.034a29.214,29.214,0,0,1-.451-4.727q-0.368.123-.716,0.266a9.321,9.321,0,0,0-2.967,1.78,9.626,9.626,0,0,1,.061-1.105A9.722,9.722,0,0,1,505.3,35.5a8.035,8.035,0,0,1,.8-0.286,21.542,21.542,0,0,1,.573-4.482,4.3,4.3,0,0,1-2.68.368q0.225-.532.511-1.064a3.83,3.83,0,0,0,2.435-.348,18.325,18.325,0,0,1,3.5-6.569q0.552-.409,1.125-0.778a20.4,20.4,0,0,0-3.7,6.978,57.58,57.58,0,0,0,6.917-3.929q9.433-6.2,17.476-3.172,0.552,0.348,1.125.757-7.959-3.54-18.847,3.479a51.438,51.438,0,0,1-6.957,3.909,22.183,22.183,0,0,0-.614,4.543Q520.319,30.444,541.315,35.4Z" transform="translate(-502 -19)"/>
</svg>
