<svg xmlns="http://www.w3.org/2000/svg" width="67" height="68" viewBox="0 0 67 68">
  <defs>
    <style>
      .cls-1 {
        fill: #df9033;
        fill-rule: evenodd;
      }
    </style>
  </defs>
  <path class="cls-1" d="M594,200.978a41.1,41.1,0,0,0-.239-4.451q-0.139-.937-0.275-1.774a32.824,32.824,0,0,0-9.288-17.806,39.528,39.528,0,0,0-4.282-3.722q-0.96-.73-1.92-1.322a33.622,33.622,0,0,0-34.854-.07l-0.479.279q-0.96.626-1.919,1.359a36.849,36.849,0,0,0-3.942,3.478,34.156,34.156,0,0,0-6.2,8.521,19.389,19.389,0,0,0-.856,1.844,32.38,32.38,0,0,0-2.57,10.469,13.013,13.013,0,0,0-.138,1.912q-0.031.661-.033,1.286a33.862,33.862,0,0,0,2.123,12.1,30.035,30.035,0,0,0,1.27,3.059,35,35,0,0,0,6.407,8.837,35.766,35.766,0,0,0,5.518,4.66q0.755,0.489,1.576,1.008a33.375,33.375,0,0,0,40.3-5.67l1.1-1.113q0.551-.625,1.028-1.217a32.8,32.8,0,0,0,7.67-21.67m-1.172-6.118c0.092,0.557.182,1.137,0.274,1.738q-35.435-8.486-57.849-.834a50.325,50.325,0,0,0,.686,8.1,9.27,9.27,0,0,1,1.474-.313q5.481-.169,15.525,6.156Q573.7,223.552,585.8,222.23q-0.48.593-.993,1.19a22.655,22.655,0,0,1-9.939-.834Q564,219.767,548.993,209.649a21.038,21.038,0,0,0-11.1-4.035,9.075,9.075,0,0,0-1.645.14q0.584,2.955,1.474,6.086a84.659,84.659,0,0,0,4.8,11.476c0.045,0.092.091,0.186,0.138,0.279q3.181,5.565,1.54,6.469-0.786-.489-1.54-0.974,1.266-.035-1.508-5.779a85.023,85.023,0,0,1-4.8-11.476q-0.856-2.993-1.405-5.808-5.413,1.669-3.976,9.808a28.8,28.8,0,0,1-1.267-2.991q-0.378-6.574,4.9-8.555a50.331,50.331,0,0,1-.756-8.034q-0.616.209-1.2,0.452a15.575,15.575,0,0,0-4.969,3.025,16.843,16.843,0,0,1,.1-1.878,16.233,16.233,0,0,1,4.736-2.824,13.31,13.31,0,0,1,1.34-.486,37.143,37.143,0,0,1,.96-7.618,7.107,7.107,0,0,1-4.488.626q0.377-.9.855-1.808a6.331,6.331,0,0,0,4.078-.592,31.3,31.3,0,0,1,5.862-11.164q0.924-.695,1.884-1.322a34.856,34.856,0,0,0-6.2,11.859,96.015,96.015,0,0,0,11.584-6.677q15.8-10.538,29.268-5.391,0.924,0.591,1.884,1.286-13.329-6.017-31.564,5.913a85.779,85.779,0,0,1-11.651,6.643,38.263,38.263,0,0,0-1.028,7.721q22.367-7.583,57.528.84h-0.006Z" transform="translate(-527 -167)"/>
</svg>
