<?xml version="1.0" encoding="utf-8"?>
<!-- Generator: Adobe Illustrator 21.0.0, SVG Export Plug-In . SVG Version: 6.00 Build 0)  -->
<svg version="1.1" id="Layer_1" xmlns="http://www.w3.org/2000/svg" xmlns:xlink="http://www.w3.org/1999/xlink" x="0px" y="0px"
	 viewBox="0 0 907.3 746.3" enable-background="new 0 0 907.3 746.3" xml:space="preserve" fill="#ffffff">
<g>
	<path d="M906.9,622.5c-0.4-1.5-0.8-3.1-1.1-4.7c-13.5-56-15.9-117-6.7-176.4c0.5-3.2-0.2-6.5-2-9.2c-3.3-4.9-25.2-30.6-134.6-49.9
		c-83.6-14.7-229.3-16.9-308.7-16.9c-75.6,0-216.3,2.2-308.5,16.9C35.1,400,13.3,427.4,10,432.7c-1.6,2.6-2.2,5.7-1.7,8.7
		c9.1,59.4,6.8,120.3-6.7,176.4c-0.4,1.6-0.8,3.1-1.1,4.7c-1.5,6,1.3,12.3,6.8,15c0.1,0,0.2,0.1,0.2,0.1c0,0-0.1,0-0.1,0
		c0,0,0,0,0.1,0c0.2,0.1,0.4,0.2,0.6,0.3c0.1,0.1,0.3,0.2,0.4,0.3c0.2,0.1,0.4,0.2,0.6,0.3c0.1,0.1,0.3,0.2,0.5,0.2
		c0.2,0.1,0.4,0.2,0.6,0.3c0.2,0.1,0.3,0.2,0.5,0.2c0.2,0.1,0.5,0.2,0.7,0.3c0.2,0.1,0.3,0.1,0.5,0.2c0.2,0.1,0.5,0.2,0.8,0.3
		c0.2,0.1,0.3,0.1,0.5,0.2c0.3,0.1,0.6,0.2,0.9,0.3c0.1,0,0.3,0.1,0.4,0.1c0.5,0.1,0.9,0.3,1.4,0.4c17.8,4.5,60.2-2.8,97.1-11.1
		c30-6.7,64.2-7.5,79.8-0.3c4.4,2,9.5-1.1,9.9-6c0.1-1,0.1-2,0.2-3.1c0,0,0,0,0,0c0-0.1,0-0.2,0-0.3c0.1-1,0.1-2,0.2-3.1
		c0-0.2,0-0.5,0-0.7c0.1-1,0.1-2,0.2-3c0-0.2,0-0.3,0-0.5c0,0,0,0,0,0c0.3-6.9,0.5-14.5,0.4-22c4.3-0.4,8.6-0.7,13.1-1
		c84.6-6.4,179.6-8.7,235.3-8.7c58.5,0,155,2.8,238.5,9c4.3,0.3,8.5,0.6,12.6,1c-0.1,7.8,0.1,15.8,0.4,22.9c0,0,0,0,0,0
		c0,0.2,0,0.4,0,0.6c0,1,0.1,1.9,0.1,2.9c0,0.2,0,0.4,0,0.7c0.2,3,0.4,5.9,0.6,8.5c0.3,4.2,4.8,6.6,8.5,4.6
		c14.9-7.8,50.2-7.1,81-0.3c36.9,8.2,79.3,15.5,97.1,11.1c0.5-0.1,1-0.3,1.4-0.4c0.2,0,0.3-0.1,0.4-0.1c0.3-0.1,0.6-0.2,0.9-0.3
		c0.2-0.1,0.3-0.1,0.5-0.2c0.3-0.1,0.5-0.2,0.8-0.3c0.2-0.1,0.3-0.1,0.5-0.2c0.2-0.1,0.5-0.2,0.7-0.3c0.2-0.1,0.3-0.2,0.5-0.2
		c0.2-0.1,0.4-0.2,0.6-0.3c0.2-0.1,0.3-0.2,0.5-0.2c0.2-0.1,0.4-0.2,0.6-0.3c0.1-0.1,0.3-0.2,0.4-0.3c0.2-0.1,0.4-0.2,0.5-0.3
		c0.1-0.1,0.3-0.2,0.4-0.3c0.2-0.1,0.3-0.2,0.5-0.4c0.1-0.1,0.3-0.2,0.4-0.3c0.2-0.1,0.3-0.2,0.5-0.4c0.1-0.1,0.2-0.2,0.4-0.3
		c0.1-0.1,0.3-0.2,0.4-0.4c0.1-0.1,0.2-0.2,0.3-0.3c0.1-0.1,0.3-0.3,0.4-0.4c0.1-0.1,0.2-0.2,0.3-0.3c0.1-0.1,0.2-0.3,0.3-0.4
		c0.1-0.1,0.2-0.2,0.3-0.3c0.1-0.1,0.2-0.3,0.3-0.4c0.1-0.1,0.2-0.2,0.3-0.3c0.1-0.1,0.2-0.2,0.3-0.4c0,0,0.1-0.1,0.1-0.1
		c0,0-0.1,0-0.1,0C906.9,630.9,907.9,626.6,906.9,622.5z M125.6,546.1c-3.6-38.3-7.2-76.6-10.9-114.9v0c3.8-0.4,6.9-0.7,9.9-0.9
		c0.5,0,1-0.1,1.5-0.1c1-0.1,1.9-0.2,2.9-0.3c1-0.1,1.9-0.2,2.9-0.3c2.5-0.2,5.2-0.5,8.4-0.7c2.7,30.7,5.4,61.3,8,92
		c9.4-0.8,18.8-1.6,28.2-2.3c9.4-0.7,18.8-1.5,28.2-2.2c0.2,2.3,0.3,4.3,0.4,6.2c0,0.5,0.1,0.9,0.1,1.4c0.1,0.9,0.1,1.8,0.2,2.6
		c0.3,3.9,0.5,7.6,0.9,12.8C179.4,541.3,152.5,543.6,125.6,546.1z M246.5,536.8c-7.1,0.4-14.3,0.9-21.4,1.3
		c-1.3-19.2-2.5-38.4-3.8-57.6c-1.3-19.2-2.5-38.4-3.8-57.6v0c7.3-0.5,14.6-0.9,21.9-1.4c14.6-0.9,29.3-1.6,43.9-2.4
		c7.3-0.4,14.6-0.7,22-1c0.4,9,0.6,13.5,0.9,22.6c-15.5,0.6-31,1.4-46.5,2.2c-5.2,0.3-10.3,0.6-15.5,0.9c0.3,5.3,0.5,9,0.8,13
		c0.2,3.1,0.4,6.3,0.6,10.4c18.1-1,36.1-2,54.2-2.8c0,1.1,0.1,2.2,0.1,3.2c0,1,0.1,2,0.1,2.9c0.2,3.7,0.3,6.8,0.5,10.4
		c0,0.9,0.1,1.9,0.1,2.9c0,0.5,0,1,0.1,1.5c0,0.5,0,1.1,0.1,1.6v0c-17.9,0.8-35.9,1.7-53.8,2.8c0.1,2.4,0.3,4.5,0.4,6.5
		s0.2,3.8,0.3,5.6c0.1,2.3,0.3,4.5,0.4,7.1c0.1,1.5,0.2,3.2,0.3,5c10.3-0.6,20.5-1.1,30.8-1.6c10.3-0.5,20.5-1,30.8-1.4
		c0,1.1,0.1,2.2,0.1,3.2c0.1,3,0.2,5.6,0.3,8.1c0,0.8,0.1,1.7,0.1,2.6c0,0.9,0.1,1.7,0.1,2.7c0.1,1.8,0.2,3.8,0.3,6.1
		C289.4,534.4,267.9,535.5,246.5,536.8z M442.8,530.5c-10.4,0-15.6,0.1-25.9,0.2c-4.2-10.3-6.4-15.5-10.7-25.8c-8,0.1-16,0.3-24,0.4
		c-8,0.2-16,0.4-24,0.6c-3.9,10.5-5.8,15.7-9.6,26.2c-0.6,0-1.2,0-1.8,0.1c-1.2,0-2.3,0.1-3.4,0.1c-1.1,0-2.1,0.1-3.1,0.1
		c-1,0-2,0.1-2.9,0.1c-1.4,0-2.8,0.1-4.3,0.1c-2.9,0.1-6,0.2-9.8,0.4c7.4-19.7,14.8-39.4,22.4-59s15.3-39.2,23.1-58.7
		c2.4-0.1,4.4-0.1,6.4-0.1c1,0,1.9,0,2.8-0.1c0.5,0,0.9,0,1.3,0c1.3,0,2.7-0.1,4-0.1c0.5,0,0.9,0,1.4,0c1.4,0,2.8-0.1,4.4-0.1
		c1.1,0,2.2,0,3.3-0.1c8.6,19.2,17.1,38.4,25.5,57.7c4.2,9.6,8.4,19.3,12.5,29C434.6,511.1,438.7,520.8,442.8,530.5L442.8,530.5z
		 M557.2,465.5c-0.5,16.7-0.9,33.4-1.4,50.1c-4.2,3.6-8.8,6.6-13.7,9.1c-2,1-4,1.9-6,2.7c-5.1,2-10.4,3.5-15.9,4.4
		c-4.3,0.7-8.7,1.1-13.1,1.1c-0.2,0-0.3,0-0.5,0c-0.4,0-0.9,0-1.3,0c-0.5,0-1,0-1.5,0c-0.5,0-1-0.1-1.6-0.1c-0.5,0-1-0.1-1.5-0.1
		c-0.5-0.1-1-0.1-1.5-0.2c-0.5-0.1-1-0.1-1.5-0.2c-0.5-0.1-1-0.2-1.5-0.3c-0.5-0.1-1-0.2-1.4-0.3c-0.5-0.1-1-0.2-1.5-0.3
		c-0.5-0.1-0.9-0.2-1.4-0.3c-0.5-0.1-1-0.3-1.5-0.4c-0.5-0.1-0.9-0.3-1.4-0.4c-0.5-0.2-1-0.3-1.4-0.5c-0.4-0.2-0.9-0.3-1.3-0.5
		c-0.5-0.2-0.9-0.4-1.4-0.6c-0.4-0.2-0.9-0.3-1.3-0.5c-0.5-0.2-0.9-0.4-1.4-0.6c-0.4-0.2-0.8-0.4-1.2-0.6c-0.5-0.2-0.9-0.5-1.3-0.7
		c-0.4-0.2-0.8-0.4-1.2-0.6c-0.4-0.2-0.9-0.5-1.3-0.8c-0.4-0.2-0.8-0.4-1.2-0.7c-0.4-0.3-0.8-0.6-1.3-0.8c-0.4-0.2-0.7-0.5-1.1-0.7
		c-0.4-0.3-0.8-0.6-1.2-0.9c-0.4-0.3-0.7-0.5-1.1-0.8c-0.4-0.3-0.8-0.6-1.2-1c-0.3-0.3-0.7-0.5-1-0.8c-0.4-0.3-0.8-0.7-1.1-1
		c-0.3-0.3-0.7-0.6-1-0.9c-0.4-0.3-0.7-0.7-1.1-1.1c-0.3-0.3-0.6-0.6-0.9-0.9c-0.4-0.4-0.7-0.7-1-1.1c-0.3-0.3-0.6-0.6-0.9-1
		c-0.3-0.4-0.7-0.8-1-1.2c-0.3-0.3-0.6-0.7-0.8-1c-0.3-0.4-0.6-0.8-0.9-1.2c-0.3-0.3-0.5-0.7-0.8-1c-0.3-0.4-0.6-0.9-0.9-1.3
		c-0.2-0.4-0.5-0.7-0.7-1.1c-0.3-0.4-0.6-0.9-0.8-1.3c-0.2-0.4-0.5-0.7-0.7-1.1c-0.3-0.5-0.5-0.9-0.8-1.4c-0.2-0.4-0.4-0.7-0.6-1.1
		c-0.2-0.5-0.5-1-0.7-1.4c-0.2-0.4-0.4-0.8-0.6-1.1c-0.2-0.5-0.4-1-0.7-1.5c-0.2-0.4-0.4-0.8-0.5-1.2c-0.2-0.5-0.4-1-0.6-1.5
		c-0.2-0.4-0.3-0.8-0.5-1.2c-0.2-0.5-0.4-1.1-0.5-1.6c-0.1-0.4-0.3-0.8-0.4-1.2c-0.2-0.5-0.3-1.1-0.5-1.6c-0.1-0.4-0.2-0.8-0.3-1.2
		c-0.1-0.6-0.3-1.1-0.4-1.7c-0.1-0.4-0.2-0.8-0.3-1.2c-0.1-0.6-0.2-1.2-0.3-1.8c-0.1-0.4-0.2-0.8-0.2-1.2c-0.1-0.6-0.2-1.3-0.3-1.9
		c0-0.4-0.1-0.7-0.1-1.1c-0.1-0.7-0.1-1.4-0.2-2.1c0-0.3-0.1-0.6-0.1-0.9c-0.1-1-0.1-2-0.1-3.1c0-0.1,0-0.1,0-0.2s0-0.1,0-0.2v0
		c0,0,0,0,0,0c0-1,0.1-2,0.1-3c0-0.3,0.1-0.7,0.1-1c0.1-0.7,0.1-1.3,0.2-2c0-0.4,0.1-0.8,0.2-1.2c0.1-0.6,0.2-1.2,0.3-1.8
		c0.1-0.4,0.2-0.8,0.2-1.3c0.1-0.6,0.2-1.1,0.3-1.7c0.1-0.4,0.2-0.9,0.3-1.3c0.1-0.5,0.2-1.1,0.4-1.6c0.1-0.4,0.3-0.9,0.4-1.3
		c0.1-0.5,0.3-1,0.5-1.5c0.1-0.4,0.3-0.9,0.4-1.3c0.2-0.5,0.3-1,0.5-1.5c0.2-0.4,0.3-0.9,0.5-1.3c0.2-0.5,0.4-1,0.6-1.4
		c0.2-0.4,0.4-0.8,0.6-1.3c0.2-0.5,0.4-0.9,0.6-1.4c0.2-0.4,0.4-0.8,0.6-1.2c0.2-0.4,0.5-0.9,0.7-1.3c0.2-0.4,0.5-0.8,0.7-1.2
		c0.2-0.4,0.5-0.9,0.8-1.3c0.2-0.4,0.5-0.8,0.8-1.2c0.3-0.4,0.5-0.8,0.8-1.2c0.3-0.4,0.5-0.8,0.8-1.2c0.3-0.4,0.6-0.8,0.9-1.2
		c0.3-0.4,0.6-0.7,0.9-1.1c0.3-0.4,0.6-0.8,0.9-1.1c0.3-0.4,0.6-0.7,0.9-1.1c0.3-0.4,0.6-0.7,1-1.1c0.3-0.3,0.6-0.7,1-1
		c0.3-0.4,0.7-0.7,1-1c0.3-0.3,0.7-0.7,1-1c0.4-0.3,0.7-0.7,1.1-1c0.4-0.3,0.7-0.6,1.1-0.9c0.4-0.3,0.7-0.6,1.1-0.9
		c0.4-0.3,0.7-0.6,1.1-0.9c0.4-0.3,0.8-0.6,1.1-0.9c0.4-0.3,0.8-0.6,1.1-0.8c0.4-0.3,0.8-0.6,1.2-0.8c0.4-0.3,0.8-0.5,1.2-0.8
		c0.4-0.3,0.8-0.5,1.2-0.8c0.4-0.2,0.8-0.5,1.2-0.7c0.4-0.2,0.8-0.5,1.3-0.7c0.4-0.2,0.8-0.4,1.3-0.7c0.4-0.2,0.9-0.4,1.3-0.7
		c0.4-0.2,0.9-0.4,1.3-0.6c0.4-0.2,0.9-0.4,1.4-0.6c0.4-0.2,0.9-0.4,1.3-0.5c0.5-0.2,0.9-0.4,1.4-0.5c0.4-0.2,0.9-0.3,1.3-0.5
		c0.5-0.2,0.9-0.3,1.4-0.5c0.5-0.1,0.9-0.3,1.4-0.4c0.5-0.1,1-0.3,1.5-0.4c0.5-0.1,0.9-0.2,1.4-0.3c0.5-0.1,1-0.2,1.5-0.3
		c0.5-0.1,1-0.2,1.4-0.3c0.5-0.1,1-0.2,1.5-0.2c0.5-0.1,1-0.1,1.5-0.2c0.5-0.1,1-0.1,1.5-0.2c0.5,0,1-0.1,1.5-0.1
		c0.5,0,1-0.1,1.6-0.1c0.5,0,1,0,1.5,0c0.2,0,0.4,0,0.7,0c0.6,0,1.2,0,1.8,0h0c3.1,0.1,6.2,0.3,9.2,0.7c9.2,1.2,18.2,3.9,26.2,8.6
		c3.5,2.1,6.9,4.6,9.9,7.5v0c-1.7,1.9-3.1,3.5-4.5,5.1c-0.3,0.4-0.7,0.8-1,1.1c-0.6,0.7-1.3,1.5-1.9,2.2c-0.6,0.7-1.2,1.4-1.9,2.1
		c-0.6,0.7-1.2,1.4-1.9,2.2c-0.6,0.7-1.3,1.5-2,2.3c-1,1.2-2.2,2.5-3.4,3.9c-8.3-7.7-18.7-12.3-30-12.3c-0.3,0-0.6,0-0.9,0
		c-0.3,0-0.6,0-0.8,0c-0.3,0-0.6,0.1-0.9,0.1c-0.3,0-0.5,0-0.8,0.1c-0.3,0-0.6,0.1-0.9,0.1c-0.3,0-0.5,0.1-0.8,0.1
		c-0.3,0.1-0.6,0.1-0.9,0.2c-0.3,0.1-0.5,0.1-0.8,0.2c-0.3,0.1-0.6,0.2-0.9,0.2c-0.2,0.1-0.5,0.1-0.7,0.2c-0.3,0.1-0.6,0.2-0.9,0.3
		c-0.2,0.1-0.4,0.1-0.7,0.2c-0.3,0.1-0.6,0.2-0.9,0.4c-0.2,0.1-0.4,0.2-0.6,0.2c-0.3,0.1-0.6,0.3-0.9,0.4c-0.2,0.1-0.4,0.2-0.6,0.3
		c-0.3,0.2-0.6,0.3-1,0.5c-0.2,0.1-0.4,0.2-0.5,0.3c-0.3,0.2-0.7,0.4-1,0.6c-0.1,0.1-0.3,0.2-0.4,0.2c-0.3,0.2-0.7,0.4-1,0.6
		c-0.1,0.1-0.3,0.2-0.4,0.3c-0.3,0.2-0.7,0.5-1,0.7c-0.1,0.1-0.3,0.2-0.4,0.3c-0.3,0.2-0.7,0.5-1,0.8c-0.1,0.1-0.2,0.2-0.3,0.3
		c-0.3,0.3-0.7,0.6-1,0.9c-0.1,0.1-0.2,0.2-0.3,0.2c-0.3,0.3-0.6,0.6-0.9,0.9c-0.1,0.1-0.2,0.2-0.3,0.3c-0.3,0.3-0.6,0.6-0.9,0.9
		c-0.1,0.1-0.2,0.2-0.3,0.3c-0.3,0.3-0.6,0.6-0.9,1c-0.1,0.1-0.2,0.2-0.3,0.3c-0.3,0.3-0.5,0.6-0.8,1c-0.1,0.1-0.2,0.2-0.3,0.4
		c-0.2,0.3-0.5,0.7-0.7,1c-0.1,0.1-0.2,0.3-0.3,0.4c-0.2,0.3-0.4,0.6-0.6,0.9c-0.1,0.2-0.2,0.3-0.3,0.5c-0.2,0.3-0.4,0.6-0.5,0.9
		c-0.1,0.2-0.2,0.4-0.3,0.5c-0.2,0.3-0.4,0.6-0.5,1c-0.1,0.2-0.2,0.3-0.3,0.5c-0.2,0.3-0.3,0.7-0.5,1c-0.1,0.2-0.2,0.4-0.3,0.5
		c-0.2,0.3-0.3,0.7-0.4,1c-0.1,0.2-0.2,0.4-0.2,0.5c-0.1,0.3-0.2,0.6-0.3,0.9c-0.1,0.2-0.2,0.4-0.2,0.7c-0.1,0.3-0.2,0.5-0.2,0.8
		c-0.1,0.3-0.2,0.6-0.3,0.8c-0.1,0.3-0.1,0.5-0.2,0.8c-0.1,0.3-0.2,0.6-0.2,0.9c-0.1,0.3-0.1,0.5-0.2,0.8c-0.1,0.3-0.1,0.6-0.2,0.9
		c0,0.3-0.1,0.6-0.1,0.8c0,0.3-0.1,0.6-0.1,0.9c0,0.3-0.1,0.6-0.1,0.8c0,0.3-0.1,0.6-0.1,0.9c-0.1,1.1-0.1,2.3-0.1,3.4
		c0,0.1,0,0.2,0,0.3c0,0.6,0,1.2,0,1.8c0,0.6,0,1.2,0.1,1.8c0,0.6,0.1,1.2,0.1,1.8c0.1,1.2,0.3,2.3,0.6,3.5c0.5,2.3,1.2,4.5,2.1,6.7
		c0.9,2.1,2,4.2,3.3,6.1c1.3,1.9,2.8,3.7,4.4,5.3c0.8,0.8,1.7,1.6,2.6,2.3c1.3,1.1,2.8,2.1,4.2,3c1,0.6,2,1.1,3.1,1.6
		c1,0.5,2.1,0.9,3.2,1.3c1.1,0.4,2.2,0.7,3.4,1c2.3,0.5,4.7,0.8,7.1,0.9c0.7,0,1.4,0,2.1,0c0.5,0,1,0,1.5,0c0.6,0,1.2-0.1,1.7-0.1
		c0.5,0,1-0.1,1.5-0.1c0.6-0.1,1.1-0.2,1.7-0.3c0.5-0.1,0.9-0.1,1.4-0.2c0.6-0.1,1.1-0.3,1.7-0.4c0.4-0.1,0.9-0.2,1.3-0.3
		c0.6-0.2,1.1-0.3,1.7-0.5c0.4-0.1,0.8-0.2,1.2-0.4c0.6-0.2,1.1-0.4,1.7-0.7c0.4-0.2,0.7-0.3,1.1-0.4c0.6-0.3,1.2-0.6,1.7-0.9
		c0.3-0.2,0.6-0.3,0.9-0.4c0.8-0.5,1.7-1,2.5-1.6c0.1-3.3,0.1-5.8,0.2-8.2c0.1-2.5,0.1-4.9,0.2-8.2c-1.3,0-2.4-0.1-3.6-0.1
		c-2.8-0.1-5.3-0.1-7.6-0.2c-1.9,0-3.8-0.1-5.8-0.1c-2.5,0-5.1-0.1-8.3-0.1v0c0-2.7,0.1-5.1,0.1-7.2c0-1.3,0-2.5,0.1-3.8
		c0-1.6,0-3.3,0.1-5.1s0.1-3.7,0.1-5.9c8.3,0.1,16.6,0.3,25,0.4C540.6,465,548.9,465.2,557.2,465.5L557.2,465.5z M678.8,487.2
		c0,1-0.1,1.9-0.2,2.8c0,0.3-0.1,0.6-0.1,0.9c-0.1,0.6-0.1,1.2-0.2,1.8c0,0.4-0.1,0.7-0.2,1.1c-0.1,0.5-0.1,1.1-0.2,1.6
		c-0.1,0.4-0.1,0.7-0.2,1.1c-0.1,0.5-0.2,1-0.3,1.5c-0.1,0.4-0.2,0.8-0.3,1.1c-0.1,0.5-0.2,0.9-0.3,1.4c-0.1,0.4-0.2,0.8-0.3,1.1
		c-0.1,0.4-0.3,0.9-0.4,1.3c-0.1,0.4-0.2,0.7-0.4,1.1c-0.1,0.4-0.3,0.9-0.4,1.3c-0.1,0.4-0.3,0.7-0.4,1.1c-0.2,0.4-0.3,0.8-0.5,1.2
		c-0.2,0.4-0.3,0.7-0.5,1.1c-0.2,0.4-0.4,0.8-0.5,1.2c-0.2,0.4-0.4,0.7-0.5,1c-0.2,0.4-0.4,0.8-0.6,1.1c-0.2,0.3-0.4,0.7-0.6,1
		c-0.2,0.4-0.4,0.7-0.6,1.1c-0.2,0.3-0.4,0.6-0.6,1c-0.2,0.3-0.4,0.7-0.7,1c-0.2,0.3-0.4,0.6-0.7,0.9c-0.2,0.3-0.5,0.7-0.7,1
		c-0.2,0.3-0.5,0.6-0.7,0.9c-0.3,0.3-0.5,0.6-0.8,0.9c-0.2,0.3-0.5,0.6-0.8,0.9c-0.3,0.3-0.5,0.6-0.8,0.9c-0.3,0.3-0.5,0.5-0.8,0.8
		c-0.3,0.3-0.6,0.6-0.9,0.8c-0.3,0.3-0.6,0.5-0.8,0.8c-0.3,0.3-0.6,0.5-0.9,0.8c-0.3,0.2-0.6,0.5-0.9,0.7c-0.3,0.3-0.6,0.5-0.9,0.7
		c-0.3,0.2-0.6,0.5-0.9,0.7c-0.3,0.2-0.7,0.5-1,0.7c-0.3,0.2-0.6,0.4-1,0.6c-0.3,0.2-0.7,0.4-1,0.6c-0.3,0.2-0.7,0.4-1,0.6
		c-0.4,0.2-0.7,0.4-1.1,0.6c-0.3,0.2-0.7,0.4-1,0.5c-0.4,0.2-0.7,0.4-1.1,0.5c-0.4,0.2-0.7,0.3-1.1,0.5c-0.4,0.2-0.8,0.3-1.1,0.5
		c-0.4,0.2-0.7,0.3-1.1,0.4c-0.4,0.2-0.8,0.3-1.2,0.4c-0.4,0.1-0.8,0.3-1.1,0.4c-0.4,0.1-0.8,0.3-1.2,0.4c-0.4,0.1-0.8,0.2-1.2,0.3
		c-0.4,0.1-0.8,0.2-1.2,0.3c-0.4,0.1-0.8,0.2-1.2,0.3c-0.4,0.1-0.9,0.2-1.3,0.3c-0.4,0.1-0.8,0.2-1.2,0.2c-0.4,0.1-0.9,0.2-1.3,0.2
		c-0.4,0.1-0.8,0.1-1.2,0.2c-0.4,0.1-0.9,0.1-1.3,0.2c-0.4,0-0.8,0.1-1.3,0.1c-0.5,0-0.9,0.1-1.4,0.1c-0.4,0-0.9,0.1-1.3,0.1
		c-0.5,0-0.9,0-1.4,0c-0.4,0-0.9,0-1.3,0c-0.1,0-0.3,0-0.4,0c-0.7,0-1.3,0-2,0c-6.7-0.2-12.7-1.5-18.1-3.6c-1.5-0.6-3-1.3-4.4-2.1
		c-8.5-4.5-15-11.6-19.1-20.2c-0.7-1.4-1.3-2.9-1.9-4.5c-0.3-0.8-0.5-1.5-0.8-2.3c-0.7-2.4-1.3-4.8-1.8-7.3
		c-0.3-1.7-0.5-3.4-0.7-5.2s-0.2-3.5-0.3-5.3c0-0.9,0-1.8,0-2.7c0.8-22,1.5-44,2.3-65.9c1.3,0,2.5,0.1,3.6,0.1c0.6,0,1.1,0,1.7,0.1
		c2.2,0.1,4.1,0.1,6.1,0.2c3.4,0.1,6.6,0.3,10.6,0.4c1.1,0,2.3,0.1,3.6,0.1v0c-0.9,21.8-1.8,43.5-2.7,65.3c0,0.4,0,0.9,0,1.3
		c0,0.9,0,1.8,0.1,2.7c0.1,0.9,0.2,1.8,0.3,2.7c0.3,1.8,0.7,3.5,1.2,5.2c0.4,1.3,0.9,2.5,1.4,3.7c0.7,1.6,1.6,3.1,2.5,4.5
		c0.5,0.7,1,1.4,1.6,2c3.9,4.5,9.3,7.5,16.3,7.5c0.3,0,0.5,0,0.8,0c0.2,0,0.5,0,0.7,0c0.2,0,0.5,0,0.7,0c0.2,0,0.4,0,0.7,0
		c0.2,0,0.4-0.1,0.7-0.1c0.2,0,0.4,0,0.7-0.1c0.2,0,0.4-0.1,0.7-0.1c0.2,0,0.4-0.1,0.6-0.1c0.2,0,0.4-0.1,0.7-0.1
		c0.2,0,0.4-0.1,0.6-0.1c0.2-0.1,0.4-0.1,0.6-0.2c0.2-0.1,0.4-0.1,0.6-0.2c0.2-0.1,0.4-0.1,0.6-0.2c0.2-0.1,0.4-0.1,0.6-0.2
		c0.2-0.1,0.4-0.2,0.6-0.2c0.2-0.1,0.4-0.1,0.6-0.2c0.2-0.1,0.4-0.2,0.6-0.3c0.2-0.1,0.4-0.2,0.5-0.2c0.2-0.1,0.4-0.2,0.6-0.3
		c0.2-0.1,0.3-0.2,0.5-0.3c0.2-0.1,0.4-0.2,0.6-0.3c0.2-0.1,0.3-0.2,0.5-0.3c0.2-0.1,0.4-0.2,0.6-0.4c0.2-0.1,0.3-0.2,0.5-0.3
		c0.2-0.1,0.4-0.3,0.6-0.4c0.2-0.1,0.3-0.2,0.5-0.3c0.2-0.1,0.4-0.3,0.6-0.4c0.1-0.1,0.3-0.2,0.4-0.3c0.2-0.2,0.4-0.3,0.5-0.5
		c0.1-0.1,0.3-0.2,0.4-0.3c0.2-0.2,0.4-0.3,0.5-0.5c0.1-0.1,0.3-0.2,0.4-0.4c0.2-0.2,0.3-0.4,0.5-0.5c0.1-0.1,0.2-0.2,0.4-0.4
		c0.2-0.2,0.3-0.4,0.5-0.6c0.1-0.1,0.2-0.3,0.3-0.4c0.2-0.2,0.3-0.4,0.5-0.6c0.1-0.1,0.2-0.3,0.3-0.4c0.2-0.2,0.3-0.4,0.4-0.6
		c0.1-0.1,0.2-0.3,0.3-0.4c0.1-0.2,0.3-0.4,0.4-0.6c0.1-0.1,0.2-0.3,0.3-0.4c0.1-0.2,0.2-0.4,0.4-0.7c0.1-0.2,0.2-0.3,0.2-0.5
		c0.1-0.2,0.2-0.4,0.3-0.7c0.1-0.2,0.2-0.3,0.2-0.5c0.1-0.2,0.2-0.5,0.3-0.7c0.1-0.2,0.1-0.3,0.2-0.5c0.1-0.2,0.2-0.5,0.3-0.7
		c0.1-0.2,0.1-0.3,0.2-0.5c0.1-0.3,0.2-0.5,0.2-0.8c0-0.2,0.1-0.3,0.2-0.5c0.1-0.3,0.1-0.5,0.2-0.8c0-0.2,0.1-0.3,0.1-0.5
		c0.1-0.3,0.1-0.5,0.2-0.8c0-0.2,0.1-0.3,0.1-0.5c0.1-0.3,0.1-0.6,0.1-0.9c0-0.2,0.1-0.3,0.1-0.5c0-0.3,0.1-0.6,0.1-0.9
		c0-0.2,0-0.3,0-0.5c0-0.3,0-0.6,0.1-1c0-0.1,0-0.3,0-0.4c0-0.5,0-0.9,0-1.4c1.2-22,2.4-44,3.7-66c0.6,0,1.3,0.1,1.9,0.1
		c1.8,0.1,3.5,0.2,5,0.3c6.2,0.4,11,0.6,18.7,1.1C681.5,443.8,680.1,465.5,678.8,487.2z M796.3,434.2c-0.1,1-0.2,2-0.3,2.9
		c-0.1,0.9-0.2,1.8-0.2,2.7s-0.2,1.7-0.2,2.5s-0.2,1.7-0.2,2.5c-0.2,1.7-0.3,3.5-0.5,5.5c-0.1,1-0.2,2.1-0.3,3.2
		c-5.2-0.5-10.3-1-15.5-1.4c-10.3-0.9-20.6-1.8-30.9-2.7c-5.2-0.4-10.3-0.8-15.5-1.2c-0.1,1.8-0.3,3.3-0.4,4.8
		c-0.1,1-0.1,1.9-0.2,2.9c-0.1,0.9-0.1,1.8-0.2,2.7c-0.1,1.3-0.2,2.6-0.3,4c-0.1,0.9-0.1,1.8-0.2,2.8c-0.1,0.9-0.1,1.9-0.2,3
		c-0.1,1-0.2,2.1-0.3,3.3c9,0.7,18,1.4,27,2.2c9,0.8,18,1.6,27,2.4v0c-0.5,5.1-0.8,8.7-1.2,12.5c-0.1,0.8-0.2,1.7-0.2,2.6
		c-0.1,0.9-0.2,1.8-0.3,2.7c-0.1,1.4-0.3,3-0.4,4.6c-17.9-1.7-35.8-3.2-53.7-4.5c-0.1,1.8-0.3,3.5-0.4,5c-0.1,1-0.2,2-0.2,3
		c-0.2,2.8-0.4,5.4-0.6,8.3c-0.1,0.9-0.1,1.9-0.2,3c-0.1,1.5-0.2,3.2-0.4,5c20.5,1.6,41,3.4,61.4,5.3c-0.1,1.1-0.2,2.2-0.3,3.2
		c-0.1,1-0.2,2-0.3,2.9c-0.2,2.3-0.4,4.3-0.6,6.5c-0.1,0.8-0.2,1.7-0.2,2.6c-0.2,2.2-0.4,4.6-0.7,7.4c-21.4-2-42.8-3.8-64.2-5.4
		c-7.1-0.5-14.3-1.1-21.4-1.6v0c2.7-38.4,5.4-76.8,8-115.2c14.6,1,29.2,2.2,43.8,3.4s29.2,2.5,43.8,3.8
		C796.5,432.2,796.4,433.2,796.3,434.2z"/>
	<path d="M365.8,489.7c11.3-0.3,22.7-0.5,34-0.7c-5.9-13.9-11.9-27.8-17.9-41.6C376.5,461.5,371.1,475.6,365.8,489.7z"/>
</g>
<path fill-rule="evenodd" clip-rule="evenodd" d="M313.4,107.3c9.5,3.4,18.7,6.9,27.8,10.7c-2.8-10-5.7-19.9-8.8-29.9
	c6.3-8.1,13-16.1,19.8-24.1c-10.6-0.5-21.1-0.8-31.8-0.8c-6-8.6-12.1-17.1-18.5-25.5c-3.3,10-6.5,20-9.4,30
	c-10.1,3.4-20,7-29.9,10.9c9,5.3,17.8,10.8,26.4,16.5c0.3,10.4,0.7,20.8,1.2,31.1C297.9,119.8,305.5,113.5,313.4,107.3z"/>
<path fill-rule="evenodd" clip-rule="evenodd" d="M603.4,110.3c6.1,7.9,12,15.9,17.6,24.1c3-9.9,5.9-19.9,8.8-29.9
	c9.7-3.4,19.6-6.6,29.7-9.5c-8.6-6.2-17.3-12.1-26.3-17.9c-0.4-10.4-0.9-20.9-1.7-31.4c-8.2,6.6-16.3,13.3-24.2,20.2
	c-10.3-2.6-20.7-4.9-31-7c4.7,9.4,9.2,18.7,13.3,28.2c-5.3,8.9-10.6,17.9-15.8,26.8C583.5,112.4,593.4,111.2,603.4,110.3z"/>
<path fill-rule="evenodd" clip-rule="evenodd" d="M488,85.8c-1.1-10.3-2.2-20.6-3.5-31c7.6-6.9,15.5-13.7,23.7-20.3
	c-10.3-2.4-20.7-4.4-31.2-6.3c-4.4-9.5-9-18.9-13.8-28.3c-5,9.3-9.8,18.6-14.4,28c-10.5,1.6-21,3.5-31.3,5.6
	c8,6.8,15.7,13.7,23.2,20.8c-1.5,10.3-2.9,20.6-4.2,30.9c8.4-5.1,17.1-10,25.9-14.8C471.2,75.4,479.7,80.5,488,85.8z"/>
<path fill-rule="evenodd" clip-rule="evenodd" d="M608.8,639c-9.5-3.4-18.7-6.9-27.8-10.7c2.8,10,5.7,19.9,8.8,29.9
	c-6.3,8.1-13,16.1-19.8,24.1c10.6,0.5,21.1,0.8,31.8,0.8c6,8.6,12.1,17.1,18.5,25.5c3.3-10,6.5-20,9.4-30c10.1-3.4,20-7,29.9-10.9
	c-9-5.3-17.8-10.8-26.4-16.5c-0.3-10.4-0.7-20.8-1.2-31.1C624.4,626.5,616.7,632.8,608.8,639z"/>
<path fill-rule="evenodd" clip-rule="evenodd" d="M318.9,636c-6.1-7.9-12-15.9-17.6-24.1c-3,9.9-5.9,19.9-8.8,29.9
	c-9.7,3.4-19.6,6.6-29.7,9.5c8.6,6.2,17.3,12.1,26.3,17.9c0.4,10.4,0.9,20.9,1.7,31.4c8.2-6.6,16.3-13.3,24.2-20.2
	c10.3,2.6,20.7,4.9,31,7c-4.7-9.4-9.2-18.7-13.3-28.2c5.3-8.9,10.6-17.9,15.8-26.8C338.8,633.9,328.9,635.1,318.9,636z"/>
<path fill-rule="evenodd" clip-rule="evenodd" d="M434.2,660.5c1.1,10.3,2.2,20.6,3.5,31c-7.6,6.9-15.5,13.7-23.7,20.3
	c10.3,2.4,20.7,4.4,31.2,6.3c4.4,9.5,9,18.9,13.8,28.3c5-9.3,9.8-18.6,14.4-28c10.5-1.6,21-3.5,31.3-5.6c-8-6.8-15.7-13.7-23.2-20.8
	c1.5-10.3,2.9-20.6,4.2-30.9c-8.4,5.1-17.1,10-25.9,14.8C451,670.9,442.5,665.8,434.2,660.5z"/>
<g>
	<g id="bet9ja">
		<g>
			<path fill-rule="evenodd" clip-rule="evenodd" d="M813.2,228.2c-1.1,6.7-1.9,13.5-3.2,20.2c-3.2,17-6.9,33.9-9.6,50.9
				c-1,6.6-0.1,13.6,0.4,20.3c0.3,4.1,0.7,4.1-3.4,4.1c-13.1,0-26.3-0.1-39.4,0.1c-2.5,0-3.6-0.6-3.9-3.2c-0.8-6.9-0.9-6.9-6.8-3.2
				c-13.1,8.3-27.1,12.4-42.7,9c-15.9-3.5-26.3-16.4-24.8-31.3c1.4-14.6,8.9-25.8,20.6-34.3c8.1-5.9,17.3-9.5,26.8-12.7
				c11-3.6,22-7.6,32.7-11.9c10.5-4.2,12.6-14.1,10.6-23.1c-0.6-2.7-2.5-4.7-5.3-5.5c-6.8-1.9-15.3-0.5-17,6.7
				c-0.4,1.8-0.4,3.8-0.1,5.6c1.1,5.8,0.3,7.7-5.2,10c-6.7,2.7-13.5,5.4-21,4.2c-6-1-10.4-4.3-13.3-9.5c-5.1-9.2-6.1-19-3.9-29.1
				c0.3-1.3,0.5-2.6,2.2-1.5c8.5,5.3,17.8,3.6,26.9,3c9.6-0.6,19.2-2.7,28.8-3.5c11.7-1,23.2,0.1,34.4,4.1
				c9.9,3.5,14.4,11,15.5,21.1c0.1,1.3,0.4,2.5,0.6,3.8C813.2,224.4,813.2,226.3,813.2,228.2z M765.1,247.6
				c-4.1,1.8-7.7,2.8-10.9,4.8c-10.5,6.6-18.7,15.5-24.8,26.3c-3.1,5.5-4.2,11.6-3.5,17.9c1,8.4,8.4,14,15.5,11.1
				c7.8-3.2,14.5-7.8,15.3-17.5c0.1-1.7,0.6-3.3,0.9-5C760.1,273.1,762.5,260.9,765.1,247.6z"/>
			<path fill-rule="evenodd" clip-rule="evenodd" d="M612.5,359.6c-0.2,0-0.4,0-0.5-0.1c-2.4-0.3-4.8-1-7.1-1.7c0,0,1-1,1.1-1.1
				c9.3-7,13.9-16.7,16.1-27.8c6.7-33.4,13.3-66.9,20-100.3c0.6-3.1,1.1-6.3,1.9-9.4c1.8-7.2,1.4-14.1-2-20.9
				c-1.6-3.3-1.4-3.4,2.2-3.4c14.5,0,29.1,0,43.6,0c2.3,0,2.9,0.4,2.4,2.8c-4.9,24.8-9.7,49.6-14.5,74.4c-3.9,20.2-8,40.4-11.8,60.6
				c-1.5,7.9-5.7,13.7-12.2,18c-8.9,5.8-19.9,8.8-30.5,9.3C618.3,360,615.3,359.9,612.5,359.6z"/>
			<path fill-rule="evenodd" clip-rule="evenodd" d="M256.4,265.9c-2.5,5.7-5.3,13.6-9.2,20.8c-7.5,13.9-17.7,25.4-32.4,32.1
				c-6.9,3.1-14.1,4.9-21.7,4.9c-25.2,0.1-50.5,0-75.7,0.1c-0.6,0-1.2-0.1-2.1-0.1c0.3-0.8,0.5-1.6,0.8-2.1
				c6.6-9.9,9.2-21.1,11.4-32.6c7.6-39.3,15.6-78.6,23.5-117.9c1.2-5.9,0.2-11.5-1.3-17.1c-0.6-2-0.3-2.6,1.9-2.6
				c14.8,0.1,29.5,0.1,44.3,0c2,0,2.2,0.6,1.9,2.5c-3.5,17.4-6.8,34.9-10.3,52.6c2.3-1.4,4.5-2.8,6.7-4.1c8.2-4.8,16.7-8.8,26.3-9.3
				c20.3-0.9,34,9.7,38.6,29.6c2,8.5,1.8,17.2,0.7,26.6c1.5-3.9,2.5-7.2,3.9-10.3c12.4-26.9,33.5-42.2,62.8-46
				c13.5-1.8,26.7-0.9,39.1,5.3c12.7,6.3,22,15.6,24,30.3c1.3,9.6,0.4,19.2-1.7,28.7c-0.5,2.1-1.9,1.9-3.4,1.9
				c-24.4,0-48.7,0.1-73.1,0.1c-2.9,0-4,0.7-4.5,3.7c-1.9,10.8-4.4,21.5-3.6,32.7c0.9,12,7.9,19,19.9,19.4c16.8,0.6,29.2-8,33-22.9
				c1.3-5,1.1-10-1-14.7c-0.8-1.8-0.4-2.6,1.4-2.8c3.2-0.4,6.6-1.4,9.7-1c8.8,1.2,13.1,8.7,11.2,18.3c-2,10.2-8,17.5-16.5,23
				c-13.9,8.9-29.2,12.8-45.7,12c-10.5-0.5-20.9-1.8-30.6-6.2c-18-8.1-27.3-22.2-28.2-41.8C256.2,273.8,256.4,268.9,256.4,265.9z
				 M214.7,232.2c-0.9-4-1.4-8.2-2.7-12.1c-1.4-4.1-4.7-6.1-9.2-6.1c-5.5-0.1-9.6,2.6-13.1,6.5c-5.1,5.6-8.1,12.3-9.7,19.6
				c-1.8,7.9-3.2,15.9-4.8,23.8c-3,15.3-5.9,30.6-8.9,45.8c-0.2,1.1-0.6,2.1,1.2,2c3.5-0.2,7.2,0.5,10.5-0.5
				c12.4-3.6,21.1-11.3,25.1-23.8c2-6.1,3.4-12.3,4.8-18.6C210.8,256.8,213.8,244.7,214.7,232.2z M326.4,247.5c4.5,0,9-0.1,13.4,0
				c2,0.1,3-0.3,3.3-2.6c0.5-3.9,1.7-7.7,2.2-11.6c0.9-7,2-14.1,2-21.2c0-6-4.6-9.5-10.7-9.5c-7.8,0.1-13.2,4.3-16.5,10.8
				c-5.1,9.9-7.8,20.7-9.8,31.6c-0.4,2,0.4,2.6,2.3,2.5C317.3,247.4,321.9,247.5,326.4,247.5z"/>
			<path fill-rule="evenodd" clip-rule="evenodd" d="M565,147c16.3,0.2,32.6,3.5,46.3,14.8c13.9,11.4,21.6,26.2,23.1,44.1
				c2.7,33.3-13.2,85.2-58.6,109.6c-16,8.6-33.2,12-51.2,11.8c-13.5-0.2-26.6-2.2-39.1-7.4c-4.3-1.8-8.5-4.2-12.1-7.1
				c-9.7-7.8-10.2-20.8-1.4-30.2c12.9-13.9,38.6-13.5,51.2,0.8c1.9,2.1,2.3,3.4-0.4,5.3c-5.4,3.8-8.9,9-8,16
				c0.8,6.1,6.2,10.9,12.9,12.1c7,1.2,13.5-0.2,18.4-5.2c4.8-4.9,9.2-10.4,12.8-16.3c8.1-13.5,12.9-28.3,15.5-43.7
				c0.2-0.9-0.2-2-0.3-3c-0.8,0.4-1.7,0.6-2.4,1.2c-15.3,11-32.2,17-51.2,16.3c-15.4-0.5-28.9-5.5-38.5-18.3
				c-8-10.8-9.4-23.1-7.1-36c5.6-31.1,25.9-48.8,54.3-59C540.3,148.6,552.1,147.1,565,147z M527.5,219.6c0.5,3.8,0.8,8.3,1.7,12.6
				c2.5,12.1,9.9,17.1,22,15.2c8.3-1.3,14.9-5.8,20.1-12.1c14.5-17.6,18.6-38.1,14.6-60.1c-2.3-12.9-10.5-18.5-22.8-17
				c-7.8,1-14,5-18.8,11.1C532.8,183.9,528.8,201,527.5,219.6z"/>
			<path fill-rule="evenodd" clip-rule="evenodd" d="M450.6,297.4c-4.3,21.9-25.4,34.3-45.7,27.1c-11.5-4.1-18.2-15.7-16-27.8
				c5.4-28.7,10.7-57.4,16.2-86.1c0.5-2.6-0.2-3.6-2.8-3.2c-1.2,0.2-2.3,0.3-3.5,0.3c-0.9,0-1.9-0.4-2.8-0.6c0.5-1,0.8-2.3,1.5-3
				c2.4-2,4.9-3.9,7.5-5.5c8.4-5.3,14.6-12.7,20.8-20.3c9-11,18.7-21.4,32.1-27.5c5.3-2.4,10.7-4.3,16.6-3.8
				c0.9,0.1,1.7,0.4,2.6,0.6c-0.5,1.2-0.6,3.1-1.5,3.6c-16.3,9.3-20.1,25.5-23.7,41.9c-0.4,1.8,0.6,1.6,1.7,1.6
				c4.8,0,9.6,0.1,14.4,0c2,0,2.3,0.7,1.9,2.4c-0.7,2.9-1.3,5.8-1.7,8.8c-0.3,1.9-1.1,2.4-3,2.4c-4.6-0.1-9.2,0.1-13.8-0.1
				c-2.1-0.1-2.7,0.8-3.1,2.6c-4.5,23.5-9,46.9-13.6,70.3c-0.6,2.9-1.4,5.8-2.2,8.7c-2.1,7.8,3.3,10.7,9.7,9.6
				C444.9,299.1,447.6,298.2,450.6,297.4z"/>
		</g>
	</g>
	<path d="M688.9,145.7c-1.9-2.4-4.2-4.4-6.9-6c-3.3-2-7.1-3.3-11.1-3.8c-1-0.1-2-0.2-3-0.2c-0.5,0-1,0-1.5,0
		c-4.4,0.2-8.5,1.5-12.1,3.6c-3.7,2.1-6.8,5.1-9.1,8.7c-0.8,1.2-1.5,2.5-2,3.9c-1.2,2.9-1.9,6.1-2,9.4c0,0.1,0,0.3,0,0.4
		c0,6.1,2.1,11.6,5.7,16.1c1.9,2.3,4.1,4.3,6.7,5.9c2.5,1.6,5.4,2.7,8.4,3.4c1.9,0.4,3.9,0.6,5.9,0.6c1.8,0,3.5-0.2,5.2-0.5
		c0.6-0.1,1.2-0.3,1.7-0.4c1-0.3,2-0.6,3-1c3.4-1.3,6.5-3.4,9.1-5.9c2.6-2.6,4.7-5.8,6-9.3c1-2.7,1.6-5.7,1.6-8.8c0,0,0-0.1,0-0.1
		C694.5,155.7,692.4,150.1,688.9,145.7z"/>
</g>
</svg>
