<?xml version="1.0" encoding="utf-8"?>
<!-- Generator: Adobe Illustrator 21.1.0, SVG Export Plug-In . SVG Version: 6.00 Build 0)  -->
<svg version="1.1" id="Layer_1" xmlns="http://www.w3.org/2000/svg" xmlns:xlink="http://www.w3.org/1999/xlink" x="0px" y="0px"
	 viewBox="0 0 874.6 678.6" style="enable-background:new 0 0 874.6 678.6;" xml:space="preserve">
<style type="text/css">
	.st0{fill:#FFFFFF;}
</style>
<title>Artboard 1</title>
<g>
	<path class="st0" d="M779,356.2c6.6-61.5-22.2-154.6-66.5-257.3l16.7-8.3c5.9-3,8.8-9.6,6.2-14.8l-28.4-58c-2.7-5.5-9.9-7.4-16-4.2
		L677,21l-96.5,50L569,77c-5.8,3-8.1,9.6-5.1,14.7l31,54.3c2.8,4.8,9.6,6.5,15.2,3.7l7.8-3.9c52,110.3,62.4,166.9,63,194.1
		c19.8,2,38.3,4.3,54.5,7.2C751.1,350,765.7,353,779,356.2z"/>
	<path class="st0" d="M193.7,340.3c0.5-27,10.8-83.4,62.7-193.7l6.2,3.1c5.6,2.8,12.5,1.1,15.2-3.7l30.9-54.3
		c2.9-5.1,0.6-11.8-5.1-14.7l-9.9-5.1l-96.5-50l-15.8-8.2c-6.1-3.2-13.3-1.3-16,4.2l-28.3,58c-2.5,5.2,0.3,11.8,6.3,14.8l18.3,9.1
		c-44,102.1-72.6,194.6-66.2,256c13.5-3.2,28.3-6,44.2-8.6C156.3,344.4,174.5,342.2,193.7,340.3z"/>
	<path class="st0" d="M543.9,332.2c7.5-7.8,14.2-16.4,19.9-25.3c3.1-4.8,6-9.7,8.5-14.6l2-4.2l1.8-3.8c0.5-1.3,1.1-2.5,1.6-3.7
		c0.3-0.7-0.2-1.5-0.9-1.6l-30.3-4v-0.1l-7.4-14.5l-14-27.5c-0.3-0.6-1-0.8-1.6-0.5l-13.8,7.7c-0.6,0.3-1.4,0.1-1.6-0.6l-14.7-38.6
		l-9.1-23.8c-0.5-1.3-2.4-0.8-2.2,0.6l1.7,9.4c0.2,1.2-1.3,1.8-2,0.9l-27.6-34.3c-0.5-0.6-1.4-0.6-1.8,0l-5.9,8.1l-4.3,5.9
		c-0.5,0.7-1.6,0.6-2-0.2l-7.4-16.9l-8.2-19.2h0l-12.7,1.7l0,0l-0.8,0.1c-0.3,0-0.7-0.1-0.9-0.3l-10.2-9.5l-1.3-1.1l-0.1-0.2
		l-0.1-0.1l-0.1-0.1l0.1,0l0.1,0l3.8,1.6l11.5,4.7c0.2,0.1,0.5,0.1,0.8,0l9.9-3.2l2.2-0.7c0.5-0.2,1.1,0,1.4,0.5l1.1,2l13.2,22.7
		c0.3,0.5,0.9,0.7,1.5,0.5l13.1-6.3c0.5-0.2,1.1-0.1,1.4,0.4l14.8,21.5c0.5,0.8,1.8,0.6,2-0.3l3-10.3c0.3-0.9,1.5-1.1,2.1-0.3
		l35.6,57.6c0.2,0.3,0.5,0.5,0.9,0.5l15.5,0.9l1.8,0.1c0.4,0,0.8,0.3,1,0.7l3.8,8.9l10.5,24.3l7.1,16.1c0.1,0.2,0.3,0.4,0.5,0.6
		l22.6,11.4c0.1-0.2,0.2-0.4,0.3-0.6c0,0,0,0,0,0c0.2-0.5,0-1.1-0.4-1.4l-10-7.1c-0.5-0.4-0.6-1.1-0.3-1.6l3.7-5l3.1-4.2
		c0.3-0.4,0.8-0.5,1.2-0.4l7.1,2c0.6,0.2,1.2-0.2,1.4-0.8c0.1-0.2,0.1-0.4,0.2-0.6c0.5-1.9,0.9-3.8,1.3-5.7c0.1-0.4-0.1-0.8-0.4-1.1
		l-19.1-15c-0.1-0.1-0.2-0.1-0.4-0.2l-8.7-2.8c-0.7-0.2-1-1-0.6-1.7l5.7-9.5c0.3-0.5,1-0.7,1.6-0.4l15.2,9.2c1,0.6,2.2-0.6,1.6-1.6
		L561,192.9c-0.2-0.3-0.5-0.5-0.8-0.5l-24.1-3.2c-0.2,0-0.3-0.1-0.4-0.2l-9.7-5.9c-0.9-0.6-0.6-2,0.5-2.1l20.5-1.4
		c1-0.1,1.4-1.3,0.7-2l-27.2-25.2c-0.2-0.2-0.4-0.3-0.6-0.3l-23.5-3.5c-0.2,0-0.3-0.1-0.4-0.2l-8.3-5.2c-0.9-0.6-0.5-2.1,0.6-2.1
		l17.1-0.5c1.1,0,1.5-1.4,0.6-2.1L487.6,126c-0.2-0.2-0.5-0.2-0.8-0.2l-24.3,3c-0.7,0.1-1.3-0.4-1.3-1.1v-8.3c0-0.6-0.4-1-1-1.1
		l-27.1-3.6l-33.4-3c-0.7-0.1-1.2,0.5-1.2,1.1v0.2l-0.1-6.2c0-0.3-0.2-0.7-0.5-0.9l-25.2-18.8c-0.4-0.3-0.8-0.3-1.2-0.1l-3.1,1.7
		c-0.5,0.3-0.7,0.9-0.5,1.5l3.6,8c0.5,1.1-0.8,2.1-1.7,1.4l-9.3-6.9c-0.4-0.3-0.8-0.3-1.2-0.1l-2.6,1.4c-0.5,0.3-0.7,0.9-0.5,1.5
		l15.3,33.9c0.3,0.6,0,1.3-0.7,1.5l-1.4,0.5c-0.2,0.1-0.4,0.2-0.5,0.3l-46.6,56.4c0,0-0.1,0.1-0.1,0.1L291,240.9
		c-0.1,0.1-0.1,0.3-0.2,0.5l-2.6,29.5c0,0.3,0,0.5,0.2,0.7l9.8,15.1c0.2,0.3,0.6,0.5,1,0.5h10.9c0.3,0,0.5,0.1,0.7,0.2l8.3,6.5
		c0.4,0.3,1.1,0.3,1.5-0.1l12.3-11.6c0.1-0.1,0.1-0.2,0.2-0.3l6.5-11.5c0.1-0.2,0.3-0.3,0.4-0.4l43.6-23.4c0.1-0.1,0.3-0.1,0.5-0.1
		l19.4-0.9c0.1,0,0.2,0,0.4-0.1l12.4-4.7c0.1,0,0.1-0.1,0.2-0.1l16.2-10.6c0.3-0.2,0.4-0.5,0.5-0.8l0.9-5.8c0.2-1.4,2.2-1.2,2.3,0.2
		l0.1,10.2c0,0.3-0.1,0.6-0.3,0.8l-14.1,15.1c-0.2,0.2-0.3,0.6-0.3,0.9l1.5,13l7.7,67.1c2.1,0,4.2,0,6.3,0
		C466,330.7,503.7,331,543.9,332.2z M368.9,175.4l-6.7,6.4c-0.2,0.2-0.5,0.3-0.8,0.3h-10.8c-0.6,0-1-0.4-1.1-1l-0.9-6.1
		c-0.1-0.5,0.1-0.9,0.5-1.1l8.7-5.3c0.3-0.2,0.8-0.2,1.1,0l9.7,5C369.3,173.9,369.5,174.8,368.9,175.4z"/>
	<path class="st0" d="M489.6,431.4c0,0.1,0,0.2,0,0.4c0.2,10,8.9,17.6,18.8,17.4c9.1-0.2,19.3-6.1,19-16.5c0-0.1,0-0.2,0-0.4
		c0.8-10.7-9.3-17.5-18.8-18.1C498.6,413.6,490,421.4,489.6,431.4z"/>
	<path class="st0" d="M675.6,565.3c-0.1,7.5,0.1,15,0.4,21.9c0,0,0,0,0,0c0,0.2,0,0.4,0,0.6c0,0.9,0.1,1.8,0.1,2.7
		c0,0.2,0,0.4,0,0.6c0.2,2.9,0.3,5.6,0.5,8.1c0.2,3,2.7,5.1,5.5,5.1c0.9,0,1.8-0.2,2.6-0.6c7-3.7,18.8-5.4,32.5-5.4
		c14,0,30,1.8,44.9,5.1c27.9,6.2,59,11.9,79.2,11.9c5.4,0,10-0.4,13.6-1.3c0.5-0.1,0.9-0.2,1.4-0.4c0.1,0,0.3-0.1,0.4-0.1
		c0.3-0.1,0.6-0.2,0.9-0.3c0.2-0.1,0.3-0.1,0.5-0.2c0.2-0.1,0.5-0.2,0.7-0.3c0.2-0.1,0.3-0.1,0.5-0.2c0.2-0.1,0.4-0.2,0.7-0.3
		c0.2-0.1,0.3-0.1,0.5-0.2c0.2-0.1,0.4-0.2,0.6-0.3c0.2-0.1,0.3-0.2,0.4-0.2c0.2-0.1,0.4-0.2,0.6-0.3c0.1-0.1,0.3-0.2,0.4-0.2
		c0.2-0.1,0.3-0.2,0.5-0.3c0.1-0.1,0.3-0.2,0.4-0.3c0.2-0.1,0.3-0.2,0.5-0.3c0.1-0.1,0.2-0.2,0.4-0.3c0.1-0.1,0.3-0.2,0.4-0.3
		c0.1-0.1,0.2-0.2,0.3-0.3c0.1-0.1,0.3-0.2,0.4-0.4c0.1-0.1,0.2-0.2,0.3-0.3c0.1-0.1,0.2-0.2,0.4-0.4c0.1-0.1,0.2-0.2,0.3-0.3
		c0.1-0.1,0.2-0.2,0.3-0.4c0.1-0.1,0.2-0.2,0.3-0.3c0.1-0.1,0.2-0.2,0.3-0.4c0.1-0.1,0.2-0.2,0.2-0.3c0.1-0.1,0.2-0.2,0.2-0.3
		c0,0,0.1-0.1,0.1-0.1c0,0-0.1,0-0.1,0c2.4-3,3.3-7.1,2.3-11c-0.4-1.5-0.7-3-1.1-4.4c-12.9-53.5-15.2-111.8-6.4-168.5
		c0.5-3.1-0.2-6.2-1.9-8.8c-3.1-4.7-24.1-29.2-128.5-47.6c-79.8-14.1-219-16.2-294.8-16.2c-72.2,0-206.6,2.1-294.6,16.1
		c-105.1,16.8-125.9,43-129,48.1c-1.5,2.5-2.1,5.5-1.7,8.3c8.7,56.7,6.5,114.9-6.4,168.5c-0.4,1.5-0.7,3-1.1,4.4
		c-1.4,5.7,1.2,11.8,6.5,14.3c0.1,0,0.1,0.1,0.2,0.1c0,0-0.1,0-0.1,0c0,0,0,0,0,0c0.2,0.1,0.3,0.2,0.5,0.3c0.1,0.1,0.3,0.2,0.4,0.2
		c0.2,0.1,0.4,0.2,0.6,0.3c0.1,0.1,0.3,0.2,0.4,0.2c0.2,0.1,0.4,0.2,0.6,0.3c0.2,0.1,0.3,0.1,0.5,0.2c0.2,0.1,0.4,0.2,0.7,0.3
		c0.2,0.1,0.3,0.1,0.5,0.2c0.2,0.1,0.5,0.2,0.7,0.3c0.2,0.1,0.3,0.1,0.5,0.2c0.3,0.1,0.6,0.2,0.9,0.3c0.1,0,0.3,0.1,0.4,0.1
		c0.4,0.1,0.9,0.3,1.4,0.4c3.6,0.9,8.2,1.3,13.6,1.3c20.2,0,51.3-5.7,79.2-11.9c14.9-3.3,30.9-5.1,44.9-5.1
		c12.9,0,24.1,1.5,31.2,4.8c0.9,0.4,1.8,0.6,2.7,0.6c3.4,0,6.4-2.6,6.7-6.3c0.1-0.9,0.1-1.9,0.2-2.9l0,0c0-0.1,0-0.2,0-0.3
		c0.1-1,0.1-1.9,0.2-3c0-0.2,0-0.5,0-0.7c0.1-0.9,0.1-1.9,0.1-2.9c0-0.2,0-0.3,0-0.5l0,0c0.3-6.6,0.5-13.8,0.4-21.1
		c4.1-0.3,8.2-0.7,12.5-1c80.8-6.1,171.6-8.3,224.7-8.3c55.9,0,148,2.7,227.8,8.6C667.7,564.7,671.7,565,675.6,565.3z M563.6,451
		c0,0.1,0,0.2,0,0.4c-0.8,37.4-23.7,71.4-62.8,70c-16.6-0.6-31.9-5.2-45.4-15.9c5.7-8.3,11.5-16.6,17.2-24.8
		c8.7,6.1,17.3,10.5,28.1,10.7c15.4,0.3,23.9-12.6,25.4-26.7c-7.5,7-18.2,10.1-28.2,10.1c-23.5-0.1-45-16.4-44.3-41.5
		c0-0.1,0-0.2,0-0.4c0-29.8,26.9-48,54.2-46.9c15.7,0.6,29.8,4.5,41.2,16.2C561.7,415.3,563.6,433.7,563.6,451z M441,388.2
		c0,10.5,0,21.1,0,31.6c-13.4,0-26.9,0.1-40.3,0.3c0.4,32.9,0.9,65.7,1.3,98.6c-12.1,0.2-24.1,0.4-36.2,0.7
		c-0.8-32.8-1.6-65.7-2.4-98.5c-13.4,0.3-26.9,0.7-40.3,1.2c-0.4-10.5-0.7-21.1-1.1-31.6C361.8,389,401.4,388.3,441,388.2z
		 M309.6,390.8c0.4,10.2,0.8,20.4,1.2,30.7c-23.7,1-47.4,2.1-71.1,3.5c0.4,6.6,0.8,13.1,1.2,19.7c21.3-1.2,42.7-2.3,64-3.2
		c0.4,9.5,0.8,19,1.2,28.4c-21.2,0.9-42.4,2-63.5,3.2c0.4,6.9,0.8,13.7,1.2,20.6c23.5-1.4,47.1-2.5,70.7-3.5
		c0.4,10.2,0.8,20.4,1.2,30.7c-35.3,1.4-70.5,3.3-105.7,5.8c-3-43.3-6.1-86.6-9.1-129.9C237,394.3,273.3,392.3,309.6,390.8z
		 M144,532c-22.4,2-44.7,4.3-67,6.7c-4.8-43.1-9.5-86.3-14.3-129.4c23.1-2.5,46.1-4.8,69.2-6.9c13.2-0.6,27-0.2,37.8,8.5
		c6.2,5,9.8,12.4,10.3,20.3c0,0.1,0,0.2,0,0.4c1.2,13.2-6.6,24.9-18.3,30.6c15.4,3.4,27.7,12.9,28.8,29.6c0,0.1,0,0.2,0,0.4
		C192.7,518.4,166.4,530.3,144,532z M615.3,524.8c-18.2-1.6-34.3-8.1-45-23.9c8.1-7,16.2-14,24.4-21c4.8,6.6,11.5,12.7,20,13
		c9.7,0.4,16.2-7.9,16-17.4c1.5-27.4,3-54.8,4.4-82.3c12.4,0.7,24.9,1.4,37.3,2.2c-1.8,27.5-3.6,54.9-5.3,82.4
		c-0.7,13-5.1,27.1-15.3,35.7C642,522,628,525.9,615.3,524.8z M670.3,525.8c21.5-42.5,43.6-84.6,66.3-126.5c12,1,24.1,2.1,36.1,3.2
		c15,45.2,29.4,90.6,43.1,136.2c-12.9-1.4-25.7-2.7-38.6-4c-2.4-8-4.8-16-7.3-24.1c-16.8-1.6-33.7-3.1-50.5-4.5
		c-3.7,7.5-7.5,14.9-11.2,22.4C695.6,527.6,683,526.7,670.3,525.8z"/>
	<path class="st0" d="M732.4,479c9.9,0.8,19.8,1.7,29.6,2.6c-3.8-12.7-7.6-25.5-11.5-38.2C744.5,455.3,738.5,467.1,732.4,479z"/>
	<path class="st0" d="M144,442c0-0.1,0-0.2,0-0.4c-0.9-8.8-10.6-10.3-17.8-9.6c-8,0.8-16.1,1.5-24.1,2.3c0.8,7.6,1.5,15.2,2.3,22.8
		c7.7-0.8,15.5-1.5,23.2-2.2C135,454.2,144.6,451.2,144,442z"/>
	<path class="st0" d="M153.7,490c0-0.1,0-0.2,0-0.4c-1-9.3-11.2-10.8-18.9-10.1c-9.3,0.9-18.6,1.7-27.9,2.7c0.8,8,1.6,15.9,2.4,23.9
		c9.4-0.9,18.7-1.8,28.1-2.7C145,502.7,154.3,499.2,153.7,490z"/>
	<path class="st0" d="M251.4,637.4H262h0.3l18.1,27.3h26.9l0.7-1.8l-20.3-29.6c11.2-4.8,18.5-13.9,18.5-27.7v-0.3
		c0-8.9-2.7-15.8-8-21c-6-6.2-15.6-9.8-29.3-9.8h-29.9h-12.7v7.2v82.9h12.7h12.3V637.4z M281.2,607.2c0,6.6-4.9,10.7-13.4,10.7
		h-16.5v-21.6h16.3c8.4,0,13.5,3.6,13.5,10.7V607.2z"/>
	<path class="st0" d="M309.3,664.7h24.3l6.4-16.1h34.7l6.6,16.1h26.8L369.7,574h-24.1l-37.6,89l-0.7,1.8H309.3z M357.5,603.6
		l10,25.6h-20.2L357.5,603.6z"/>
	<path class="st0" d="M452.3,643.7c-12.6,0-21.5-10.6-21.5-24.1v-0.3c0-13.1,8.9-23.8,21.5-23.8c8.6,0,14.5,4.1,19.7,10.6l18.8-14.5
		c-8-11.1-19.8-18.8-38.2-18.8c-27.3,0-47.5,20.6-47.5,46.8v0.3c0,26.9,20.7,46.6,46.5,46.6c19.9,0,31.4-8.6,39.9-20.3l-18.8-13.4
		C467.2,639.3,461.7,643.7,452.3,643.7z"/>
	<polygon class="st0" points="524,629.2 567.2,629.2 567.2,609.5 524,609.5 524,595.8 571.7,595.8 571.7,574.6 499.3,574.6 
		499.3,664.7 572.4,664.7 572.4,643.4 524,643.4 	"/>
	<path class="st0" d="M614.6,573.1c-21.6,0-34.9,12.1-34.9,28.8v0.3c0,18.5,14.8,23.9,34,28.3c12.2,2.8,15.2,4.9,15.2,8.6v0.3
		c0,3.9-3.6,6.2-10.3,6.2c-10.4,0-20.3-3.7-29.2-10.8l-13.9,16.6c11.1,9.9,26.3,14.9,42.2,14.9c5.4,0,10.3-0.7,14.7-1.9
		c13.5-3.9,21.7-13.5,21.7-27.4v-0.3c0-13.4-8.1-20.3-21.7-24.9c-3.6-1.2-7.5-2.2-11.8-3.2c-12.5-2.8-15.6-4.6-15.6-8.8v-0.3
		c0-3.2,3-5.8,9-5.8c5.8,0,12.2,1.7,18.4,4.8c2.3,1.2,4.6,2.5,6.8,4.1l12.5-17.6c-1.3-1-2.6-2-4-2.9c-4.6-3-9.7-5.3-15.3-6.8
		C627,573.8,621.1,573.1,614.6,573.1z"/>
</g>
</svg>
