<?xml version="1.0" encoding="utf-8"?>
<!-- Generator: Adobe Illustrator 21.0.0, SVG Export Plug-In . SVG Version: 6.00 Build 0)  -->
<svg version="1.1" id="Layer_1" xmlns="http://www.w3.org/2000/svg" xmlns:xlink="http://www.w3.org/1999/xlink" x="0px" y="0px"
	 viewBox="0 0 907.3 746.3" style="enable-background:new 0 0 907.3 746.3;" xml:space="preserve" fill="#ffffff">
<style type="text/css">
	.st0{fill-rule:evenodd;clip-rule:evenodd;}
</style>
<g>
	<path d="M60.7,158.5h99.6c24.6,0,40.1,5.6,50.5,16c6.4,6.4,10.9,15.5,10.9,27.7v0.5c0,21.1-12.7,34-31.7,40.6
		c22.9,6.6,37.6,18.8,37.6,43.2v0.5c0,28.4-23.4,49.3-68.3,49.3H60.7V158.5z M144.5,228.4c12.7,0,18.8-4.3,18.8-12.2v-0.5
		c0-7.9-6.3-12.2-19-12.2h-25.7v24.9H144.5z M148.3,291.4c13,0,19.6-5.3,19.6-13v-0.5c0-7.6-6.3-13-19.3-13h-30v26.4H148.3z"/>
</g>
<g>
	<path d="M240.5,158.5h151.6v48.8h-93.2v18h86.9v42.9h-86.9v19.3h94.5v48.8H240.5V158.5z"/>
</g>
<g>
	<path d="M454.9,208.8h-52.3v-50.3h164.1v50.3h-52.3v127.5h-59.4V208.8z"/>
</g>
<g>
	<path d="M580.6,158.5h59.4v177.8h-59.4V158.5z"/>
</g>
<g>
	<path d="M660.9,158.5h55.6l63.2,78.5v-78.5h58.9v177.8h-52.8l-66-82v82h-58.9V158.5z"/>
</g>
<g>
	<path d="M906.9,622.5c-0.4-1.5-0.8-3.1-1.1-4.7c-13.5-56-15.9-117-6.7-176.4c0.5-3.2-0.2-6.5-2-9.2c-3.3-4.9-25.2-30.6-134.6-49.9
		c-83.6-14.7-229.3-16.9-308.7-16.9c-75.6,0-216.3,2.2-308.5,16.9C35.1,400,13.3,427.4,10,432.7c-1.6,2.6-2.2,5.7-1.7,8.7
		c9.1,59.4,6.8,120.3-6.7,176.4c-0.4,1.6-0.8,3.1-1.1,4.7c-1.5,6,1.3,12.3,6.8,15c0.1,0,0.2,0.1,0.2,0.1c0,0-0.1,0-0.1,0
		c0,0,0,0,0.1,0c0.2,0.1,0.4,0.2,0.6,0.3c0.1,0.1,0.3,0.2,0.4,0.3c0.2,0.1,0.4,0.2,0.6,0.3c0.1,0.1,0.3,0.2,0.5,0.2
		c0.2,0.1,0.4,0.2,0.6,0.3c0.2,0.1,0.3,0.2,0.5,0.2c0.2,0.1,0.5,0.2,0.7,0.3c0.2,0.1,0.3,0.1,0.5,0.2c0.2,0.1,0.5,0.2,0.8,0.3
		c0.2,0.1,0.3,0.1,0.5,0.2c0.3,0.1,0.6,0.2,0.9,0.3c0.1,0,0.3,0.1,0.4,0.1c0.5,0.1,0.9,0.3,1.4,0.4c17.8,4.5,60.2-2.8,97.1-11.1
		c30-6.7,64.2-7.5,79.8-0.3c4.4,2,9.5-1.1,9.9-6c0.1-1,0.1-2,0.2-3.1c0,0,0,0,0,0c0-0.1,0-0.2,0-0.3c0.1-1,0.1-2,0.2-3.1
		c0-0.2,0-0.5,0-0.7c0.1-1,0.1-2,0.2-3c0-0.2,0-0.3,0-0.5c0,0,0,0,0,0c0.3-6.9,0.5-14.5,0.4-22c4.3-0.4,8.6-0.7,13.1-1
		c84.6-6.4,179.6-8.7,235.3-8.7c58.5,0,155,2.8,238.5,9c4.3,0.3,8.5,0.6,12.6,1c-0.1,7.8,0.1,15.8,0.4,22.9c0,0,0,0,0,0
		c0,0.2,0,0.4,0,0.6c0,1,0.1,1.9,0.1,2.9c0,0.2,0,0.4,0,0.7c0.2,3,0.4,5.9,0.6,8.5c0.3,4.2,4.8,6.6,8.5,4.6
		c14.9-7.8,50.2-7.1,81-0.3c36.9,8.2,79.3,15.5,97.1,11.1c0.5-0.1,1-0.3,1.4-0.4c0.2,0,0.3-0.1,0.4-0.1c0.3-0.1,0.6-0.2,0.9-0.3
		c0.2-0.1,0.3-0.1,0.5-0.2c0.3-0.1,0.5-0.2,0.8-0.3c0.2-0.1,0.3-0.1,0.5-0.2c0.2-0.1,0.5-0.2,0.7-0.3c0.2-0.1,0.3-0.2,0.5-0.2
		c0.2-0.1,0.4-0.2,0.6-0.3c0.2-0.1,0.3-0.2,0.5-0.2c0.2-0.1,0.4-0.2,0.6-0.3c0.1-0.1,0.3-0.2,0.4-0.3c0.2-0.1,0.4-0.2,0.5-0.3
		c0.1-0.1,0.3-0.2,0.4-0.3c0.2-0.1,0.3-0.2,0.5-0.4c0.1-0.1,0.3-0.2,0.4-0.3c0.2-0.1,0.3-0.2,0.5-0.4c0.1-0.1,0.2-0.2,0.4-0.3
		c0.1-0.1,0.3-0.2,0.4-0.4c0.1-0.1,0.2-0.2,0.3-0.3c0.1-0.1,0.3-0.3,0.4-0.4c0.1-0.1,0.2-0.2,0.3-0.3c0.1-0.1,0.2-0.3,0.3-0.4
		c0.1-0.1,0.2-0.2,0.3-0.3c0.1-0.1,0.2-0.3,0.3-0.4c0.1-0.1,0.2-0.2,0.3-0.3c0.1-0.1,0.2-0.2,0.3-0.4c0,0,0.1-0.1,0.1-0.1
		c0,0-0.1,0-0.1,0C906.9,630.9,907.9,626.6,906.9,622.5z M71.7,431.3c4.3-0.4,7.8-0.7,11.1-1c0.5-0.1,1.1-0.1,1.6-0.1
		c1.1-0.1,2.1-0.2,3.2-0.3c1.1-0.1,2.2-0.2,3.3-0.3c2.8-0.3,5.8-0.5,9.4-0.8c3,34.4,6,68.7,9,103.1c10.5-0.9,21.1-1.8,31.6-2.6
		s21.1-1.6,31.6-2.4c0.2,2.6,0.3,4.8,0.5,6.9c0,0.5,0.1,1,0.1,1.5c0.1,1,0.1,2,0.2,3c0.3,4.4,0.6,8.5,1,14.4
		c-30.2,2.2-60.4,4.7-90.6,7.5C79.8,517.1,75.8,474.2,71.7,431.3L71.7,431.3z M219.4,549.6c-8,0.5-16,1-24,1.5
		c-1.4-21.5-2.8-43-4.3-64.5c-1.4-21.5-2.8-43-4.3-64.5v0c8.2-0.5,16.4-1,24.6-1.5c16.4-1,32.8-1.8,49.2-2.6
		c8.2-0.4,16.4-0.8,24.6-1.1c0.4,10.1,0.6,15.2,1.1,25.3c-17.4,0.7-34.7,1.6-52.1,2.5c-5.8,0.3-11.6,0.6-17.3,1
		c0.3,5.9,0.6,10.1,0.9,14.6c0.2,3.5,0.4,7,0.7,11.6c20.2-1.2,40.4-2.2,60.7-3.1c0.1,1.3,0.1,2.4,0.2,3.6c0,1.1,0.1,2.2,0.1,3.2
		c0.2,4.1,0.3,7.6,0.5,11.7c0,1,0.1,2.1,0.1,3.2c0,0.6,0,1.1,0.1,1.7c0,0.6,0.1,1.2,0.1,1.8v0c-20.1,0.9-40.2,1.9-60.3,3.1
		c0.2,2.7,0.3,5.1,0.4,7.3c0.1,2.2,0.2,4.2,0.4,6.3c0.1,2.5,0.3,5.1,0.5,8c0.1,1.7,0.2,3.6,0.3,5.6c11.5-0.7,23-1.3,34.5-1.8
		c11.5-0.6,23-1.1,34.5-1.6c0.1,1.3,0.1,2.4,0.1,3.6c0.1,3.4,0.3,6.2,0.4,9.1c0,0.9,0.1,1.9,0.1,2.9s0.1,2,0.1,3
		c0.1,2.1,0.2,4.3,0.3,6.8C267.4,547,243.4,548.2,219.4,549.6z M439.2,542.6c-11.6,0-17.4,0.1-29.1,0.2c-4.8-11.6-7.1-17.3-12-28.9
		c-9,0.1-17.9,0.3-26.9,0.5c-9,0.2-17.9,0.4-26.9,0.6c-4.3,11.7-6.5,17.6-10.7,29.3c-0.7,0-1.4,0-2.1,0.1c-1.3,0-2.6,0.1-3.8,0.1
		c-1.2,0-2.3,0.1-3.5,0.1c-1.1,0-2.2,0.1-3.3,0.1c-1.6,0.1-3.2,0.1-4.8,0.2c-3.3,0.1-6.7,0.2-11,0.4c8.2-22.1,16.6-44.1,25.1-66.1
		c8.5-22,17.1-43.9,25.9-65.8c2.6-0.1,5-0.1,7.1-0.2c1.1,0,2.1,0,3.1-0.1c0.5,0,1,0,1.5,0c1.5,0,3-0.1,4.5-0.1c0.5,0,1,0,1.5,0
		c1.6,0,3.2-0.1,5-0.1c1.2,0,2.4,0,3.7-0.1c9.7,21.5,19.2,43.1,28.6,64.7c4.7,10.8,9.4,21.6,14,32.5
		C430,520.9,434.6,531.8,439.2,542.6L439.2,542.6z M567.5,469.7c-0.5,18.7-1.1,37.4-1.6,56.1c-4.7,4-9.9,7.4-15.4,10.1
		c-2.2,1.1-4.4,2.1-6.7,3c-5.7,2.3-11.7,3.9-17.8,4.9c-4.8,0.8-9.8,1.2-14.6,1.3c-0.2,0-0.4,0-0.6,0c-0.5,0-1,0-1.5,0
		c-0.6,0-1.1,0-1.7,0c-0.6,0-1.2-0.1-1.8-0.1c-0.6,0-1.1-0.1-1.7-0.1c-0.6-0.1-1.2-0.1-1.7-0.2c-0.5-0.1-1.1-0.1-1.6-0.2
		c-0.6-0.1-1.1-0.2-1.7-0.3c-0.5-0.1-1.1-0.2-1.6-0.3c-0.6-0.1-1.1-0.2-1.7-0.4c-0.5-0.1-1-0.2-1.6-0.4c-0.6-0.1-1.1-0.3-1.6-0.5
		c-0.5-0.1-1-0.3-1.5-0.4c-0.5-0.2-1.1-0.4-1.6-0.5c-0.5-0.2-1-0.3-1.5-0.5c-0.5-0.2-1.1-0.4-1.6-0.6c-0.5-0.2-1-0.4-1.4-0.6
		c-0.5-0.2-1-0.5-1.5-0.7c-0.5-0.2-0.9-0.4-1.4-0.6c-0.5-0.2-1-0.5-1.5-0.8c-0.4-0.2-0.9-0.5-1.3-0.7c-0.5-0.3-1-0.6-1.5-0.9
		c-0.4-0.3-0.9-0.5-1.3-0.8c-0.5-0.3-1-0.6-1.4-0.9c-0.4-0.3-0.8-0.5-1.2-0.8c-0.5-0.3-0.9-0.7-1.4-1c-0.4-0.3-0.8-0.6-1.2-0.9
		c-0.4-0.3-0.9-0.7-1.3-1.1c-0.4-0.3-0.8-0.6-1.1-0.9c-0.4-0.4-0.9-0.8-1.3-1.1c-0.4-0.3-0.7-0.6-1.1-1c-0.4-0.4-0.8-0.8-1.2-1.2
		c-0.3-0.3-0.7-0.7-1-1c-0.4-0.4-0.8-0.8-1.2-1.3c-0.3-0.4-0.7-0.7-1-1.1c-0.4-0.4-0.7-0.9-1.1-1.3c-0.3-0.4-0.6-0.7-0.9-1.1
		c-0.4-0.5-0.7-0.9-1.1-1.4c-0.3-0.4-0.6-0.8-0.9-1.2c-0.3-0.5-0.7-1-1-1.4c-0.3-0.4-0.6-0.8-0.8-1.2c-0.3-0.5-0.6-1-0.9-1.5
		c-0.3-0.4-0.5-0.8-0.8-1.2c-0.3-0.5-0.6-1-0.9-1.6c-0.2-0.4-0.5-0.8-0.7-1.2c-0.3-0.5-0.5-1.1-0.8-1.6c-0.2-0.4-0.4-0.8-0.6-1.3
		c-0.3-0.5-0.5-1.1-0.7-1.6c-0.2-0.4-0.4-0.9-0.6-1.3c-0.2-0.6-0.4-1.1-0.7-1.7c-0.2-0.4-0.4-0.9-0.5-1.3c-0.2-0.6-0.4-1.2-0.6-1.8
		c-0.1-0.4-0.3-0.9-0.4-1.3c-0.2-0.6-0.3-1.2-0.5-1.8c-0.1-0.4-0.3-0.9-0.4-1.3c-0.2-0.6-0.3-1.3-0.4-1.9c-0.1-0.4-0.2-0.9-0.3-1.3
		c-0.1-0.7-0.2-1.3-0.4-2c-0.1-0.4-0.2-0.9-0.2-1.3c-0.1-0.7-0.2-1.4-0.3-2.1c-0.1-0.4-0.1-0.8-0.2-1.2c-0.1-0.8-0.1-1.6-0.2-2.4
		c0-0.3-0.1-0.7-0.1-1c-0.1-1.1-0.1-2.3-0.1-3.4v-0.2c0-0.1,0-0.1,0-0.2v0c0,0,0,0,0,0c0-1.1,0.1-2.3,0.1-3.4c0-0.4,0.1-0.7,0.1-1.1
		c0.1-0.8,0.1-1.5,0.2-2.2c0.1-0.4,0.1-0.9,0.2-1.3c0.1-0.7,0.2-1.3,0.3-2c0.1-0.5,0.2-0.9,0.3-1.4c0.1-0.6,0.2-1.2,0.4-1.9
		c0.1-0.5,0.2-1,0.3-1.4c0.1-0.6,0.3-1.2,0.4-1.8c0.1-0.5,0.3-1,0.4-1.4c0.2-0.6,0.3-1.1,0.5-1.7c0.2-0.5,0.3-1,0.5-1.4
		c0.2-0.5,0.4-1.1,0.6-1.6c0.2-0.5,0.4-1,0.6-1.4c0.2-0.5,0.4-1.1,0.6-1.6c0.2-0.5,0.4-0.9,0.6-1.4c0.2-0.5,0.5-1,0.7-1.5
		c0.2-0.5,0.5-0.9,0.7-1.4c0.3-0.5,0.5-1,0.8-1.5c0.3-0.5,0.5-0.9,0.8-1.4c0.3-0.5,0.6-1,0.8-1.4c0.3-0.4,0.6-0.9,0.8-1.3
		c0.3-0.5,0.6-0.9,0.9-1.4c0.3-0.4,0.6-0.9,0.9-1.3c0.3-0.4,0.6-0.9,1-1.3c0.3-0.4,0.6-0.8,1-1.2c0.3-0.4,0.7-0.9,1-1.3
		c0.3-0.4,0.7-0.8,1-1.2c0.4-0.4,0.7-0.8,1.1-1.2c0.4-0.4,0.7-0.8,1.1-1.2c0.4-0.4,0.8-0.8,1.1-1.2c0.4-0.4,0.8-0.7,1.1-1.1
		c0.4-0.4,0.8-0.8,1.2-1.1c0.4-0.4,0.8-0.7,1.2-1.1c0.4-0.4,0.8-0.7,1.2-1.1c0.4-0.3,0.8-0.7,1.2-1c0.4-0.3,0.9-0.7,1.3-1
		c0.4-0.3,0.9-0.6,1.3-0.9c0.4-0.3,0.9-0.6,1.3-0.9c0.4-0.3,0.9-0.6,1.3-0.9c0.5-0.3,0.9-0.6,1.4-0.9c0.5-0.3,0.9-0.5,1.4-0.8
		c0.5-0.3,0.9-0.5,1.4-0.8c0.5-0.3,0.9-0.5,1.4-0.7c0.5-0.2,1-0.5,1.5-0.7c0.5-0.2,1-0.5,1.4-0.7c0.5-0.2,1-0.4,1.5-0.7
		c0.5-0.2,1-0.4,1.5-0.6c0.5-0.2,1-0.4,1.6-0.6c0.5-0.2,1-0.4,1.5-0.5c0.5-0.2,1.1-0.3,1.6-0.5c0.5-0.2,1-0.3,1.5-0.5
		c0.5-0.2,1.1-0.3,1.6-0.4c0.5-0.1,1-0.3,1.6-0.4c0.5-0.1,1.1-0.2,1.7-0.3c0.5-0.1,1.1-0.2,1.6-0.3c0.6-0.1,1.1-0.2,1.7-0.3
		c0.5-0.1,1.1-0.1,1.6-0.2c0.6-0.1,1.1-0.1,1.7-0.2c0.5,0,1.1-0.1,1.6-0.1c0.6,0,1.2-0.1,1.7-0.1c0.6,0,1.1,0,1.7,0
		c0.3,0,0.5,0,0.8,0c0.7,0,1.3,0,2,0h0c3.4,0.1,6.9,0.4,10.3,0.8c10.3,1.3,20.4,4.3,29.3,9.6c4,2.3,7.7,5.1,11.1,8.4v0
		c-1.9,2.1-3.5,4-5,5.7c-0.4,0.4-0.7,0.9-1.1,1.3c-0.7,0.8-1.4,1.6-2.1,2.4c-0.7,0.8-1.4,1.6-2.1,2.4c-0.7,0.8-1.4,1.6-2.1,2.4
		c-0.7,0.8-1.5,1.7-2.3,2.6c-1.2,1.3-2.4,2.8-3.8,4.4c-9.3-8.6-20.9-13.7-33.6-13.7c-0.3,0-0.7,0-1,0c-0.3,0-0.6,0-0.9,0
		c-0.3,0-0.7,0.1-1,0.1c-0.3,0-0.6,0-0.9,0.1c-0.3,0-0.7,0.1-1,0.1c-0.3,0-0.6,0.1-0.9,0.1c-0.3,0.1-0.7,0.1-1,0.2
		c-0.3,0.1-0.6,0.1-0.8,0.2c-0.3,0.1-0.7,0.2-1,0.3c-0.3,0.1-0.5,0.1-0.8,0.2c-0.4,0.1-0.7,0.2-1.1,0.3c-0.2,0.1-0.5,0.2-0.7,0.2
		c-0.4,0.1-0.7,0.3-1,0.4c-0.2,0.1-0.5,0.2-0.7,0.3c-0.3,0.1-0.7,0.3-1,0.5c-0.2,0.1-0.5,0.2-0.7,0.3c-0.4,0.2-0.7,0.4-1.1,0.5
		c-0.2,0.1-0.4,0.2-0.6,0.3c-0.4,0.2-0.8,0.4-1.2,0.7c-0.2,0.1-0.3,0.2-0.5,0.3c-0.4,0.2-0.8,0.5-1.1,0.7c-0.1,0.1-0.3,0.2-0.5,0.3
		c-0.4,0.2-0.7,0.5-1.1,0.8c-0.1,0.1-0.3,0.2-0.4,0.3c-0.4,0.3-0.7,0.6-1.1,0.9c-0.1,0.1-0.3,0.2-0.4,0.3c-0.4,0.3-0.8,0.6-1.1,1
		c-0.1,0.1-0.2,0.2-0.3,0.3c-0.4,0.3-0.7,0.7-1.1,1c-0.1,0.1-0.2,0.2-0.3,0.3c-0.3,0.3-0.6,0.7-1,1c-0.1,0.1-0.2,0.2-0.4,0.4
		c-0.3,0.4-0.6,0.7-1,1.1c-0.1,0.1-0.2,0.2-0.3,0.3c-0.3,0.3-0.6,0.7-0.9,1.1c-0.1,0.1-0.2,0.3-0.3,0.4c-0.3,0.4-0.5,0.7-0.8,1.1
		c-0.1,0.1-0.2,0.3-0.3,0.4c-0.2,0.3-0.5,0.7-0.7,1c-0.1,0.2-0.2,0.4-0.4,0.5c-0.2,0.3-0.4,0.7-0.6,1c-0.1,0.2-0.2,0.4-0.4,0.6
		c-0.2,0.4-0.4,0.7-0.6,1.1c-0.1,0.2-0.2,0.4-0.3,0.6c-0.2,0.4-0.4,0.7-0.5,1.1c-0.1,0.2-0.2,0.4-0.3,0.6c-0.2,0.4-0.3,0.8-0.5,1.2
		c-0.1,0.2-0.2,0.4-0.3,0.6c-0.1,0.3-0.3,0.7-0.4,1c-0.1,0.2-0.2,0.5-0.3,0.7c-0.1,0.3-0.2,0.6-0.3,0.9c-0.1,0.3-0.2,0.6-0.3,0.9
		c-0.1,0.3-0.1,0.6-0.2,0.9c-0.1,0.3-0.2,0.7-0.3,1c-0.1,0.3-0.1,0.6-0.2,0.9c-0.1,0.3-0.1,0.7-0.2,1c-0.1,0.3-0.1,0.6-0.1,0.9
		c0,0.3-0.1,0.6-0.1,1c0,0.3-0.1,0.6-0.1,0.9c0,0.3-0.1,0.6-0.1,1c-0.1,1.3-0.1,2.5-0.1,3.8c0,0.1,0,0.2,0,0.4c0,0.7,0,1.4,0,2
		c0,0.7,0,1.3,0.1,2c0,0.7,0.1,1.3,0.2,2c0.1,1.3,0.4,2.6,0.6,3.9c0.5,2.6,1.3,5.1,2.4,7.5s2.3,4.7,3.7,6.8s3.1,4.1,5,5.9
		c0.9,0.9,1.9,1.8,2.9,2.6c1.5,1.2,3.1,2.3,4.7,3.3c1.1,0.7,2.3,1.3,3.4,1.8c1.2,0.5,2.4,1,3.6,1.5c1.2,0.4,2.5,0.8,3.8,1.1
		c2.6,0.6,5.2,0.9,8,1c0.8,0,1.6,0,2.3,0c0.6,0,1.1,0,1.7-0.1c0.7,0,1.3-0.1,2-0.2c0.5-0.1,1.1-0.1,1.6-0.2c0.7-0.1,1.3-0.2,1.9-0.3
		c0.5-0.1,1-0.2,1.6-0.3c0.6-0.1,1.3-0.3,1.9-0.4c0.5-0.1,1-0.2,1.5-0.4c0.6-0.2,1.2-0.4,1.9-0.6c0.5-0.1,0.9-0.3,1.4-0.4
		c0.6-0.2,1.2-0.5,1.9-0.8c0.4-0.2,0.8-0.3,1.2-0.5c0.7-0.3,1.3-0.7,2-1c0.3-0.2,0.7-0.3,1-0.5c0.9-0.5,1.9-1.1,2.8-1.7
		c0.1-3.7,0.1-6.5,0.2-9.2c0.1-2.8,0.1-5.5,0.2-9.2c-1.4,0-2.7-0.1-4-0.1c-3.2-0.1-5.9-0.1-8.6-0.2c-2.1,0-4.2-0.1-6.5-0.1
		c-2.8,0-5.8-0.1-9.3-0.1v0c0-3.1,0.1-5.7,0.1-8.1c0-1.4,0-2.8,0.1-4.2c0-1.8,0.1-3.7,0.1-5.7c0-2,0.1-4.1,0.1-6.6
		c9.3,0.1,18.6,0.3,28,0.5C548.8,469.2,558.1,469.5,567.5,469.7L567.5,469.7z M703.6,494c0,1.1-0.1,2.1-0.2,3.2c0,0.3-0.1,0.7-0.1,1
		c-0.1,0.7-0.1,1.4-0.2,2.1c0,0.4-0.1,0.8-0.2,1.2c-0.1,0.6-0.2,1.2-0.3,1.8c-0.1,0.4-0.2,0.8-0.2,1.3c-0.1,0.6-0.2,1.1-0.3,1.7
		c-0.1,0.4-0.2,0.8-0.3,1.3c-0.1,0.5-0.2,1.1-0.4,1.6c-0.1,0.4-0.2,0.8-0.4,1.3c-0.1,0.5-0.3,1-0.4,1.5c-0.1,0.4-0.3,0.8-0.4,1.2
		c-0.2,0.5-0.3,1-0.5,1.4c-0.2,0.4-0.3,0.8-0.5,1.2c-0.2,0.5-0.4,0.9-0.6,1.4c-0.2,0.4-0.4,0.8-0.5,1.2c-0.2,0.4-0.4,0.9-0.6,1.3
		c-0.2,0.4-0.4,0.8-0.6,1.2c-0.2,0.4-0.4,0.8-0.7,1.3c-0.2,0.4-0.4,0.7-0.6,1.1c-0.2,0.4-0.5,0.8-0.7,1.2c-0.2,0.4-0.5,0.7-0.7,1.1
		c-0.3,0.4-0.5,0.8-0.8,1.2c-0.2,0.4-0.5,0.7-0.8,1c-0.3,0.4-0.5,0.7-0.8,1.1c-0.3,0.3-0.5,0.7-0.8,1c-0.3,0.4-0.6,0.7-0.9,1
		c-0.3,0.3-0.6,0.6-0.9,1c-0.3,0.3-0.6,0.7-0.9,1c-0.3,0.3-0.6,0.6-0.9,0.9c-0.3,0.3-0.6,0.6-1,0.9c-0.3,0.3-0.6,0.6-0.9,0.9
		c-0.3,0.3-0.7,0.6-1,0.9c-0.3,0.3-0.7,0.5-1,0.8c-0.3,0.3-0.7,0.6-1.1,0.8c-0.3,0.3-0.7,0.5-1,0.8c-0.4,0.3-0.7,0.5-1.1,0.8
		c-0.4,0.2-0.7,0.5-1.1,0.7c-0.4,0.2-0.8,0.5-1.1,0.7c-0.4,0.2-0.7,0.4-1.1,0.7c-0.4,0.2-0.8,0.4-1.2,0.7c-0.4,0.2-0.8,0.4-1.2,0.6
		c-0.4,0.2-0.8,0.4-1.2,0.6c-0.4,0.2-0.8,0.4-1.2,0.6c-0.4,0.2-0.8,0.4-1.3,0.6c-0.4,0.2-0.8,0.3-1.2,0.5c-0.4,0.2-0.9,0.3-1.3,0.5
		c-0.4,0.2-0.8,0.3-1.3,0.4c-0.4,0.1-0.9,0.3-1.4,0.4c-0.4,0.1-0.9,0.3-1.3,0.4c-0.5,0.1-0.9,0.3-1.4,0.4c-0.4,0.1-0.9,0.2-1.3,0.3
		c-0.5,0.1-1,0.2-1.4,0.3c-0.5,0.1-0.9,0.2-1.4,0.3c-0.5,0.1-1,0.2-1.5,0.2c-0.5,0.1-0.9,0.1-1.4,0.2c-0.5,0.1-1,0.1-1.5,0.2
		c-0.5,0.1-0.9,0.1-1.4,0.2c-0.5,0-1,0.1-1.5,0.1c-0.5,0-1,0.1-1.4,0.1c-0.5,0-1,0-1.6,0.1c-0.5,0-1,0-1.5,0c-0.2,0-0.3,0-0.5,0
		c-0.7,0-1.5,0-2.2,0c-7.5-0.2-14.3-1.6-20.3-4c-1.7-0.7-3.4-1.5-5-2.3c-9.5-5.1-16.8-13-21.4-22.7c-0.8-1.6-1.5-3.3-2.1-5
		c-0.3-0.9-0.6-1.7-0.9-2.6c-0.8-2.6-1.5-5.4-2-8.2c-0.3-1.9-0.6-3.8-0.8-5.8c-0.2-2-0.3-4-0.3-6c0-1,0-2,0-3.1
		c0.9-24.6,1.7-49.2,2.6-73.9c1.4,0,2.8,0.1,4.1,0.1c0.6,0,1.3,0,1.9,0.1c2.4,0.1,4.6,0.2,6.8,0.2c3.8,0.1,7.4,0.3,11.9,0.5
		c1.3,0.1,2.6,0.1,4.1,0.2v0c-1,24.4-2,48.7-3,73.1c0,0.5,0,1,0,1.5c0,1,0,2,0.1,3c0.1,1,0.2,2,0.3,3c0.3,2,0.7,3.9,1.3,5.8
		c0.4,1.4,1,2.8,1.6,4.1c0.8,1.8,1.7,3.5,2.8,5.1c0.5,0.8,1.1,1.5,1.7,2.3c4.3,5,10.4,8.4,18.2,8.4c0.3,0,0.6,0,0.9,0
		c0.3,0,0.5,0,0.8,0c0.3,0,0.5,0,0.8-0.1c0.2,0,0.5,0,0.8-0.1c0.3,0,0.5-0.1,0.7-0.1c0.2,0,0.5-0.1,0.7-0.1c0.3,0,0.5-0.1,0.7-0.1
		c0.2,0,0.5-0.1,0.7-0.1c0.2,0,0.5-0.1,0.7-0.2c0.2-0.1,0.5-0.1,0.7-0.2c0.2-0.1,0.5-0.1,0.7-0.2c0.2-0.1,0.5-0.1,0.7-0.2
		c0.2-0.1,0.5-0.2,0.7-0.2c0.2-0.1,0.4-0.1,0.7-0.2c0.2-0.1,0.5-0.2,0.7-0.3c0.2-0.1,0.4-0.2,0.6-0.2c0.2-0.1,0.5-0.2,0.7-0.3
		c0.2-0.1,0.4-0.2,0.6-0.3c0.2-0.1,0.5-0.2,0.7-0.3c0.2-0.1,0.4-0.2,0.6-0.3c0.2-0.1,0.4-0.2,0.7-0.4c0.2-0.1,0.4-0.2,0.6-0.3
		c0.2-0.1,0.4-0.3,0.7-0.4c0.2-0.1,0.4-0.2,0.5-0.3c0.2-0.1,0.4-0.3,0.6-0.4c0.2-0.1,0.3-0.2,0.5-0.4c0.2-0.2,0.4-0.3,0.6-0.5
		c0.2-0.1,0.3-0.2,0.5-0.4c0.2-0.2,0.4-0.3,0.6-0.5c0.1-0.1,0.3-0.3,0.4-0.4c0.2-0.2,0.4-0.4,0.6-0.6c0.1-0.1,0.3-0.3,0.4-0.4
		c0.2-0.2,0.4-0.4,0.6-0.6c0.1-0.1,0.3-0.3,0.4-0.4c0.2-0.2,0.4-0.4,0.5-0.6c0.1-0.1,0.3-0.3,0.4-0.4c0.2-0.2,0.3-0.4,0.5-0.7
		c0.1-0.1,0.2-0.3,0.3-0.4c0.2-0.2,0.3-0.5,0.5-0.7c0.1-0.2,0.2-0.3,0.3-0.4c0.2-0.2,0.3-0.5,0.4-0.7c0.1-0.2,0.2-0.3,0.3-0.5
		c0.1-0.2,0.3-0.5,0.4-0.7c0.1-0.2,0.2-0.3,0.3-0.5c0.1-0.2,0.2-0.5,0.4-0.8c0.1-0.2,0.2-0.3,0.3-0.5c0.1-0.3,0.2-0.5,0.3-0.8
		c0.1-0.2,0.2-0.4,0.2-0.5c0.1-0.3,0.2-0.5,0.3-0.8c0.1-0.2,0.1-0.4,0.2-0.5c0.1-0.3,0.2-0.6,0.3-0.9c0.1-0.2,0.1-0.4,0.2-0.5
		c0.1-0.3,0.2-0.6,0.2-0.9c0-0.2,0.1-0.4,0.1-0.6c0.1-0.3,0.1-0.6,0.2-0.9c0-0.2,0.1-0.4,0.1-0.5c0.1-0.3,0.1-0.6,0.1-1
		c0-0.2,0.1-0.4,0.1-0.5c0-0.3,0.1-0.7,0.1-1c0-0.2,0-0.4,0.1-0.5c0-0.4,0-0.7,0.1-1.1c0-0.2,0-0.3,0-0.5c0-0.5,0-1.1,0-1.6
		c1.4-24.7,2.7-49.3,4.1-74c0.7,0,1.4,0.1,2.1,0.1c2,0.1,3.9,0.2,5.6,0.3c7,0.4,12.4,0.7,21,1.3C706.6,445.5,705.1,469.8,703.6,494z
		 M728.4,552.2c3-43,6-86,9-129c16.4,1.2,32.8,2.4,49.1,3.8c16.4,1.3,32.7,2.8,49.1,4.3c-0.1,1.3-0.2,2.4-0.3,3.6
		c-0.1,1.1-0.2,2.2-0.3,3.2c-0.1,1-0.2,2-0.3,3c-0.1,1-0.2,1.9-0.3,2.9c-0.1,0.9-0.2,1.9-0.3,2.9c-0.2,1.9-0.4,3.9-0.6,6.2
		c-0.1,1.1-0.2,2.3-0.3,3.6c-5.8-0.5-11.5-1.1-17.3-1.6c-11.5-1-23.1-2-34.6-3c-5.8-0.5-11.6-0.9-17.3-1.4c-0.2,2-0.3,3.7-0.4,5.4
		c-0.1,1.1-0.2,2.2-0.2,3.2c-0.1,1-0.2,2-0.2,3c-0.1,1.5-0.2,2.9-0.3,4.4c-0.1,1-0.2,2-0.2,3.1s-0.2,2.2-0.3,3.3
		c-0.1,1.2-0.2,2.4-0.3,3.7c10.1,0.8,20.2,1.6,30.3,2.5c10.1,0.9,20.2,1.7,30.3,2.7v0c-0.5,5.7-0.9,9.7-1.3,14
		c-0.1,1-0.2,1.9-0.3,2.9c-0.1,1-0.2,2-0.3,3.1c-0.1,1.6-0.3,3.3-0.5,5.2c-20.1-1.9-40.1-3.5-60.2-5.1c-0.2,2-0.3,3.9-0.4,5.6
		c-0.1,1.1-0.2,2.2-0.3,3.3c-0.2,3.2-0.5,6.1-0.7,9.3c-0.1,1.1-0.2,2.2-0.3,3.3c-0.1,1.7-0.3,3.6-0.4,5.6c23,1.8,45.9,3.8,68.8,5.9
		c-0.1,1.3-0.2,2.4-0.3,3.6c-0.1,1.1-0.2,2.2-0.3,3.2c-0.2,2.6-0.5,4.9-0.7,7.2c-0.1,0.9-0.2,1.9-0.3,2.9c-0.2,2.5-0.5,5.1-0.8,8.3
		c-24-2.2-48-4.3-72-6.1C744.4,553.3,736.4,552.7,728.4,552.2L728.4,552.2z"/>
	<path d="M353.8,489.7c11.3-0.3,22.7-0.5,34-0.7c-5.9-13.9-11.9-27.8-17.9-41.6C364.5,461.5,359.1,475.6,353.8,489.7z"/>
</g>
<path class="st0" d="M313.4,107.3c9.5,3.4,18.7,6.9,27.8,10.7c-2.8-10-5.7-19.9-8.8-29.9c6.3-8.1,13-16.1,19.8-24.1
	c-10.6-0.5-21.1-0.8-31.8-0.8c-6-8.6-12.1-17.1-18.5-25.5c-3.3,10-6.5,20-9.4,30c-10.1,3.4-20,7-29.9,10.9
	c9,5.3,17.8,10.8,26.4,16.5c0.3,10.4,0.7,20.8,1.2,31.1C297.9,119.8,305.5,113.5,313.4,107.3z"/>
<path class="st0" d="M603.4,110.3c6.1,7.9,12,15.9,17.6,24.1c3-9.9,5.9-19.9,8.8-29.9c9.7-3.4,19.6-6.6,29.7-9.5
	c-8.6-6.2-17.3-12.1-26.3-17.9c-0.4-10.4-0.9-20.9-1.7-31.4c-8.2,6.6-16.3,13.3-24.2,20.2c-10.3-2.6-20.7-4.9-31-7
	c4.7,9.4,9.2,18.7,13.3,28.2c-5.3,8.9-10.6,17.9-15.8,26.8C583.5,112.4,593.4,111.2,603.4,110.3z"/>
<path class="st0" d="M488,85.8c-1.1-10.3-2.2-20.6-3.5-31c7.6-6.9,15.5-13.7,23.7-20.3c-10.3-2.4-20.7-4.4-31.2-6.3
	c-4.4-9.5-9-18.9-13.8-28.3c-5,9.3-9.8,18.6-14.4,28c-10.5,1.6-21,3.5-31.3,5.6c8,6.8,15.7,13.7,23.2,20.8
	c-1.5,10.3-2.9,20.6-4.2,30.9c8.4-5.1,17.1-10,25.9-14.8C471.2,75.4,479.7,80.5,488,85.8z"/>
<path class="st0" d="M608.8,639c-9.5-3.4-18.7-6.9-27.8-10.7c2.8,10,5.7,19.9,8.8,29.9c-6.3,8.1-13,16.1-19.8,24.1
	c10.6,0.5,21.1,0.8,31.8,0.8c6,8.6,12.1,17.1,18.5,25.5c3.3-10,6.5-20,9.4-30c10.1-3.4,20-7,29.9-10.9c-9-5.3-17.8-10.8-26.4-16.5
	c-0.3-10.4-0.7-20.8-1.2-31.1C624.4,626.5,616.7,632.8,608.8,639z"/>
<path class="st0" d="M318.9,636c-6.1-7.9-12-15.9-17.6-24.1c-3,9.9-5.9,19.9-8.8,29.9c-9.7,3.4-19.6,6.6-29.7,9.5
	c8.6,6.2,17.3,12.1,26.3,17.9c0.4,10.4,0.9,20.9,1.7,31.4c8.2-6.6,16.3-13.3,24.2-20.2c10.3,2.6,20.7,4.9,31,7
	c-4.7-9.4-9.2-18.7-13.3-28.2c5.3-8.9,10.6-17.9,15.8-26.8C338.8,633.9,328.9,635.1,318.9,636z"/>
<path class="st0" d="M434.2,660.5c1.1,10.3,2.2,20.6,3.5,31c-7.6,6.9-15.5,13.7-23.7,20.3c10.3,2.4,20.7,4.4,31.2,6.3
	c4.4,9.5,9,18.9,13.8,28.3c5-9.3,9.8-18.6,14.4-28c10.5-1.6,21-3.5,31.3-5.6c-8-6.8-15.7-13.7-23.2-20.8c1.5-10.3,2.9-20.6,4.2-30.9
	c-8.4,5.1-17.1,10-25.9,14.8C451,670.9,442.5,665.8,434.2,660.5z"/>
</svg>
