<?xml version="1.0" encoding="utf-8"?>
<!-- Generator: Adobe Illustrator 21.0.2, SVG Export Plug-In . SVG Version: 6.00 Build 0)  -->
<svg version="1.1" id="Layer_1" xmlns="http://www.w3.org/2000/svg" xmlns:xlink="http://www.w3.org/1999/xlink" x="0px" y="0px"
	 viewBox="0 0 885.4 699.6" style="enable-background:new 0 0 885.4 699.6;" xml:space="preserve">
<style type="text/css">
	.st0{fill:#FFFFFF;}
</style>
<path class="st0" d="M788,382.2c6.7-62.2-22.4-156.2-67.2-260l16.9-8.4c6-3,8.9-9.7,6.3-14.9l-28.7-58.6c-2.7-5.5-10-7.4-16.1-4.2
	l-14.3,7.4L587.4,94l-11.6,6c-5.8,3-8.1,9.7-5.2,14.9l31.3,54.9c2.8,4.9,9.7,6.6,15.4,3.8l7.8-3.9c52.5,111.5,63.1,168.7,63.7,196.1
	c20.1,2,38.7,4.4,55,7.2C759.8,375.9,774.5,378.9,788,382.2z"/>
<path class="st0" d="M196.5,366.2c0.5-27.2,10.9-84.3,63.3-195.7l6.3,3.1c5.7,2.8,12.6,1.1,15.4-3.8l31.3-54.9
	c2.9-5.2,0.6-11.9-5.2-14.9l-10-5.2l-97.5-50.5l-15.9-8.3c-6.2-3.2-13.4-1.3-16.1,4.2l-28.6,58.6c-2.6,5.2,0.3,11.9,6.3,14.9
	l18.5,9.2c-44.4,103.2-73.3,196.6-66.9,258.6c13.7-3.2,28.6-6.1,44.6-8.7C158.8,370.3,177.2,368,196.5,366.2z"/>
<path class="st0" d="M550.5,357.9c7.6-7.9,14.3-16.5,20.2-25.6c3.2-4.9,6.1-9.8,8.6-14.8l2.1-4.2l1.8-3.9c0.6-1.3,1.1-2.5,1.6-3.8
	c0.3-0.7-0.2-1.5-0.9-1.6l-30.6-4V300l-7.5-14.7l-14.2-27.7c-0.3-0.6-1-0.8-1.6-0.5l-13.9,7.8c-0.6,0.3-1.4,0.1-1.6-0.6l-14.8-39
	l-9.1-24c-0.5-1.3-2.4-0.8-2.2,0.6l1.7,9.5c0.2,1.2-1.3,1.8-2,0.9L460,177.7c-0.5-0.6-1.4-0.6-1.8,0l-5.9,8.2l-4.4,6
	c-0.5,0.7-1.6,0.6-2-0.2l-7.4-17.1l-8.3-19.4h0l-12.9,1.7l0,0l-0.8,0.1c-0.3,0-0.7-0.1-0.9-0.3l-10.3-9.6l-1.3-1.2l-0.2-0.2
	l-0.1-0.1l-0.1-0.1l0.1,0l0.1,0l3.9,1.6l11.6,4.7c0.3,0.1,0.5,0.1,0.8,0l10-3.3l2.2-0.7c0.5-0.2,1.1,0,1.4,0.5l1.1,2l13.3,22.9
	c0.3,0.5,0.9,0.7,1.5,0.5l13.2-6.4c0.5-0.2,1.1-0.1,1.4,0.4l14.9,21.7c0.5,0.8,1.8,0.6,2-0.3l3-10.4c0.3-1,1.6-1.1,2.1-0.3
	l35.9,58.2c0.2,0.3,0.5,0.5,0.9,0.5l15.7,0.9l1.8,0.1c0.4,0,0.8,0.3,1,0.7l3.9,9l10.6,24.6l7.2,16.3c0.1,0.2,0.3,0.4,0.5,0.6
	l22.8,11.5c0.1-0.2,0.2-0.4,0.3-0.6c0,0,0,0,0,0c0.2-0.5,0-1.1-0.4-1.4l-10.1-7.1c-0.5-0.4-0.6-1.1-0.3-1.6l3.7-5.1l3.2-4.3
	c0.3-0.4,0.8-0.5,1.2-0.4l7.2,2c0.6,0.2,1.3-0.2,1.4-0.8c0.1-0.2,0.1-0.4,0.2-0.6c0.5-1.9,1-3.8,1.3-5.8c0.1-0.4-0.1-0.9-0.4-1.1
	l-19.3-15.1c-0.1-0.1-0.2-0.2-0.4-0.2l-8.8-2.8c-0.7-0.2-1-1-0.6-1.7l5.7-9.6c0.3-0.5,1-0.7,1.6-0.4l15.4,9.3c1,0.6,2.2-0.6,1.6-1.6
	l-21.4-34.8c-0.2-0.3-0.5-0.5-0.8-0.5l-24.3-3.2c-0.2,0-0.3-0.1-0.4-0.2l-9.8-5.9c-1-0.6-0.6-2,0.5-2.1l20.7-1.4
	c1-0.1,1.4-1.3,0.7-2l-27.5-25.4c-0.2-0.2-0.4-0.3-0.6-0.3l-23.7-3.5c-0.2,0-0.3-0.1-0.4-0.2l-8.3-5.3c-1-0.6-0.6-2.1,0.6-2.1
	l17.2-0.5c1.1,0,1.5-1.5,0.6-2.1l-18.6-12.9c-0.2-0.2-0.5-0.2-0.8-0.2l-24.6,3c-0.7,0.1-1.3-0.4-1.3-1.1v-8.4c0-0.6-0.4-1.1-1-1.1
	l-27.4-3.6l-33.8-3c-0.7-0.1-1.2,0.5-1.2,1.1v0.2l-0.1-6.3c0-0.4-0.2-0.7-0.5-0.9l-25.4-19c-0.4-0.3-0.8-0.3-1.2-0.1l-3.1,1.7
	c-0.5,0.3-0.7,0.9-0.5,1.5l3.6,8c0.5,1.1-0.8,2.1-1.7,1.4l-9.4-7c-0.4-0.3-0.8-0.3-1.2-0.1l-2.6,1.5c-0.5,0.3-0.7,0.9-0.5,1.5
	l15.5,34.3c0.3,0.6,0,1.3-0.7,1.6l-1.4,0.5c-0.2,0.1-0.4,0.2-0.5,0.4l-47.1,56.9c0,0-0.1,0.1-0.1,0.1l-31.5,53.2
	c-0.1,0.1-0.1,0.3-0.2,0.5l-2.6,29.8c0,0.3,0,0.5,0.2,0.7l9.9,15.2c0.2,0.3,0.6,0.5,1,0.5h11c0.3,0,0.5,0.1,0.7,0.2l8.4,6.5
	c0.4,0.3,1.1,0.3,1.5-0.1l12.4-11.8c0.1-0.1,0.2-0.2,0.2-0.3l6.6-11.6c0.1-0.2,0.3-0.3,0.5-0.4l44-23.6c0.2-0.1,0.3-0.1,0.5-0.1
	l19.6-0.9c0.1,0,0.2,0,0.4-0.1l12.5-4.8c0.1,0,0.2-0.1,0.2-0.1l16.3-10.7c0.3-0.2,0.4-0.5,0.5-0.8l1-5.9c0.2-1.4,2.3-1.2,2.3,0.2
	l0.1,10.3c0,0.3-0.1,0.6-0.3,0.8l-14.3,15.3c-0.2,0.2-0.3,0.6-0.3,0.9l1.5,13.1l7.8,67.8c2.2,0,4.3,0,6.3,0
	C471.7,356.4,509.8,356.7,550.5,357.9z M373.6,199.5l-6.8,6.5c-0.2,0.2-0.5,0.3-0.8,0.3h-10.9c-0.6,0-1-0.4-1.1-1l-0.9-6.2
	c-0.1-0.5,0.1-0.9,0.5-1.2l8.8-5.3c0.3-0.2,0.8-0.2,1.1,0l9.8,5C374,198,374.2,198.9,373.6,199.5z"/>
<polygon class="st0" points="338.4,91.5 362.6,91.5 362.6,25.2 388.9,25.2 388.9,4 312.1,4 312.1,25.2 338.4,25.2 "/>
<polygon class="st0" points="421,58.2 452.2,58.2 452.2,91.5 476.4,91.5 476.4,4 452.2,4 452.2,36.7 421,36.7 421,4 396.8,4 
	396.8,91.5 421,91.5 "/>
<polygon class="st0" points="560.2,70.9 513.2,70.9 513.2,57 555.2,57 555.2,37.8 513.2,37.8 513.2,24.6 559.6,24.6 559.6,4 
	489.2,4 489.2,91.5 560.2,91.5 "/>
<path class="st0" d="M683.5,593.5c-0.1,7.6,0.1,15.2,0.4,22.1c0,0,0,0,0,0c0,0.2,0,0.4,0,0.6c0,0.9,0.1,1.9,0.1,2.8
	c0,0.2,0,0.4,0,0.6c0.2,2.9,0.3,5.7,0.5,8.2c0.2,3.1,2.8,5.1,5.6,5.1c0.9,0,1.8-0.2,2.6-0.7c7.1-3.7,19-5.4,32.8-5.4
	c14.1,0,30.3,1.8,45.4,5.2c28.1,6.3,59.6,12,80,12c5.4,0,10.1-0.4,13.7-1.3c0.5-0.1,0.9-0.2,1.4-0.4c0.1,0,0.3-0.1,0.4-0.1
	c0.3-0.1,0.6-0.2,0.9-0.3c0.2-0.1,0.3-0.1,0.5-0.2c0.3-0.1,0.5-0.2,0.7-0.3c0.2-0.1,0.3-0.1,0.5-0.2c0.2-0.1,0.5-0.2,0.7-0.3
	c0.2-0.1,0.3-0.1,0.5-0.2c0.2-0.1,0.4-0.2,0.6-0.3c0.2-0.1,0.3-0.2,0.4-0.2c0.2-0.1,0.4-0.2,0.6-0.3c0.1-0.1,0.3-0.2,0.4-0.3
	c0.2-0.1,0.4-0.2,0.5-0.3c0.1-0.1,0.3-0.2,0.4-0.3c0.2-0.1,0.3-0.2,0.5-0.3c0.1-0.1,0.2-0.2,0.4-0.3c0.2-0.1,0.3-0.2,0.4-0.3
	c0.1-0.1,0.2-0.2,0.3-0.3c0.1-0.1,0.3-0.2,0.4-0.4c0.1-0.1,0.2-0.2,0.3-0.3c0.1-0.1,0.2-0.2,0.4-0.4c0.1-0.1,0.2-0.2,0.3-0.3
	c0.1-0.1,0.2-0.2,0.3-0.4c0.1-0.1,0.2-0.2,0.3-0.3c0.1-0.1,0.2-0.2,0.3-0.4c0.1-0.1,0.2-0.2,0.3-0.3c0.1-0.1,0.2-0.2,0.3-0.4
	c0,0,0.1-0.1,0.1-0.1c0,0-0.1,0-0.1,0c2.4-3,3.4-7.2,2.4-11.1c-0.4-1.5-0.7-3-1.1-4.5c-13.1-54.1-15.3-112.9-6.5-170.2
	c0.5-3.1-0.2-6.2-2-8.8c-3.2-4.8-24.3-29.5-129.9-48.1c-80.6-14.2-221.3-16.3-297.9-16.3c-73,0-208.7,2.1-297.7,16.3
	C38.8,408.7,17.8,435.2,14.7,440.3c-1.5,2.5-2.1,5.5-1.7,8.4C21.8,506,19.6,564.9,6.5,619c-0.4,1.5-0.7,3-1.1,4.5
	c-1.5,5.8,1.2,11.9,6.6,14.5c0.1,0,0.2,0.1,0.2,0.1c0,0-0.1,0-0.1,0c0,0,0,0,0.1,0c0.2,0.1,0.4,0.2,0.5,0.3c0.1,0.1,0.3,0.2,0.4,0.2
	c0.2,0.1,0.4,0.2,0.6,0.3c0.1,0.1,0.3,0.2,0.4,0.2c0.2,0.1,0.4,0.2,0.6,0.3c0.2,0.1,0.3,0.1,0.5,0.2c0.2,0.1,0.4,0.2,0.7,0.3
	c0.2,0.1,0.3,0.1,0.5,0.2c0.2,0.1,0.5,0.2,0.7,0.3c0.2,0.1,0.3,0.1,0.5,0.2c0.3,0.1,0.6,0.2,0.9,0.3c0.1,0,0.3,0.1,0.4,0.1
	c0.4,0.1,0.9,0.3,1.4,0.4c3.6,0.9,8.3,1.3,13.7,1.3c20.4,0,51.9-5.7,80-12c15.1-3.3,31.2-5.2,45.4-5.2c13,0,24.4,1.5,31.6,4.8
	c0.9,0.4,1.8,0.6,2.8,0.6c3.4,0,6.5-2.7,6.8-6.4c0.1-1,0.1-1.9,0.2-3l0,0c0-0.1,0-0.2,0-0.3c0.1-1,0.1-2,0.2-3c0-0.2,0-0.5,0-0.7
	c0.1-0.9,0.1-1.9,0.1-2.9c0-0.2,0-0.3,0-0.5l0,0c0.3-6.6,0.5-14,0.4-21.3c4.1-0.3,8.3-0.7,12.6-1c81.6-6.2,173.3-8.4,227.1-8.4
	c56.5,0,149.6,2.7,230.1,8.7C675.5,592.8,679.5,593.1,683.5,593.5z M536.8,411.5c-0.3,11-0.6,22-0.9,33c-14.6-0.4-29.2-0.7-43.8-1
	c-0.5,34.3-1,68.6-1.4,102.9c-13.1-0.2-26.2-0.3-39.3-0.3c0.1-34.3,0.2-68.6,0.2-102.9c-14.6,0-29.2,0-43.9,0.2
	c-0.1-11-0.2-22-0.3-33C450.5,409.9,493.7,410.3,536.8,411.5z M209.9,554.8c-24.3,1.8-48.7,3.9-73,6.3
	c-4.1-45.1-8.2-90.2-12.4-135.3c25.1-2.4,50.3-4.6,75.5-6.5c13.9-1.1,29.6,0.3,40.9,9.5c6.5,5.2,10.3,13,10.7,21.3
	c0,0.2,0,0.2,0,0.4c0.9,14.5-8.1,25.7-20.6,31.6c16.2,3.7,29.8,13.5,30.5,31.4c0,0.2,0,0.2,0,0.4
	C263.2,542.2,233.4,553.1,209.9,554.8z M275,414.5c39.5-2,79.1-3.3,118.6-4c0.2,10.7,0.3,21.4,0.5,32c-25.8,0.4-51.7,1.1-77.5,2.1
	c0.3,6.9,0.5,13.7,0.8,20.6c23.2-0.9,46.5-1.5,69.8-2c0.2,9.9,0.3,19.8,0.5,29.7c-23.1,0.4-46.1,1.1-69.2,2
	c0.3,7.2,0.5,14.4,0.8,21.5c25.6-1,51.3-1.7,76.9-2.1c0.1,10.7,0.3,21.4,0.4,32c-38.4,0.6-76.7,1.9-115.1,3.8
	C279.4,505,277.2,459.7,275,414.5z M551.2,547.9c1.4-45.3,2.9-90.6,4.3-135.9c13.7,0.5,27.4,1,41.1,1.7c-2,45.3-4,90.5-5.9,135.8
	C577.6,548.9,564.4,548.4,551.2,547.9z M623.6,415.1c12.7,0.7,25.4,1.5,38.1,2.3c18.6,25.2,36.9,50.6,54.9,76.2
	c1.9-23.9,3.8-47.7,5.7-71.6c13.5,1.2,26.9,2.4,40.4,3.7c-4.1,45.1-8.2,90.2-12.4,135.3c-11.4-1.1-22.9-2.2-34.3-3.2
	c-18.3-26.6-36.8-53-55.8-79.1c-1.6,24.8-3.1,49.6-4.7,74.4c-12.9-0.9-25.9-1.6-38.9-2.4C619,505.6,621.3,460.3,623.6,415.1z"/>
<path class="st0" d="M201.1,499.9c-10.1,0.8-20.3,1.6-30.4,2.5c0.7,8.3,1.3,16.6,2,25c10.2-0.9,20.4-1.7,30.6-2.5
	c8.1-0.6,18.5-3.9,18.2-13.8c0-0.2,0-0.2,0-0.4C220.5,500.7,209.2,499.3,201.1,499.9z"/>
<path class="st0" d="M193.9,474c7.9-0.6,18.7-3.4,18.3-13.2c0-0.2,0-0.2,0-0.4c-0.9-9.5-11.4-10.9-19.1-10.3
	c-8.8,0.7-17.5,1.4-26.3,2.1c0.6,7.9,1.3,15.9,1.9,23.8C177,475.3,185.5,474.7,193.9,474z"/>
<path class="st0" d="M253.4,666.3h10.8h0.3l18.3,27.6H310l0.8-1.8l-20.5-29.9c11.3-4.8,18.7-14,18.7-28v-0.3c0-9-2.7-16-8.1-21.2
	c-6.1-6.2-15.7-9.9-29.6-9.9h-28.8h-14.2v7.4v83.6h14.2h11V666.3z M283.6,635.7c0,6.6-4.9,10.8-13.5,10.8h-16.6v-21.8h16.5
	c8.5,0,13.7,3.6,13.7,10.8V635.7z"/>
<path class="st0" d="M311.9,693.9h24.5l6.5-16.3h35.1l6.6,16.3h27L373,602.2h-24.3l-38,89.9l-0.8,1.8H311.9z M360.7,632.1l10.1,25.9
	h-20.4L360.7,632.1z"/>
<path class="st0" d="M456.5,672.7c-12.7,0-21.7-10.7-21.7-24.3v-0.3c0-13.3,9-24.1,21.7-24.1c8.7,0,14.7,4.2,19.9,10.7l19-14.7
	c-8.1-11.2-20-19-38.6-19c-27.6,0-48,20.8-48,47.3v0.3c0,27.2,20.9,47.1,46.9,47.1c20.2,0,31.7-8.7,40.3-20.5l-19-13.5
	C471.6,668.2,466,672.7,456.5,672.7z"/>
<polygon class="st0" points="528.9,658 572.6,658 572.6,638.1 528.9,638.1 528.9,624.3 577.1,624.3 577.1,602.8 503.9,602.8 
	503.9,693.9 577.8,693.9 577.8,672.4 528.9,672.4 "/>
<path class="st0" d="M620.4,601.3c-21.8,0-35.2,12.2-35.2,29.1v0.3c0,18.7,15,24.2,34.3,28.6c12.4,2.9,15.3,4.9,15.3,8.7v0.3
	c0,3.9-3.6,6.2-10.4,6.2c-10.5,0-20.5-3.8-29.5-10.9l-14,16.8c11.2,10,26.5,15.1,42.6,15.1c6,0,11.5-0.8,16.2-2.4
	c12.8-4.2,20.6-13.7,20.6-27.3v-0.3c0-13-7.6-20-20.6-24.7c-4-1.4-8.5-2.6-13.4-3.7c-12.6-2.9-15.7-4.7-15.7-8.8v-0.3
	c0-3.3,3-5.9,9.1-5.9c6.3,0,13.3,1.9,20,5.6c1.9,1,3.7,2.1,5.5,3.4l12.6-17.8c-1.4-1.1-2.8-2.1-4.2-3.1c-4.2-2.8-8.8-4.9-13.9-6.4
	C634,602.2,627.6,601.3,620.4,601.3z"/>
</svg>
