<svg enable-background="new 0 0 501.9 471" fill="#fff" viewBox="0 0 501.9 471" xmlns="http://www.w3.org/2000/svg"><path d="m168.9 8.3-1.7 18.7c-1.1 11.6-2.1 23-3.2 34.5-1.6 17.6-3.2 35.1-4.7 52.7-2.2 24.6-4.4 49.1-6.6 73.7-.7 7.9-1.5 15.9-2.2 23.8 11.6 3.2 22.6 8 32.9 14.2 1.2-13 2.4-25.9 3.5-38.9l6.9-75 3.7-40.4c.2-2.5.5-5 .7-7.5.6-6 1.3-12.3 1.5-18.5.1-3.4.3-3.5 3.6-3.5 37.3.2 75.3.2 111.9.1h32.6 99.3c-.1 1.9-.2 3.7-.4 5.5-.4 6.1-.8 11.8-1.2 17.6-2.6 33.9-5.2 67.7-7.8 101.6-1.2 15.5-2.4 31.1-3.6 46.6-1.7 22.2-3.4 44.3-5.1 66.5-1 12.9-2 25.8-2.9 38.8-1.9 24.8-3.8 50.5-5.9 75.8-1.6 18.7-17 33.9-35.9 35.3-19 1.4-36.1-11-40.7-29.6-.9-3.7-1.4-8-1.4-13.1-.1-14.8-.1-29.8-.1-44.4 0-5.4 0-10.7 0-16.1v-9h-96.1c1.3 7.4 1.9 15 1.9 22.7 0 3.8-.2 7.6-.5 11.3h60.6v3.2c0 4.3.1 8.5.1 12.8 0 9.9 0 20.2.5 30.3.5 10.8 4.1 21.3 10.9 32.2-15.9 0-31.9 0-47.8 0-19.2 0-38.8 0-58.4 0-1.4 1.6-2.9 3.1-4.4 4.7-12.9 12.9-27.9 22.8-44.3 29.4h87 128.4c20 0 38.5-7.2 52.2-20.2 13.5-12.9 21.7-31.1 22.9-51.2 1.7-27.6 3.9-55.7 6.1-82.9.8-9.9 1.6-19.8 2.3-29.6 1.9-25.3 3.9-50.6 5.9-75.9 1.2-15.9 2.5-31.7 3.7-47.6 2.9-37.9 5.8-75.7 8.7-113.6.5-7.1 1.1-14.2 1.6-21.4l1-13.4h-315.5z"/><path d="m389.9 95.8c-47.1 0-93.9 0-141.2 0-.8 9.2-1.7 18.2-2.5 27.4h141.5c.8-9.3 1.5-18.2 2.2-27.4z"/><path d="m241.1 179.9h5.8 131c1 0 2.2.3 3-.1 1.1-.6 2.7-1.6 2.8-2.6.8-8.2 1.2-16.5 1.8-25-47.5 0-94.5 0-141.9 0-.9 9.2-1.7 18.1-2.5 27.7z"/><path d="m351 235.7c.7-9.3 1.4-18.4 2.1-27.6-19.7 0-38.6 0-58.4 0-.8 9.3-1.6 18.4-2.4 27.6z"/><path d="m235.9 235.8h30.7c.7-9.2 1.4-18.2 2.1-27.5-10.2 0-20.1 0-30.2 0-.9 9.2-1.7 18.1-2.6 27.5z"/><path d="m195.4 421.1c18.9-18.9 30.4-43.3 33-69.6.4-3.7.5-7.5.5-11.3 0-7.7-.8-15.3-2.2-22.7-4.4-21.9-15.1-42-31.3-58.2-4.4-4.4-9-8.3-13.9-11.9-10-7.3-21-12.8-32.7-16.4-10.9-3.4-22.4-5.2-34.2-5.2-30.6 0-59.3 11.9-80.9 33.5-21.7 21.7-33.6 50.4-33.6 81s11.9 59.3 33.5 80.9c15 15 33.4 25.3 53.5 30.2 8.9 2.2 18 3.3 27.4 3.3 26.1 0 50.8-8.7 71-24.7 3.4-2.8 6.7-5.7 9.9-8.9zm-80.3 6.3c-.2 0-.4 0-.6 0-22.2 0-42.5-8.3-57.8-22-18-16-29.3-39.2-29.3-65.2 0-48.1 39-87.1 87.1-87.1 11.2 0 21.8 2.1 31.6 5.9 12.4 4.8 23.4 12.4 32.3 22 9.5 10.2 16.5 22.7 20.2 36.5 2 7.2 3 14.9 3 22.7 0 3.8-.2 7.6-.7 11.3-5.5 42.7-41.8 75.6-85.8 75.9z"/><path d="m161.4 291.9c-6.7 6.7-13.4 13.4-20.1 20.1-1.8 1.8-3.6 3.6-5.5 5.5-11.2 11.3-22.5 22.6-33.8 34-.8.8-1.6 1.6-2.4 2.4-.8-.8-1.6-1.6-2.4-2.4-9.7-9.7-19.1-19.2-28.3-28.3-4.8 4.7-9.4 9.4-14.1 14.1-2.1 2.1-4.2 4.2-6.3 6.3l6.2 6.2c11.4 11.4 22.9 22.9 34.3 34.3l10.4 10.4c14.3-14.3 28.5-28.6 42.8-42.9 11.3-11.3 22.6-22.7 33.9-34 1.8-1.8 3.6-3.6 5.4-5.4-1.8-1.8-3.7-3.7-5.6-5.5-4.6-4.9-9.5-9.8-14.5-14.8z"/></svg>