<?xml version="1.0" encoding="utf-8"?>
<!-- Generator: Adobe Illustrator 21.0.0, SVG Export Plug-In . SVG Version: 6.00 Build 0)  -->
<svg version="1.1" id="Layer_1" xmlns="http://www.w3.org/2000/svg" xmlns:xlink="http://www.w3.org/1999/xlink" x="0px" y="0px"
	 viewBox="0 0 97.4 71.4" enable-background="new 0 0 97.4 71.4" xml:space="preserve">
<g transform="matrix( 1, 0, 0, 1, 0,0) ">
	<g>
		<g id="Layer0_0_FILL">
			<path fill="#FFFFFF" d="M2.6,21.1c-0.2,0.6-0.4,1.4-0.4,2.1L0.5,34.2c-0.2,1.5,0.1,2.4,0.7,2.9l0,0L24,50.8
				c0.6,0.3,1.3,0.5,1.8,0.5c0.1,0,0.1,0,0.2,0l3.2-13.2c0.1-0.7-0.3-1.5-1.5-2.1L27.6,36L3.1,21.4l-0.4-0.6
				C2.6,20.8,2.6,21,2.6,21.1 M3,36.8c-0.3-0.6-0.3-1.1-0.1-1.4c0.2-0.3,0.6-0.4,1.3-0.3s1.3,0.4,1.9,0.9c0.6,0.5,1.2,1,1.5,1.6
				c0.3,0.5,0.3,1.1,0.1,1.4c-0.2,0.3-0.6,0.4-1.3,0.3c-0.6-0.1-1.3-0.4-2-0.9C3.8,37.9,3.3,37.3,3,36.8 M12.8,31.9
				c-0.2-0.4-0.2-0.9,0-1.1c0.2-0.3,0.6-0.4,1.3-0.3c0.6,0.1,1.3,0.4,1.9,0.9c0.2,0.2,0.5,0.3,0.7,0.5c0.2,0.2,0.3,0.4,0.5,0.5
				c0.1,0.1,0.2,0.3,0.3,0.4c0.3,0.5,0.3,1.1,0.1,1.4c-0.2,0.3-0.6,0.4-1.3,0.3c-0.6-0.1-1.3-0.4-2-0.9c-0.5-0.4-1-0.9-1.3-1.3
				c-0.1-0.1-0.1-0.2-0.2-0.3C12.9,32.1,12.9,32,12.8,31.9 M9.4,28c0.3,0.5,0.3,1.1,0.1,1.4c-0.2,0.3-0.6,0.4-1.3,0.3
				c-0.6-0.1-1.3-0.4-2-0.9c-0.7-0.5-1.2-1.1-1.5-1.6s-0.3-1-0.1-1.3c0.2-0.3,0.6-0.4,1.3-0.3c0.6,0.1,1.3,0.4,1.9,0.9
				C8.5,26.9,9.1,27.4,9.4,28 M21,35.8c0.2-0.3,0.6-0.4,1.3-0.3c0.6,0.1,1.3,0.4,1.9,0.9c0.6,0.5,1.2,1,1.5,1.6
				c0.3,0.6,0.3,1.1,0.1,1.4c-0.2,0.3-0.6,0.4-1.3,0.3c-0.6-0.1-1.3-0.4-2-0.9c-0.6-0.4-1.2-1-1.5-1.6C20.8,36.6,20.8,36.2,21,35.8
				 M15.6,42.2c0.3,0.6,0.3,1.1,0.1,1.4c-0.2,0.3-0.6,0.4-1.3,0.3c-0.6-0.1-1.3-0.4-2-0.9c-0.6-0.4-1.2-1-1.5-1.6
				c-0.3-0.5-0.3-1-0.1-1.3s0.6-0.4,1.3-0.3c0.6,0.1,1.3,0.4,1.9,0.9C14.7,41.2,15.2,41.7,15.6,42.2 M18.6,44.9
				c0.2-0.3,0.6-0.4,1.3-0.3c0.6,0.1,1.3,0.4,1.9,0.9c0.6,0.5,1.2,1,1.5,1.6c0.3,0.6,0.3,1.1,0.1,1.4c-0.2,0.3-0.6,0.4-1.3,0.3
				c-0.6-0.1-1.4-0.4-2-0.9c-0.6-0.4-1.2-1-1.5-1.6C18.5,45.7,18.4,45.3,18.6,44.9 M63,35.2c0.3-0.9,0.2-1.6-0.4-2.1L51.1,19.6
				l-9.4,25.8c-0.6,1.6-0.6,3,0.1,4.1l9.3,14.6c0,0,0,0.1,0.1,0.1l0,0L63,35.2 M51.5,37.5c0.4,0,0.9,0.2,1.1,0.9
				c0.2,0.6,0.3,1.4,0.2,2.2c-0.1,1-0.3,1.7-0.6,2.3c-0.4,0.6-0.9,1.1-1.3,1.1c-0.4,0-0.9-0.2-1.1-0.9c-0.3-0.6-0.3-1.4-0.3-2.3
				c0.1-0.9,0.3-1.7,0.7-2.3C50.7,38,51.1,37.7,51.5,37.5 M45.2,18.3l-2,2.7l0,0L31.4,36.4c-0.5,0.7-0.9,1.5-1.1,2.2l-3.2,12.4
				c0.1,0,0.1,0,0.2-0.1c0.3-0.2,0.5-0.4,0.7-0.6c0.1-0.1,0.1-0.1,0.2-0.2L40.8,33c0.1-0.1,0.2-0.3,0.2-0.4c0.5-1,1-1.8,1.2-2.8
				L45.2,18.3 M43.1,23.6c-0.3,0.5-0.6,1.1-1,1.4c-0.3,0.4-0.5,0.5-0.7,0.4c-0.1-0.1-0.1-0.3,0.1-0.9c0.2-0.4,0.4-1,0.7-1.6
				c0.3-0.6,0.6-1.1,1-1.4l0,0c0.3-0.3,0.5-0.5,0.7-0.4c0.1,0.1,0.1,0.3-0.1,0.9c-0.1,0.4-0.3,0.9-0.6,1.5
				C43.1,23.5,43.1,23.6,43.1,23.6 M40.3,31c0.3-0.3,0.5-0.5,0.6-0.4c0.1,0.1,0.1,0.3-0.1,0.9c-0.1,0.4-0.4,1-0.7,1.6
				c-0.3,0.5-0.6,1.1-1,1.4c-0.3,0.4-0.5,0.5-0.7,0.4c-0.1-0.1-0.1-0.3,0.1-0.9c0.2-0.4,0.4-1,0.7-1.6C39.7,31.8,40,31.4,40.3,31
				 M37.8,32.5c0.1,0.1,0.1,0.3-0.1,0.9c-0.1,0.4-0.4,1-0.7,1.6c-0.3,0.5-0.6,1.1-1.1,1.4c-0.3,0.4-0.5,0.5-0.6,0.4
				c-0.1-0.1-0.1-0.3,0.1-0.9c0.2-0.4,0.4-1,0.7-1.6c0.3-0.6,0.6-1.1,1-1.5C37.5,32.7,37.7,32.4,37.8,32.5 M34.4,34.1
				c0.1,0.1,0.1,0.3-0.1,0.9c-0.1,0.4-0.4,1-0.7,1.6c-0.3,0.5-0.6,1.1-1,1.4c-0.3,0.4-0.5,0.5-0.7,0.4c-0.1-0.1-0.1-0.3,0.1-0.9
				c0.2-0.4,0.4-1,0.7-1.6s0.6-1.1,1.1-1.5C34.1,34.2,34.3,34.1,34.4,34.1 M30.1,45.1c0.3-0.6,0.6-1.1,1-1.5
				c0.3-0.3,0.5-0.5,0.7-0.4c0.1,0.1,0.1,0.3-0.1,0.9c-0.1,0.4-0.4,1-0.7,1.6c-0.3,0.5-0.6,1.1-1.1,1.4c-0.2,0.4-0.4,0.5-0.6,0.4
				c-0.1-0.1-0.1-0.3,0.1-0.9C29.6,46.2,29.8,45.6,30.1,45.1 M45.2,15.6c-0.2-0.3-0.5-0.6-0.9-0.9L21.5,1c-1.4-0.7-2.4-0.9-3.2-0.2
				L3.6,18.8c-0.1,0.1-0.1,0.2-0.1,0.3c-0.2,0.5,0,1,0.7,1.5l23.5,14.3c1.6,0.6,2.8,0.7,3.5,0.2l0,0l13.8-18
				C45.3,16.7,45.4,16.2,45.2,15.6 M19.1,7.7c-0.4-0.6-0.5-1.3-0.4-2C18.9,4.9,19.3,4.4,20,4s1.5-0.3,2.3-0.1
				c0.9,0.2,1.5,0.6,1.9,1.3c0.4,0.6,0.6,1.4,0.4,2c-0.2,0.7-0.6,1.2-1.4,1.5c-0.7,0.4-1.5,0.4-2.3,0.2C20.1,8.7,19.5,8.3,19.1,7.7
				 M27.5,16.4c0.4,0.6,0.6,1.4,0.4,2s-0.6,1.2-1.4,1.5c-0.7,0.3-1.5,0.4-2.3,0.2c-0.9-0.2-1.5-0.6-1.9-1.3c-0.4-0.6-0.5-1.3-0.4-2
				c0.2-0.7,0.6-1.2,1.4-1.6c0.7-0.3,1.5-0.4,2.3-0.1C26.4,15.3,27,15.7,27.5,16.4 M25.6,30.2c-0.4-0.6-0.5-1.3-0.4-2
				c0.2-0.6,0.6-1.2,1.3-1.6c0.7-0.3,1.5-0.3,2.3-0.1c0.9,0.2,1.5,0.6,1.9,1.3c0.4,0.6,0.6,1.4,0.4,2c-0.2,0.6-0.6,1.2-1.4,1.5
				c-0.7,0.3-1.5,0.4-2.3,0.2C26.6,31.3,26,30.8,25.6,30.2 M96.8,42c0.1-0.4,0.2-0.7,0.3-1.2c0-0.1,0-0.2,0-0.4l-30.7-5.5
				c-1.1-0.1-1.7,0.1-1.9,0.6L52.4,65.6c0.4,0.3,1.1,0.6,1.7,0.9L82.9,71c1.1,0.2,1.8-0.1,2.4-0.9L96.8,42 M84.4,61.9
				c0.5,0.6,0.6,1.4,0.5,2.2c-0.1,0.9-0.6,1.7-1.4,2.3c-0.7,0.6-1.6,1.1-2.6,1.1c-1,0-1.6-0.2-2.1-0.9c-0.5-0.6-0.7-1.4-0.5-2.2
				c0.2-1,0.6-1.7,1.5-2.3c0.7-0.6,1.6-1,2.6-1.1C83.1,60.9,83.8,61.3,84.4,61.9 M71.8,39.2c0.5,0.6,0.6,1.4,0.5,2.2
				c-0.1,1-0.6,1.7-1.4,2.3c-0.7,0.6-1.6,1.1-2.6,1.1c-1,0-1.6-0.2-2.1-0.9s-0.7-1.4-0.5-2.3c0.2-0.9,0.6-1.7,1.5-2.3
				c0.7-0.6,1.6-1,2.6-1.1C70.5,38.3,71.3,38.6,71.8,39.2 M97,38.7c-0.2-0.7-0.6-1.5-1.3-2.1L84.2,24.1c-0.9-1.1-2-1.6-3.8-1.8
				l-26.1-4.6c-1-0.2-1.7,0-2.3,0.4c-0.1,0-0.1,0.1-0.1,0.1l12.2,13.9c0.6,0.7,1.6,1.2,2.8,1.3L97,38.7 M82.7,24.3
				c0.6,0.4,0.9,0.9,0.7,1.2c-0.1,0.3-0.5,0.5-1.3,0.5c-0.7,0-1.6-0.2-2.6-0.5c-1-0.3-1.7-0.6-2.2-1.1c-0.5-0.4-0.9-0.7-0.7-1.1
				c0.1-0.3,0.5-0.5,1.3-0.5s1.6,0.2,2.4,0.5C81.4,23.4,82.1,23.8,82.7,24.3 M71.1,32c-0.7,0-1.7-0.2-2.7-0.5
				c-1-0.3-1.7-0.6-2.3-1.1c-0.6-0.4-0.9-0.9-0.7-1.2c0.1-0.3,0.5-0.5,1.3-0.5s1.6,0.2,2.7,0.5c1,0.3,1.8,0.7,2.3,1.2
				c0.6,0.5,0.9,0.9,0.7,1.2C72.2,31.9,71.8,32,71.1,32 M74,28.4c-1-0.3-1.7-0.7-2.2-1.2c-0.6-0.4-0.9-0.9-0.7-1.2
				c0.1-0.3,0.5-0.5,1.3-0.5c0.7,0,1.6,0.2,2.6,0.5c1,0.3,1.7,0.7,2.3,1.2c0.6,0.5,0.9,0.9,0.7,1.2s-0.5,0.5-1.3,0.5
				S75,28.7,74,28.4z"/>
		</g>
	</g>
</g>
</svg>
