<svg enable-background="new 0 0 512 640" fill="#fff" viewBox="0 0 512 640" xmlns="http://www.w3.org/2000/svg"><g fill="none"><path d="m433.8 103.6h-355.6c-14 0-25.4 11.4-25.4 25.4s11.4 25.4 25.4 25.4h355.6c14 0 25.4-11.4 25.4-25.4s-11.4-25.4-25.4-25.4z"/><path d="m433.8 205.2h-355.6c-14 0-25.4 11.4-25.4 25.4s11.4 25.4 25.4 25.4h355.6c14 0 25.4-11.4 25.4-25.4s-11.4-25.4-25.4-25.4z"/><path d="m230.6 306.8h-152.4c-14 0-25.4 11.4-25.4 25.4s11.4 25.4 25.4 25.4h152.4c14 0 25.4-11.4 25.4-25.4s-11.4-25.4-25.4-25.4z"/></g><path d="m492.7 15.4-26.3 26.7c-4 4-10.4 4-14.4 0l-36.4-37.1c-4-4-10.4-4-14.4 0l-36.4 37c-4 4-10.4 4-14.4 0l-36.4-37c-4-4-10.4-4-14.4 0l-36.4 37c-4 4-10.4 4-14.4 0l-36.4-37c-4-4-10.4-4-14.4 0l-36.4 37c-4 4-10.4 4-14.4 0l-36.4-37c-4-4-10.4-4-14.4 0l-36.4 37.1c-4 4-10.4 4-14.4 0l-26.3-26.7c-6.4-6.5-17.3-1.9-17.3 7.3v466.7c0 9.2 10.9 13.8 17.3 7.3l26.3-26.7c4-4 10.4-4 14.4 0l36.4 37c4 4 10.4 4 14.4 0l36.4-37c4-4 10.4-4 14.4 0l36.4 37c4 4 10.4 4 14.4 0l36.4-37c4-4 10.4-4 14.4 0l36.4 37c4 4 10.4 4 14.4 0l36.4-37c4-4 10.4-4 14.4 0l36.4 37c4 4 10.4 4 14.4 0l36.4-37c4-4 10.4-4 14.4 0l26.3 26.7c6.4 6.5 17.3 1.9 17.3-7.3v-466.7c0-9.2-10.9-13.8-17.3-7.3zm-262.1 342.2h-152.4c-14 0-25.4-11.4-25.4-25.4s11.4-25.4 25.4-25.4h152.4c14 0 25.4 11.4 25.4 25.4s-11.4 25.4-25.4 25.4zm218.5 67.4c-17.1 17.1-39.9 26.6-64.1 26.6s-47-9.4-64.1-26.6c-17.1-17.1-26.6-39.9-26.6-64.1s9.4-47 26.6-64.1c17.1-17.1 39.9-26.6 64.1-26.6s47 9.4 64.1 26.6c17.1 17.1 26.6 39.9 26.6 64.1s-9.4 47-26.6 64.1zm-15.3-169h-355.6c-14 0-25.4-11.4-25.4-25.4s11.4-25.4 25.4-25.4h355.6c14 0 25.4 11.4 25.4 25.4s-11.4 25.4-25.4 25.4zm0-101.6h-355.6c-14 0-25.4-11.4-25.4-25.4s11.4-25.4 25.4-25.4h355.6c14 0 25.4 11.4 25.4 25.4s-11.4 25.4-25.4 25.4z"/><path d="m385 283.1c-20.8 0-40.3 8.1-55 22.8s-22.8 34.2-22.8 55 8.1 40.3 22.8 55 34.2 22.8 55 22.8 40.3-8.1 55-22.8 22.8-34.2 22.8-55-8.1-40.3-22.8-55-34.2-22.8-55-22.8zm0 137c-32.7 0-59.2-26.5-59.2-59.2s26.5-59.2 59.2-59.2 59.2 26.5 59.2 59.2-26.5 59.2-59.2 59.2z"/><path d="m374.9 370.2c-7.2-7.2-14.1-14.1-20.9-20.9-4.7 4.7-9.3 9.3-13.9 13.8l34.6 34.6c18.6-18.6 37.2-37.3 55.8-56-4.5-4.5-9.1-9.1-13.8-13.8-13.7 14.1-27.7 28.1-41.8 42.3z"/></svg>