<svg enable-background="new 0 0 96.9 75.5" viewBox="0 0 96.9 75.5" xmlns="http://www.w3.org/2000/svg"><g fill="#fff"><path d="m79.2.4h-61.5c-9.4 0-17.1 7.7-17.1 17.1v25.2c0 9.5 7.7 17.2 17.1 17.2h2.2l-1.2 10.3c-.2 1.9.8 3.7 2.5 4.4.6.3 1.3.4 1.9.4 1.2 0 2.3-.4 3.2-1.3l13.9-13.9h39.1c9.4 0 17.1-7.7 17.1-17.1v-25.2c-.1-9.4-7.7-17.1-17.2-17.1zm0 54.7h-41.1l-14.5 14.5 1.7-14.5h-7.6c-6.8 0-12.4-5.5-12.4-12.4v-25.2c0-6.8 5.5-12.4 12.4-12.4h61.6c6.8 0 12.4 5.5 12.4 12.4v25.2c-.1 6.9-5.6 12.4-12.5 12.4z"/><circle cx="30.9" cy="29.8" r="4.8"/><circle cx="48.4" cy="29.8" r="4.8"/><circle cx="65.7" cy="29.8" r="4.8"/></g></svg>