<svg xmlns="http://www.w3.org/2000/svg" width="40" height="32" viewBox="0 0 40 32">
  <defs>
    <style>
      .cls-1 {
        fill: #fff;
        fill-rule: evenodd;
      }
    </style>
  </defs>
  <path class="cls-1" d="M887.51,688a1.351,1.351,0,0,0-1.517,1.541v4.93a1.343,1.343,0,0,0,1.517,1.523h8.96a1.343,1.343,0,0,0,1.517-1.523v-4.93A1.351,1.351,0,0,0,896.47,688h-8.96m4.229,2.824a1.589,1.589,0,0,1,.467,1.138,1.515,1.515,0,0,1-.467,1.105,1.907,1.907,0,0,1-1.3.486,1.532,1.532,0,0,1-1.117-.486,1.514,1.514,0,0,1-.466-1.105,1.567,1.567,0,0,1,1.583-1.59,1.994,1.994,0,0,1,1.3.452m-1.728-12.831v-4.225q-0.016-1.943-1.751-1.758l-27.752,5.983h29.5m5.96,7.991v-3.835q0.016-2.277-2.151-2.16H860.158q-2.168-.117-2.151,2.16v19.731A2,2,0,0,0,860.125,704h33.728a2,2,0,0,0,2.118-2.126v-3.9H885.98a1.827,1.827,0,0,1-2-2.085v-7.714a1.912,1.912,0,0,1,2-2.2h9.991Z" transform="translate(-858 -672)"/>
</svg>
