<?xml version="1.0" encoding="UTF-8"?>
<svg width="24px" height="22px" viewBox="0 0 24 22" version="1.1" xmlns="http://www.w3.org/2000/svg" xmlns:xlink="http://www.w3.org/1999/xlink">
    <!-- Generator: Sketch 48.2 (47327) - http://www.bohemiancoding.com/sketch -->
    <title>Combined Shape</title>
    <desc>Created with Sketch.</desc>
    <defs></defs>
    <g id="My-Bets-::-Settled-Bets" stroke="none" stroke-width="1" fill="none" fill-rule="evenodd" transform="translate(-281.000000, -100.000000)">
        <g id="Heading" transform="translate(0.000000, 89.000000)" fill="#FFFFFF">
            <path d="M286.170706,31 L282,31 C281.447715,31 281,30.5522847 281,30 C281,29.4477153 281.447715,29 282,29 L286.170706,29 C286.582542,27.8348076 287.693781,27 289,27 C290.306219,27 291.417458,27.8348076 291.829294,29 L304,29 C304.552285,29 305,29.4477153 305,30 C305,30.5522847 304.552285,31 304,31 L291.829294,31 C291.417458,32.1651924 290.306219,33 289,33 C287.693781,33 286.582542,32.1651924 286.170706,31 Z M295.170706,23 L282,23 C281.447715,23 281,22.5522847 281,22 C281,21.4477153 281.447715,21 282,21 L295.170706,21 C295.582542,19.8348076 296.693781,19 298,19 C299.306219,19 300.417458,19.8348076 300.829294,21 L304,21 C304.552285,21 305,21.4477153 305,22 C305,22.5522847 304.552285,23 304,23 L300.829294,23 C300.417458,24.1651924 299.306219,25 298,25 C296.693781,25 295.582542,24.1651924 295.170706,23 Z M286.170706,15 L282,15 C281.447715,15 281,14.5522847 281,14 C281,13.4477153 281.447715,13 282,13 L286.170706,13 C286.582542,11.8348076 287.693781,11 289,11 C290.306219,11 291.417458,11.8348076 291.829294,13 L304,13 C304.552285,13 305,13.4477153 305,14 C305,14.5522847 304.552285,15 304,15 L291.829294,15 C291.417458,16.1651924 290.306219,17 289,17 C287.693781,17 286.582542,16.1651924 286.170706,15 Z M289,15 C289.552285,15 290,14.5522847 290,14 C290,13.4477153 289.552285,13 289,13 C288.447715,13 288,13.4477153 288,14 C288,14.5522847 288.447715,15 289,15 Z M298,23 C298.552285,23 299,22.5522847 299,22 C299,21.4477153 298.552285,21 298,21 C297.447715,21 297,21.4477153 297,22 C297,22.5522847 297.447715,23 298,23 Z M289,31 C289.552285,31 290,30.5522847 290,30 C290,29.4477153 289.552285,29 289,29 C288.447715,29 288,29.4477153 288,30 C288,30.5522847 288.447715,31 289,31 Z" id="Combined-Shape"></path>
        </g>
    </g>
</svg>