<svg xmlns="http://www.w3.org/2000/svg" width="63.625" height="40.031" viewBox="0 0 63.625 40.031">
  <defs>
    <style>
      .cls-1 {
        fill: #fff;
        fill-rule: evenodd;
        opacity: 0.8;
      }
    </style>
  </defs>
  <path class="cls-1" d="M461.64,422.464a4.442,4.442,0,0,0-.233,1.266l-0.991,6.631a1.861,1.861,0,0,0,.408,1.748h0l13.293,8.258a2.534,2.534,0,0,0,1.05.3h0.116l1.866-7.956a1.29,1.29,0,0,0-.875-1.266h-0.058l-14.284-8.8-0.233-.361c-0.059,0-.059.12-0.059,0.18m0.234,9.464a0.887,0.887,0,0,1-.059-0.844,0.7,0.7,0,0,1,.758-0.181,2.141,2.141,0,0,1,1.108.543,3.351,3.351,0,0,1,.875.964,0.89,0.89,0,0,1,.058.844,0.7,0.7,0,0,1-.758.181,2.853,2.853,0,0,1-1.166-.542,3.991,3.991,0,0,1-.816-0.965m5.713-2.953a0.667,0.667,0,0,1,0-.664,0.7,0.7,0,0,1,.758-0.18,2.374,2.374,0,0,1,1.108.542c0.117,0.121.291,0.181,0.408,0.3a1.4,1.4,0,0,0,.292.3c0.058,0.06.116,0.181,0.175,0.241a0.89,0.89,0,0,1,.058.844,0.7,0.7,0,0,1-.758.181,2.857,2.857,0,0,1-1.166-.543,4.71,4.71,0,0,1-.758-0.783c-0.059-.061-0.059-0.121-0.117-0.181,0.058,0.06.058,0,0-.06m-1.982-2.351a0.883,0.883,0,0,1,.058.843,0.7,0.7,0,0,1-.758.181,2.859,2.859,0,0,1-1.166-.542,3.278,3.278,0,0,1-.874-0.965,0.772,0.772,0,0,1-.059-0.783,0.7,0.7,0,0,1,.758-0.181,2.374,2.374,0,0,1,1.108.542,2.309,2.309,0,0,1,.933.905m6.763,4.7a0.7,0.7,0,0,1,.758-0.181,2.376,2.376,0,0,1,1.108.543,3.347,3.347,0,0,1,.874.964,0.887,0.887,0,0,1,.059.844,0.7,0.7,0,0,1-.758.181,2.853,2.853,0,0,1-1.166-.542,2.721,2.721,0,0,1-.875-0.965,1.048,1.048,0,0,1,0-.844m-3.148,3.858a0.884,0.884,0,0,1,.058.844,0.7,0.7,0,0,1-.758.181,2.844,2.844,0,0,1-1.166-.543,2.726,2.726,0,0,1-.875-0.964,0.776,0.776,0,0,1-.058-0.784,0.7,0.7,0,0,1,.758-0.181,2.376,2.376,0,0,1,1.108.543,4.618,4.618,0,0,1,.933.9m1.749,1.628a0.7,0.7,0,0,1,.758-0.181,2.374,2.374,0,0,1,1.108.542,3.365,3.365,0,0,1,.874.965,0.882,0.882,0,0,1,.058.843,0.7,0.7,0,0,1-.758.181,2.559,2.559,0,0,1-1.166-.542,2.727,2.727,0,0,1-.874-0.965,1.364,1.364,0,0,1,0-.843m30.426-11.64a1.258,1.258,0,0,0-.266-1.454l-7.623-9.348-6.231,17.864a3.233,3.233,0,0,0,.066,2.839l6.165,10.109a0.067,0.067,0,0,0,.066.069h0l7.823-20.079m-7.624,1.592a0.746,0.746,0,0,1,.73.623,3.756,3.756,0,0,1,.132,1.524,4.559,4.559,0,0,1-.4,1.592,1.431,1.431,0,0,1-.861.762,0.746,0.746,0,0,1-.73-0.623,3.883,3.883,0,0,1-.2-1.593,3.7,3.7,0,0,1,.464-1.592,3.347,3.347,0,0,1,.861-0.693m-7.294-5.986-1.166,1.627h0l-6.879,9.283a4.616,4.616,0,0,0-.642,1.326l-1.865,7.474a0.114,0.114,0,0,0,.116-0.06,2.528,2.528,0,0,0,.408-0.361l0.117-.121,7.346-10.307a0.469,0.469,0,0,0,.117-0.242,6.9,6.9,0,0,0,.7-1.687l1.749-6.932m-0.389,1.037c-0.2.341-1.185,2.821-1.418,3-0.175.241-.292,0.3-0.408,0.241a0.606,0.606,0,0,1,.058-0.542c0.117-.241.978-2.768,1.175-3.176s-0.417,1.548-.184,1.368h0c0.175-.181.292-0.3,0.408-0.242a0.6,0.6,0,0,1-.058.543,8.8,8.8,0,0,0,.493-1.261,0.066,0.066,0,0,0-.066.068m-2.467,6.618c0.175-.181.291-0.3,0.349-0.241a0.6,0.6,0,0,1-.058.542,5.932,5.932,0,0,1-.408.965,3.04,3.04,0,0,1-.583.844c-0.175.241-.292,0.3-0.408,0.241a0.609,0.609,0,0,1,.058-0.543c0.117-.241.233-0.6,0.408-0.964,0.292-.362.467-0.6,0.642-0.844m-1.458.9a0.608,0.608,0,0,1-.058.543,6.151,6.151,0,0,1-.408.964,2.292,2.292,0,0,1-.642.844c-0.175.241-.291,0.3-0.35,0.241a0.607,0.607,0,0,1,.059-0.543c0.116-.241.233-0.6,0.408-0.964a3.387,3.387,0,0,1,.583-0.9,1.513,1.513,0,0,1,.408-0.181m-1.982.965a0.6,0.6,0,0,1-.059.542,5.969,5.969,0,0,1-.408.965,3.02,3.02,0,0,1-.583.843c-0.175.242-.291,0.3-0.408,0.242a0.609,0.609,0,0,1,.058-0.543c0.117-.241.234-0.6,0.409-0.965a2.5,2.5,0,0,1,.641-0.9,0.887,0.887,0,0,1,.35-0.18m-2.507,6.63a3.363,3.363,0,0,1,.583-0.9c0.175-.181.291-0.3,0.408-0.241a0.606,0.606,0,0,1-.058.542,6.08,6.08,0,0,1-.409.965,2.289,2.289,0,0,1-.641.844c-0.117.241-.233,0.3-0.35,0.241a0.609,0.609,0,0,1,.058-0.543c0.117-.241.234-0.6,0.409-0.9m8.8-17.782a2.253,2.253,0,0,0-.524-0.542l-13.293-8.258c-0.817-.422-1.4-0.543-1.866-0.121l-8.571,10.85a0.227,0.227,0,0,0-.058.181,0.762,0.762,0,0,0,.408.9l13.7,8.62a2.242,2.242,0,0,0,2.041.12h0l8.046-10.85a0.961,0.961,0,0,0,.116-0.9m-15.217-4.762a1.745,1.745,0,0,1-.233-1.2,1.506,1.506,0,0,1,.758-1.025,1.716,1.716,0,0,1,1.341-.06,1.554,1.554,0,0,1,1.108.783,1.526,1.526,0,0,1,.233,1.206,1.253,1.253,0,0,1-.816.9,1.725,1.725,0,0,1-1.341.121,1.7,1.7,0,0,1-1.05-.724m4.9,5.244a1.526,1.526,0,0,1,.233,1.206,1.367,1.367,0,0,1-.816.9,2.038,2.038,0,0,1-1.341.121,1.558,1.558,0,0,1-1.108-.784,1.746,1.746,0,0,1-.233-1.206,1.455,1.455,0,0,1,.816-0.964,1.716,1.716,0,0,1,1.341-.06,1.833,1.833,0,0,1,1.108.783m-1.108,8.319a1.743,1.743,0,0,1-.233-1.206,1.7,1.7,0,0,1,.758-0.964,2.036,2.036,0,0,1,1.341-.061,1.558,1.558,0,0,1,1.107.784,1.526,1.526,0,0,1,.234,1.206,1.368,1.368,0,0,1-.817.9,2.031,2.031,0,0,1-1.341.12,1.779,1.779,0,0,1-1.049-.783m48.75,1.929c0.066-.277.133-0.485,0.2-0.831v-0.277l-20.351-3.808a1.068,1.068,0,0,0-1.259.415l-8.021,20.842a8.681,8.681,0,0,0,1.127.623l19.091,3.116a1.416,1.416,0,0,0,1.591-.623l7.623-19.457m-8.22,13.779a2.013,2.013,0,0,1,.332,1.523,2.337,2.337,0,0,1-.928,1.593,2.659,2.659,0,0,1-1.724.761,1.447,1.447,0,0,1-1.392-.623,1.767,1.767,0,0,1-.331-1.523,2.275,2.275,0,0,1,.994-1.593,3.056,3.056,0,0,1,1.723-.761,1.609,1.609,0,0,1,1.326.623m-8.352-15.718a2.016,2.016,0,0,1,.331,1.524,2.193,2.193,0,0,1-.928,1.592,2.653,2.653,0,0,1-1.723.762,1.448,1.448,0,0,1-1.392-.623,1.92,1.92,0,0,1-.332-1.593,2.425,2.425,0,0,1,.995-1.592,3.048,3.048,0,0,1,1.723-.762,2.1,2.1,0,0,1,1.326.692m16.7-.346a3.03,3.03,0,0,0-.862-1.454l-7.623-8.655a3.337,3.337,0,0,0-2.519-1.246l-17.3-3.185a1.825,1.825,0,0,0-1.524.277,0.067,0.067,0,0,0-.066.069l8.087,9.624a2.679,2.679,0,0,0,1.856.9l19.953,3.67m-9.48-9.97a0.748,0.748,0,0,1,.464.831,0.8,0.8,0,0,1-.861.346,6.26,6.26,0,0,1-1.724-.346,3.285,3.285,0,0,1-1.458-.762c-0.332-.277-0.6-0.485-0.464-0.762a0.8,0.8,0,0,1,.862-0.346,4.379,4.379,0,0,1,1.59.346,2.644,2.644,0,0,1,1.591.693m-7.689,5.331a6.665,6.665,0,0,1-1.79-.346,4.013,4.013,0,0,1-1.525-.762,0.751,0.751,0,0,1-.464-0.831,0.8,0.8,0,0,1,.862-0.346,6.658,6.658,0,0,1,1.79.346,3.616,3.616,0,0,1,1.525.831c0.4,0.347.6,0.623,0.464,0.831a0.934,0.934,0,0,1-.862.277m1.922-2.493a3.314,3.314,0,0,1-1.458-.83,0.749,0.749,0,0,1-.464-0.831,0.8,0.8,0,0,1,.862-0.346,6.217,6.217,0,0,1,1.723.346,4.053,4.053,0,0,1,1.525.831c0.4,0.346.6,0.623,0.464,0.83a0.868,0.868,0,0,1-.862.347A6.2,6.2,0,0,1,508.686,420.462Z" transform="translate(-460.375 -409.969)"/>
</svg>
