<svg xmlns="http://www.w3.org/2000/svg" width="70" height="70" viewBox="0 0 70 70">
  <defs>
    <style>
      .cls-1 {
        fill: #e69b26;
        fill-rule: evenodd;
      }
    </style>
  </defs>
  <path class="cls-1" d="M2719,166a35,35,0,1,0,35,35A35,35,0,0,0,2719,166Zm-0.4,58.132a4.285,4.285,0,1,1,4.28-4.284h0a4.284,4.284,0,0,1-4.28,4.284h0Zm14.08-27.469q-1.515,2.413-6.48,6.521a12.37,12.37,0,0,0-3.19,3.436,11.322,11.322,0,0,0-.57,4.639h-7.36q-0.03-1.585-.03-1.935a12.862,12.862,0,0,1,1.19-5.89,17.616,17.616,0,0,1,4.73-5.182,35.944,35.944,0,0,0,4.25-3.781,5.09,5.09,0,0,0,1.06-3.118,5.248,5.248,0,0,0-1.89-4.055,7.359,7.359,0,0,0-5.09-1.69,7.729,7.729,0,0,0-5.17,1.762,9.426,9.426,0,0,0-2.86,5.383l-7.44-.925a12.321,12.321,0,0,1,4.4-8.774q4.08-3.609,10.72-3.621,6.975,0,11.11,3.653a11.065,11.065,0,0,1,4.13,8.5,9.347,9.347,0,0,1-1.52,5.077h0.01Z" transform="translate(-2684 -166)"/>
</svg>
