<?xml version="1.0" encoding="UTF-8"?>
<svg width="27px" height="22px" viewBox="0 0 27 22" version="1.1" xmlns="http://www.w3.org/2000/svg" xmlns:xlink="http://www.w3.org/1999/xlink">
    <!-- Generator: Sketch 46.2 (44496) - http://www.bohemiancoding.com/sketch -->
    <title>Combined Shape</title>
    <desc>Created with Sketch.</desc>
    <defs></defs>
    <g id="Page-1" stroke="none" stroke-width="1" fill="none" fill-rule="evenodd">
        <g id="Transactions" transform="translate(-282.000000, -82.000000)" fill="#3E444E">
            <g id="Filter-Transactions" transform="translate(0.000000, 71.000000)">
                <g id="Heading">
                    <path d="M287.170706,31 L283,31 C282.447715,31 282,30.5522847 282,30 C282,29.4477153 282.447715,29 283,29 L283,29 L287.170706,29 C287.582542,27.8348076 288.693781,27 290,27 C291.306219,27 292.417458,27.8348076 292.829294,29 L308,29 C308.552285,29 309,29.4477153 309,30 C309,30.5522847 308.552285,31 308,31 L292.829294,31 C292.417458,32.1651924 291.306219,33 290,33 C288.693781,33 287.582542,32.1651924 287.170706,31 Z M298.170706,23 L283,23 C282.447715,23 282,22.5522847 282,22 C282,21.4477153 282.447715,21 283,21 L283,21 L298.170706,21 C298.582542,19.8348076 299.693781,19 301,19 C302.306219,19 303.417458,19.8348076 303.829294,21 L308,21 C308.552285,21 309,21.4477153 309,22 C309,22.5522847 308.552285,23 308,23 L303.829294,23 C303.417458,24.1651924 302.306219,25 301,25 C299.693781,25 298.582542,24.1651924 298.170706,23 Z M287.170706,15 L283,15 C282.447715,15 282,14.5522847 282,14 C282,13.4477153 282.447715,13 283,13 L283,13 L287.170706,13 C287.582542,11.8348076 288.693781,11 290,11 C291.306219,11 292.417458,11.8348076 292.829294,13 L308,13 C308.552285,13 309,13.4477153 309,14 C309,14.5522847 308.552285,15 308,15 L292.829294,15 C292.417458,16.1651924 291.306219,17 290,17 C288.693781,17 287.582542,16.1651924 287.170706,15 Z M290,15 C290.552285,15 291,14.5522847 291,14 C291,13.4477153 290.552285,13 290,13 C289.447715,13 289,13.4477153 289,14 C289,14.5522847 289.447715,15 290,15 Z M301,23 C301.552285,23 302,22.5522847 302,22 C302,21.4477153 301.552285,21 301,21 C300.447715,21 300,21.4477153 300,22 C300,22.5522847 300.447715,23 301,23 Z M290,31 C290.552285,31 291,30.5522847 291,30 C291,29.4477153 290.552285,29 290,29 C289.447715,29 289,29.4477153 289,30 C289,30.5522847 289.447715,31 290,31 Z" id="Combined-Shape"></path>
                </g>
            </g>
        </g>
    </g>
</svg>