<?xml version="1.0" encoding="UTF-8"?>
<svg width="20px" height="20px" viewBox="0 0 20 20" version="1.1" xmlns="http://www.w3.org/2000/svg" xmlns:xlink="http://www.w3.org/1999/xlink">
    <!-- Generator: Sketch 47.1 (45422) - http://www.bohemiancoding.com/sketch -->
    <title>Icon</title>
    <desc>Created with Sketch.</desc>
    <defs></defs>
    <g id="Sportsbook" stroke="none" stroke-width="1" fill="none" fill-rule="evenodd">
        <g id="League-::-Over-/-Under" transform="translate(-12.000000, -83.000000)" fill="#FFFFFF">
            <g id="Market-Selector" transform="translate(0.000000, 71.000000)">
                <g id="Icon" transform="translate(12.000000, 12.000000)">
                    <circle id="Oval" fill-opacity="0.1" cx="10" cy="10" r="10"></circle>
                    <path d="M10.8280937,4.14705011 C10.6530341,4.23608045 10.467971,4.34061607 10.2729046,4.46015681 C10.0828398,4.58069789 9.90277843,4.69523692 9.74272388,4.80477424 C9.63368673,4.85829248 9.54315588,4.94282129 9.48263525,5.04785708 C9.493639,5.13788776 9.53215213,5.22291674 9.59267275,5.29043975 C9.68120292,5.41798321 9.7762353,5.54102514 9.8777699,5.65856519 C9.9878074,5.78410797 10.0978449,5.89614615 10.2028807,5.9951799 C10.2609005,6.06270291 10.3349257,6.11422047 10.417954,6.14523104 C10.5444971,6.12572439 10.6665387,6.0832099 10.7780767,6.01968825 C10.9531364,5.93665996 11.1331977,5.83962689 11.3232625,5.73008957 C11.5133273,5.62055224 11.6883869,5.51351576 11.838438,5.40898014 C11.9399726,5.35646224 12.0235011,5.27493446 12.0785199,5.1744002 C12.070017,5.08286901 12.0355052,4.99633952 11.9784858,4.92431498 C11.8944571,4.78876879 11.8024258,4.6582243 11.703392,4.53318169 C11.6043583,4.4061384 11.497822,4.28559732 11.3832829,4.1725588 C11.318761,4.09603273 11.2362328,4.03651244 11.1432011,4 C11.1081892,4.00950324 11.0031534,4.05902011 10.8280937,4.14855062 L10.8280937,4.14705011 Z M10.4329591,11.3910187 C10.5229898,10.8798445 10.6280256,10.4046825 10.7430648,9.96603306 C10.858104,9.52738358 10.9681415,9.141252 11.0681756,8.80663797 C11.1682097,8.47202394 11.2532386,8.19092815 11.3282642,7.96084975 C11.3877845,7.79779418 11.436301,7.63073725 11.4733136,7.4606793 L11.483317,7.398158 C11.4998227,7.32213209 11.4928203,7.24310516 11.4633102,7.17108062 C11.412793,7.09555488 11.3227623,7.05654158 11.2332318,7.07104653 C11.0131568,7.09505471 10.7975834,7.15007346 10.5930136,7.2356026 C10.2879097,7.34513993 9.96780058,7.47268339 9.63268639,7.61923333 C9.32258071,7.7552797 9.03248185,7.88082248 8.77239322,7.99536151 C8.59283203,8.06888656 8.41727221,8.15241503 8.24721426,8.24544673 C8.20169875,8.26145218 8.17819074,8.31096906 8.19419619,8.35648457 C8.19819755,8.36748832 8.2041996,8.3779919 8.21220233,8.3864948 C8.2262071,8.43000962 8.25971852,8.46452138 8.30223301,8.48052684 C8.35575124,8.47552513 8.40776897,8.46202053 8.45728584,8.44101337 C8.52280817,8.41600485 8.59233186,8.40300042 8.66235573,8.40200008 C8.76389033,8.39699837 8.86492476,8.42150673 8.95245458,8.47252411 C9.02447913,8.51803962 9.08399941,8.57956059 9.12751424,8.65258547 C9.1890352,8.80663797 9.21504407,8.97269456 9.2025398,9.13825097 C9.19303657,9.38033347 9.16452685,9.62091545 9.11751083,9.85849641 L9.01747674,10.4086839 C8.9674597,10.6587691 8.90243754,10.9588714 8.81740856,11.3089907 C8.73237959,11.65911 8.6373472,12.0057281 8.54731652,12.3503456 C8.45728584,12.694963 8.37225687,13.006069 8.2922296,13.2826633 C8.21220233,13.5592575 8.15718358,13.7498225 8.12717335,13.8543581 C8.10216483,13.9378866 8.08215801,14.0044092 8.0671529,14.0579275 C8.05214778,14.1114457 8.03714267,14.1729667 8.02213756,14.2459915 C7.93260705,14.5706022 8.12267182,14.9062165 8.44728243,14.9962472 C8.52530902,15.0177545 8.60683681,15.0237566 8.68736425,15.013253 C8.97946379,15.0007487 9.2685623,14.9502315 9.54765741,14.8632019 C9.90277843,14.7631678 10.2679029,14.6416264 10.6480324,14.4950764 C11.0481687,14.3490267 11.3982881,14.2079786 11.6983903,14.0724324 C11.9984926,13.9368862 12.2085642,13.8428542 12.3286051,13.7903363 C12.3691189,13.7653278 12.4036306,13.730816 12.4286392,13.6903022 C12.4561485,13.6462872 12.478156,13.598771 12.4936613,13.5492541 C12.5076661,13.5117413 12.5126678,13.4717277 12.5086664,13.4317141 C12.5036647,13.4007035 12.4786562,13.4007035 12.4436443,13.4317141 C12.378122,13.4717277 12.3070978,13.5037386 12.2335727,13.5257461 C12.1235352,13.5677604 11.9934909,13.6092746 11.8484415,13.6507887 C11.6988905,13.6933032 11.5468387,13.7268146 11.3932864,13.7508228 C11.254239,13.7753312 11.1141912,13.7883356 10.9731432,13.7898361 C10.7850791,13.804341 10.5975152,13.7578252 10.4379608,13.6567908 C10.3244221,13.5692609 10.2433945,13.4457188 10.2078824,13.3066715 C10.1673686,13.1346128 10.1608664,12.9565521 10.1878756,12.7819927 C10.2178858,12.5784233 10.2528977,12.3673514 10.2929114,12.1477765 L10.4329591,11.3910187 Z" id="Fill-1"></path>
                </g>
            </g>
        </g>
    </g>
</svg>