<?xml version="1.0" encoding="utf-8"?>
<!-- Generator: Adobe Illustrator 21.1.0, SVG Export Plug-In . SVG Version: 6.00 Build 0)  -->
<svg version="1.1" id="Layer_1" xmlns="http://www.w3.org/2000/svg" xmlns:xlink="http://www.w3.org/1999/xlink" x="0px" y="0px"
	 viewBox="0 0 88.6 70.5" style="enable-background:new 0 0 88.6 70.5;" xml:space="preserve">
<style type="text/css">
	.st0{fill:#FFFFFF;}
</style>
<g>
	<path class="st0" d="M83.5,36.9l4.7-13c-3.2,0.9-6.5,1.8-9.8,2.6v-3.9c-0.6,0.2-1.1,0.4-1.7,0.5c-1.2,0.4-2.4,0.7-3.6,1
		c-1.5,0.4-2.9,0.8-4.4,1.1c-8.2,1.9-16.5,2.8-24.9,2.8c-1.8,0-3.7,0-5.5-0.1c-7.2-0.4-14.3-1.4-21.3-3.1c-0.6-0.2-1.3-0.3-1.9-0.5
		c-0.5-0.1-1.1-0.3-1.6-0.4c-0.6-0.2-1.2-0.3-1.9-0.5c-0.8-0.2-1.7-0.5-2.5-0.8v4c-3-0.7-5.9-1.5-8.9-2.4l4.7,13L0,47.3
		c3,0.9,6.1,1.7,9.2,2.4v3.8c2.3,0.7,4.6,1.4,7,1.9c5.2,1.3,10.4,2.2,15.7,2.8c0.4,0,0.8,0.1,1.3,0.1c2.1,0.2,4.3,0.3,6.4,0.4
		c1.4,0.1,2.9,0.1,4.4,0.1c1.4,0,2.8,0,4.1-0.1c7.1-0.3,14.2-1.2,21.2-2.8c0.2,0,0.4-0.1,0.5-0.1c1-0.2,2-0.5,3-0.7
		c2-0.5,3.9-1.1,5.9-1.7v-3.9c3.4-0.8,6.7-1.7,10.1-2.6L83.5,36.9z M41.2,45.4c0,2.7-0.7,4.6-2.1,6c-1.4,1.4-3.4,2.2-5.9,2.2
		c-3.7,0-6-1.6-7.5-3.6l3.8-3.6c1,1.3,2,2,3.3,2c1.5,0,2.4-1,2.4-3V31.9h5.9V45.4z M62.8,39.4c0,5-3.9,7.7-9.2,7.7h-2.9v6.1h-5.9
		V31.9h9.2C59.3,31.9,62.8,34.6,62.8,39.4L62.8,39.4z"/>
	<path class="st0" d="M53.4,36.8h-2.8v5.7h2.8c2.1,0,3.4-1.1,3.4-2.8v-0.1C56.8,37.8,55.6,36.8,53.4,36.8z"/>
	<path class="st0" d="M17.7,23.7l0.3,0.1l0.2-0.2c4.1-4.6,8.5-7.5,9.6-8.2c3.7,1.1,7.7,2.8,9.4,3.5l0.4,7.8l0.5,0
		c1.9,0.1,3.8,0.1,5.6,0.1c5.8,0,11.6-0.5,17.3-1.4c1-0.2,2-0.3,3-0.5l3.5-0.7l-3.5-0.5c0,0,0,0-0.1,0c-3.4-5.1-7.4-9.5-8.9-11.1
		l1.3-5.4c0.7,0,1.5-0.1,2.3-0.1c0.7,0,1.2,0,1.6,0.1c5.4,3.1,9.7,7.7,12.6,13.2c0,0.4,0,1-0.1,1.5L72.8,23l0.8-0.2
		c0.9-0.2,1.8-0.5,2.7-0.8l0.6-0.2l-0.3-0.6C71,8.3,58.3,0,44.3,0C39,0,33.8,1.2,29.1,3.5L29,3.4l-0.5,0.3C24.9,5.6,21.6,8,18.8,11
		l-0.4,0.3l-0.1,0.1c-2.4,2.6-4.4,5.6-5.9,8.8l-0.3,0.4l0,0.1c-0.1,0.2-0.2,0.4-0.3,0.6L11.6,22l0.6,0.2
		C14,22.8,15.9,23.3,17.7,23.7z M29.2,12.5c0.1-1.3,0.4-3.9,1.5-6.5c4.3-2,8.9-3,13.6-3c1,0,2,0,3.1,0.1l1.3,0.3
		c2.6,0.7,4.2,2.1,4.9,2.9l-1.3,5.6c-6.5,1.4-12,3.6-13.5,4.3C37.2,15.5,33.1,13.7,29.2,12.5z"/>
	<path class="st0" d="M61.5,58.8c-5.8,0.9-11.8,1.4-17.6,1.4c-1.6,0-3.3,0-5-0.1l-4.2-0.2l4,1.3c2.3,0.7,4.5,1.2,6.6,1.5
		c0.5,1,1.5,2.8,2.6,4.6c-1.2,0.1-2.4,0.2-3.5,0.2c-7,0-13.8-2.3-19.4-6.5c1-0.2,2-0.5,3.1-0.8l2.5-0.7L27.9,59
		c-0.6-0.1-1.2-0.2-1.7-0.3c-2.7-0.4-5.4-0.9-8.1-1.5l-1.7-0.4l1.1,1.3C24.3,66,34,70.5,44.3,70.5c7.9,0,15.3-2.5,21.5-7.4l0.1,0.1
		l0.4-0.4c0.1-0.1,0.1-0.1,0.2-0.2c1.7-1.4,3.4-3,4.8-4.7l1.1-1.3L70.7,57C67.6,57.7,64.5,58.3,61.5,58.8z"/>
</g>
</svg>
