<svg xmlns="http://www.w3.org/2000/svg" width="70" height="70" viewBox="0 0 70 70">
  <defs>
    <style>
      .cls-1 {
        fill: #2abf9a;
        fill-rule: evenodd;
      }
    </style>
  </defs>
  <path class="cls-1" d="M2427.91,230.25l-0.33.082h-0.04l-0.24.083q-1.785.369-3.6,0.657c-0.41.054-.82,0.123-1.25,0.2a48.257,48.257,0,0,1-4.86.41c-0.67.028-1.34,0.041-1.98,0.041-0.79,0-1.55-.013-2.31-0.041a15.216,15.216,0,0,0,3.08.7q0.4,0.739.6,1.109c0.33,0.574.62,1.053,0.89,1.437a12.84,12.84,0,0,1-2.06.164,14.768,14.768,0,0,1-5.1-.9,15.488,15.488,0,0,1-4.33-2.546,13.617,13.617,0,0,0,1.94-.41l-0.77-.164q-1.815-.248-3.72-0.7a15.971,15.971,0,0,0,5.3,4.105,15.4,15.4,0,0,0,11.98.575,14.753,14.753,0,0,0,4.53-2.546l0.04,0.042,0.08-.124a15.961,15.961,0,0,0,2.15-2.176m2.71-15.888a0.035,0.035,0,0,0-.04.041c-0.54.165-1.07,0.315-1.58,0.452-0.67.164-1.35,0.328-2.02,0.493q-0.975.246-1.95,0.41a0.138,0.138,0,0,0-.08.041l-1.37.247c-1.32.191-2.65,0.342-3.97,0.451-1.35.11-2.68,0.164-4,.164-0.84,0-1.68-.027-2.51-0.082h-0.12a49.7,49.7,0,0,1-9.35-1.4l0.16-.821a26.106,26.106,0,0,1,2.75-2.627q1.02-.78,1.74-1.273a30.344,30.344,0,0,1,4.58,1.725l0.2,3.53h0.08c0.81,0.055,1.63.082,2.47,0.082q1.98,0,3.96-.164c1.3-.109,2.59-0.274,3.89-0.493,0.51-.054.97-0.123,1.37-0.2l-0.16-.041a38.8,38.8,0,0,0-2.51-3.366c-0.59-.712-1.14-1.341-1.66-1.889l0.65-2.833c0.51-.027.94-0.041,1.3-0.041a6.5,6.5,0,0,1,.8.041,15.834,15.834,0,0,1,3.4,2.71,16.367,16.367,0,0,1,2.51,3.613c0,0.219-.01.479-0.04,0.78,0.46-.11.86-0.219,1.22-0.329a15.775,15.775,0,0,0-5.75-6.979q-0.735-.492-1.5-0.9a30.707,30.707,0,0,0,1.58-9.935,28.987,28.987,0,0,0-8.58-21.061,29.145,29.145,0,0,0-41.55,0,30.24,30.24,0,0,0,0,42.122,28.135,28.135,0,0,0,20.8,8.744h0.44q2.145,0.617,4.05,1.068V228.4c0.99,0.3,2.05.6,3.15,0.9,0.33,0.082.66,0.164,1.01,0.246q3.075,0.657,6.15,1.027l0.57,0.041q1.455,0.163,2.91.2c0.65,0.028,1.31.041,1.99,0.041,0.62,0,1.25-.013,1.9-0.041,1.62-.055,3.24-0.178,4.85-0.369a48.136,48.136,0,0,0,4.78-.9l0.24-.041q0.735-.164,1.38-0.328,1.365-.369,2.67-0.78V226.6c1.56-.384,3.09-0.794,4.57-1.232l-2.31-4.639,2.19-5.994c-1.46.41-2.94,0.807-4.45,1.19v-1.806l-0.81.246m-4.17,2.874c0.24-.055.5-0.123,0.77-0.2V220.6l1.25-.37v0.7c-0.67.192-1.34,0.383-2.02,0.575v-4.27m1.98,4.557v1.15a4.542,4.542,0,0,1-.77.2v3.818l-1.29.329v-3.777c-0.22.054-.47,0.109-0.77,0.164v-1.109c0.95-.246,1.89-0.506,2.83-0.78m-21.2-28a3.146,3.146,0,0,1,0,3.777,14.551,14.551,0,0,1-1.05,1.109l-13.03,9.976c-2.27,1.642-3.6,1.642-4.01,0V182.71c0.41-1.643,1.74-1.643,4.01,0l13.03,9.976a14.363,14.363,0,0,1,1.05,1.108m13.11,12.727-0.69,2.874a31.685,31.685,0,0,0-4.08,1.149,24.094,24.094,0,0,0-2.27.9c-0.49-.247-1.08-0.52-1.78-0.822-1.05-.41-2-0.738-2.83-0.985a6.049,6.049,0,0,1,.16-1.4,9.652,9.652,0,0,1,.57-1.97,14.383,14.383,0,0,1,6.39-1.478,13.123,13.123,0,0,1,1.46.082l0.6,0.123a6.979,6.979,0,0,1,1.66.78,4.952,4.952,0,0,1,.81.739m-9.83,12.316a1.2,1.2,0,0,1,1.17-.533,1.569,1.569,0,0,1,1.18.78,2.357,2.357,0,0,1,.4,1.519,2.706,2.706,0,0,1-.4,1.519,1.293,1.293,0,0,1-1.18.574,1.554,1.554,0,0,1-1.17-.821,3.58,3.58,0,0,1-.41-1.56,2.512,2.512,0,0,1,.41-1.478m3.03,0.37v-0.7q1.215,0.041,2.55.041v0.7h-0.85v3.572l-0.81-.041v-3.531c-0.4-.027-0.7-0.041-0.89-0.041m3.08-.493a3.533,3.533,0,0,1,.65-0.205c0.16-.027.36-0.055,0.6-0.082a1.809,1.809,0,0,1,.97.164,0.95,0.95,0,0,1,.57.9,1.081,1.081,0,0,1-.2.616,0.969,0.969,0,0,1-.45.37v0.041a0.98,0.98,0,0,1,.53.328,1,1,0,0,1,.24.657,1.171,1.171,0,0,1-.56,1.026,1.931,1.931,0,0,1-1.1.329,3.222,3.222,0,0,1-1.25-.206v-3.941m7.24-.9,0.77-.164v3.572c0.38-.083.81-0.178,1.29-0.288v0.7c-0.62.137-1.3,0.287-2.06,0.452v-4.27m-2.71.41q0.48-.041.93-0.123l1.38,4.024a7.372,7.372,0,0,1-.85.164l-0.29-.944q-0.6.081-1.41,0.2l-0.29.985-0.85.082,1.38-4.393m-16.51-.451v1.067c0.38,0.11.78,0.219,1.22,0.329v0.657c-0.44-.082-0.84-0.178-1.22-0.288v1.807l-0.77-.206v-4.269c0.76,0.219,1.46.41,2.11,0.575V218.1c-0.3-.054-0.74-0.164-1.34-0.328m1.82,1.888a2.322,2.322,0,0,1,.41-1.437,1.131,1.131,0,0,1,1.17-.451,1.694,1.694,0,0,1,1.13.862,3.133,3.133,0,0,1,.41,1.6,2.322,2.322,0,0,1-.41,1.437,1.107,1.107,0,0,1-1.13.534,1.792,1.792,0,0,1-1.17-.9,3.368,3.368,0,0,1-.41-1.643m0.41,3.079q0.69,0.165,1.53.288l1.5,5.173a11.994,11.994,0,0,1-1.37-.206l-0.21-.862c-0.32-.054-0.77-0.137-1.33-0.246l-0.24.78c-0.49-.109-0.93-0.2-1.34-0.287l1.46-4.64m-3.04-.739c0.43,0.11.87,0.219,1.3,0.329v4.393a1.371,1.371,0,0,1-.61,1.355,1.6,1.6,0,0,1-1.34.164v-1.15a0.6,0.6,0,0,0,.49-0.123,0.894,0.894,0,0,0,.16-0.575V222m21.04,1.437a2.446,2.446,0,0,1,.49,1.643,4.244,4.244,0,0,1-.49,1.888,2.036,2.036,0,0,1-1.37,1.068,1.285,1.285,0,0,1-1.38-.575,2.856,2.856,0,0,1-.48-1.725,3.455,3.455,0,0,1,.48-1.847,1.82,1.82,0,0,1,1.38-.985,1.392,1.392,0,0,1,1.37.533m-4.29.247a1.346,1.346,0,0,1,.65,1.231,1.593,1.593,0,0,1-.61,1.314,2.028,2.028,0,0,1-1.25.493,0.6,0.6,0,0,1-.32,0v1.806c-0.38,0-.81.014-1.3,0.041v-4.762a4.917,4.917,0,0,1,1.54-.37,2.381,2.381,0,0,1,1.29.247m-4.65,0c0.49,0,.97-0.014,1.46-0.041l-1.26,2.422,1.26,2.545h-1.46l-1.09-2.381v2.381c-0.49,0-.93-0.013-1.34-0.041V223.6l1.34,0.082v2.176l1.09-2.176m-3.96-.247a1.482,1.482,0,0,1,.6.124,1.389,1.389,0,0,1,.45.205l-0.41,1.067a0.6,0.6,0,0,0-.44-0.2,0.584,0.584,0,0,0-.61.411,2.1,2.1,0,0,0-.16.862,2.214,2.214,0,0,0,.16.9,0.757,0.757,0,0,0,.61.534,0.524,0.524,0,0,0,.44-0.124l0.41,1.15a1.6,1.6,0,0,1-1.05.164,1.919,1.919,0,0,1-1.42-.9,3.46,3.46,0,0,1-.49-1.848,2.857,2.857,0,0,1,.49-1.724,1.438,1.438,0,0,1,1.42-.616m7.32,1.027a1.154,1.154,0,0,1-.24.041v1.231h0.24a0.636,0.636,0,0,0,.69-0.7,0.479,0.479,0,0,0-.21-0.452,0.533,0.533,0,0,0-.48-0.123m4.65,0.082c-0.08-.329-0.23-0.479-0.44-0.452a0.681,0.681,0,0,0-.45.575,2.947,2.947,0,0,0-.12.9,2.413,2.413,0,0,0,.12.821q0.12,0.494.45,0.411a0.616,0.616,0,0,0,.44-0.575,3.707,3.707,0,0,0,.08-0.862,1.994,1.994,0,0,0-.08-0.821m-16.3-.534-0.04.205c-0.03.165-.06,0.3-0.09,0.411l-0.32,1.314a7.923,7.923,0,0,1,.89.164l-0.32-1.437a2.837,2.837,0,0,1-.08-0.41l-0.04-.247m-0.25-5.091a2.4,2.4,0,0,0-.16.9,2.866,2.866,0,0,0,.16.985,0.967,0.967,0,0,0,.65.657,0.592,0.592,0,0,0,.61-0.452,2.211,2.211,0,0,0,.16-0.9,4.939,4.939,0,0,0-.16-0.985,0.873,0.873,0,0,0-.61-0.616,0.582,0.582,0,0,0-.65.41m14.33,0.411a1.047,1.047,0,0,0-.08-0.328v-0.165l-0.04.165a2.417,2.417,0,0,1-.09.369l-0.44,1.519c0.38-.055.74-0.109,1.09-0.164l-0.44-1.4m-3.24,1.683a1.1,1.1,0,0,0-.57-0.123,2.7,2.7,0,0,0-.52.041v1.232a2.4,2.4,0,0,0,.48.041,0.988,0.988,0,0,0,.57-0.164,0.566,0.566,0,0,0,.28-0.534,0.5,0.5,0,0,0-.24-0.493m-1.09-1.847v1.149h0.52a0.72,0.72,0,0,0,.53-0.164,0.61,0.61,0,0,0,.2-0.493c0-.41-0.25-0.6-0.77-0.574a1.234,1.234,0,0,0-.48.082m-5.71-.164a0.646,0.646,0,0,0-.6.492,2.211,2.211,0,0,0-.17.9,2.638,2.638,0,0,0,.17.986,0.744,0.744,0,0,0,.6.574,0.656,0.656,0,0,0,.65-0.492,2.214,2.214,0,0,0,.16-0.9,2.464,2.464,0,0,0-.2-0.986A0.859,0.859,0,0,0,2411.68,219Z" transform="translate(-2366 -166)"/>
</svg>
