<svg xmlns="http://www.w3.org/2000/svg" width="48" height="40" viewBox="0 0 48 40">
  <defs>
    <style>
      .cls-1 {
        fill: #fff;
        fill-rule: evenodd;
      }
    </style>
  </defs>
  <path class="cls-1" d="M2422,410v40h16V410h-16Zm9.09,13h-1.64v-6.2a5.634,5.634,0,0,1-2.11,1.25v-1.5a4.69,4.69,0,0,0,1.39-.8,2.991,2.991,0,0,0,1.03-1.375h1.33V423ZM2406,426v24h16.25V426H2406Zm11.01,11.466V439h-5.74a4.159,4.159,0,0,1,.56-1.643,10.9,10.9,0,0,1,1.85-2.06,11.481,11.481,0,0,0,1.35-1.4,1.805,1.805,0,0,0,.34-1,1.145,1.145,0,0,0-.29-0.848,1.1,1.1,0,0,0-.82-0.3,1.069,1.069,0,0,0-.81.31,1.554,1.554,0,0,0-.35,1.032l-1.63-.175a2.679,2.679,0,0,1,.92-1.95,3.043,3.043,0,0,1,1.92-.592,2.779,2.779,0,0,1,1.99.685,2.243,2.243,0,0,1,.72,1.7,3.2,3.2,0,0,1-.2,1.105,4.672,4.672,0,0,1-.66,1.1,10.955,10.955,0,0,1-1.07,1.095c-0.52.476-.85,0.793-0.98,0.949a2.922,2.922,0,0,0-.34.458h3.24Zm20.74-5.47v18H2454V432h-16.25Zm10.36,12.35a3.058,3.058,0,0,1-3.98.125,2.672,2.672,0,0,1-.88-1.75l1.59-.192a1.473,1.473,0,0,0,.4.932,1.135,1.135,0,0,0,.81.322,1.1,1.1,0,0,0,.85-0.387,1.52,1.52,0,0,0,.35-1.042,1.47,1.47,0,0,0-.34-0.986,1.05,1.05,0,0,0-.81-0.362,2.782,2.782,0,0,0-.74.123l0.18-1.343a1.422,1.422,0,0,0,1.01-.29,1.021,1.021,0,0,0,.35-0.818,0.882,0.882,0,0,0-.81-0.949,0.94,0.94,0,0,0-.13,0,0.988,0.988,0,0,0-.71.292,1.363,1.363,0,0,0-.36.855l-1.51-.25a3.313,3.313,0,0,1,.47-1.25,2.18,2.18,0,0,1,.89-0.733,2.957,2.957,0,0,1,1.27-.267,2.543,2.543,0,0,1,1.94.773,2.062,2.062,0,0,1,.6,1.43,2.02,2.02,0,0,1-1.24,1.8,2,2,0,0,1,1.18.709,2.064,2.064,0,0,1,.44,1.33A2.589,2.589,0,0,1,2448.11,444.35Z" transform="translate(-2406 -410)"/>
</svg>
