<svg xmlns="http://www.w3.org/2000/svg" width="84" height="70" viewBox="0 0 84 70">
  <defs>
    <style>
      .cls-1 {
        fill: #54acf7;
        fill-rule: evenodd;
      }
    </style>
  </defs>
  <path class="cls-1" d="M2544,166v70h28V166h-28Zm15.91,22.75h-2.87V177.891a9.838,9.838,0,0,1-3.7,2.188v-2.625a8.236,8.236,0,0,0,2.44-1.391,5.339,5.339,0,0,0,1.81-2.407h2.32V188.75ZM2516,194.006V236h28.44V194.006H2516Zm19.27,20.067v2.677h-10.04a6.858,6.858,0,0,1,.98-2.874,19.021,19.021,0,0,1,3.22-3.605,20.253,20.253,0,0,0,2.38-2.459,3.229,3.229,0,0,0,.59-1.75,2.012,2.012,0,0,0-.51-1.483,1.935,1.935,0,0,0-1.43-.516,1.909,1.909,0,0,0-1.43.542,2.757,2.757,0,0,0-.61,1.807l-2.84-.306a4.7,4.7,0,0,1,1.6-3.413,5.352,5.352,0,0,1,3.36-1.037,4.844,4.844,0,0,1,3.48,1.2,3.96,3.96,0,0,1,1.27,2.984,5.316,5.316,0,0,1-.36,1.933,7.961,7.961,0,0,1-1.15,1.921,18.69,18.69,0,0,1-1.88,1.916c-0.9.835-1.47,1.389-1.72,1.663a5.109,5.109,0,0,0-.58.8h5.67ZM2571.56,205v31H2600V205h-28.44Zm18.14,21.112a5.359,5.359,0,0,1-6.97.218,4.685,4.685,0,0,1-1.55-3.062l2.78-.337a2.633,2.633,0,0,0,.72,1.632,2,2,0,0,0,2.89-.114,2.633,2.633,0,0,0,.61-1.824,2.506,2.506,0,0,0-.58-1.724,1.857,1.857,0,0,0-1.42-.634,4.97,4.97,0,0,0-1.31.214l0.32-2.349a2.487,2.487,0,0,0,1.77-.508,1.817,1.817,0,0,0,.62-1.431,1.553,1.553,0,0,0-1.43-1.661,1.472,1.472,0,0,0-.21,0,1.762,1.762,0,0,0-1.26.512,2.441,2.441,0,0,0-.63,1.5l-2.64-.437a5.93,5.93,0,0,1,.83-2.188,3.767,3.767,0,0,1,1.55-1.282,5.193,5.193,0,0,1,2.23-.468,4.443,4.443,0,0,1,3.39,1.352,3.6,3.6,0,0,1,1.05,2.5,3.543,3.543,0,0,1-2.16,3.159,3.5,3.5,0,0,1,2.06,1.243,3.623,3.623,0,0,1,.77,2.327A4.583,4.583,0,0,1,2589.7,226.113Z" transform="translate(-2516 -166)"/>
</svg>
