<?xml version="1.0" encoding="utf-8"?>
<!-- Generator: Adobe Illustrator 21.0.0, SVG Export Plug-In . SVG Version: 6.00 Build 0)  -->
<svg version="1.1" id="Layer_1" xmlns="http://www.w3.org/2000/svg" xmlns:xlink="http://www.w3.org/1999/xlink" x="0px" y="0px"
	 viewBox="0 0 304 361.5" enable-background="new 0 0 304 361.5" xml:space="preserve">
<g transform="matrix( 1, 0, 0, 1, 0,0) ">
	<g>
		<g id="Layer0_0_FILL">
			<path fill="#FFFFFF" d="M180.1,4.6c-0.3-2.4-1.6-3.6-3.8-3.8h-50.6c-2.4,0.1-3.6,1.6-3.8,4.4v28.6c0.1,2.6,1.2,4,3.2,4.4h5v12.5
				c0.8-0.1,1.7-0.1,2.6-0.1c0.1,0,0.3-0.1,0.5-0.2c5.8-0.7,11.7-1.1,17.9-1.1c1.2,0,2.4,0,3.7,0c4.8,0.2,9.5,0.6,14.1,1.1
				c0.2,0.1,0.3,0.2,0.5,0.2c0.9,0,1.8,0.1,2.8,0.3V38.3h5.1c1.8-0.4,2.8-1.6,2.9-3.8V4.6 M231.9,71.1c6.3,3.7,12.3,8,18.2,12.7
				l15.4-26.9l-38.3-22.1l-15.4,26.7C218.7,64.2,225.4,67.4,231.9,71.1 M282,285.2l0.2-0.1c13.2-22.4,19.9-47.6,19.9-75.6
				c0-28.1-6.6-53.3-19.9-75.8c-6.6-11-14.6-21.4-24.3-31c-4.2-4.2-8.5-8.1-13-11.6c-5.8-4.8-11.9-9.1-18.1-12.9h-0.1
				c-6.4-3.7-13.1-7-20-9.7c-8.3-3.2-16.9-5.7-25.7-7.4c-2.2-0.4-4.4-0.8-6.5-1.1c-1.2-0.2-2.3-0.4-3.4-0.6
				c-5.3-0.6-10.6-0.9-16-1.1c-1.3,0-2.6,0-3.9,0c-6.8,0-13.4,0.4-19.9,1.1c-1.2,0.2-2.4,0.4-3.5,0.6c-2.2,0.3-4.4,0.7-6.4,1.1
				c-16.5,3.1-31.8,8.8-46,17.1v0.4c-11,6.4-21.4,14.5-31,24.3c-9.7,9.6-17.9,19.9-24.5,31C6.7,156.3,0,181.6,0,209.7
				c0,27.8,6.6,53,19.9,75.6c6.6,10.9,14.7,21.2,24.5,31c9.6,9.7,19.9,17.8,31,24.3h0.2c14,8.5,29.3,14.2,45.8,17.3
				c3.3,0.6,6.6,1.1,9.9,1.7c6.4,0.7,13.1,1.1,19.9,1.1c1.3,0,2.6-0.1,3.9-0.2c5.4-0.1,10.7-0.4,16-0.9c3.3-0.6,6.6-1.1,9.9-1.7
				c16.4-3.1,31.6-8.8,45.8-17.1v-0.2c10.9-6.4,21.3-14.5,31.2-24.3C267.5,306.5,275.5,296.2,282,285.2 M131.3,85.8
				c6.4-1,13.1-1.5,19.9-1.5c1.3,0,2.6,0,3.9,0.1c5.5,0.2,10.8,0.6,16,1.4c1.1,0.2,2.2,0.4,3.4,0.6c2.1,0.4,4.3,0.8,6.5,1.4
				c4.2,0.9,8.4,2.2,12.5,3.8c7.1,2.5,13.8,5.6,20.1,9.4h0.2c6.3,3.7,12.3,8.1,18,13.1c2.6,2.2,5.1,4.6,7.6,7.1
				c8.1,8.1,14.8,16.7,20.1,25.7c11,18.7,16.5,39.6,16.5,62.6c0,23.2-5.5,44.1-16.5,62.8c-5.5,9.1-12.2,17.6-20.1,25.5
				c-8.1,8.2-16.7,15-25.8,20.3c-10.2,6.1-21.1,10.5-32.6,13.2c-3.2,0.7-6.6,1.3-9.9,1.7c-5.1,0.7-10.5,1.2-16,1.4
				c-1.3,0.1-2.6,0.2-3.9,0.2c-6.8,0-13.4-0.5-19.9-1.6c-3.4-0.4-6.7-1-9.9-1.7c-11.6-2.8-22.5-7.2-32.8-13.2h-0.2
				c-9.2-5.3-17.8-12.1-25.7-20.3c-8-7.9-14.7-16.4-20-25.5v-0.2c-11-18.6-16.5-39.4-16.5-62.6c0-23,5.5-43.9,16.5-62.6
				c5.4-9.1,12.1-17.7,20.1-25.7s16.5-14.7,25.6-20c0-0.1,0-0.1,0.1-0.1c10.3-6.1,21.3-10.4,33-13.1c2.1-0.6,4.2-1,6.4-1.4
				C128.9,86.2,130.1,86,131.3,85.8 M144.1,226.1l-0.6-0.2C143.7,226,143.8,226.1,144.1,226.1L144.1,226.1 M160.3,197.7
				c-0.8-0.9-1.7-1.6-2.6-2.1l0.1,0.2c-0.4-0.4-0.8-0.6-1.2-0.8c-1.1-0.7-2.4-1.3-3.8-1.7c-0.2-0.1-0.5-0.2-0.6-0.2
				c-0.2-0.1-0.3-0.1-0.5-0.1c-0.1,0-0.2,0-0.3,0c-0.2,0-0.5-0.1-0.8-0.2c-0.7-0.2-1.5-0.3-2.2-0.3h-0.3c-0.8,0.1-1.5,0.3-2.2,0.5
				c-0.2,0-0.5,0-0.8,0H145c-0.1,0-0.3,0-0.5,0.1c-0.2,0-0.4,0-0.6,0l-85.2,16.5l83.9,16.1c0.3,0,0.6,0.1,1,0.2c0.1,0,0.2,0,0.4,0.1
				c0.1,0,0.3,0.1,0.5,0.2c0.1,0,0.2,0,0.3,0.1c0.1,0,0.2,0,0.3,0h0.1c0.3,0,0.6,0.1,1,0.2c0.4,0.1,0.9,0.1,1.5,0.1
				c0.3,0,0.6,0,0.7,0h0.1c0.9,0,1.7,0,2.5-0.1c0.2-0.1,0.4-0.2,0.6-0.2c0.1,0,0.2,0,0.3,0c0.2,0,0.4,0,0.7-0.1
				c0.1-0.1,0.2-0.2,0.4-0.2c1.3-0.2,2.5-0.7,3.6-1.5c0.3-0.1,0.6-0.2,1-0.3c0.9-0.7,1.8-1.5,2.8-2.4c0.1,0,0.1,0,0.1-0.1
				c0.9-1,1.7-2,2.4-2.9c0.1-0.4,0.2-0.6,0.4-0.6c0-0.1,0.1-0.2,0.2-0.3c1.3-2.5,2-5.3,2-8.3c0-3.1-0.7-5.8-2.2-8.3h0.2
				c-0.7-1.1-1.6-2.2-2.5-3.2C160.6,197.9,160.5,197.8,160.3,197.7 M267.9,209.6v-0.2c0-21.7-5.1-41.2-15.3-58.6
				c-5.1-8.6-11.3-16.7-18.8-24.2s-15.6-13.8-24.3-18.8c-9.6-5.7-19.8-9.8-30.8-12.3c-3-0.7-6.1-1.3-9.2-1.7
				c-6.1-0.9-12.2-1.3-18.5-1.3h0v92.9c0.3,0,0.6,0.1,1,0.2c0.7,0,1.4,0.1,2,0.4c0.1,0,0.3,0,0.5,0c1.8,0.5,3.6,1.2,5.2,2.1
				c1,0.2,1.9,0.7,2.8,1.4c1.7,1,3.3,2.2,4.9,3.7c1.3,1.5,2.5,3,3.6,4.7h0.1c2,3.5,2.9,7.4,2.9,11.6c0,4.2-1,8-2.9,11.3l-0.1,0.3
				c-1,1.7-2.2,3.2-3.6,4.7c-1.3,1.3-2.6,2.4-3.9,3.2c-0.4,0.2-0.7,0.4-1,0.6v0.1c-0.7,0.5-1.4,0.9-2,1.3c-0.1,0.1-0.2,0.1-0.3,0.1
				c-1.8,1.1-3.8,1.9-6,2.4c-0.2,0-0.3,0-0.3,0.1c-0.4,0.1-0.7,0.2-1.1,0.3c-0.2,0-0.5,0-0.6,0s-0.2,0-0.3,0h-0.2
				c-1.1,0.2-2.2,0.3-3.3,0.3h-0.1c-0.2,0-0.4,0-0.7,0c-1,0-1.9-0.1-2.8-0.3h-0.3c-0.5,0-0.9,0-1.1-0.1c-0.1-0.1-0.2-0.2-0.3-0.2
				c-0.1-0.1-0.2-0.1-0.3-0.1h-0.3l-0.2-0.2c-0.1,0-0.2,0-0.3,0c-0.2,0-0.3,0-0.3-0.1c-0.2-0.1-0.3-0.1-0.3,0.1L34.2,212.6
				c0.4,20.3,5.5,38.7,15.3,55.3c5,8.6,11.2,16.7,18.8,24.3c2.4,2.3,4.8,4.5,7.4,6.6c5.3,4.6,10.9,8.6,16.6,12.1h0.2
				c6.1,3.6,12.3,6.6,18.8,9c3.9,1.3,7.8,2.4,11.9,3.4c2,0.5,4,0.9,6.1,1.3c1,0.2,2.1,0.3,3.3,0.4c4.8,0.9,9.7,1.3,14.9,1.4
				c1.1,0,2.3,0,3.6,0h0.2c6.3,0,12.4-0.5,18.5-1.4c1-0.1,2-0.2,3-0.4c2.1-0.4,4.1-0.8,6.2-1.3c11-2.6,21.2-6.7,30.8-12.4h0.1
				c8.6-5,16.6-11.3,24.2-18.8c7.4-7.5,13.7-15.6,18.8-24.3C262.8,250.5,267.9,231.1,267.9,209.6z"/>
		</g>
	</g>
</g>
</svg>
