<svg xmlns="http://www.w3.org/2000/svg" width="70.03" height="70" viewBox="0 0 70.03 70">
  <defs>
    <style>
      .cls-1 {
        fill: #54acf7;
        fill-rule: evenodd;
      }
    </style>
  </defs>
  <path class="cls-1" d="M1866.29,226.371q-3.915.252-7.65,0.721a91.457,91.457,0,0,0-14.64,3.282V236h70.02v-6.131a145.058,145.058,0,0,0-15.71-2.777q-3.735-.468-7.65-0.721l-1.52-.144c-3.41-.217-6.91-0.325-10.52-0.325h-0.29q-5.4,0-10.51.325l-1.53.144m23.22-47.847a20.8,20.8,0,0,0-2.4-7.718,8.14,8.14,0,0,0-6.32-4.666l-1.5-.14-0.28.14-0.32-.14-1.5.14a8.076,8.076,0,0,0-6.29,4.666,21.447,21.447,0,0,0-2.42,7.718,6.057,6.057,0,0,1-1.65,3.719,1.6,1.6,0,0,0,.86-0.245,1.911,1.911,0,0,1-1,1.3,1.251,1.251,0,0,0,1.29-.176,2.936,2.936,0,0,0-.36.912,0.689,0.689,0,0,1-.32.106,1.678,1.678,0,0,1-1.5-.246,1.421,1.421,0,0,0,.21.176,2.008,2.008,0,0,0,1.61.35,2.258,2.258,0,0,0,1.07,2.035c-0.4-.842-0.38-1.356.07-1.543,0.95-.234,1.17.5,0.64,2.21a0.752,0.752,0,0,0,.68-0.316,1.979,1.979,0,0,1-1.68,1.789l0.86,0.106a2.591,2.591,0,0,1-2.14.385,2.607,2.607,0,0,0,1.64.7c-1.07.632-1.24,1.626-.5,2.982l0.39-.631-0.21,1.578a1.989,1.989,0,0,1-.39.036q-5.97,1.017-7.46,5.472-1.44,4.281-1.43,13.157l-0.15,10.071c-0.02.515,0.04,0.068,0.18,0.559q3.465-.421,7.18-0.667l-1.21-1.157q0.75-5.4,1.25-11.508a6.281,6.281,0,0,0,.96,3.158q2.385,4.63,1.5,8.1l-0.22,1.263c3.34-.211,6.75-0.316,10.25-0.316h0.29q5.2,0,10.17.316l-0.25-1.263q-0.855-3.474,1.54-8.1a6.076,6.076,0,0,0,.93-3.158q0.5,6.1,1.28,11.508l-1.18,1.157q3.645,0.246,7.14.667c0.15-.491.21-0.044,0.18-0.559l-0.18-10.071a58.242,58.242,0,0,0-.6-9.718,22.733,22.733,0,0,0-.82-3.439q-1.5-4.455-7.43-5.472a2.6,2.6,0,0,1-.43-0.036l-0.18-1.578,0.4,0.631c0.73-1.356.57-2.35-.5-2.982a2.458,2.458,0,0,0,1.6-.7,2.477,2.477,0,0,1-2.1-.385l0.85-.106a2.058,2.058,0,0,1-1.71-1.789,0.762,0.762,0,0,0,.68.316c-0.53-1.708-.31-2.444.64-2.21,0.45,0.187.49,0.7,0.11,1.543a2.148,2.148,0,0,0,1.03-2.035,1.968,1.968,0,0,0,1.61-.35,0.51,0.51,0,0,0,.21-0.176,1.585,1.585,0,0,1-1.46.246,1.429,1.429,0,0,1-.36-0.106,3.183,3.183,0,0,0-.35-0.912,1.31,1.31,0,0,0,1.32.176,2.061,2.061,0,0,1-1.04-1.3,1.778,1.778,0,0,0,.89.245A6.253,6.253,0,0,1,1889.51,178.524Z" transform="translate(-1844 -166)"/>
</svg>
