<svg xmlns="http://www.w3.org/2000/svg" viewBox="0 0 500 500" preserveAspectRatio="xMidYMid slice" style="width: 100%; height: 100%; transform: translate3d(0px, 0px, 0px);"><defs><clipPath id="__lottie_element_24"><rect width="500" height="500" x="0" y="0"></rect></clipPath></defs><g clip-path="url(#__lottie_element_24)"><g style="display: block;" transform="matrix(3.9194931983947754,0,0,3.9194931983947754,183.36862182617188,183.36862182617188)" opacity="1"><g opacity="1" transform="matrix(1,0,0,1,16.67099952697754,6.079999923706055)"><path fill="currentColor" fill-opacity="1" d=" M-16.665000915527344,6.079999923706055 C-16.665000915527344,6.079999923706055 -16.665000915527344,-6.080999851226807 -16.665000915527344,-6.080999851226807 C-13.189000129699707,-6.080999851226807 -9.713000297546387,-6.076000213623047 -6.236999988555908,-6.065999984741211 C1.3969999551773071,-6.065999984741211 9.029999732971191,-6.071000099182129 16.665000915527344,-6.080999851226807 C16.665000915527344,-6.080999851226807 16.665000915527344,0.14100000262260437 16.665000915527344,0.14100000262260437 C16.665000915527344,0.14100000262260437 16.409000396728516,-0.10100000351667404 16.409000396728516,-0.10100000351667404 C10.600000381469727,-5.7270002365112305 1.277999997138977,-3.2790000438690186 -0.9779999852180481,4.4679999351501465 C-1.1069999933242798,4.9070000648498535 -1.1890000104904175,5.359000205993652 -1.2929999828338623,5.802999973297119 C-1.4140000343322754,5.776000022888184 -1.4700000286102295,5.7789998054504395 -1.5010000467300415,5.751999855041504 C-1.6430000066757202,5.631999969482422 -1.784000039100647,5.5 -1.9249999523162842,5.379000186920166 C-4.796000003814697,2.930000066757202 -8.053999900817871,2.118000030517578 -11.72599983215332,3.072999954223633 C-13.67199993133545,3.5769999027252197 -15.246000289916992,4.703000068664551 -16.665000915527344,6.079999923706055z"></path></g><g opacity="1" transform="matrix(1,0,0,1,23.030000686645508,27.165000915527344)"><path fill="currentColor" fill-opacity="1" d=" M10.305999755859375,6.7729997634887695 C8.942999839782715,6.783999919891357 7.579999923706055,6.802999973297119 6.210000038146973,6.802999973297119 C1.0369999408721924,6.808000087738037 -4.135000228881836,6.808000087738037 -9.309000015258789,6.802999973297119 C-9.309000015258789,6.802999973297119 -10.305999755859375,6.802999973297119 -10.305999755859375,6.802999973297119 C-9.866000175476074,5.730999946594238 -9.486000061035156,4.788000106811523 -9.088000297546387,3.8499999046325684 C-7.920000076293945,1.0989999771118164 -6.729000091552734,-1.6410000324249268 -5.584000110626221,-4.400000095367432 C-5.301000118255615,-5.085999965667725 -5.159999847412109,-5.831999778747559 -4.923999786376953,-6.619999885559082 C-4.765999794006348,-6.5320000648498535 -4.617000102996826,-6.432000160217285 -4.474999904632568,-6.320000171661377 C-0.19900000095367432,-2.303999900817871 6.418000221252441,-2.6649999618530273 10.192999839782715,-6.7170000076293945 C10.22700023651123,-6.75 10.26200008392334,-6.781000137329102 10.300000190734863,-6.809000015258789 C10.300000190734863,-6.809000015258789 10.305999755859375,6.7729997634887695 10.305999755859375,6.7729997634887695z"></path></g><g opacity="1" transform="matrix(1,0,0,1,8.562999725341797,21.885000228881836)"><path fill="currentColor" fill-opacity="1" d=" M-8.557000160217285,-6.330999851226807 C-8.03600025177002,-7.051000118255615 -7.578999996185303,-7.830999851226807 -6.98199987411499,-8.479999542236328 C-4.10699987411499,-11.611000061035156 0.3619999885559082,-12.11400032043457 3.927999973297119,-9.753000259399414 C7.328999996185303,-7.498000144958496 8.555999755859375,-3.117000102996826 6.89300012588501,0.746999979019165 C5.394000053405762,4.22599983215332 3.9110000133514404,7.714000225067139 2.447000026702881,11.210000038146973 C2.171999931335449,11.873000144958496 1.8250000476837158,12.168000221252441 1.0889999866485596,12.107000350952148 C0.257999986410141,12.038999557495117 -0.5820000171661377,12.092000007629395 -1.5850000381469727,12.092000007629395 C-1.5850000381469727,12.092000007629395 1.1799999475479126,5.586999893188477 1.1799999475479126,5.586999893188477 C0.8119999766349792,5.619999885559082 0.5860000252723694,5.638000011444092 0.3610000014305115,5.660999774932861 C-3.388000011444092,6.044000148773193 -6.2230000495910645,4.5879998207092285 -8.190999984741211,1.3910000324249268 C-8.298999786376953,1.2170000076293945 -8.432999610900879,1.0579999685287476 -8.555000305175781,0.890999972820282 C-8.555000305175781,0.890999972820282 -8.557000160217285,-6.330999851226807 -8.557000160217285,-6.330999851226807z M-0.8289999961853027,2.3239998817443848 C-0.1589999943971634,2.3389999866485596 0.5080000162124634,2.2209999561309814 1.1330000162124634,1.975000023841858 C1.7569999694824219,1.7289999723434448 2.3269999027252197,1.3619999885559082 2.809000015258789,0.8930000066757202 C3.2899999618530273,0.4259999990463257 3.6730000972747803,-0.1340000033378601 3.936000108718872,-0.7509999871253967 C4.198999881744385,-1.36899995803833 4.3379998207092285,-2.0339999198913574 4.3420000076293945,-2.7060000896453857 C4.3460001945495605,-3.378000020980835 4.216000080108643,-4.044000148773193 3.9619998931884766,-4.664999961853027 C3.7070000171661377,-5.285999774932861 3.3320000171661377,-5.848999977111816 2.8570001125335693,-6.323999881744385 C2.381999969482422,-6.798999786376953 1.8179999589920044,-7.173999786376953 1.1970000267028809,-7.427999973297119 C0.5759999752044678,-7.682000160217285 -0.09099999815225601,-7.810999870300293 -0.7620000243186951,-7.804999828338623 C-3.614000082015991,-7.814000129699707 -5.860000133514404,-5.623000144958496 -5.88700008392334,-2.811000108718872 C-5.901000022888184,-2.1389999389648438 -5.7820000648498535,-1.4709999561309814 -5.5329999923706055,-0.8460000157356262 C-5.284999847412109,-0.22200000286102295 -4.913000106811523,0.3479999899864197 -4.440999984741211,0.8270000219345093 C-3.9700000286102295,1.3049999475479126 -3.4070000648498535,1.684000015258789 -2.7860000133514404,1.940999984741211 C-2.1659998893737793,2.1989998817443848 -1.5010000467300415,2.3289999961853027 -0.8289999961853027,2.3239998817443848z"></path></g><g opacity="1" transform="matrix(1,0,0,1,25.030000686645508,13.503999710083008)"><path fill="currentColor" fill-opacity="1" d=" M8.305999755859375,3.6059999465942383 C7.749000072479248,4.328999996185303 7.255000114440918,5.110000133514404 6.625,5.761000156402588 C4.026000022888184,8.454999923706055 0.09600000083446503,9.027999877929688 -3.313999891281128,7.264999866485596 C-6.435999870300293,5.651000022888184 -8.305999755859375,1.9170000553131104 -7.703999996185303,-1.503000020980835 C-7.045000076293945,-5.25600004196167 -4.173999786376953,-8.137999534606934 -0.5239999890327454,-8.583000183105469 C3.125,-9.027999877929688 5.938000202178955,-7.609000205993652 7.939000129699707,-4.538000106811523 C8.053000450134277,-4.364999771118164 8.182999610900879,-4.201000213623047 8.305999755859375,-4.0329999923706055 C8.305999755859375,-4.0329999923706055 8.305999755859375,3.6059999465942383 8.305999755859375,3.6059999465942383z M0.6269999742507935,-5.263999938964844 C-0.039000000804662704,-5.269999980926514 -0.6990000009536743,-5.14300012588501 -1.315000057220459,-4.888999938964844 C-1.9320000410079956,-4.636000156402588 -2.490000009536743,-4.26200008392334 -2.9600000381469727,-3.7890000343322754 C-3.430000066757202,-3.315999984741211 -3.799999952316284,-2.753999948501587 -4.048999786376953,-2.135999917984009 C-4.297999858856201,-1.5169999599456787 -4.421000003814697,-0.8560000061988831 -4.410999774932861,-0.1889999955892563 C-4.410999774932861,2.6649999618530273 -2.1510000228881836,4.882999897003174 0.7260000109672546,4.872000217437744 C3.5209999084472656,4.861000061035156 5.742000102996826,2.5840001106262207 5.728000164031982,-0.2549999952316284 C5.714000225067139,-3.0950000286102295 3.484999895095825,-5.26800012588501 0.6269999742507935,-5.263999938964844z"></path></g><g opacity="1" transform="matrix(1,0,0,1,3.38100004196167,30.06399917602539)"><path fill="currentColor" fill-opacity="1" d=" M-3.375999927520752,-3.9040000438690186 C-3.130000114440918,-3.694000005722046 -2.878000020980835,-3.48799991607666 -2.63700008392334,-3.2709999084472656 C-1.1820000410079956,-1.9240000247955322 0.6340000033378601,-1.031999945640564 2.5880000591278076,-0.7020000219345093 C2.813999891281128,-0.6639999747276306 3.0380001068115234,-0.6079999804496765 3.38100004196167,-0.5379999876022339 C2.76200008392334,0.9070000052452087 2.190000057220459,2.2839999198913574 1.5729999542236328,3.6389999389648438 C1.5049999952316284,3.7809998989105225 1.184999942779541,3.890000104904175 0.9789999723434448,3.8910000324249268 C-0.4740000069141388,3.9030001163482666 -1.9270000457763672,3.882999897003174 -3.38100004196167,3.871999979019165 C-3.38100004196167,3.871999979019165 -3.375999927520752,-3.9040000438690186 -3.375999927520752,-3.9040000438690186z"></path></g><g opacity="1" transform="matrix(1,0,0,1,7.729000091552734,19.118000030517578)"><path fill="currentColor" fill-opacity="1" d=" M0.027000000700354576,3.2009999752044678 C-0.5979999899864197,3.200000047683716 -1.2079999446868896,3.0139999389648438 -1.7269999980926514,2.6679999828338623 C-2.246999979019165,2.319999933242798 -2.6530001163482666,1.8270000219345093 -2.8929998874664307,1.25 C-3.132999897003174,0.6729999780654907 -3.1989998817443848,0.03799999877810478 -3.0789999961853027,-0.5759999752044678 C-2.9590001106262207,-1.190000057220459 -2.6600000858306885,-1.7549999952316284 -2.2209999561309814,-2.1989998817443848 C-1.781999945640564,-2.6440000534057617 -1.2209999561309814,-2.947999954223633 -0.609000027179718,-3.0739998817443848 C0.003000000026077032,-3.2009999752044678 0.6380000114440918,-3.1429998874664307 1.2170000076293945,-2.9079999923706055 C1.7960000038146973,-2.6740000247955322 2.2929999828338623,-2.2739999294281006 2.6449999809265137,-1.7569999694824219 C2.996999979019165,-1.2400000095367432 3.187999963760376,-0.6320000290870667 3.194999933242798,-0.006000000052154064 C3.197999954223633,0.8399999737739563 2.867000102996826,1.6510000228881836 2.2730000019073486,2.253000020980835 C1.6790000200271606,2.8529999256134033 0.8709999918937683,3.194000005722046 0.027000000700354576,3.2009999752044678z"></path></g><g opacity="1" transform="matrix(1,0,0,1,25.68400001525879,13.321000099182129)"><path fill="currentColor" fill-opacity="1" d=" M3.1600000858306885,0.00800000037997961 C3.1449999809265137,1.7330000400543213 1.7000000476837158,3.187000036239624 0.014999999664723873,3.1760001182556152 C-0.8299999833106995,3.1619999408721924 -1.6369999647140503,2.818000078201294 -2.2309999465942383,2.2149999141693115 C-2.825000047683716,1.6130000352859497 -3.1600000858306885,0.8019999861717224 -3.1640000343322754,-0.04399999976158142 C-3.1600000858306885,-0.46000000834465027 -3.075000047683716,-0.871999979019165 -2.9130001068115234,-1.2549999952316284 C-2.750999927520752,-1.6380000114440918 -2.515000104904175,-1.9839999675750732 -2.2190001010894775,-2.2750000953674316 C-1.9229999780654907,-2.566999912261963 -1.5720000267028809,-2.7980000972747803 -1.187999963760376,-2.9539999961853027 C-0.8029999732971191,-3.109999895095825 -0.39100000262260437,-3.187000036239624 0.024000000208616257,-3.184000015258789 C0.4390000104904175,-3.180000066757202 0.8500000238418579,-3.0969998836517334 1.2319999933242798,-2.934000015258789 C1.6150000095367432,-2.7720000743865967 1.9620000123977661,-2.5339999198913574 2.253000020980835,-2.23799991607666 C2.5439999103546143,-1.9420000314712524 2.7739999294281006,-1.5920000076293945 2.930000066757202,-1.2059999704360962 C3.0859999656677246,-0.8209999799728394 3.1640000343322754,-0.40799999237060547 3.1600000858306885,0.00800000037997961z"></path></g></g><g style="display: block;" transform="matrix(0.41394421458244324,0.7958435416221619,-0.7958435416221619,0.41394421458244324,350.2485656738281,-67.56927490234375)" opacity="1"><g opacity="1" transform="matrix(1,0,0,1,421.20001220703125,403.6000061035156)"><path fill="currentColor" fill-opacity="1" d=" M-22,34 C-22,34 -31.600000381469727,21.200000762939453 -31.600000381469727,21.200000762939453 C-27.600000381469727,18 -23.600000381469727,14.800999641418457 -19.600000381469727,11.60099983215332 C-19.600000381469727,11.60099983215332 -9.199999809265137,23.60099983215332 -9.199999809265137,23.60099983215332 C-13.199999809265137,26.801000595092773 -17.200000762939453,30.801000595092773 -22,34z M2.799999952316284,11.60099983215332 C2.799999952316284,11.60099983215332 -9.199999809265137,0.4000000059604645 -9.199999809265137,0.4000000059604645 C-6,-3.5999999046325684 -2,-6.800000190734863 1.2009999752044678,-10.800000190734863 C1.2009999752044678,-10.800000190734863 13.201000213623047,-0.39899998903274536 13.201000213623047,-0.39899998903274536 C10,3.6010000705718994 6.800000190734863,7.60099983215332 2.799999952316284,11.60099983215332z M23.600000381469727,-14 C23.600000381469727,-14 10.800000190734863,-22.799999237060547 10.800000190734863,-22.799999237060547 C13.201000213623047,-26.799999237060547 15.600000381469727,-30 18,-34 C18,-34 31.600000381469727,-26 31.600000381469727,-26 C29.201000213623047,-22 26.799999237060547,-18 23.600000381469727,-14z"></path></g><g opacity="1" transform="matrix(1,0,0,1,320.79998779296875,460.3999938964844)"><path fill="currentColor" fill-opacity="1" d=" M-58.400001525878906,24.399999618530273 C-58.400001525878906,24.399999618530273 -60.79999923706055,24.399999618530273 -60.79999923706055,24.399999618530273 C-60.79999923706055,24.399999618530273 -60.79999923706055,8.399999618530273 -60.79999923706055,8.399999618530273 C-20.799999237060547,9.199999809265137 18.399999618530273,-2.799999952316284 52,-24.399999618530273 C52,-24.399999618530273 60.79999923706055,-10.800000190734863 60.79999923706055,-10.800000190734863 C25.600000381469727,12.399999618530273 -16,24.399999618530273 -58.400001525878906,24.399999618530273z"></path></g><g opacity="1" transform="matrix(1,0,0,1,105.19999694824219,118.80000305175781)"><path fill="currentColor" fill-opacity="1" d=" M-16.399999618530273,31.600000381469727 C-16.399999618530273,31.600000381469727 -30,22.799999237060547 -30,22.799999237060547 C-28.399999618530273,20.399999618530273 -26.799999237060547,18 -25.200000762939453,16.399999618530273 C-25.200000762939453,16.399999618530273 -12.399999618530273,25.200000762939453 -12.399999618530273,25.200000762939453 C-14,27.600000381469727 -14.800000190734863,29.200000762939453 -16.399999618530273,31.600000381469727z M-2.799999952316284,13.199999809265137 C-2.799999952316284,13.199999809265137 -14.800000190734863,2.799999952316284 -14.800000190734863,2.799999952316284 C-11.600000381469727,-1.2000000476837158 -7.599999904632568,-6 -3.5999999046325684,-10 C-3.5999999046325684,-10 8.399999618530273,1.2000000476837158 8.399999618530273,1.2000000476837158 C3.5999999046325684,5.199999809265137 0.4000000059604645,9.199999809265137 -2.799999952316284,13.199999809265137z M18,-9.199999809265137 C18,-9.199999809265137 7.599999904632568,-21.200000762939453 7.599999904632568,-21.200000762939453 C11.600000381469727,-25.200000762939453 15.600000381469727,-28.399999618530273 20.399999618530273,-31.600000381469727 C20.399999618530273,-31.600000381469727 30,-18.799999237060547 30,-18.799999237060547 C26,-15.600000381469727 22,-12.399999618530273 18,-9.199999809265137z"></path></g><g opacity="1" transform="matrix(1,0,0,1,203.1999969482422,64)"><path fill="currentColor" fill-opacity="1" d=" M-52,24 C-52,24 -60.79999923706055,11.199999809265137 -60.79999923706055,11.199999809265137 C-24,-12 17.600000381469727,-24 60.79999923706055,-24 C60.79999923706055,-24 60.79999923706055,-8 60.79999923706055,-8 C21.600000381469727,-8.800000190734863 -18.399999618530273,2.4000000953674316 -52,24z"></path></g><g opacity="1" transform="matrix(1,0,0,1,230,477.20001220703125)"><path fill="currentColor" fill-opacity="1" d=" M39.599998474121094,47.599998474121094 C39.599998474121094,47.599998474121094 -39.599998474121094,-0.4000000059604645 -39.599998474121094,-0.4000000059604645 C-39.599998474121094,-0.4000000059604645 39.599998474121094,-47.599998474121094 39.599998474121094,-47.599998474121094 C39.599998474121094,-47.599998474121094 39.599998474121094,47.599998474121094 39.599998474121094,47.599998474121094z M-8.399999618530273,-0.4000000059604645 C-8.399999618530273,-0.4000000059604645 23.600000381469727,18.799999237060547 23.600000381469727,18.799999237060547 C23.600000381469727,18.799999237060547 23.600000381469727,-19.600000381469727 23.600000381469727,-19.600000381469727 C23.600000381469727,-19.600000381469727 -8.399999618530273,-0.4000000059604645 -8.399999618530273,-0.4000000059604645z"></path></g><g opacity="1" transform="matrix(1,0,0,1,295.6000061035156,47.599998474121094)"><path fill="currentColor" fill-opacity="1" d=" M-39.599998474121094,47.599998474121094 C-39.599998474121094,47.599998474121094 -39.599998474121094,-47.599998474121094 -39.599998474121094,-47.599998474121094 C-39.599998474121094,-47.599998474121094 39.599998474121094,-0.4000000059604645 39.599998474121094,-0.4000000059604645 C39.599998474121094,-0.4000000059604645 -39.599998474121094,47.599998474121094 -39.599998474121094,47.599998474121094z M-23.600000381469727,-18.799999237060547 C-23.600000381469727,-18.799999237060547 -23.600000381469727,19.600000381469727 -23.600000381469727,19.600000381469727 C-23.600000381469727,19.600000381469727 8.399999618530273,0.4000000059604645 8.399999618530273,0.4000000059604645 C8.399999618530273,0.4000000059604645 -23.600000381469727,-18.799999237060547 -23.600000381469727,-18.799999237060547z"></path></g><g opacity="1" transform="matrix(1,0,0,1,120.4000015258789,420.79998779296875)"><path fill="currentColor" fill-opacity="1" d=" M25.200000762939453,31.200000762939453 C21.200000762939453,28.799999237060547 18,26.399999618530273 14.800000190734863,24 C14.800000190734863,24 23.600000381469727,11.199999809265137 23.600000381469727,11.199999809265137 C26.799999237060547,13.600000381469727 30,16 33.20000076293945,17.600000381469727 C33.20000076293945,17.600000381469727 25.200000762939453,31.200000762939453 25.200000762939453,31.200000762939453z M1.2000000476837158,14.399999618530273 C-2.799999952316284,11.199999809265137 -7.599999904632568,7.199999809265137 -11.600000381469727,3.200000047683716 C-11.600000381469727,3.200000047683716 -0.4000000059604645,-8.800000190734863 -0.4000000059604645,-8.800000190734863 C3.5999999046325684,-5.599999904632568 7.599999904632568,-1.600000023841858 10.800000190734863,1.600000023841858 C10.800000190734863,1.600000023841858 1.2000000476837158,14.399999618530273 1.2000000476837158,14.399999618530273z M-22.799999237060547,-8.800000190734863 C-26.799999237060547,-12.800000190734863 -30,-16.799999237060547 -33.20000076293945,-21.600000381469727 C-33.20000076293945,-21.600000381469727 -20.399999618530273,-31.200000762939453 -20.399999618530273,-31.200000762939453 C-17.200000762939453,-27.200000762939453 -14,-23.200000762939453 -10.800000190734863,-19.200000762939453 C-10.800000190734863,-19.200000762939453 -22.799999237060547,-8.800000190734863 -22.799999237060547,-8.800000190734863z"></path></g><g opacity="1" transform="matrix(1,0,0,1,64.4000015258789,321.6000061035156)"><path fill="currentColor" fill-opacity="1" d=" M10.800000190734863,60.79999923706055 C-12.399999618530273,23.999000549316406 -24.399999618530273,-17.600000381469727 -24.399999618530273,-60.80099868774414 C-24.399999618530273,-60.80099868774414 -8.399999618530273,-60.80099868774414 -8.399999618530273,-60.80099868774414 C-8.399999618530273,-20.801000595092773 2.799999952316284,18.399999618530273 24.399999618530273,51.999000549316406 C24.399999618530273,51.999000549316406 10.800000190734863,60.79999923706055 10.800000190734863,60.79999923706055z"></path></g><g opacity="1" transform="matrix(1,0,0,1,405.6000061035156,104.80000305175781)"><path fill="currentColor" fill-opacity="1" d=" M19.200000762939453,30.399999618530273 C16,26.399999618530273 12.800999641418457,22.399999618530273 9.600000381469727,18.399999618530273 C9.600000381469727,18.399999618530273 21.600000381469727,8 21.600000381469727,8 C25.600000381469727,12 28.801000595092773,16 32,20.799999237060547 C32,20.799999237060547 19.200000762939453,30.399999618530273 19.200000762939453,30.399999618530273z M-1.600000023841858,8 C-5.599999904632568,4.800000190734863 -9.600000381469727,0.800000011920929 -12.800000190734863,-2.4000000953674316 C-12.800000190734863,-2.4000000953674316 -2.4000000953674316,-15.199999809265137 -2.4000000953674316,-15.199999809265137 C1.600000023841858,-12 6.400000095367432,-8 10.399999618530273,-4 C10.399999618530273,-4 -1.600000023841858,8 -1.600000023841858,8z M-24.799999237060547,-12 C-27.198999404907227,-13.600000381469727 -29.600000381469727,-15.199999809265137 -32,-16.799999237060547 C-32,-16.799999237060547 -23.198999404907227,-30.399999618530273 -23.198999404907227,-30.399999618530273 C-20.799999237060547,-28.799999237060547 -17.600000381469727,-27.200000762939453 -15.199000358581543,-24.799999237060547 C-15.199000358581543,-24.799999237060547 -24.799999237060547,-12 -24.799999237060547,-12z"></path></g><g opacity="1" transform="matrix(1,0,0,1,460.79998779296875,203.1999969482422)"><path fill="currentColor" fill-opacity="1" d=" M24,60.79999923706055 C24,60.79999923706055 8,60.79999923706055 8,60.79999923706055 C8,20.799999237060547 -3.200000047683716,-18.399999618530273 -24.799999237060547,-52 C-24.799999237060547,-52 -11.199999809265137,-60.79999923706055 -11.199999809265137,-60.79999923706055 C12.800000190734863,-24 24.799999237060547,18.399999618530273 24,60.79999923706055z"></path></g><g opacity="1" transform="matrix(1,0,0,1,47.599998474121094,230)"><path fill="currentColor" fill-opacity="1" d=" M47.599998474121094,39.599998474121094 C47.599998474121094,39.599998474121094 -47.599998474121094,39.599998474121094 -47.599998474121094,39.599998474121094 C-47.599998474121094,39.599998474121094 0.4000000059604645,-39.599998474121094 0.4000000059604645,-39.599998474121094 C0.4000000059604645,-39.599998474121094 47.599998474121094,39.599998474121094 47.599998474121094,39.599998474121094z M-18.799999237060547,23.600000381469727 C-18.799999237060547,23.600000381469727 19.600000381469727,23.600000381469727 19.600000381469727,23.600000381469727 C19.600000381469727,23.600000381469727 0.4000000059604645,-8.399999618530273 0.4000000059604645,-8.399999618530273 C0.4000000059604645,-8.399999618530273 -18.799999237060547,23.600000381469727 -18.799999237060547,23.600000381469727z"></path></g><g opacity="1" transform="matrix(1,0,0,1,477.20001220703125,296.3999938964844)"><path fill="currentColor" fill-opacity="1" d=" M-0.4000000059604645,39.599998474121094 C-0.4000000059604645,39.599998474121094 -47.599998474121094,-39.599998474121094 -47.599998474121094,-39.599998474121094 C-47.599998474121094,-39.599998474121094 47.599998474121094,-39.599998474121094 47.599998474121094,-39.599998474121094 C47.599998474121094,-39.599998474121094 -0.4000000059604645,39.599998474121094 -0.4000000059604645,39.599998474121094z M-19.600000381469727,-24.399999618530273 C-19.600000381469727,-24.399999618530273 -0.4000000059604645,7.599999904632568 -0.4000000059604645,7.599999904632568 C-0.4000000059604645,7.599999904632568 18.799999237060547,-24.399999618530273 18.799999237060547,-24.399999618530273 C18.799999237060547,-24.399999618530273 -19.600000381469727,-24.399999618530273 -19.600000381469727,-24.399999618530273z"></path></g></g><g style="display: block;" transform="matrix(0.5108476877212524,-0.9821488261222839,0.9821488261222839,0.5108476877212524,-141.91159057617188,373.716552734375)" opacity="1"><g opacity="1" transform="matrix(1,0,0,1,262.3999938964844,262.3999938964844)"><path fill="currentColor" fill-opacity="1" d=" M4.800000190734863,123.19999694824219 C4.800000190734863,123.19999694824219 4,107.19999694824219 4,107.19999694824219 C8.800000190734863,107.19999694824219 13.600000381469727,106.4000015258789 18.399999618530273,105.5999984741211 C18.399999618530273,105.5999984741211 21.600000381469727,121.5999984741211 21.600000381469727,121.5999984741211 C16.799999237060547,122.4000015258789 11.199999809265137,122.4000015258789 4.800000190734863,123.19999694824219z M-20.799999237060547,121.5999984741211 C-26.399999618530273,120.80000305175781 -32,119.19999694824219 -37.599998474121094,117.5999984741211 C-37.599998474121094,117.5999984741211 -32.79999923706055,102.4000015258789 -32.79999923706055,102.4000015258789 C-28,104 -23.200000762939453,104.80000305175781 -18.399999618530273,105.5999984741211 C-18.399999618530273,105.5999984741211 -20.799999237060547,121.5999984741211 -20.799999237060547,121.5999984741211z M46.400001525878906,113.5999984741211 C46.400001525878906,113.5999984741211 40,98.4000015258789 40,98.4000015258789 C44.79999923706055,96.80000305175781 48.79999923706055,94.4000015258789 53.599998474121094,92 C53.599998474121094,92 61.599998474121094,105.5999984741211 61.599998474121094,105.5999984741211 C56.79999923706055,108.80000305175781 52,112 46.400001525878906,113.5999984741211z M-60.79999923706055,107.19999694824219 C-65.5999984741211,104 -70.4000015258789,101.5999984741211 -75.19999694824219,97.5999984741211 C-75.19999694824219,97.5999984741211 -65.5999984741211,84.80000305175781 -65.5999984741211,84.80000305175781 C-61.599998474121094,88 -57.599998474121094,90.4000015258789 -52.79999923706055,92.80000305175781 C-52.79999923706055,92.80000305175781 -60.79999923706055,107.19999694824219 -60.79999923706055,107.19999694824219z M82.4000015258789,91.19999694824219 C82.4000015258789,91.19999694824219 72,79.19999694824219 72,79.19999694824219 C76,76 79.19999694824219,72 82.4000015258789,68.80000305175781 C82.4000015258789,68.80000305175781 94.4000015258789,79.19999694824219 94.4000015258789,79.19999694824219 C91.19999694824219,83.19999694824219 87.19999694824219,87.19999694824219 82.4000015258789,91.19999694824219z M-93.5999984741211,80 C-97.5999984741211,76 -100.80000305175781,71.19999694824219 -104,66.4000015258789 C-104,66.4000015258789 -90.4000015258789,57.599998474121094 -90.4000015258789,57.599998474121094 C-88,61.599998474121094 -84.80000305175781,65.5999984741211 -81.5999984741211,69.5999984741211 C-81.5999984741211,69.5999984741211 -93.5999984741211,80 -93.5999984741211,80z M108.80000305175781,57.599998474121094 C108.80000305175781,57.599998474121094 94.4000015258789,50.400001525878906 94.4000015258789,50.400001525878906 C96.80000305175781,46.400001525878906 98.4000015258789,41.599998474121094 100.80000305175781,36.79999923706055 C100.80000305175781,36.79999923706055 116,42.400001525878906 116,42.400001525878906 C113.5999984741211,47.20000076293945 111.19999694824219,52.79999923706055 108.80000305175781,57.599998474121094z M-115.19999694824219,43.20000076293945 C-117.5999984741211,37.599998474121094 -119.19999694824219,32 -120,27.200000762939453 C-120,27.200000762939453 -104,24 -104,24 C-103.19999694824219,28.799999237060547 -101.5999984741211,33.599998474121094 -100,38.400001525878906 C-100,38.400001525878906 -115.19999694824219,43.20000076293945 -115.19999694824219,43.20000076293945z M121.5999984741211,16.799999237060547 C121.5999984741211,16.799999237060547 105.5999984741211,14.399999618530273 105.5999984741211,14.399999618530273 C106.4000015258789,9.600000381469727 106.4000015258789,4.800000190734863 106.4000015258789,-0.800000011920929 C106.4000015258789,-0.800000011920929 106.4000015258789,-4 106.4000015258789,-4 C106.4000015258789,-4 122.4000015258789,-4.800000190734863 122.4000015258789,-4.800000190734863 C122.4000015258789,-4.800000190734863 122.4000015258789,-1.600000023841858 122.4000015258789,-1.600000023841858 C123.19999694824219,5.599999904632568 122.4000015258789,11.199999809265137 121.5999984741211,16.799999237060547z M-123.19999694824219,1.600000023841858 C-123.19999694824219,1.600000023841858 -123.19999694824219,0 -123.19999694824219,0 C-123.19999694824219,-4.800000190734863 -123.19999694824219,-10.399999618530273 -122.4000015258789,-15.199999809265137 C-122.4000015258789,-15.199999809265137 -106.4000015258789,-13.600000381469727 -106.4000015258789,-13.600000381469727 C-107.19999694824219,-8.800000190734863 -107.19999694824219,-4.800000190734863 -107.19999694824219,0 C-107.19999694824219,0 -107.19999694824219,1.600000023841858 -107.19999694824219,1.600000023841858 C-107.19999694824219,1.600000023841858 -123.19999694824219,1.600000023841858 -123.19999694824219,1.600000023841858z M104,-24.799999237060547 C103.19999694824219,-29.600000381469727 101.5999984741211,-34.400001525878906 99.19999694824219,-39.20000076293945 C99.19999694824219,-39.20000076293945 114.4000015258789,-44.79999923706055 114.4000015258789,-44.79999923706055 C116.80000305175781,-39.20000076293945 118.4000015258789,-34.400001525878906 119.19999694824219,-28.799999237060547 C119.19999694824219,-28.799999237060547 104,-24.799999237060547 104,-24.799999237060547z M-100.80000305175781,-35.20000076293945 C-100.80000305175781,-35.20000076293945 -116,-40 -116,-40 C-114.4000015258789,-45.599998474121094 -112,-50.400001525878906 -109.5999984741211,-56 C-109.5999984741211,-56 -95.19999694824219,-48.79999923706055 -95.19999694824219,-48.79999923706055 C-97.5999984741211,-44 -99.19999694824219,-40 -100.80000305175781,-35.20000076293945z M89.5999984741211,-59.20000076293945 C87.19999694824219,-63.20000076293945 84,-67.19999694824219 80.80000305175781,-71.19999694824219 C80.80000305175781,-71.19999694824219 92.80000305175781,-81.5999984741211 92.80000305175781,-81.5999984741211 C96.80000305175781,-77.5999984741211 100,-72.80000305175781 103.19999694824219,-68 C103.19999694824219,-68 89.5999984741211,-59.20000076293945 89.5999984741211,-59.20000076293945z M-83.19999694824219,-67.19999694824219 C-83.19999694824219,-67.19999694824219 -96,-77.5999984741211 -96,-77.5999984741211 C-92.80000305175781,-82.4000015258789 -88.80000305175781,-86.4000015258789 -84,-90.4000015258789 C-84,-90.4000015258789 -72.80000305175781,-78.4000015258789 -72.80000305175781,-78.4000015258789 C-76.80000305175781,-75.19999694824219 -80,-71.19999694824219 -83.19999694824219,-67.19999694824219z M64,-85.5999984741211 C60,-88.80000305175781 56,-91.19999694824219 51.20000076293945,-93.5999984741211 C51.20000076293945,-93.5999984741211 59.20000076293945,-108 59.20000076293945,-108 C64,-105.5999984741211 68.80000305175781,-102.4000015258789 73.5999984741211,-98.4000015258789 C73.5999984741211,-98.4000015258789 64,-85.5999984741211 64,-85.5999984741211z M-55.20000076293945,-92 C-55.20000076293945,-92 -63.20000076293945,-105.5999984741211 -63.20000076293945,-105.5999984741211 C-58.400001525878906,-108.80000305175781 -53.599998474121094,-111.19999694824219 -48,-113.5999984741211 C-48,-113.5999984741211 -41.599998474121094,-99.19999694824219 -41.599998474121094,-99.19999694824219 C-46.400001525878906,-96.80000305175781 -51.20000076293945,-94.4000015258789 -55.20000076293945,-92z M31.200000762939453,-102.4000015258789 C26.399999618530273,-104 21.600000381469727,-104.80000305175781 16.799999237060547,-105.5999984741211 C16.799999237060547,-105.5999984741211 19.200000762939453,-121.5999984741211 19.200000762939453,-121.5999984741211 C24.799999237060547,-120.80000305175781 30.399999618530273,-119.19999694824219 36,-117.5999984741211 C36,-117.5999984741211 31.200000762939453,-102.4000015258789 31.200000762939453,-102.4000015258789z M-20.799999237060547,-104.80000305175781 C-20.799999237060547,-104.80000305175781 -24,-120.80000305175781 -24,-120.80000305175781 C-18.399999618530273,-121.5999984741211 -12.800000190734863,-122.4000015258789 -7.199999809265137,-123.19999694824219 C-7.199999809265137,-123.19999694824219 -6.400000095367432,-107.19999694824219 -6.400000095367432,-107.19999694824219 C-11.199999809265137,-106.4000015258789 -16,-105.5999984741211 -20.799999237060547,-104.80000305175781z"></path></g></g></g></svg>