<svg xmlns="http://www.w3.org/2000/svg" width="35.91" height="40" viewBox="0 0 35.91 40">
  <defs>
    <style>
      .cls-1 {
        fill: #ffffff;
        fill-rule: evenodd;
      }
    </style>
  </defs>
  <path class="cls-1" d="M2385.5,19.038a0.613,0.613,0,0,0-.4-0.014,34.781,34.781,0,0,0-4.91,1.785,0.419,0.419,0,0,0-.13.043h0a17.333,17.333,0,0,0-5.34,3.542h0.01l-0.01.029h-0.02a9.138,9.138,0,0,0-1.37,1.814,2.805,2.805,0,0,0-.11,3.3l-0.03-.029,0.9,2.028q-0.435.339-.87,0.657a0.426,0.426,0,0,0-.13.1,26.334,26.334,0,0,1-3.96,2.414,0.1,0.1,0,0,1-.04.029,20.983,20.983,0,0,1-4.04,1.514,19.216,19.216,0,0,1-4.46.614,0.542,0.542,0,0,0-.34.129,0.456,0.456,0,0,0-.18.271,0.554,0.554,0,0,0,.01.4V37.646l1.56,3.856a0.436,0.436,0,0,0,.05.129l1.7,4.213a2.5,2.5,0,0,0,.09.257,0.024,0.024,0,0,1,.01.014,0.851,0.851,0,0,0,.12.228l1.73,4.313a0.425,0.425,0,0,0,.02.114,0.07,0.07,0,0,1,.02.029l1.81,4.47c0.01,0.035.03,0.069,0.04,0.1a0.083,0.083,0,0,1,.02.029l1.3,3.227a0.467,0.467,0,0,0,.26.3,0.036,0.036,0,0,0,.01.014,0.6,0.6,0,0,0,.36.057V58.983c1.67-.288,3.24-0.612,4.7-0.971h0.01a0.218,0.218,0,0,0,.13-0.043,42.748,42.748,0,0,0,4.37-1.328l0.03-.014c0.02-.009.03-0.019,0.05-0.028h-0.02a23.034,23.034,0,0,0,4.28-2.056,0.408,0.408,0,0,0,.06-0.029,10.653,10.653,0,0,0,3.94-4.184V50.314a0.527,0.527,0,0,0,.06-0.228,2.654,2.654,0,0,0-.03-0.471V49.543a0.132,0.132,0,0,0-.02-0.057,0.479,0.479,0,0,0-.08-0.214l-0.72-1.571c0.12-.081.23-0.162,0.35-0.243a0.205,0.205,0,0,0,.12-0.071,0.038,0.038,0,0,0,.02-0.029,36.534,36.534,0,0,1,4.43-2.542,0.033,0.033,0,0,0,.02-0.014,36.547,36.547,0,0,1,4.69-1.857h0a0.686,0.686,0,0,0,.26-0.157,0.049,0.049,0,0,0,.02-0.029,0.465,0.465,0,0,0,.1-0.271,0.5,0.5,0,0,0-.05-0.357l0.01,0.043-1.61-3.642a0.082,0.082,0,0,0-.02-0.043l-2.22-5.041a0.1,0.1,0,0,0-.02-0.043l-2.36-5.3a0.037,0.037,0,0,0-.01-0.043l-2.08-4.67-0.03-.071-1.77-3.985a0.05,0.05,0,0,0-.02-0.029,0.534,0.534,0,0,0-.26-0.257,0.038,0.038,0,0,1-.01-0.014m-0.4.871,1.54,3.485a43.972,43.972,0,0,0-4.3,1.8l-1.67-3.684a36.032,36.032,0,0,1,4.43-1.6m-0.34,10.654c1.26-.628,2.68-1.261,4.24-1.9l2.13,4.827q-2.325.943-4.22,1.885l-2.15-4.813m-1.02,7.212a33.243,33.243,0,0,1,2.92-1.628l2.03,4.513a38.156,38.156,0,0,0-3.36,1.856h-0.02c-0.13.086-.25,0.167-0.37,0.243l-0.01.014c-0.16.1-.31,0.209-0.46,0.314l-2.15-4.356c0.32-.238.67-0.476,1.04-0.714,0.12-.076.25-0.157,0.38-0.243m1.92,9.04,0.01,0.043a6.694,6.694,0,0,0-.6.428,0.044,0.044,0,0,1-.03.014c-0.62.447-1.22,0.914-1.81,1.4V48.686l-0.47.371,0.01,0.014c-0.2.161-.41,0.318-0.61,0.471-0.4.3-.81,0.594-1.22,0.871l-1.65-3.913V46.487l4.74-3.113,1.63,3.442m5.12-2.9-1.35-2.985c1.25-.619,2.65-1.233,4.18-1.842l1.4,3.142a36.651,36.651,0,0,0-4.23,1.685m-13.53-14.9a0.024,0.024,0,0,1,.02-0.028,0.166,0.166,0,0,0,.06-0.071,0.33,0.33,0,0,1-.08.1m-0.29-.514a0.086,0.086,0,0,0-.04.043,10.756,10.756,0,0,0-2.2,2.256l-0.73-1.642-0.03-.029a2.025,2.025,0,0,1,.09-2.4,0.034,0.034,0,0,1,.01-0.029,8.1,8.1,0,0,1,1.22-1.642l1.68,3.442m0.36,0.086V28.578l0.03,0.043a0.33,0.33,0,0,0-.03-0.029m0.13,0.257a26.777,26.777,0,0,1,4.62-2.871l1.95,4.313A29.965,29.965,0,0,0,2379.5,33l-2.05-4.156m-6.16,10.225-1.57-3.684a29.333,29.333,0,0,0,3.64-2.242l1.67,3.984h0.02l0.01,0.043a29.443,29.443,0,0,1-3.77,1.914V39.074m-0.17.386h0.01l1.75,4.113-0.03-.029,0.11,0.257-0.24.114a30.915,30.915,0,0,1-3.74,1.2,0.141,0.141,0,0,1-.02-0.043l-0.01-.014V45.044l-0.02-.014-1.77-4.27a32.4,32.4,0,0,0,3.96-1.3M2361.04,37.7a20.038,20.038,0,0,0,4-.557l1.34,3.213c-1.29.286-2.62,0.514-4,.685l-1.34-3.342m3.41,8.469a34.405,34.405,0,0,0,4.07-.657l1.84,4.37a35.44,35.44,0,0,1-4.15.657l-0.03-.071-0.02-.014-1.71-4.284m15.17-12.4,1.98,4.784a0.008,0.008,0,0,1-.01,0l-3.97,2.371q-0.135.107-.27,0.2l-0.02-.028-1.67-3.97,0.77-.486-0.23.143,3.42-3.013m-6.53,10.3a28.708,28.708,0,0,0,4-2.085l1.83,4.356a0.083,0.083,0,0,0,.01.043,26.876,26.876,0,0,1-3.73,1.928h-0.01l-0.23.1-0.14-.243-1.73-4.1m7.73,6.769,1.28,3.07a21.9,21.9,0,0,1-3.75,1.828l-1.2-2.828a29.111,29.111,0,0,0,3.67-2.071m-6.14-2.3,1.72,4.084a27.627,27.627,0,0,1-3.95,1.385l-0.03.014a0.017,0.017,0,0,0-.02.014l-1.78-4.227a34.425,34.425,0,0,0,4.06-1.271m-0.5,9.183h0l0.01-.014-0.01.014m-1.83-3.085,1.08,2.6q-1.95.471-4.17,0.871l-1.1-2.728A30.784,30.784,0,0,0,2372.35,54.641Z" transform="translate(-2360.06 -19)"/>
</svg>
