<svg xmlns="http://www.w3.org/2000/svg" width="40" height="36" viewBox="0 0 40 36">
  <defs>
    <style>
      .cls-1 {
        fill: #fff;
        fill-rule: evenodd;
      }
    </style>
  </defs>
  <path class="cls-1" d="M770,706L766,702.009,762.013,706H762L758,702.009,754.013,706H754L750,702.009,746.013,706H746L742,702.009,738.013,706H738L734,702.009,730.013,706H730V674h0v-2a2.055,2.055,0,0,1,2.105-2H767.9A2.054,2.054,0,0,1,770,672v2h0v32h0Zm-24-30h20v2H746v-2Zm-2.327,1.138a5.071,5.071,0,0,1,.329,1.853,4.988,4.988,0,0,1-5,5,5.331,5.331,0,0,1-1.254-.144,5.067,5.067,0,0,1-3.68-3.994,6.124,6.124,0,0,1-.062-0.864,5,5,0,0,1,8.533-3.54,5.01,5.01,0,0,1,1.131,1.687m-1.3-.041a1.264,1.264,0,0,0-.226-0.247,1.01,1.01,0,0,0-1.233.206l-2.714,2.717-1.049-1.029a0.884,0.884,0,0,0-1.295-.165,0.857,0.857,0,0,0-.247.515,1.081,1.081,0,0,0,.2.6l1.871,1.832a0.7,0.7,0,0,0,.473.206,0.847,0.847,0,0,0,.453-0.206l3.6-3.561A0.768,0.768,0,0,0,742.377,677.1ZM746,690h20v2H746v-2Zm0-10h8v2h-8v-2Zm0,14h8v2h-8v-2Zm-2.327-2.862a5.071,5.071,0,0,1,.329,1.853,4.988,4.988,0,0,1-5,5,5.331,5.331,0,0,1-1.254-.144,5.067,5.067,0,0,1-3.68-3.993,6.148,6.148,0,0,1-.062-0.865,5,5,0,0,1,8.533-3.54,5.01,5.01,0,0,1,1.131,1.687m-1.3-.041a1.264,1.264,0,0,0-.226-0.247,1.01,1.01,0,0,0-1.233.206l-2.714,2.717-1.049-1.029a0.884,0.884,0,0,0-1.295-.165,0.855,0.855,0,0,0-.247.515,1.081,1.081,0,0,0,.2.6l1.871,1.832a0.7,0.7,0,0,0,.473.206,0.847,0.847,0,0,0,.453-0.206l3.6-3.561A0.768,0.768,0,0,0,742.377,691.1Z" transform="translate(-730 -670)"/>
</svg>
