
<svg xmlns="http://www.w3.org/2000/svg" version="1.1" xmlns:xlink="http://www.w3.org/1999/xlink" preserveAspectRatio="none" x="0px" y="0px" width="100px" height="100px" viewBox="0 0 100 100">
<defs>
<g id="Layer0_0_FILL">
<path fill="#54ACF7" stroke="none" d="
M 13.8 52.9
Q 7.4 52.9 7.4 59.3
L 7.4 85.75
Q 7.4 92.1 13.8 92.1
L 40.25 92.1
Q 46.6 92.1 46.6 85.75
L 46.6 59.3
Q 46.6 52.9 40.25 52.9
L 13.8 52.9
M 26.7 64.3
Q 25.15 64.3 24.4 65.35 23.6 66.35 23.6 68.1
L 19.3 68.1 19.25 68
Q 19.15 65.05 21.2 62.95 23.25 60.9 26.7 60.9 30.1 60.9 32.05 62.65 34 64.45 34 67.4 34 69.4 32.9 71.1 31.8 72.75 29.25 75.5
L 25.35 79.75 25.4 79.85 34.65 79.85 34.65 83.25 19.6 83.25 19.6 80.35 26.75 72.7
Q 28.25 70.95 28.9 69.75 29.55 68.5 29.55 67.45 29.55 66.05 28.85 65.2 28.1 64.3 26.7 64.3
M 69.6 14.3
Q 69.6 7.9 63.25 7.9
L 36.8 7.9
Q 30.4 7.9 30.4 14.3
L 30.4 40.75
Q 30.4 47.1 36.8 47.1
L 63.25 47.1
Q 69.6 47.1 69.6 40.75
L 69.6 14.3
M 49.15 20.1
L 44.7 20.1 44.7 17 53.6 16.2 53.6 38.25 49.15 38.25 49.15 20.1
M 92.6 59.3
Q 92.6 52.9 86.25 52.9
L 59.8 52.9
Q 53.4 52.9 53.4 59.3
L 53.4 85.75
Q 53.4 92.1 59.8 92.1
L 86.25 92.1
Q 92.6 92.1 92.6 85.75
L 92.6 59.3
M 70.05 73.65
L 70.05 70.35 72.55 70.35
Q 74.1 70.35 74.9 69.55 75.65 68.7 75.65 67.25 75.65 65.9 74.9 65.1 74.1 64.3 72.7 64.3 71.45 64.3 70.6 65.05 69.75 65.75 69.75 66.95
L 65.45 66.95 65.45 66.85
Q 65.35 64.25 67.4 62.55 69.5 60.9 72.55 60.9 76 60.9 78.05 62.55 80.05 64.15 80.05 67.2 80.05 68.65 79.15 69.95 78.25 71.2 76.65 71.95 78.5 72.6 79.45 73.95 80.4 75.3 80.4 77.05 80.4 80.1 78.2 81.85 76 83.55 72.55 83.55 69.5 83.55 67.3 81.95 65.1 80.3 65.15 77.35
L 65.2 77.25 69.45 77.25
Q 69.45 78.55 70.4 79.35 71.3 80.15 72.7 80.15 74.2 80.15 75.1 79.3 76 78.45 76 77 76 75.3 75.1 74.45 74.25 73.65 72.55 73.65
L 70.05 73.65 Z"/>
</g>
</defs>

<g transform="matrix( 1, 0, 0, 1, 0,0) ">
<use xlink:href="#Layer0_0_FILL"/>
</g>
</svg>
