<svg xmlns="http://www.w3.org/2000/svg" width="8" height="10" fill-rule="evenodd"><path fill="#2da050" d="M5.4 6.572v3.194a.23.23 0 0 1-.225.234h-2.35a.23.23 0 0 1-.226-.234V6.57H1.177c-1.123 0-1.5-.766-.86-1.712L3.412.354c.325-.473.85-.47 1.172 0L7.68 4.86c.656.955.264 1.712-.86 1.712H5.4z"/><path fill="#afe9c1" fill-rule="nonzero" d="M5.4 6.572v3.194a.23.23 0 0 1-.225.234h-2.35a.23.23 0 0 1-.226-.234V6.57H1.177c-1.123 0-1.5-.766-.86-1.712L3.412.354c.325-.473.85-.47 1.172 0L7.68 4.86c.656.955.264 1.712-.86 1.712H5.4zM5.1 9.7V6.272h1.72c.885 0 1.132-.487.614-1.242L4.337.524c-.205-.298-.473-.3-.678 0L.562 5.03c-.514.748-.265 1.242.614 1.242h1.722V9.7H5.1z"/></svg>