<svg xmlns="http://www.w3.org/2000/svg" width="8" height="10" fill-rule="evenodd"><path fill="#ff423d" d="M2.6 3.428V.234A.23.23 0 0 1 2.825 0h2.35a.23.23 0 0 1 .226.234v3.195h1.422c1.123 0 1.51.766.86 1.712L4.588 9.646c-.325.473-.85.47-1.172 0L.32 5.14c-.656-.955-.264-1.712.86-1.712H2.6z"/><path fill="#ffd7d6" fill-rule="nonzero" d="M2.6 3.428V.234A.23.23 0 0 1 2.825 0h2.35a.23.23 0 0 1 .226.234v3.195h1.422c1.123 0 1.51.766.86 1.712L4.588 9.646c-.325.473-.85.47-1.172 0L.32 5.14c-.656-.955-.264-1.712.86-1.712H2.6zM2.9.3v3.428H1.18c-.885 0-1.132.487-.614 1.242l3.097 4.506c.205.298.473.3.678 0L7.438 4.97c.514-.748.265-1.242-.614-1.242H5.102V.3H2.9z"/></svg>