<svg xmlns="http://www.w3.org/2000/svg" width="70" height="70" viewBox="0 0 70 70">
  <defs>
    <style>
      .cls-1 {
        fill: #55b772;
        fill-rule: evenodd;
      }
    </style>
  </defs>
  <path class="cls-1" d="M2435,219.712l-8.89-14.954-4.77-.04a26.362,26.362,0,0,0,1.72-9.635,29.038,29.038,0,1,0-29.03,29.122,30.835,30.835,0,0,0,5.53-.481L2414.66,236,2435,219.712M2424.83,207l7.16,12.187-3.84,3.089c0.11-.562.24-1.271,0.4-2.126,0.24-1.2.37-1.913,0.4-2.126,0.08-.4.17-1,0.28-1.806V215.7l-0.04-.321a2.063,2.063,0,0,0-1.4-1.885,6.721,6.721,0,0,0-3.04-.361q-0.4.039-1.29,0.16a9.922,9.922,0,0,1-1.32.12q-1.035.081-1.2,0.081a2.046,2.046,0,0,1-1.16-.321c-0.08-.054-0.13-0.054-0.16,0-0.03,0-.04.04-0.04,0.12a3.526,3.526,0,0,0,.36,2.608,1.477,1.477,0,0,0,1.16.842,2.367,2.367,0,0,0,.96-0.04,7.575,7.575,0,0,0,.92-0.321,0.866,0.866,0,0,0,.44-0.321,1.022,1.022,0,0,0,.04-0.562,0.922,0.922,0,0,1,0-.521,0.868,0.868,0,0,1,.57-0.6,1.946,1.946,0,0,1,.96,0,0.648,0.648,0,0,1,.44.522,1.98,1.98,0,0,1-.04,1.163,1.611,1.611,0,0,1-.88.883c-0.89.347-1.86,0.695-2.93,1.042a9.23,9.23,0,0,0-2.4,1.123,4.373,4.373,0,0,0-1.84,3.089,2.313,2.313,0,0,0,.56,1.765,2.764,2.764,0,0,0,1.68,1.043,5.007,5.007,0,0,0,3.8-.8,2.582,2.582,0,0,1,.45-0.241,0.675,0.675,0,0,1,.16.522,0.3,0.3,0,0,0,.08.24,0.53,0.53,0,0,0,.24.041h0.72l-10.37,8.3-11.34-9.226a7.41,7.41,0,0,0,1.6.161,6.813,6.813,0,0,0,3.49-.8,7.189,7.189,0,0,0,3.2-3.49,7.685,7.685,0,0,0,.76-3.931,4.049,4.049,0,0,0-1.56-3.008,4.7,4.7,0,0,0-3.12-1,7.294,7.294,0,0,0-2.45.361,5.194,5.194,0,0,0-3.68,4.011,3,3,0,0,0,3.08,3.691,5.412,5.412,0,0,0,3.49-1.083l0.16-.081a0.92,0.92,0,0,0,.04.2,9.427,9.427,0,0,1-1.08,2.968,5.608,5.608,0,0,1-.84,1.083,1.293,1.293,0,0,1-1.29.361,0.945,0.945,0,0,1-.56-0.28,0.8,0.8,0,0,1-.28-0.522,1.123,1.123,0,0,1,.52-1.083,0.229,0.229,0,0,0,.16-0.2,0.374,0.374,0,0,0-.12-0.161,2.458,2.458,0,0,0-3.48-.08,1.69,1.69,0,0,0-.4.922l-3.52-2.848,7.36-12.044,11.26,0.041a2.51,2.51,0,0,0-1.4.78,2.368,2.368,0,0,0-.57,1.564,2.328,2.328,0,0,0,.73,1.725,2.28,2.28,0,0,0,1.72.762,2.531,2.531,0,0,0,2.48-2.487,2.259,2.259,0,0,0-.56-1.524,2.321,2.321,0,0,0-1.4-.843h7.77m-19.37-13.847a3.047,3.047,0,0,1,0,3.691,12.518,12.518,0,0,1-1.04,1.083l-12.46,8.935q-3.36,2.406-3.96,0v-23.7q0.6-2.406,3.96,0l12.46,8.9a12.518,12.518,0,0,1,1.04,1.083m18.53,25.232a1.238,1.238,0,0,1,.44-0.2c0.1-.054.28-0.134,0.52-0.241l-0.64,3.37a3.433,3.433,0,0,0-.08.441,1.871,1.871,0,0,1-.44,1,2.755,2.755,0,0,1-.97.561,0.875,0.875,0,0,1-.88-0.08,1.379,1.379,0,0,1-.48-0.882,2.809,2.809,0,0,1,.32-1.605,6.279,6.279,0,0,1,2.21-2.366m-18.55-3.49a4.572,4.572,0,0,1,.85-1.6,1.977,1.977,0,0,1,1.24-.762,1.261,1.261,0,0,1,1.56,1.163,4.713,4.713,0,0,1-.96,4.052,2.24,2.24,0,0,1-1.4.842,1.182,1.182,0,0,1-1.49-1.043q0-.12-0.12-0.842a8.517,8.517,0,0,1,.32-1.805m8.69,0.521c-0.02.107-.08,0.388-0.16,0.842l-1.8,8.946a3.826,3.826,0,0,1-1.4,2.487l-0.12.12,0.64,0.161h0.04a4.069,4.069,0,0,0,.8,0,4.926,4.926,0,0,0,2.69-.8,2.315,2.315,0,0,0,1.08-1.6l2.36-12.074a0.218,0.218,0,0,0,0-.2,0.321,0.321,0,0,0-.2-0.04h-3.89a0.548,0.548,0,0,0-.28.04,0.312,0.312,0,0,0,.08.241A2.822,2.822,0,0,1,2414.13,215.42Z" transform="translate(-2365 -166)"/>
</svg>
