<?xml version="1.0" encoding="utf-8"?>
<!-- Generator: Adobe Illustrator 21.1.0, SVG Export Plug-In . SVG Version: 6.00 Build 0)  -->
<svg version="1.1" id="Layer_1" xmlns="http://www.w3.org/2000/svg" xmlns:xlink="http://www.w3.org/1999/xlink" x="0px" y="0px"
	 viewBox="0 0 70 70" style="enable-background:new 0 0 70 70;" xml:space="preserve">
<style type="text/css">
	.st0{opacity:0.8;fill:#D6DAE3;enable-background:new    ;}
</style>
<path class="st0" d="M70,53.7l-8.9-15l-4.8,0c1.2-3.1,1.8-6.3,1.7-9.6c0-16-13.1-29-29.1-29s-29,13.1-29,29.1c0,16,13,29,29,29
	c1.9,0,3.7-0.2,5.5-0.5L49.7,70L70,53.7 M59.8,41L67,53.2l-3.8,3.1c0.1-0.6,0.2-1.3,0.4-2.1c0.2-1.2,0.4-1.9,0.4-2.1
	c0.1-0.4,0.2-1,0.3-1.8v-0.5l0-0.3c0-0.9-0.6-1.6-1.4-1.9c-1-0.4-2-0.5-3-0.4c-0.3,0-0.7,0.1-1.3,0.2c-0.4,0.1-0.9,0.1-1.3,0.1
	c-0.7,0.1-1.1,0.1-1.2,0.1c-0.4,0-0.8-0.1-1.2-0.3c-0.1-0.1-0.1-0.1-0.2,0c0,0,0,0,0,0.1c-0.2,0.9-0.1,1.8,0.4,2.6
	c0.2,0.5,0.7,0.8,1.2,0.8c0.3,0.1,0.6,0,1,0c0.3-0.1,0.6-0.2,0.9-0.3c0.2-0.1,0.3-0.2,0.4-0.3c0.1-0.2,0.1-0.4,0-0.6
	c-0.1-0.2-0.1-0.4,0-0.5c0.1-0.3,0.3-0.5,0.6-0.6c0.3-0.1,0.6-0.1,1,0c0.2,0.1,0.4,0.3,0.4,0.5c0.1,0.4,0.1,0.8,0,1.2
	c-0.2,0.4-0.5,0.7-0.9,0.9c-0.9,0.3-1.9,0.7-2.9,1c-0.8,0.3-1.7,0.6-2.4,1.1c-1,0.7-1.7,1.8-1.8,3.1c-0.1,0.6,0.1,1.3,0.6,1.8
	c0.4,0.5,1,0.9,1.7,1c1.3,0.3,2.7,0,3.8-0.8c0.1-0.1,0.3-0.2,0.4-0.2c0.1,0.1,0.2,0.3,0.2,0.5c0,0.1,0,0.2,0.1,0.2
	c0.1,0,0.2,0,0.2,0H60l-10.4,8.3l-11.3-9.2c0.5,0.1,1.1,0.2,1.6,0.2c1.2,0,2.4-0.2,3.5-0.8c1.4-0.8,2.6-2,3.2-3.5
	c0.6-1.2,0.9-2.6,0.8-3.9c-0.1-1.2-0.6-2.3-1.6-3c-0.9-0.7-2-1.1-3.1-1c-0.8,0-1.7,0.1-2.4,0.4c-1.9,0.5-3.3,2.1-3.7,4
	c-0.4,1.6,0.6,3.2,2.2,3.6c0.3,0.1,0.6,0.1,0.9,0.1c1.3,0.1,2.5-0.3,3.5-1.1l0.2-0.1c0,0.1,0,0.1,0,0.2c-0.2,1-0.6,2-1.1,3
	c-0.2,0.4-0.5,0.8-0.8,1.1c-0.3,0.4-0.8,0.5-1.3,0.4c-0.2,0-0.4-0.1-0.6-0.3c-0.2-0.1-0.3-0.3-0.3-0.5c-0.1-0.4,0.2-0.9,0.5-1.1
	c0.1,0,0.2-0.1,0.2-0.2c0-0.1-0.1-0.1-0.1-0.2c-0.9-1-2.5-1-3.5-0.1c0,0,0,0,0,0c-0.2,0.3-0.4,0.6-0.4,0.9L32.4,53l7.4-12l11.3,0
	c-0.5,0.1-1,0.4-1.4,0.8c-0.4,0.4-0.6,1-0.6,1.6c0,0.7,0.3,1.3,0.7,1.7c0.4,0.5,1.1,0.8,1.7,0.8c1.4,0,2.5-1.1,2.5-2.5
	c0-0.6-0.2-1.1-0.6-1.5c-0.3-0.4-0.8-0.7-1.4-0.8L59.8,41 M40.5,27.2c0.8,1.1,0.8,2.6,0,3.7c-0.3,0.4-0.7,0.7-1,1.1L27,40.9
	c-2.2,1.6-3.6,1.6-4,0V17.2c0.4-1.6,1.7-1.6,4,0l12.5,8.9C39.8,26.4,40.1,26.8,40.5,27.2 M59,52.4c0.1-0.1,0.3-0.2,0.4-0.2
	c0.1-0.1,0.3-0.1,0.5-0.2l-0.6,3.4c0,0.1-0.1,0.3-0.1,0.4c0,0.4-0.2,0.7-0.4,1c-0.3,0.3-0.6,0.4-1,0.6c-0.3,0.1-0.6,0.1-0.9-0.1
	c-0.3-0.2-0.4-0.5-0.5-0.9c-0.1-0.6,0.1-1.1,0.3-1.6C57.3,53.8,58.1,53,59,52.4 M40.4,48.9c0.2-0.6,0.5-1.1,0.9-1.6
	c0.3-0.4,0.7-0.7,1.2-0.8c0.7-0.2,1.4,0.2,1.5,0.9c0,0.1,0,0.2,0,0.2c0.3,1.4,0,2.9-1,4.1c-0.3,0.4-0.8,0.7-1.4,0.8
	c-0.6,0.2-1.3-0.2-1.5-0.8c0-0.1,0-0.1,0-0.2c0-0.1,0-0.4-0.1-0.8C40.2,50.1,40.3,49.5,40.4,48.9 M49.1,49.4c0,0.1-0.1,0.4-0.2,0.8
	l-1.8,8.9c-0.1,1-0.6,1.9-1.4,2.5l-0.1,0.1l0.6,0.2h0c0.3,0,0.5,0,0.8,0c1,0,1.9-0.3,2.7-0.8c0.6-0.4,1-0.9,1.1-1.6l2.4-12.1
	c0-0.1,0-0.1,0-0.2c-0.1,0-0.1,0-0.2,0h-3.9c-0.1,0-0.2,0-0.3,0c0,0.1,0,0.2,0.1,0.2C49.2,48.1,49.3,48.8,49.1,49.4L49.1,49.4z"/>
</svg>
