<svg xmlns="http://www.w3.org/2000/svg" width="66" height="70" viewBox="0 0 66 70">
  <defs>
    <style>
      .cls-1 {
        fill: #e69b26;
        fill-rule: evenodd;
      }
    </style>
  </defs>
  <path class="cls-1" d="M2048.01,236v-46.01H2030V236h18.01m-36.02,0h15.98V208.03h-15.98V236m15.98-46.01h-21.96v16.022h21.96V189.989m7.6-9.246,0.09-1.712a21.428,21.428,0,0,0-7.7-11.587,6.9,6.9,0,0,0-4.41-1.448q-8.01.219-8.4,8.427c-0.21,3.95,1.65,6.729,5.55,8.338a19.72,19.72,0,0,0,12.91.834,26.683,26.683,0,0,1-12.51-4.564q-4.245-3.161-1.84-6.935,3.855-4.3,8.79-.131a28.688,28.688,0,0,1,7.52,8.778m3.42,3.244a5.972,5.972,0,0,0-4.5,1.964,5.318,5.318,0,0,0-1.5,2.066h11.99a5.318,5.318,0,0,0-1.5-2.066,5.966,5.966,0,0,0-4.49-1.964M2054.25,166a6.731,6.731,0,0,0-4.37,1.448,21.658,21.658,0,0,0-7.74,11.587l0.08,1.712a29.5,29.5,0,0,1,7.57-8.778q4.9-4.17,8.75.131,2.4,3.775-1.84,6.935a26.4,26.4,0,0,1-12.47,4.564,19.745,19.745,0,0,0,12.91-.834q5.82-2.414,5.55-8.338-0.39-8.208-8.44-8.427M2072,206.011V189.989h-21.99v16.022H2072M2066.02,236V208.03h-16.01V236h16.01Z" transform="translate(-2006 -166)"/>
</svg>
