<svg xmlns="http://www.w3.org/2000/svg" width="70" height="70" viewBox="0 0 70 70">
  <defs>
    <style>
      .cls-1 {
        fill: #edd934;
        fill-rule: evenodd;
      }
    </style>
  </defs>
  <path class="cls-1" d="M2719,166a35,35,0,1,1-35,35A35,35,0,0,1,2719,166Zm-19.25,38.5,5.25-8.75a25.135,25.135,0,0,1,6.67,5.743c3.64,4.437,3.83,6.507,3.83,6.507a150.7,150.7,0,0,1,11.71-16.263c6.81-8.018,14.69-14.719,18.04-15.237,6.47-1-1.75,8.75-1.75,8.75s-9.21,11.131-14.03,23.124c-1.37,3.414-6.95,13.575-6.97,13.626h-8.75s-0.71-2.852-5.25-8.75A40.666,40.666,0,0,0,2699.75,204.5Z" transform="translate(-2684 -166)"/>
</svg>
