<svg xmlns="http://www.w3.org/2000/svg" width="40" height="40" viewBox="0 0 40 40">
  <defs>
    <style>
      .cls-1 {
        fill: #fff;
        fill-rule: evenodd;
      }
    </style>
  </defs>
  <path class="cls-1" d="M2560.69,424.707a85.712,85.712,0,0,0-6.67,9.264,10.732,10.732,0,0,0-1.77-2.408A16.936,16.936,0,0,0,2548,428l-2,4s1.32,1.522,4,5c2.59,3.37,3,5,3,5h5c0.01-.029,3.2-5.835,3.98-7.786A58.536,58.536,0,0,1,2570,421a18.236,18.236,0,0,0,2.01-2.956,19.915,19.915,0,1,1-1.58-1.875C2568.28,416.99,2564.24,420.531,2560.69,424.707ZM2554,434a0.148,0.148,0,0,1,.02-0.029C2554.02,434.005,2554,434,2554,434Z" transform="translate(-2536 -410)"/>
</svg>
