
<svg xmlns="http://www.w3.org/2000/svg" version="1.1" xmlns:xlink="http://www.w3.org/1999/xlink" preserveAspectRatio="none" x="0px" y="0px" width="100px" height="100px" viewBox="0 0 100 100">
<defs>
<g id="Layer0_0_FILL">
<path fill="#DA4E62" stroke="none" d="
M 81.35 12
L 81.3 12
Q 79.65 10.6 77.9 9.4 76.1 8.15 74.25 7.05 72.35 6 70.35 5.1 68.4 4.2 66.35 3.5 64.3 2.8 62.2 2.3 60.15 1.8 58 1.5 55.9 1.2 53.7 1.05 52 0.95 50.25 0.95 49.9 0.95 49.55 0.95 49.5 0.95 49.4 0.95 47.3 1 45.25 1.2 43.1 1.4 41 1.75 38.9 2.1 36.85 2.7 34.8 3.25 32.8 4 30.8 4.75 28.85 5.7 26.95 6.65 25.15 7.75 23.3 8.85 21.6 10.1 19.9 11.35 18.3 12.75 16.9 14 15.55 15.3 15.4 15.5 15.2 15.65 13.7 17.2 12.4 18.8
L 12.35 18.8
Q 11 20.45 9.8 22.15 8.55 23.9 7.5 25.7 6.45 27.55 5.55 29.45 4.65 31.4 3.95 33.35 3.25 35.35 2.75 37.4 2.2 39.45 1.85 41.55 1.55 43.6 1.35 45.75 1.2 47.8 1.2 49.95
L 1.2 50
Q 1.2 52.15 1.35 54.2 1.55 56.35 1.85 58.4 2.2 60.5 2.7 62.55 3.25 64.6 3.95 66.6 4.65 68.6 5.55 70.5 6.4 72.4 7.5 74.25 8.55 76.05 9.75 77.8 10.95 79.5 12.35 81.15 13.7 82.75 15.2 84.3 15.4 84.5 15.55 84.7 16.9 86 18.25 87.2 19.85 88.6 21.55 89.85 23.3 91.1 25.05 92.2
L 25.1 92.2
Q 26.9 93.35 28.8 94.25 30.7 95.2 32.7 95.95 34.7 96.7 36.75 97.3 38.8 97.85 40.9 98.25
L 40.95 98.25
Q 43 98.6 45.15 98.8 47.25 99 49.4 99.05 49.45 99.05 49.55 99.05 49.9 99.05 50.25 99.05 52.05 99.05 53.8 98.95 55.95 98.8 58.1 98.5 60.2 98.15 62.3 97.65 64.4 97.15 66.45 96.45 68.45 95.75 70.45 94.85 72.4 94 74.3 92.9 76.15 91.85 77.95 90.55 79.7 89.35 81.35 87.95 83 86.55 84.6 85.05 84.75 84.85 84.95 84.7 86.3 83.3 87.55 81.9 89 80.2 90.25 78.5 91.55 76.7 92.65 74.9 93.8 73 94.7 71.05 95.65 69.05 96.4 67 97.15 64.95 97.7 62.85 98.25 60.75 98.6 58.6 98.95 56.5 99.15 54.25 99.3 52.15 99.3 50
L 99.3 49.95
Q 99.3 47.75 99.15 45.7 98.95 43.45 98.6 41.35 98.25 39.2 97.7 37.1 97.15 35 96.4 32.95 95.65 30.9 94.7 28.95 93.75 26.95 92.65 25.1 91.5 23.25 90.25 21.45 88.95 19.75 87.5 18.05 86.3 16.65 84.95 15.3 84.75 15.1 84.55 14.95 82.95 13.4 81.35 12
M 83.25 16.25
Q 83.45 16.4 83.65 16.6 84.95 17.9 86.15 19.25 87.5 20.85 88.75 22.55 90 24.25 91.05 26 92.15 27.85 93.05 29.7 93.95 31.6 94.7 33.55 95.4 35.55 95.95 37.6 96.45 39.6 96.8 41.65 97.15 43.7 97.3 45.85 97.45 47.85 97.45 49.95
L 97.45 50
Q 97.45 52.1 97.3 54.1 97.15 56.25 96.8 58.3 96.45 60.35 95.95 62.4 95.4 64.4 94.7 66.4 93.95 68.35 93.05 70.25 92.15 72.15 91.1 73.95 90 75.7 88.75 77.45 87.55 79.1 86.15 80.7 84.95 82.05 83.65 83.4 83.45 83.55 83.3 83.75 81.8 85.2 80.2 86.5 78.6 87.85 76.9 89.05 75.2 90.25 73.4 91.3 71.6 92.35 69.7 93.2 67.8 94.05 65.85 94.7 63.85 95.4 61.85 95.9 59.85 96.35 57.8 96.65 55.75 96.95 53.7 97.1 52 97.2 50.25 97.2 49.9 97.2 49.55 97.2 49.5 97.2 49.45 97.2 47.35 97.2 45.35 97 43.3 96.8 41.3 96.45 39.25 96.05 37.25 95.5 35.3 94.95 33.35 94.25 31.45 93.5 29.6 92.6 27.8 91.7 26.05 90.65
L 26 90.65
Q 24.3 89.6 22.65 88.35 21 87.15 19.45 85.8 18.15 84.65 16.85 83.4 16.7 83.2 16.5 83 15.05 81.55 13.75 80 12.45 78.4 11.3 76.75 10.1 75.1 9.1 73.35 8.05 71.6 7.2 69.75 6.35 67.9 5.7 65.95 5 64.05 4.5 62.1 4 60.1 3.65 58.1 3.35 56.1 3.2 54.05 3.05 52.05 3.05 50
L 3.05 49.95
Q 3.05 47.9 3.2 45.9 3.35 43.85 3.7 41.85 4 39.85 4.5 37.9 5 35.9 5.7 34 6.35 32.05 7.2 30.25
L 7.2 30.2
Q 8.05 28.4 9.1 26.65
L 9.1 26.6
Q 10.1 24.85 11.3 23.2 12.45 21.55 13.8 19.95 15.1 18.45 16.55 16.95 16.7 16.8 16.85 16.6 18.15 15.35 19.5 14.15 21.05 12.8 22.7 11.6 24.35 10.4 26.1 9.3 27.85 8.25 29.65 7.35 31.5 6.45 33.45 5.7 35.35 5 37.35 4.45 39.3 3.9 41.35 3.55
L 41.4 3.55
Q 43.35 3.2 45.45 3 47.4 2.8 49.45 2.8 49.5 2.8 49.6 2.8 49.9 2.8 50.25 2.8 51.95 2.8 53.55 2.9
L 53.6 2.9
Q 55.65 3 57.7 3.3 59.75 3.6 61.75 4.1 63.8 4.6 65.75 5.25 67.7 5.9 69.6 6.8
L 69.65 6.8
Q 71.5 7.65 73.35 8.7 75.15 9.7 76.85 10.9
L 76.9 10.9
Q 78.55 12.1 80.15 13.45
L 80.2 13.45
Q 81.75 14.75 83.25 16.25
M 79.4 85.5
L 72.25 77
Q 71.05 78 69.8 78.85 68.55 79.75 67.2 80.5
L 72.8 90.15
Q 74.5 89.15 76.2 88 77.85 86.85 79.4 85.5
M 49.5 84.8
Q 47.95 84.75 46.45 84.6 44.95 84.45 43.45 84.2
L 41.55 95.15
Q 43.5 95.5 45.5 95.7 47.45 95.9 49.5 95.9
L 49.5 84.8
M 49.5 74.4
Q 48.4 74.35 47.35 74.25 46.3 74.15 45.3 73.95
L 43.7 82.85
Q 45.1 83.15 46.55 83.3 48 83.45 49.5 83.45
L 49.5 74.4
M 58.65 83.85
Q 57.2 84.2 55.65 84.45
L 57.6 95.4
Q 59.6 95.1 61.55 94.65 63.5 94.15 65.4 93.5
L 61.6 83.05
Q 60.15 83.5 58.65 83.85
M 55.95 73.8
Q 54.9 74 53.85 74.15
L 55.45 83.1
Q 56.9 82.9 58.3 82.55 59.75 82.2 61.15 81.75
L 58.05 73.2
Q 57 73.55 55.95 73.8
M 65.55 69.05
Q 64.7 69.7 63.85 70.35 62.95 70.95 62 71.45
L 66.55 79.35
Q 67.8 78.65 69.05 77.8 70.25 76.95 71.4 76
L 65.55 69.05
M 70.05 64.3
Q 69.4 65.2 68.7 66
L 75.65 71.85
Q 76.65 70.7 77.5 69.55 78.4 68.3 79.15 67.05
L 71.3 62.5
Q 70.7 63.45 70.05 64.3
M 37.65 82.55
Q 36.25 82 34.9 81.35 33.55 80.7 32.25 79.9
L 26.7 89.55
Q 28.4 90.55 30.2 91.45 31.95 92.3 33.85 93.05
L 37.65 82.55
M 6.9 65.55
Q 7.55 67.4 8.4 69.2 9.25 71 10.2 72.7
L 19.85 67.15
Q 19.1 65.85 18.5 64.5 17.9 63.15 17.4 61.7
L 6.9 65.55
M 15.55 53
Q 15.45 51.5 15.45 50
L 4.35 50
Q 4.35 52 4.5 53.95 4.65 55.95 4.95 57.85
L 15.9 55.95
Q 15.7 54.5 15.55 53
M 39.3 71.9
Q 38.4 71.4 37.5 70.85
L 32.95 78.7 32.95 78.75
Q 34.2 79.5 35.45 80.15 36.75 80.75 38.1 81.3
L 41.2 72.75
Q 40.25 72.35 39.3 71.9
M 23.3 72.05
L 23.3 72 14.75 79.15 14.8 79.15
Q 16.05 80.65 17.45 82.1 17.6 82.3 17.8 82.45 19.05 83.7 20.3 84.8
L 27.45 76.3
Q 26.55 75.5 25.65 74.6 25.5 74.45 25.3 74.25 24.25 73.15 23.3 72.05
M 26.25 73.3
Q 26.4 73.5 26.6 73.65 27.45 74.5 28.3 75.3
L 34.15 68.35
Q 33.55 67.8 33 67.25 32.85 67.05 32.65 66.9 31.9 66.1 31.25 65.35
L 24.3 71.15
Q 25.2 72.25 26.25 73.3
M 27.95 60.1
Q 27.55 59.15 27.2 58.15
L 18.65 61.25
Q 19.1 62.6 19.7 63.9
L 19.7 63.95
Q 20.3 65.25 21.05 66.45
L 28.9 61.9
Q 28.4 61 27.95 60.1
M 25.95 52.1
L 25.95 52.05
Q 25.85 51.05 25.85 50
L 16.8 50
Q 16.8 51.45 16.9 52.85 17 54.3 17.25 55.7
L 26.2 54.1
Q 26 53.1 25.95 52.1
M 24.35 28.8
Q 23.4 29.9 22.6 31.05
L 22.6 31.1
Q 21.75 32.25 21.05 33.5
L 28.9 38.05 28.95 38.05
Q 29.45 37.15 30.05 36.3 30.6 35.45 31.3 34.65
L 24.35 28.8
M 18.65 38.7
Q 18.2 40.05 17.8 41.45 17.45 42.8 17.25 44.25
L 26.2 45.85
Q 26.35 44.8 26.6 43.8 26.85 42.8 27.2 41.8
L 18.65 38.7
M 5.75 38.2
Q 5.3 40.1 4.95 42.1
L 15.9 44
Q 16.15 42.55 16.55 41.1 16.9 39.65 17.4 38.25
L 6.9 34.45
Q 6.25 36.3 5.75 38.2
M 14.8 20.8
Q 13.5 22.35 12.4 23.9 11.25 25.55 10.25 27.25
L 19.9 32.85
Q 20.65 31.55 21.5 30.3 22.35 29.1 23.3 27.95
L 14.8 20.8
M 33 21.25
Q 31.75 22 30.6 22.85 29.45 23.7 28.35 24.7
L 34.2 31.65
Q 35 30.9 35.8 30.3 36.65 29.65 37.55 29.1
L 33 21.25
M 23.45 12.65
Q 21.85 13.8 20.35 15.15
L 27.5 23.65
Q 28.65 22.65 29.85 21.75 31.05 20.85 32.3 20.1
L 26.75 10.45
Q 25.05 11.45 23.45 12.65
M 80.6 35.55
Q 79.95 34.2 79.15 32.9
L 71.25 37.45
Q 71.85 38.4 72.3 39.4 72.8 40.4 73.2 41.4
L 81.75 38.3
Q 81.25 36.9 80.6 35.55
M 73.95 26.35
Q 73.75 26.15 73.55 25.95 72.5 24.9 71.35 24
L 65.55 30.95
Q 66.35 31.6 67.15 32.4 67.35 32.55 67.5 32.75 68.1 33.35 68.65 33.95
L 75.6 28.1
Q 74.8 27.2 73.95 26.35
M 53.55 27.25
Q 52.55 27.1 51.55 27.05 50.9 27.05 50.25 27.05 49.95 27.05 49.65 27.05 49.6 27.05 49.55 27.05
L 49.5 27.05
Q 48.55 27.05 47.65 27.15 46.65 27.25 45.65 27.45 44.65 27.65 43.7 27.95 42.75 28.2 41.85 28.55 40.9 28.95 40 29.4 39.15 29.8 38.3 30.35 37.45 30.85 36.65 31.45 35.9 32.05 35.15 32.7 34.6 33.2 34.05 33.75 33.85 33.9 33.7 34.1 33.05 34.8 32.4 35.55 31.8 36.3 31.25 37.1 30.65 37.9 30.2 38.75 29.7 39.6 29.3 40.5 28.9 41.35 28.55 42.3 28.25 43.2 28 44.15 27.75 45.1 27.6 46.05
L 27.6 46.1
Q 27.45 47.05 27.4 48 27.3 48.95 27.3 49.95
L 27.3 50
Q 27.3 51 27.4 51.95 27.45 52.95 27.6 53.9 27.75 54.85 28 55.8 28.25 56.75 28.55 57.65 28.85 58.6 29.3 59.5 29.7 60.35 30.15 61.25 30.65 62.05 31.2 62.85
L 31.2 62.9
Q 31.75 63.65 32.4 64.45 33 65.2 33.7 65.9 33.85 66.05 34.05 66.25 34.55 66.75 35.1 67.25 35.85 67.9 36.6 68.5
L 36.65 68.5
Q 37.4 69.1 38.25 69.6 39.05 70.15 39.95 70.6 40.85 71.05 41.75 71.4 42.7 71.75 43.65 72.05 44.6 72.35 45.55 72.5
L 45.6 72.5
Q 46.55 72.7 47.55 72.8 48.5 72.9 49.5 72.95
L 49.55 72.95
Q 49.6 72.95 49.65 72.95 49.95 72.95 50.25 72.95 50.95 72.95 51.65 72.95 52.65 72.85 53.65 72.75 54.65 72.6 55.6 72.4 56.6 72.15 57.55 71.85 58.55 71.5 59.45 71.1 60.4 70.7 61.3 70.2 62.2 69.7 63.05 69.15 63.85 68.55 64.65 67.9 65.45 67.25 66.2 66.55 66.35 66.4 66.5 66.25 67.05 65.65 67.6 65.05 68.3 64.3 68.9 63.45 69.5 62.65 70.05 61.75 70.6 60.9 71.05 59.95 71.5 59 71.85 58.05 72.2 57.1 72.5 56.1
L 72.5 56.05
Q 72.75 55.1 72.9 54.05 73.1 53.05 73.15 52 73.25 51 73.25 50
L 73.25 49.95
Q 73.25 48.95 73.15 47.95 73.05 46.9 72.9 45.9 72.7 44.85 72.45 43.9 72.2 42.9 71.85 41.9 71.5 40.95 71.05 40.05
L 71.05 40
Q 70.55 39.1 70.05 38.2 69.5 37.35 68.9 36.5 68.25 35.7 67.6 34.9 67.05 34.3 66.5 33.75 66.35 33.6 66.15 33.4 65.4 32.7 64.65 32.05
L 64.6 32.05
Q 63.8 31.4 63 30.85 62.15 30.25 61.25 29.75 60.35 29.25 59.4 28.85 58.5 28.45 57.5 28.15 56.55 27.8 55.55 27.6 54.55 27.4 53.55 27.25
M 50.1 43.1
Q 50.2 43.1 50.25 43.1 50.5 43.1 50.75 43.1 51.05 43.15 51.35 43.2 51.65 43.25 51.95 43.3 52.25 43.4 52.55 43.5 52.85 43.6 53.15 43.75 53.45 43.85 53.7 44 53.95 44.15 54.2 44.35
L 58.55 40
Q 58.45 39.6 58.45 39.15 58.45 38.05 59.2 37.25
L 59.3 37.15
Q 60.1 36.4 61.2 36.4 61.65 36.4 62.05 36.5 62.65 36.7 63.15 37.2 63.65 37.65 63.8 38.3 63.95 38.7 63.95 39.15 63.95 40.25 63.2 41.05
L 63.1 41.15
Q 62.3 41.9 61.2 41.9 60.75 41.9 60.3 41.8
L 55.95 46.15
Q 56 46.2 56.05 46.25 56.25 46.55 56.4 46.85 56.55 47.1 56.65 47.4 56.8 47.75 56.9 48.05 56.95 48.35 57.05 48.7 57.1 49 57.1 49.35 57.15 49.65 57.15 49.95
L 57.15 50
Q 57.15 50.3 57.1 50.6 57.1 50.95 57.05 51.3 57 51.6 56.9 51.9 56.8 52.25 56.7 52.55 56.55 52.85 56.4 53.15 56.25 53.45 56.05 53.7 56 53.8 55.95 53.9
L 60.35 58.25
Q 60.75 58.1 61.2 58.1 62.3 58.1 63.1 58.9
L 63.2 59
Q 63.95 59.75 63.95 60.9 63.95 61.35 63.8 61.75 63.65 62.35 63.15 62.85 62.65 63.3 62.05 63.5 61.65 63.65 61.2 63.65 60.1 63.65 59.3 62.9
L 59.2 62.8
Q 58.4 62 58.45 60.9 58.45 60.4 58.55 60
L 54.2 55.65
Q 54 55.8 53.75 55.95 53.5 56.1 53.2 56.25 52.9 56.4 52.6 56.5 52.3 56.6 52 56.65 51.7 56.75 51.4 56.8 51.1 56.85 50.8 56.85 50.55 56.9 50.25 56.9
L 50.2 56.9
Q 49.9 56.9 49.6 56.85 49.55 56.85 49.5 56.85 49.2 56.8 48.9 56.75 48.6 56.7 48.35 56.65 48.05 56.55 47.8 56.45 47.5 56.35 47.25 56.2 47 56.1 46.75 55.95 46.55 55.85 46.4 55.7
L 42.1 60
Q 42.2 60.4 42.2 60.9 42.2 62 41.45 62.8
L 41.35 62.9
Q 40.55 63.65 39.45 63.65 39 63.65 38.6 63.5 38 63.3 37.5 62.85 37 62.35 36.8 61.75 36.7 61.35 36.7 60.9 36.7 59.8 37.45 59
L 37.55 58.9
Q 38.35 58.1 39.45 58.1 39.9 58.1 40.3 58.25
L 44.6 53.95
Q 44.5 53.8 44.4 53.65
L 44.4 53.6
Q 44.25 53.4 44.1 53.15 44 52.9 43.9 52.65 43.8 52.4 43.7 52.15 43.6 51.9 43.55 51.65 43.5 51.35 43.45 51.1 43.4 50.85 43.4 50.55 43.35 50.3 43.35 50
L 43.35 49.95
Q 43.35 49.65 43.4 49.4 43.4 49.15 43.45 48.9
L 43.45 48.85
Q 43.5 48.6 43.55 48.35 43.6 48.05 43.7 47.8 43.8 47.55 43.9 47.3 44 47.05 44.15 46.8 44.25 46.55 44.4 46.35 44.5 46.2 44.6 46.05
L 40.3 41.75
Q 39.9 41.9 39.45 41.9 38.35 41.9 37.55 41.15
L 37.45 41.05
Q 36.7 40.25 36.7 39.15 36.7 38.7 36.8 38.3 37 37.65 37.5 37.2 38 36.7 38.6 36.5 39 36.4 39.45 36.35 40.55 36.4 41.35 37.15
L 41.45 37.25
Q 42.2 38.05 42.2 39.15 42.2 39.6 42.1 40
L 46.4 44.3
Q 46.6 44.15 46.8 44 47.05 43.85 47.3 43.75 47.6 43.6 47.85 43.5 48.15 43.4 48.4 43.35
L 48.45 43.35
Q 48.7 43.25 49 43.2 49.25 43.15 49.5 43.15 49.55 43.15 49.6 43.15 49.85 43.1 50.1 43.1
M 45.5 48.15
Q 45.4 48.35 45.35 48.6 45.3 48.8 45.25 49 45.2 49.2 45.2 49.45
L 45.2 49.5
Q 45.15 49.7 45.15 49.9
L 45.15 50
Q 45.15 50.2 45.2 50.4 45.2 50.6 45.2 50.85 45.25 51.1 45.3 51.3 45.4 51.5 45.45 51.75 45.55 51.95 45.65 52.15 45.75 52.4 45.85 52.6
L 45.9 52.65
Q 46 52.8 46.1 52.95 46.25 53.15 46.4 53.35 46.55 53.45 46.65 53.6 46.7 53.65 46.75 53.7 46.95 53.85 47.1 54 47.3 54.15 47.5 54.3 47.6 54.35 47.7 54.4 47.8 54.45 47.95 54.55 48.15 54.65 48.35 54.75 48.6 54.85 48.85 54.9 49.05 54.95 49.3 55 49.55 55.05 49.8 55.05 50 55.1 50.25 55.1
L 50.3 55.1
Q 50.5 55.1 50.7 55.05
L 50.75 55.05
Q 51 55.05 51.2 55 51.45 54.95 51.7 54.9 51.95 54.8 52.15 54.75 52.4 54.65 52.6 54.55 52.75 54.45 52.9 54.35 52.95 54.3 53 54.3 53.2 54.15 53.4 54 53.6 53.85 53.75 53.65 53.8 53.65 53.85 53.6 54 53.45 54.1 53.35 54.25 53.15 54.4 52.95 54.55 52.75 54.65 52.55 54.8 52.35 54.9 52.15 55 51.95 55.05 51.7 55.15 51.5 55.2 51.25 55.25 51.05 55.3 50.8 55.3 50.55 55.35 50.35 55.35 50.15 55.35 50 55.35 49.95 55.35 49.9 55.35 49.7 55.3 49.5
L 55.3 49.45
Q 55.3 49.25 55.25 49.05 55.25 48.85 55.15 48.65 55.1 48.4 55.05 48.2 54.95 48 54.85 47.8 54.75 47.6 54.65 47.45 54.55 47.25 54.45 47.1 54.3 46.9 54.15 46.75 54.05 46.6 53.9 46.45 53.9 46.4 53.85 46.4 53.75 46.3 53.6 46.15 53.45 46.05 53.3 45.9 53.1 45.75 52.95 45.65
L 52.9 45.65
Q 52.75 45.55 52.6 45.45 52.45 45.35 52.25 45.3 52.05 45.2 51.85 45.15 51.65 45.1 51.5 45.05 51.3 45 51.05 44.95 50.9 44.95 50.7 44.9 50.5 44.9 50.3 44.9
L 50.25 44.9
Q 50.05 44.9 49.85 44.9 49.65 44.95 49.45 44.95 49.25 45 49.05 45.05 48.85 45.1 48.65 45.15 48.45 45.2 48.3 45.3 48.1 45.35 47.9 45.45 47.8 45.5 47.65 45.6 47.6 45.6 47.55 45.65 47.4 45.75 47.25 45.9 47.05 46 46.9 46.15 46.8 46.25 46.65 46.4
L 46.65 46.45
Q 46.45 46.6 46.35 46.7
L 46.35 46.75
Q 46.2 46.9 46.1 47.05 46 47.2 45.9 47.35 45.9 47.4 45.85 47.4 45.75 47.6 45.65 47.8 45.55 47.95 45.5 48.15
M 50.25 16.5
Q 49.95 16.5 49.6 16.55
L 49.6 25.6
Q 49.95 25.6 50.25 25.6 50.95 25.6 51.6 25.65 52.7 25.7 53.75 25.8
L 55.35 16.85
Q 53.9 16.65 52.4 16.6 51.35 16.5 50.25 16.5
M 43.8 17.1
Q 42.35 17.35 40.95 17.75 39.55 18.15 38.2 18.65
L 41.3 27.2
Q 42.3 26.85 43.3 26.55 44.3 26.25 45.35 26.05
L 43.8 17.1
M 40.6 16.45
Q 42.05 16.05 43.55 15.75
L 41.6 4.8
Q 39.65 5.2 37.7 5.7 35.8 6.25 33.9 6.95
L 37.7 17.4
Q 39.15 16.85 40.6 16.45
M 57.5 4.6
Q 55.55 4.3 53.5 4.2 51.9 4.1 50.25 4.1 49.95 4.1 49.6 4.1
L 49.6 15.2
Q 49.95 15.2 50.25 15.2 51.4 15.2 52.5 15.25 54.05 15.35 55.6 15.55
L 57.5 4.6
M 63.85 19.3
Q 62.5 18.7 61.1 18.2
L 57.95 26.75
Q 59 27.1 60 27.55 61 27.95 61.95 28.5
L 66.5 20.6
Q 65.2 19.9 63.85 19.3
M 72.75 9.8
L 72.7 9.8
Q 70.95 8.8 69.1 7.95 67.25 7.15 65.35 6.5
L 61.55 16.95
Q 63 17.45 64.4 18.05 65.8 18.7 67.15 19.45
L 72.75 9.8
M 85.2 79.85
Q 86.55 78.3 87.7 76.7 88.95 75 89.95 73.3
L 80.35 67.75
Q 79.55 69.05 78.6 70.3 77.7 71.55 76.65 72.7
L 85.2 79.85
M 82.65 58.8
Q 83 57.4 83.25 55.9
L 74.3 54.3
Q 74.15 55.4 73.85 56.45 73.55 57.55 73.2 58.55
L 81.75 61.65
Q 82.25 60.25 82.65 58.8
M 84.6 56.15
Q 84.35 57.65 83.95 59.15 83.55 60.65 83 62.1
L 93.5 65.95
Q 94.2 64 94.7 62.05 95.2 60.1 95.55 58.05
L 84.6 56.15
M 83.65 47.05
Q 83.5 45.55 83.25 44.05
L 74.3 45.65
Q 74.5 46.7 74.6 47.85 74.65 48.85 74.65 49.95
L 83.75 49.95
Q 83.75 48.45 83.65 47.05
M 84.6 43.85
Q 84.85 45.35 84.95 46.9 85.1 48.4 85.1 49.95
L 96.2 49.95
Q 96.2 47.9 96.05 45.95 95.85 43.9 95.55 41.9
L 84.6 43.85
M 93.45 34.05
Q 92.75 32.1 91.9 30.25 91 28.45 89.95 26.7
L 80.3 32.25
Q 81.15 33.6 81.8 35 82.45 36.4 83 37.85
L 93.45 34.05
M 85.15 20.1
Q 84 18.8 82.75 17.55 82.55 17.35 82.35 17.15 80.9 15.7 79.35 14.45
L 72.2 22.95 72.25 22.95
Q 73.4 23.9 74.5 25 74.7 25.2 74.9 25.4 75.8 26.3 76.65 27.25
L 85.15 20.1 Z"/>
</g>
</defs>

<g transform="matrix( 1, 0, 0, 1, 0,0) ">
<use xlink:href="#Layer0_0_FILL"/>
</g>
</svg>
