<svg xmlns="http://www.w3.org/2000/svg" width="39.59" height="39.594" viewBox="0 0 39.59 39.594">
  <defs>
    <style>
      .cls-1 {
        fill: #fff;
        fill-rule: evenodd;
      }
    </style>
  </defs>
  <path class="cls-1" d="M1470,438a1.819,1.819,0,0,0,.22-0.022l6.5,6.5a3,3,0,0,1-4.25,4.243l-6.49-6.5A1.592,1.592,0,0,0,1466,442a1.986,1.986,0,0,0-.71-1.514,16.987,16.987,0,1,1,3.2-3.19A1.97,1.97,0,0,0,1470,438Zm-7.23-18.8a11,11,0,1,0,0,15.556A10.992,10.992,0,0,0,1462.77,419.2Z" transform="translate(-1438 -410)"/>
</svg>
