<svg xmlns="http://www.w3.org/2000/svg" width="40" height="40" viewBox="0 0 40 40">
  <defs>
    <style>
      .cls-1 {
        fill: #ffffff;
        fill-rule: evenodd;
      }
    </style>
  </defs>
  <path class="cls-1" d="M1006,39a20.609,20.609,0,0,0-1.4-7.422,0.709,0.709,0,0,1-.09-0.311,19.773,19.773,0,0,0-7.289-8.821A19.523,19.523,0,0,0,986,19a19.262,19.262,0,0,0-14.132,5.866A19.261,19.261,0,0,0,966,39a19.261,19.261,0,0,0,5.866,14.132,19.953,19.953,0,0,0,28.262,0A19.269,19.269,0,0,0,1006,39m-2.31-6.71-1.25-.178L1001.2,37l1.29,7.6,1.46,0.4-0.17.489a18.582,18.582,0,0,1-3.18,5.6,19.119,19.119,0,0,1-4.868,4.177l-0.577.356,0.711-4.177-6.489-1.111L982.4,53.4l0.023,2.933,2.622,1.244-0.089.311a2.417,2.417,0,0,1-.511-0.044,18.582,18.582,0,0,1-4.978-1.111l-0.577-.222,0.044-.267,2.444-.178-0.044-2.844L975.8,47.444l-5.288-1.2,0.311,4.044-0.578-.8A18.642,18.642,0,0,1,967.091,39l0.022-1.244h0.2l3.4-6.488,1.488-5.2,0.756-.8q0.177-.133,2.089-1.733l7.377-3.111a14.8,14.8,0,0,1,2.044-.267,10.486,10.486,0,0,1,1.155-.044l0.022,0.133-5,2.044,2.333,3.155,8.333,2,4.066-2.533L992.71,21.4l0.045-.045L994.71,22.2l2.044,2.666L1002.31,31l0.89,0.133,0.49,1.156m-32.222-.267-3.266,6.31,2.133,6.755,5.466,1.244,3.466-6-2.533-8-5.266-.311m22.065,3.2-2.489-6.844-8.155-1.911-5.133,5.511,2.467,7.955,7.755,1.378,5.555-6.088m6.687,2.133-5.888-1.466-5.6,6.177,1.044,7.2,6.489,1.156,5.264-5.644Z" transform="translate(-966 -19)"/>
</svg>
