<?xml version="1.0" encoding="utf-8"?>
<!-- Generator: Adobe Illustrator 21.0.2, SVG Export Plug-In . SVG Version: 6.00 Build 0)  -->
<svg version="1.1" id="Layer_1" xmlns="http://www.w3.org/2000/svg" xmlns:xlink="http://www.w3.org/1999/xlink" x="0px" y="0px"
	 viewBox="0 0 503.3 499.2" style="enable-background:new 0 0 503.3 499.2;" xml:space="preserve">
<style type="text/css">
	.st0{fill:#FFFFFF;}
</style>
<path class="st0" d="M427.3,73.8C380.4,26.8,318,1,251.6,1C185.2,1,122.8,26.8,75.9,73.8C29,120.7,3.1,183.1,3.1,249.5
	S29,378.3,75.9,425.2c46.9,46.9,109.3,72.8,175.7,72.8c66.4,0,128.8-25.8,175.7-72.8c46.9-46.9,72.8-109.3,72.8-175.7
	S474.3,120.7,427.3,73.8z M413,410.8c-43.1,43.1-100.4,66.8-161.4,66.8s-118.3-23.7-161.4-66.8c-43.1-43.1-66.8-100.4-66.8-161.4
	c0-61,23.7-118.3,66.8-161.4C133.4,45,190.7,21.3,251.6,21.3S369.9,45,413,88.1c43.1,43.1,66.8,100.4,66.8,161.4
	C479.8,310.4,456.1,367.7,413,410.8z"/>
<g>
	<path class="st0" d="M285.9,398.5l-5.5-5.2c-2.9,1.7-6.1,2.1-9,2.4c-3,0.4-6,0.7-9,1.1c-2.8,0.3-5.6,0.7-8.3,1l1,64.7
		c30.3-0.5,59.1-7.3,85.1-19.2l-21.9-47.8l-1.3,1L285.9,398.5z"/>
	<path class="st0" d="M184.5,116.1c1.6,0.5,3,1.1,4.2,1.8c0.8-0.2,1.7-0.4,2.7-0.5c4.7-0.4,9.6-0.9,14.3-1.4c1.3-0.1,2.7-0.3,4-0.4
		L188,46.2c-28.4,8.9-54.2,23.5-76.1,42.6l24.6,28.3c2.6-1,5.3-1.9,8.1-2.5C157.7,111.5,171.1,112.1,184.5,116.1z"/>
	<path class="st0" d="M228.4,385l-0.4,1.2c-0.3,0.8-0.6,1.6-0.9,2.4l-0.4-0.2l-18.9,4.2c-2.2-2.1-4.5-4.3-6.8-6.4
		c-3.9-3.7-7.9-7.5-11.9-11.3c-3.3,4.2-6.7,8.4-10,12.6c-2.5,3.1-5,6.3-7.4,9.4c-0.6,0.7-1.2,1.5-1.9,2.4l-1.1,1.3l-9.6-1.6
		l-19.7,31.7c24.5,15.2,52.2,25.5,82,29.8l13.3-93.8c0-0.1,0-0.2,0-0.3C232.6,372.5,230.5,378.8,228.4,385z"/>
	<path class="st0" d="M120,181.8c-10.8-9.8-13.9-24.7-7.9-40.4c0.8-2.2,1.8-4.2,2.9-6.1l-26.8-22.4c-18.6,22.2-32.8,48.3-41.1,76.9
		l59.6,17.4l8-22.7L120,181.8z"/>
	<path class="st0" d="M352.8,390.2c-0.5-0.2-0.9-0.4-1.3-0.6c-0.9-0.4-1.8-0.8-2.7-1.3c-2.4-1.2-4.7-2.4-7.1-3.5l28,42
		c24.4-16.3,45.3-37.5,61.2-62.2l-58-37.3l-3.3,52.7L352.8,390.2z"/>
	<path class="st0" d="M195.7,242.2L40.3,222.8c-1.1,8.7-1.7,17.7-1.7,26.7c0,20.9,3,41.1,8.7,60.2l140.1-41.2l-2.6-6.4L195.7,242.2z
		"/>
	<path class="st0" d="M260.6,120.3l2.7-3l25.5-3L308,44.1c-18-4.9-36.9-7.6-56.4-7.6c-10.4,0-20.7,0.8-30.7,2.2l10.8,74.9
		c1.7-0.1,3.4-0.2,5.1-0.3C245.7,112.7,253.9,115.2,260.6,120.3z"/>
	<path class="st0" d="M327.3,130.1c1.9,1.6,3.7,3.1,5.6,4.7c0.7,0.6,1.4,1.1,2.1,1.7c0-0.8,0-1.6,0.1-2.5c0.1-2.4,0.1-4.8,0.2-7.3
		c0-0.9,0.1-1.8,0.2-2.5c0-0.3,0.1-0.5,0.1-0.9l12.8-10.9l32.7,2.3l9.1,10.4l20-18c-19.5-21.7-43.4-39.4-70.3-51.6l-28.1,61.7l4.9,4
		C320.3,124.3,323.8,127.2,327.3,130.1z"/>
	<path class="st0" d="M328.3,283l2.5-2.3l5.7,0.4c8.8,0.6,17.2,1.2,25.7,1.8c1.8,0.1,3.1,0.6,3.8,0.8l0.2,0.1l8.7,12.3l-0.4,7.2
		l72.4,31.7c11.5-26.1,17.8-55,17.8-85.4c0-0.2,0-0.3,0-0.5l-149.3,0.6c-0.2,7.1-2.6,15.3-9.8,23.3L328.3,283z"/>
	<path class="st0" d="M369.6,221.9l-8.9-4.4c-5.1-2.5-10.1-5-15.1-7.5c0.1,1.1,0.1,2.2,0.2,3.3c0.1,1.2,0,2.2-0.1,2.9
		c0,0.2,0,0.5-0.1,0.8l-11.2,11.3l-25.2,1.6c2.2,2.6,3.9,5.8,4.8,9.3l147.8-23.8c-4.8-29.6-15.6-57.2-31.3-81.4l-40.5,26.2
		l-3.2,51.8L369.6,221.9z"/>
	<path class="st0" d="M59.3,341.3c12.7,26.6,30.8,50.2,52.9,69.3l28.6-33l-24.2-63.7L59.3,341.3z"/>
</g>
<g>
	<g>
		<path class="st0" d="M187,180.8c-0.1-0.1-0.2-0.3-0.2-0.5c-0.1-1.1-0.6-2.2-0.8-3.2c-0.5-0.5-0.9-1.1-1.2-1.8
			c-2.3-4.9-6.1-8.3-10.8-10.9c-7.1-3.9-14.7-5.9-22.6-7.3c-1.9-0.3-3.9-1.1-3.5-3.2c0.2-1.4,1.8-3.2,3.1-3.5
			c2.9-0.8,6.2-1.4,9.1-0.9c5.9,1,11.8,2.8,18,4.3c1.8-6.9,3.5-14.4,5.5-21.7c0.7-2.6,0.2-3.7-2.4-4.5c-11.2-3.3-22.4-4-33.8-1.4
			c-11.2,2.6-19.8,8.6-24,19.5c-5,12.9-1.9,25.5,11.8,31.8c5.8,2.7,11.9,4.7,17.8,7.3c1.4,0.6,3.1,2.7,2.9,3.8
			c-0.2,1.4-1.9,3.2-3.4,3.8c-4.3,1.9-8.9,1.7-13.3,0.3c-4.3-1.3-8.5-2.8-13-4.4c-2.8,7.9-5.5,15.5-8.1,23.2
			c14.9,6.3,24.9,9.3,41.2,5.9c11.8-2.4,21.8-7.4,26.7-19.4c0-0.1,0.1-0.2,0.2-0.4c0.7-3.3,1.3-6.6,1.2-9.9
			C187.1,185.6,187.2,183.1,187,180.8z"/>
	</g>
	<g>
		<path class="st0" d="M260.9,151.6c0.1-4.3,1.7-12.6-2-15.9c-0.1-0.1-0.2-0.2-0.2-0.3c0,0-0.1-0.1-0.1-0.1
			c-5.2-7.2-12.5-10.5-21-10c-15,0.9-30,2.7-45,4.1c-2.1,0.2-2.4,1.4-2.3,3.2c0.4,13.6,0.8,27.3,0.9,40.9c0,0,0,0.1,0,0.1
			c0.1,0.1,0.1,0.3,0.1,0.5c-0.5,8.3,1,16.8,0.5,25.2c0.1,0.8,0.1,1.7,0.1,2.6c0,4.8,0,9.5,0,14.6c9.1,0.9,17.7,1.8,27.3,2.8
			c0-5.9,0.1-11.2,0-16.5c0-2.4,0.9-3.5,3.2-4.2c15.9-4.5,28.1-13.7,35.7-28.6c0.2-0.5,0.5-0.9,0.8-1.3
			C260.5,163,260.7,157.4,260.9,151.6z M230.8,163.1c-2.3,2.5-4.9,4.8-7.7,6.7c-1.4,0.9-3.8,1.4-5.2,0.8c-1-0.4-1.3-2.9-1.8-4.4
			c0.2-0.1,0.3-0.1,0.5-0.2c0.2-2.4,0.6-4.9,0.6-7.3c0-3.1,1.1-5.1,4.3-5.7c3.6-0.7,7.3-1.9,10.2,1.5
			C233.5,156.7,233.2,160.5,230.8,163.1z"/>
	</g>
	<g>
		<path class="st0" d="M264.7,129.2c0,1.1,0.1,2.1,0.1,3c0.5,3.5,0,7.3,0,10.8c0,4.1,0.3,8.2,0.2,12.3c0,4.3-0.1,8.4-0.5,12.7
			c-0.1,1.5-0.1,3.1-0.4,4.6c0,9.8-0.2,19.6-0.2,29.4c0,5.3,0,10.6,0,16.3c8.6-1,16.9-2,25.1-2.8c2.6-0.2,3.6-1,3.7-3.7
			c1.2-25.5,2.5-50.9,3.8-76.4c0.2-3.2,0.4-6.4,0.6-10C286.1,126.7,275.5,127.9,264.7,129.2z"/>
	</g>
	<g>
		<path class="st0" d="M267.7,235.2c-2.4-0.1-4.7-0.3-7.1-0.5c-1.5-0.1-3.1-0.2-4.7-0.3c0,0.4-0.1,0.7-0.1,0.9
			c-0.1,3.5-0.2,7-0.3,10.5c0,0.5-0.3,1.4-0.7,1.5c-0.5,0.2-1.3-0.1-1.7-0.4c-2.1-1.6-4.1-3.3-6.1-5c-2.7-2.2-5.4-4.5-8.2-6.8
			c-0.1,0.7-0.1,1.2-0.1,1.7c0,3-0.1,6-0.1,9.1c-0.1,5.9-0.1,11.8-0.3,17.7c0,0,0,0.1,0,0.1c0,0.8,0,1.6-0.1,2.4
			c0,0.4,0,0.8-0.1,1.2c0.1,0.3,0.1,0.7,0.1,1.1c0,1,0,1.9,0,3c4.1-0.3,8.2-0.5,12.4-0.8c-0.2-2.7-0.3-5.1-0.4-7.5
			c0-0.6,0.1-1.5,0.5-1.7c0.4-0.3,1.3-0.1,1.8,0.2c4.4,2.1,8.7,4.3,13.1,6.5c0.4,0.2,0.8,0.4,1.2,0.5c0.1-0.2,0.1-0.2,0.1-0.2
			c0.7-10.7,1.3-21.3,2-32C268.9,235.5,268.5,235.3,267.7,235.2z"/>
	</g>
	<g>
		<path class="st0" d="M236,264.8c-0.1-0.1-0.2-0.3-0.3-0.5c-6.8-10.3-13.5-20.5-20.3-30.8c-0.2-0.3-0.4-0.5-0.7-0.9
			c-6.5,11.8-12.9,23.5-19.4,35.2c4.5,1.4,8.7,2.8,13.1,4.2c0.5-1.7,1-3.2,1.3-4.8c0.3-1.3,1-1.9,2.2-1.9c2.1,0,4.1-0.1,6.2-0.1
			c0.9,0,1.6,0.3,2,1.1c0.8,1.4,1.7,2.7,2.4,4.1c0.4,0.7,0.8,0.8,1.6,0.5c3.8-1.5,7.7-2.9,11.5-4.4c0.3-0.1,0.6-0.2,0.9-0.3
			C236.3,265.9,236.1,265.4,236,264.8z M214.3,258.2c-0.2-0.3-0.8-0.7-0.9-1.3c-0.2-1,1.3-3.2,2-3.2c0.9,0,1.9,1.4,1.9,2.9
			C217.3,257.7,216.4,258.2,214.3,258.2z"/>
	</g>
	<g>
		<path class="st0" d="M242.3,302.7c-0.5-0.2-0.9-0.4-1.3-0.7c-4.7-3.1-9.2-6.5-13.8-9.8c-3-2.2-6.1-4.3-9.4-6.6
			c-0.5,1.4-0.9,2.5-1.3,3.5c-3.1,9.1-6,18.3-9.3,27.4c-0.6,1.6-2.3,2.9-3.5,4.3c-1.3-1.1-3-2-3.9-3.4c-4.1-6.8-8-13.8-12.2-21
			c-0.9,1.3-1.6,2.2-2.3,3.2c-4.6,6.9-9,13.9-13.8,20.8c-0.8,1.1-2.6,2.2-3.9,2.2c-0.9,0-2.2-1.8-2.7-3.1
			c-3.2-9.4-6.2-18.9-9.4-28.7c-10.1,4.4-19.9,8.7-30,13.1c11.3,29.7,22.5,59.2,33.8,89.1c1.2-1.5,2-2.5,2.9-3.5
			c7.2-9.1,14.4-18.3,21.7-27.4c3.6-4.5,4.6-4.4,8.8-0.2c7.7,7.5,15.5,14.9,23.2,22.2c0,0,0.4-0.8,0.6-1.6
			c4.6-13.7,9.3-27.5,13.9-41.2c3.5-10.4,7-20.8,10.5-31.2c0.3-0.9,0.7-2,1.3-2.6C242.6,305.7,242.6,304.2,242.3,302.7z"/>
	</g>
	<g>
		<path class="st0" d="M279.7,293.6c-10.9,1.3-21.4,2.6-32,3.8c0,2.2-0.1,4.5-0.3,6.7c0.1,1,0,2,0,3.1c-0.1,1.5,0,3,0,4.5
			c0,0.2,0,0.3-0.1,0.4c-0.2,23.6-0.5,47.1-0.8,70.7c0,1.1,0,2.1,0,3.3c1.5,0,2.6,0.1,3.6,0c6.6-0.8,13.2-1.6,19.8-2.3
			c5.5-0.6,5.5-0.6,5.7-6c1.3-25.8,2.6-51.6,3.9-77.4C279.7,298.2,279.7,296,279.7,293.6z"/>
	</g>
	<g>
		<path class="st0" d="M302.9,243.6c-1.3-6.7-6.6-10.9-12.9-10.5c-3.4,0.2-6.8,0.7-10.2,1.2c-2.8,0.4-5.7,0.9-8.5,1.4
			c0.2,11.9,0.5,23.6,0.7,35.5c2,0.2,3.9,0.4,5.8,0.6c6.3,0.5,12.1-0.3,16.9-4.9C301.3,260.5,304.6,252.9,302.9,243.6z M284.8,260.7
			c-1.2,0.4-1.8-0.1-1.8-1.4c0-1.6,0-3.2,0-4.9c0,0,0,0,0,0c0-0.6,0-1.3,0.1-1.9c0-0.1,0-0.2,0.1-0.2c0-0.4,0.1-0.9,0.1-1.3
			c0-0.1,0-0.2,0-0.2c0-0.1,0-0.1,0-0.2c0-0.3,0-0.6,0-0.9c0-1.7,1-2.7,3.1-3.2c1.5-0.4,2.8,0.2,3.6,1.5
			C292.9,253.3,289.5,259.1,284.8,260.7z"/>
	</g>
	<g>
		<path class="st0" d="M374.9,211.2c-10-5-19.4-9.7-28.8-14.4c-2.7-1.3-5.3-2.7-8-4c-3.5-1.6-5.4-0.4-5.2,3.4
			c0.3,5.9,0.6,11.7,1,17.6c0,0.6-0.1,1.3-0.1,2.4c-10.3,0.7-20.5,1.3-31.3,2c0.4-30.7,0.8-61,1.3-92.2c5.8,4.8,10.9,9,16,13.2
			c6.7,5.5,13.3,11.1,20,16.5c1.3,1,3.7,2.2,4.8,1.6c1.2-0.6,1.9-3.1,2-4.7c0.4-8.5,0.5-17.1,0.8-25.6c0-0.8,0.1-1.5,0.2-2.6
			c10.9,0.8,21.7,1.5,32.7,2.3C378.4,154.9,376.7,182.8,374.9,211.2z"/>
	</g>
	<g>
		<path class="st0" d="M330,292.6c10.8,0.7,21.1,1.4,31.4,2.1c0.4,0,0.8,0.2,1.5,0.4c-1.7,27.9-3.4,55.7-5.2,84.1
			c-1.4-0.7-2.5-1.1-3.6-1.6c-10.8-5.4-21.6-10.8-32.4-16.2c-4.7-2.3-6.2-1.3-6,4c0.3,6,0.6,12,0.9,17.9c0,0.2-0.1,0.4-0.3,1.1
			c-10.1,0.6-20.3,1.3-31.2,2c0.5-30.7,0.9-61,1.4-92.2c5.9,4.9,11.2,9.2,16.4,13.6c6.8,5.7,13.6,11.4,20.5,17
			c1.1,0.9,3.1,1.5,4.4,1.2c0.7-0.2,1.3-2.5,1.3-3.9C329.5,312.5,329.7,302.7,330,292.6z"/>
	</g>
</g>
</svg>
