<?xml version="1.0" encoding="utf-8"?>
<!-- Generator: Adobe Illustrator 21.0.0, SVG Export Plug-In . SVG Version: 6.00 Build 0)  -->
<svg version="1.1" id="Layer_1" xmlns="http://www.w3.org/2000/svg" xmlns:xlink="http://www.w3.org/1999/xlink" x="0px" y="0px"
	 viewBox="0 0 343 238" enable-background="new 0 0 343 238" xml:space="preserve">
<g transform="matrix( 1, 0, 0, 1, 0,0) ">
	<g>
		<g id="Layer0_0_FILL">
			<path fill="#FFFFFF" d="M42.8,166.8c-6.7-13.5-11.5-24.9-14.5-34.2c-1.7-6-3.2-11.8-4.2-17.4c-10.8,3.3-14.8,13-12,29
				c0,0.1,0,0.2,0.1,0.3c4.7,9.2,11,17.8,18.9,25.8c5.2,5.2,10.6,9.8,16.4,13.7v-0.1l0.1,0.1C49.9,183.7,48.3,177.9,42.8,166.8
				 M126.8,158.7c-7.8,1.4-14.7,5.1-20.6,11c-7.7,7.7-11.5,17-11.5,27.9c0,0.6,0.1,1.2,0.2,1.8c0,1.4,0.1,2.8,0.3,4.2
				c0.7,5.5,2.6,10.5,5.5,15c1.5,2.4,3.3,4.6,5.4,6.7h0.1c2,2,4.1,3.8,6.2,5.2c0.8,0.5,1.6,0.9,2.4,1.4c5.8,3.3,12.2,5,19.4,5
				c10.9,0,20.2-3.9,27.9-11.6c2.1-2.1,3.9-4.3,5.4-6.7c4-6.2,6-13.2,6-21c0-3.4-0.4-6.6-1.1-9.6c-0.1-0.3-0.1-0.6-0.1-0.8
				c-0.4-1.4-0.9-2.8-1.4-4.2c-0.3-1-0.7-1.9-1.2-2.7c-2.1-2.8-4-5.7-5.8-8.6c-0.6-0.7-1.3-1.3-1.9-1.9c-0.8-0.8-1.5-1.5-2.3-2.2
				c-3.7-3.1-7.6-5.5-11.9-7c-1.6-0.5-3.1-0.9-4.6-1.4c-2.9-0.7-5.9-1-9-1C131.5,158.1,129.1,158.3,126.8,158.7 M130.7,199.2
				c0.5,0,0.9,0,1.2,0.1c5.3,0.5,10.6,1.2,15.8,2.2l3.7,0.1c6.4-0.3,11.5-2.3,15.2-6c2.8-3.6,3.6-7.6,2.6-12c0.5,1.3,0.9,2.7,1.3,4
				c0,0.2,0.1,0.4,0.2,0.7c0.5,4.2-0.2,7.8-2.2,10.8c-0.2,0.2-0.3,0.4-0.4,0.6c-5.1,5.7-12.1,7.7-20.9,6c-4.3-0.8-8.8-1.3-13.2-1.7
				c-10.7,0.3-18.2,3.3-22.2,9c-0.8,1.4-1.3,2.8-1.7,4.2c-0.1,0.5-0.2,0.9-0.2,1.3c-0.6,4.1,0.6,7.5,3.8,10.4
				c-2.1-1.4-4.1-3-5.9-4.9l-0.1-0.1c-0.9-1.7-1.4-3.5-1.6-5.4c-0.3-3.3,0.6-6.8,2.6-10.4c1.6-2.1,3.7-3.8,6.2-5.2
				C118.7,200.6,124,199.4,130.7,199.2 M16.7,82.5c1.3-0.6,2.7-1.1,4-1.4c0.2-8,1.1-15.5,2.8-22.6c-6.1,2.2-10.5,2.8-13.3,1.9
				C6,69.8,3.4,79.9,2.5,90.8C6.4,87.4,11.1,84.7,16.7,82.5 M33,114c-1.8,0-3.5,0.1-5,0.4c1.2,5.9,2.6,12,4.5,18.2
				c3,9.3,7.8,20.7,14.5,34.2c0.2,0.3,0.3,0.6,0.5,0.9c6.3,11,7.9,17.4,4.8,19.2c11.4,6.6,23.9,10.6,37.5,12.1c0-0.4,0-0.9,0-1.4
				c0-12.4,4.3-22.9,12.8-31.5c4.9-4.9,10.5-8.4,16.6-10.5c-15.8-7-33.3-16.8-52.5-29.6C54.7,118.2,43.5,114.2,33,114 M2.2,96.5
				c-0.1,1.3-0.1,2.5-0.1,3.8c0,12.5,2,24.2,6.1,35c-0.6-12.9,4.3-21.2,14.8-25.1c-1.4-8.4-2.2-16.3-2.2-23.9
				c-1.2,0.4-2.4,0.8-3.6,1.3C11,89.9,6,92.9,2.2,96.5L2.2,96.5 M31.1,30c-7.6,7.6-13.7,15.9-18.2,24.9c2.3,0.8,6.3,0.2,12.1-1.9
				c3.5-12,9.3-22.9,17.3-32.8C38.4,23.2,34.7,26.4,31.1,30 M150.4,121.7c0-15.4,3.1-29.6,9.4-42.5c-53.4-8.6-98.3-6.8-134.8,5.4
				c0,7.8,0.7,15.8,2,24.2c1.4-0.4,2.9-0.7,4.5-0.9c11-0.4,26.7,5.7,47,18.3c18.1,11.9,34.6,21,49.4,27.3c2-0.3,4.1-0.4,6.2-0.4
				c8.7,0,16.6,2.3,23.7,6.9C152.8,148.2,150.4,135.4,150.4,121.7 M158.9,19.1c-0.2-0.1-0.3-0.2-0.4-0.3
				c-26.8-11.6-58.5-5.7-95,17.8C49,46,37.3,52.6,28.3,56.4c-1.8,7.4-2.8,15-3.1,23c37.1-12.4,82.8-14,137.2-5
				c4.3-7.9,9.9-15.3,16.8-22.2c2-2,4.1-3.8,6.1-5.5c-3.8-5.9-8.4-11.5-13.6-16.7v0.2C167.5,26,163.2,22.3,158.9,19.1 M152.7,15
				c-5.2-3.2-10.6-5.8-16.1-7.8c-11-4.1-22.8-6.2-35.3-6.2C88.7,1,77,3.1,66.1,7.2c-5.6,2.2-11,4.8-16.2,7.9v0.2l-1.4,0.6l-0.1,0.2
				c0,0-0.1,0-0.2,0.1c-8.5,10.6-14.7,22.3-18.5,35c8.7-3.9,20.4-10.6,35-19.9C96.4,10.5,125.7,5,152.7,15 M335.3,87
				c-0.3-0.6-0.4-1-0.4-1.4c-7.3-17.1-18.6-30.8-34-41.2c-15.8-10.7-33.2-16-52.4-16c-21.8,0-41,6.6-57.4,19.8
				c-1.1,0.9-2.2,1.8-3.2,2.7c-1.8,1.5-3.6,3.1-5.3,4.8c-6.1,6.2-11.2,12.8-15.2,19.8c-0.9,1.4-1.7,2.9-2.4,4.6
				c-6.4,12.6-9.7,26.5-9.7,41.7c0,15.3,3.3,29.2,9.8,41.8c0.7,1.4,1.4,2.8,2.1,4.2c0.1,0.2,0.2,0.4,0.3,0.5c2,3.3,4.2,6.6,6.7,9.8
				c2.6,3.3,5.4,6.5,8.4,9.6c18.3,18.3,40.3,27.5,65.9,27.5c25.7,0,47.7-9.1,66-27.5c18.3-18.2,27.4-40.2,27.4-65.9
				C341.9,110,339.7,98.4,335.3,87 M325.3,89.6l-5.9,22.8l6.1,35.4l6.8,1.9l-0.8,2.3c-3.4,9.5-8.4,18.2-14.9,26.1
				c-6.4,7.7-14,14.2-22.8,19.5l-2.7,1.6l3.4-19.5l-30.3-5.1l-32.6,14.3l0.1,13.7l12.2,5.8l-0.4,1.4c-1,0-1.8-0.1-2.4-0.2
				c-7.8-0.6-15.6-2.4-23.2-5.2l-2.7-1l0.2-1.2l11.4-0.8l-0.1-13.2l-25.9-27l-24.6-5.6l1.4,18.9l-2.7-3.7c-0.5-0.8-0.9-1.5-1.4-2.3
				c-0.2-0.4-0.4-0.7-0.6-1c-0.7-1.1-1.4-2.3-1.9-3.4c-7.1-13-10.7-27.1-10.7-42.2l0.1-5.8h0.9l15.9-30.3l6.9-24.2l3.5-3.8
				c0.3-0.2,1.2-0.9,2.7-2.2c0.8-0.7,1.9-1.6,3.2-2.7c1.1-1,2.3-2,3.8-3.2l34.3-14.5c3.1-0.6,6.3-1,9.6-1.2c1.1-0.1,2.9-0.2,5.4-0.2
				l0.1,0.6L223.4,44l10.8,14.7l38.9,9.3l19-11.8l-12.3-16.6l0.2-0.2l9.2,3.9l9.5,12.4l25.9,28.6l4.1,0.6l2.2,5.4L325.3,89.6
				 M272.1,72.1L234,63.2l-23.9,25.7l11.5,37.1l36.2,6.4l25.9-28.4L272.1,72.1 M205.3,90.6l-24.6-1.4l-15.3,29.4l9.9,31.5l25.5,5.9
				l16.2-28.1L205.3,90.6 M296.5,175l24.5-26.3l-6.1-34.7l-27.5-6.8L261.3,136l4.9,33.6L296.5,175z"/>
		</g>
	</g>
</g>
</svg>
