<?xml version="1.0" encoding="UTF-8"?>
<svg width="15px" height="12px" viewBox="0 0 15 12" version="1.1" xmlns="http://www.w3.org/2000/svg" xmlns:xlink="http://www.w3.org/1999/xlink">
    <!-- Generator: Sketch 60.1 (88133) - https://sketch.com -->
    <title>Combined Shape</title>
    <desc>Created with Sketch.</desc>
    <g id="Sportsbook" stroke="none" stroke-width="1" fill="none" fill-rule="evenodd">
        <g id="League-::-1X2" transform="translate(-229.000000, -54.000000)" fill="#FFFFFF">
            <g id="Group" transform="translate(225.000000, 49.000000)">
                <path d="M5.5,5 C6.32842712,5 7,5.67157288 7,6.5 L7,15.5 C7,16.3284271 6.32842712,17 5.5,17 C4.67157288,17 4,16.3284271 4,15.5 L4,6.5 C4,5.67157288 4.67157288,5 5.5,5 Z M11.5,8 C12.3284271,8 13,8.67157288 13,9.5 L13,15.5 C13,16.3284271 12.3284271,17 11.5,17 C10.6715729,17 10,16.3284271 10,15.5 L10,9.5 C10,8.67157288 10.6715729,8 11.5,8 Z M17.5,12 C18.3284271,12 19,12.6715729 19,13.5 L19,15.5 C19,16.3284271 18.3284271,17 17.5,17 C16.6715729,17 16,16.3284271 16,15.5 L16,13.5 C16,12.6715729 16.6715729,12 17.5,12 Z" id="Combined-Shape"></path>
            </g>
        </g>
    </g>
</svg>