<?xml version="1.0" encoding="utf-8"?>
<!-- Generator: Adobe Illustrator 21.0.0, SVG Export Plug-In . SVG Version: 6.00 Build 0)  -->
<svg version="1.1" id="Layer_1" xmlns="http://www.w3.org/2000/svg" xmlns:xlink="http://www.w3.org/1999/xlink" x="0px" y="0px"
	 viewBox="0 0 399.4 288.6" enable-background="new 0 0 399.4 288.6" xml:space="preserve" fill="#ffffff">
<g>
	<path d="M229.9,82.7c-11.5,0.1-23,0-34.5,0c-2.8,0-3,0.1-1.8,2.7c2.6,5.3,3,10.8,1.6,16.5c-0.6,2.5-1,5-1.5,7.4
		c-5.3,26.4-10.5,52.9-15.8,79.3c-1.8,8.8-5.4,16.5-12.7,22c-0.1,0.1-0.9,0.9-0.9,0.9c1.8,0.5,3.7,1.1,5.6,1.3c0.1,0,0.3,0,0.4,0.1
		c2.3,0.3,4.6,0.4,6.9,0.3c8.4-0.4,17-2.8,24.1-7.3c5.2-3.4,8.5-8,9.7-14.2c3-16,6.2-31.9,9.3-47.9c3.8-19.6,7.6-39.2,11.5-58.8
		C232.1,83,231.7,82.7,229.9,82.7z"/>
	<path d="M301.3,12.7l-199.9-1.1l-81,126.5l179.3,145.8l180.6-144L301.3,12.7z M199.8,257.9L99.4,176.3c4.6,1,9.4,1.5,14.2,1.6
		c10.8,0.1,21.1-1.9,30.8-7.1c27.2-14.6,36.8-45.8,35.2-65.8c-0.9-10.8-5.5-19.6-13.9-26.5c-8.2-6.8-18-8.8-27.8-8.9
		c-7.7,0.1-14.8,0.9-21.5,3.4c-17,6.1-29.2,16.8-32.6,35.5c-1.4,7.7-0.6,15.1,4.2,21.6c5.7,7.7,13.8,10.7,23.1,11
		c11.4,0.4,21.6-3.2,30.7-9.8c0.4-0.3,1-0.5,1.5-0.7c0.1,0.6,0.3,1.2,0.2,1.8c-1.6,9.3-4.5,18.2-9.3,26.3c-2.1,3.5-4.8,6.8-7.7,9.8
		c-2.9,3-6.8,3.9-11,3.2c-4-0.7-7.3-3.6-7.8-7.2c-0.5-4.2,1.6-7.3,4.8-9.6c1.7-1.2,1.4-1.9,0.3-3.2c-7.6-8.5-23-8.8-30.8-0.5
		c-2.3,2.5-3.5,5.3-3.7,8.2l-31.2-25.4l65.2-101.9l100,0.5c-9.9,2-17.5,10.8-17.5,21.3c0,12,9.7,21.7,21.7,21.7
		c12,0,21.7-9.7,21.7-21.7c0-10.4-7.4-19.2-17.2-21.2l68.9,0.4l63.5,102.4l-34.1,27.2c2.1-12.5,4.8-25,7.1-37.5
		c1-5.3,1.7-10.6,2.5-15.9c0-1.5,0-3,0-4.6c-0.2-1-0.4-2-0.5-3c-0.8-8-4.4-13.9-12.3-16.7c-8.8-3.1-18-4-27.2-3.2
		c-7.6,0.6-15.2,2.3-22.8,2.8c-7.1,0.5-14.5,1.8-21.2-2.4c-1.3-0.8-1.5,0.2-1.7,1.2c-1.7,8.1-0.9,15.8,3.1,23
		c2.3,4.1,5.7,6.7,10.5,7.5c6,1,11.3-1.2,16.6-3.3c4.4-1.8,4.9-3.3,4.1-7.9c-0.3-1.4-0.3-3,0.1-4.5c1.4-5.7,8.1-6.8,13.4-5.3
		c2.2,0.6,3.7,2.2,4.2,4.3c1.6,7.1-0.1,14.9-8.4,18.2c-8.5,3.4-17.2,6.5-25.9,9.4c-7.5,2.5-14.7,5.3-21.1,10
		c-9.2,6.8-15.1,15.6-16.3,27.1c-1.2,11.8,7,22,19.6,24.8c12.3,2.7,23.4-0.5,33.7-7.1c4.6-2.9,4.7-2.9,5.3,2.5
		c0.2,2.1,1.1,2.5,3.1,2.5c2.1,0,4.2,0,6.3,0L199.8,257.9z M141.7,122.7c-3.1,3.8-7.1,6.5-12.1,7.3c-7.3,1.1-11.7-1.9-13.2-9.1
		c-0.5-2.6-0.7-5.3-1-7.6c0.8-11.2,3.2-21.4,10.1-30.1c2.9-3.7,6.6-6.1,11.3-6.7c7.4-1,12.3,2.4,13.7,10.2
		C152.9,99.8,150.5,112.1,141.7,122.7z M291,124.4c-2.1,10.5-3.9,20.1-5.8,29.8c-0.3,1.3-0.6,2.6-0.7,4c-0.6,7.6-5.9,11.3-12.1,13.8
		c-5.6,2.3-11.5-2.1-12.3-8.8c-0.6-5,0.3-9.8,2.8-14.2c4.8-8.5,11.3-15.6,19.6-20.8C284.9,126.6,287.8,125.8,291,124.4z"/>
</g>
</svg>
