<svg xmlns="http://www.w3.org/2000/svg" width="70" height="70" viewBox="0 0 70 70">
  <defs>
    <style>
      .cls-1 {
        fill: #2abf9a;
        fill-rule: evenodd;
      }
    </style>
  </defs>
  <path class="cls-1" d="M1722.09,227.943a8,8,0,1,0,13.66-5.654,8.042,8.042,0,0,0-3.7-2.107,7.3,7.3,0,0,0-1.97-.258,7.658,7.658,0,0,0-5.66,2.365,7.641,7.641,0,0,0-2.33,5.654M1718.65,236l-5.48-8.131q-5.52,3.771-10.77,8.131h16.25m-34.61,0h2.48l-2.48-2.624V236m23.39-45.717-1.41-2.587q-3.21-5.655-7.1-3.474-3.885,2.143-.67,7.8l1.3,2.365,2.59-1.441-2.22-3.955a1.437,1.437,0,0,1,.44-2.217,1.459,1.459,0,0,1,2.15.776l3.26,5.839c0.56,0.986.48,1.688-.26,2.107l-1,.554,1.44,2.551,0.85-.481a1.427,1.427,0,0,1,2.07.813l3.59,6.32q0.825,1.515-.48,2.217c-0.86.469-1.56,0.21-2.11-.776l-2.74-4.8-2.55,1.4,0.04,0.111,1.74,3.105q3.21,5.691,7.07,3.548,3.915-2.181.7-7.873l-1.74-3.141q-1.965-3.474-4.03-3.474,1.065-1.811-.93-5.285m-23.39,7.8a17.078,17.078,0,0,1,2.07,2.07l1.04,1.256a15.218,15.218,0,0,1,2.99,8.353c0.33,3.474,1.21,6.135,2.67,7.983l1.44,1.774,4.59-3.733,1.85,2.329-6.88,5.58-3.55-4.361a15.1,15.1,0,0,1-2.97-8.2,15.587,15.587,0,0,0-2.77-8.278l-0.48-.555v13.121l7.96,9.793-2.34,1.885-5.62-6.948v10.94l4.59,4.915h6.81a163.079,163.079,0,0,1,15.17-11.9c0.2-.123.41-0.247,0.63-0.37l-25.72-38.4c-0.25.172-.5,0.332-0.74,0.48-0.25.2-.5,0.382-0.74,0.554v11.716M1711.28,166h-13.25q-7.14,3.844-14.03,8.242v7.17A224.391,224.391,0,0,1,1711.28,166m2.81,13.084-1.44-2.55-7.77,4.324,7.47,13.3,2.19-1.22a1.447,1.447,0,0,1,.89-1.922c1.01-.591,1.83-0.333,2.48.776l4.44,7.909q0.81,1.515-.48,2.218c-0.87.493-1.57,0.234-2.11-.776l-2.71-4.805-2.59,1.441,1.82,3.179q3.18,5.691,7.07,3.548,3.885-2.181.66-7.872l-2.59-4.657q-3.21-5.691-7.1-3.511a2.193,2.193,0,0,0-1.04,1.293L1708.91,182l5.18-2.919M1754,206.766v-1.515A162.338,162.338,0,0,0,1697.44,236h2.29A161.074,161.074,0,0,1,1754,206.766M1747.52,236H1754V208.5a139.436,139.436,0,0,0-15.85,5.655L1747.52,236m6.48-69.851h-1.89L1754,173.8v-7.651m0,14.525-3.67-14.525h-29.02c-1.08.444-2.15,0.887-3.18,1.331a7.552,7.552,0,0,0-.85.369l18.43,42.391a3.062,3.062,0,0,1,.63-0.3,141.249,141.249,0,0,1,17.66-6.172v-23.1m-10.74,12.381c0.94-.32,1.21-1.023.82-2.107l-2.41-6.874a1.515,1.515,0,0,0-2-1.109l-0.89.3-0.96-2.809,1.07-.333q1.23-.442.6-2.032l-2.22-6.283c-0.37-1.084-1.03-1.466-1.97-1.146a1.439,1.439,0,0,0-.81,2.107l1.52,4.324-2.78,1-0.89-2.55q-2.175-6.173,1.96-7.688,4.23-1.477,6.41,4.694l0.96,2.772q1.335,3.769,0,5.359c1.38,0.271,2.51,1.663,3.37,4.176l1.22,3.326q2.19,6.135-2.04,7.651-4.14,1.478-6.33-4.657l-1.22-3.326-0.03-.148,2.81-.961,1.85,5.211A1.416,1.416,0,0,0,1743.26,193.055Z" transform="translate(-1684 -166)"/>
</svg>
