<svg xmlns="http://www.w3.org/2000/svg" width="40" height="40" viewBox="0 0 40 40">
  <defs>
    <style>
      .cls-1 {
        fill: #ffffff;
        fill-rule: evenodd;
      }
    </style>
  </defs>
  <path class="cls-1" d="M1120.68,31.616a19.36,19.36,0,0,0-4.53-6.727,19.95,19.95,0,0,0-28.3,0,19.218,19.218,0,0,0-5.84,14.138,19.2,19.2,0,0,0,5.79,14.033l0.05,0.053a22.154,22.154,0,0,0,3.15,2.628c0.39,0.245.79,0.49,1.21,0.736a20.068,20.068,0,0,0,23.94-3.364,19.156,19.156,0,0,0,5.84-14.085,22.029,22.029,0,0,0-.52-4.888c-0.04-.14-0.07-0.263-0.11-0.368-0.21-.736-0.44-1.454-0.68-2.155m-11.79,9.408,1.84,0.105a11.511,11.511,0,0,0,7.74-3.048,6.978,6.978,0,0,0,1.31-6.1,17.684,17.684,0,0,1,.63,2.05c0.04,0.105.07,0.228,0.11,0.368a8.108,8.108,0,0,1-1.11,5.466l-0.21.315q-3.885,4.309-10.57,3-3.315-.578-6.74-0.841-8.145.21-11.31,4.572a9.228,9.228,0,0,0-.84,2.1,5.745,5.745,0,0,0,1.79,5.939,19.945,19.945,0,0,1-3-2.47l-0.05-.053q-1.89-3.679.53-7.989,3.15-4.362,11.31-4.573A85.3,85.3,0,0,1,1108.89,41.023Z" transform="translate(-1082 -19)"/>
</svg>
