<?xml version="1.0" encoding="UTF-8"?>
<svg width="22px" height="24px" viewBox="0 0 22 24" version="1.1" xmlns="http://www.w3.org/2000/svg" xmlns:xlink="http://www.w3.org/1999/xlink">
    <!-- Generator: Sketch 59.1 (86144) - https://sketch.com -->
    <title>Group 10</title>
    <desc>Created with Sketch.</desc>
    <g id="Sportsbook" stroke="none" stroke-width="1" fill="none" fill-rule="evenodd">
        <g id="Group-10" fill="#FFFFFF">
            <path d="M2,2 L2,4 C2,5.1045695 2.8954305,6 4,6 C5.1045695,6 6,5.1045695 6,4 L6,4 L6,2 L6,2 L16,2 L16,4 C16,5.1045695 16.8954305,6 18,6 C19.1045695,6 20,5.1045695 20,4 L20,4 L20,2 L20,2 L22,2 L22,7 L0,7 L0,2 L2,2 Z M4,0 C4.55228475,-1.01453063e-16 5,0.44771525 5,1 L5,4 C5,4.55228475 4.55228475,5 4,5 C3.44771525,5 3,4.55228475 3,4 L3,1 C3,0.44771525 3.44771525,1.01453063e-16 4,0 Z M18,0 C18.5522847,-1.01453063e-16 19,0.44771525 19,1 L19,4 C19,4.55228475 18.5522847,5 18,5 C17.4477153,5 17,4.55228475 17,4 L17,1 C17,0.44771525 17.4477153,1.01453063e-16 18,0 Z" id="Combined-Shape"></path>
            <path d="M22,8 L22,24 L0,24 L0,8 L22,8 Z M3,21 L1,21 L1,23 L3,23 L3,21 Z M6,21 L4,21 L4,23 L6,23 L6,21 Z M9,21 L7,21 L7,23 L9,23 L9,21 Z M12,21 L10,21 L10,23 L12,23 L12,21 Z M15,21 L13,21 L13,23 L15,23 L15,21 Z M3,18 L1,18 L1,20 L3,20 L3,18 Z M6,18 L4,18 L4,20 L6,20 L6,18 Z M9,18 L7,18 L7,20 L9,20 L9,18 Z M12,18 L10,18 L10,20 L12,20 L12,18 Z M18,18 L16,18 L16,20 L18,20 L18,18 Z M15,18 L13,18 L13,20 L15,20 L15,18 Z M21,18 L19,18 L19,20 L21,20 L21,18 Z M3,15 L1,15 L1,17 L3,17 L3,15 Z M6,15 L4,15 L4,17 L6,17 L6,15 Z M9,15 L7,15 L7,17 L9,17 L9,15 Z M12,15 L10,15 L10,17 L12,17 L12,15 Z M18,15 L16,15 L16,17 L18,17 L18,15 Z M15,15 L13,15 L13,17 L15,17 L15,15 Z M21,15 L19,15 L19,17 L21,17 L21,15 Z M3,12 L1,12 L1,14 L3,14 L3,12 Z M6,12 L4,12 L4,14 L6,14 L6,12 Z M9,12 L7,12 L7,14 L9,14 L9,12 Z M12,12 L10,12 L10,14 L12,14 L12,12 Z M18,12 L16,12 L16,14 L18,14 L18,12 Z M15,12 L13,12 L13,14 L15,14 L15,12 Z M21,12 L19,12 L19,14 L21,14 L21,12 Z M9,9 L7,9 L7,11 L9,11 L9,9 Z M12,9 L10,9 L10,11 L12,11 L12,9 Z M15,9 L13,9 L13,11 L15,11 L15,9 Z M18,9 L16,9 L16,11 L18,11 L18,9 Z M21,9 L19,9 L19,11 L21,11 L21,9 Z" id="Combined-Shape"></path>
        </g>
    </g>
</svg>