<svg xmlns="http://www.w3.org/2000/svg" width="40" height="40" viewBox="0 0 40 40">
  <defs>
    <style>
      .cls-1 {
        fill: #fff;
        fill-rule: evenodd;
      }
    </style>
  </defs>
  <path id="Rounded_Rectangle_1" data-name="Rounded Rectangle 1" class="cls-1" d="M474,408h16v18H474a2,2,0,0,1-2-2V410A2,2,0,0,1,474,408Zm20,0h16a2,2,0,0,1,2,2v14a2,2,0,0,1-2,2H494V408Zm-20,22h16v18H474a2,2,0,0,1-2-2V432A2,2,0,0,1,474,430Zm20,0h18v16a2,2,0,0,1-2,2H494V430Zm-6.048-10.6a3.8,3.8,0,0,1-1.414,2.532,2.429,2.429,0,0,1-2.224.667,3.307,3.307,0,0,1-2.082-1.2c-0.067-.089-0.141-0.192-0.222-0.311a4.015,4.015,0,0,1-.626-2.865,2.717,2.717,0,0,1,.161-0.689,3.654,3.654,0,0,1,1.233-1.843,0.745,0.745,0,0,1,.182-0.111c-0.041-.134-0.088-0.267-0.142-0.4a7.171,7.171,0,0,0-1.576-2.422,6.606,6.606,0,0,0-1.96,3.51,0.847,0.847,0,0,0,.182.022,3,3,0,0,1,1.778.955,4.746,4.746,0,0,0-.2.911,4.531,4.531,0,0,0,.687,3.177,2.761,2.761,0,0,0,.364.444A3.769,3.769,0,0,1,481,423.247a7.18,7.18,0,0,1-4.049.689,3.32,3.32,0,0,1-2.284-1.533,3.968,3.968,0,0,1-.646-2.866,3.885,3.885,0,0,1,1.415-2.554,8.536,8.536,0,0,1,2.794-.853,9.553,9.553,0,0,1,2.548-4.078q-0.405-.333-0.688-0.6l-0.1.378a3.469,3.469,0,0,1-2.3,2.643,4.276,4.276,0,0,1-3.415-1.244,0.511,0.511,0,0,1-.081-0.866,6.839,6.839,0,0,1,2.789-2.066,3.883,3.883,0,0,1,2.525.044l0.263,0.111a1.236,1.236,0,0,1,.546-0.444,0.509,0.509,0,0,1,.606.422l0.364,0.889a1.888,1.888,0,0,0,.626.755,8.717,8.717,0,0,1,1.819,2.665c0.04,0.1.087,0.215,0.141,0.334a3.239,3.239,0,0,1,1.516-.089,2.723,2.723,0,0,1,1.921,1.555,3.966,3.966,0,0,1,.646,2.865m-5.7-2.288a1.6,1.6,0,0,0-.122.578,0.685,0.685,0,0,1,.021.155,0.482,0.482,0,0,0,.242.444,0.39,0.39,0,0,0,.222.023,0.6,0.6,0,0,0,.263-0.111,1.709,1.709,0,0,0,.4-0.6,1.2,1.2,0,0,0,.122-0.733,0.543,0.543,0,0,0-.243-0.444,0.42,0.42,0,0,0-.485.111,1.383,1.383,0,0,0-.424.577m-6.333.356a0.377,0.377,0,0,0-.444.088,1.575,1.575,0,0,0-.424.6,1.727,1.727,0,0,0-.1.578,0.678,0.678,0,0,1-.02.155,0.572,0.572,0,0,0,.283.444,0.3,0.3,0,0,0,.2.023,0.6,0.6,0,0,0,.243-0.111,1.413,1.413,0,0,0,.4-0.6,1.2,1.2,0,0,0,.121-0.733,0.484,0.484,0,0,0-.263-0.444m33.045,3.34a3.608,3.608,0,0,1-1.038.615,4.559,4.559,0,0,1-1.375.247,3.663,3.663,0,0,1-2.292-.739,0.643,0.643,0,0,1-.193-0.143,2.6,2.6,0,0,1-.772-0.944,4.209,4.209,0,0,1,0,.636,2.262,2.262,0,0,0,.024.328,5.733,5.733,0,0,0,.1,1.108,4.156,4.156,0,0,0,.8,2.071l-2.389-.02a4.358,4.358,0,0,0,.748-2.051,8.946,8.946,0,0,0,.121-1.19,0.956,0.956,0,0,0-.024-0.205,5.088,5.088,0,0,0,0-.677,2.125,2.125,0,0,1-.531.821,0.758,0.758,0,0,0-.169.143,3.737,3.737,0,0,1-2.461.882,3.82,3.82,0,0,1-2.461-.861,2.471,2.471,0,0,1-.748-0.944,2.335,2.335,0,0,1-.29-1.169c0-.178.008-0.362,0.024-0.554a4.6,4.6,0,0,1,.7-1.723,12.482,12.482,0,0,1,1.617-1.5A16.906,16.906,0,0,0,502.981,410a16.8,16.8,0,0,0,4.7,4.922q0.555,0.451,1.641,1.5a5.326,5.326,0,0,1,.627,1.723,3.357,3.357,0,0,1,.049.553A2.686,2.686,0,0,1,508.965,420.812Zm-31.11,11.232,1.764,4.831a8.244,8.244,0,0,0-4.234-.664l-1.361-3.477a0.531,0.531,0,0,1,.277-0.69,1.715,1.715,0,0,1,.2-0.051l3.352,0.051m1.512,13.778a0.749,0.749,0,0,1-.328-0.358l-3.175-8a6.649,6.649,0,0,1,4.385,1.176l0.68,2.147L484,432.019l3.478-.026a0.7,0.7,0,0,1,.378.179,0.712,0.712,0,0,1,.152.384l-0.026.178-5.015,12.73a1.347,1.347,0,0,1-.353.409,0.666,0.666,0,0,1-.454.128l-2.369-.026a0.629,0.629,0,0,1-.428-0.153M506.6,434.1a1.258,1.258,0,0,1,.848.582l2.348,3.393a1.655,1.655,0,0,1,.217.582l-7.143-2.385a0.983,0.983,0,0,1-.631-0.407l-2.467-3.82,0.02-.02a0.732,0.732,0,0,1,.572,0L506.6,434.1m3.413,4.984a0.315,0.315,0,0,1-.019.1,1.23,1.23,0,0,1-.119.271L506,445.832a0.62,0.62,0,0,1-.651.1l-6.907-2.191a1.614,1.614,0,0,1-.375-0.272L502.2,436.7a0.424,0.424,0,0,1,.513-0.078l7.3,2.463M501.8,436.02a0.383,0.383,0,0,1,.019.5l-3.986,6.593-0.019-.019a0.055,0.055,0,0,1,.019-0.039L496.1,439.2a1.011,1.011,0,0,1,.1-0.989l3.3-5.9,2.309,3.7m-2.644.911a0.256,0.256,0,0,0-.218-0.252,0.445,0.445,0,0,0-.355.213,1.352,1.352,0,0,0-.276.563,0.805,0.805,0,0,0-.02.523,0.26,0.26,0,0,0,.237.252,0.417,0.417,0,0,0,.355-0.193,1.333,1.333,0,0,0,.277-0.543,1.359,1.359,0,0,0,0-.563m6.906,6.846a0.7,0.7,0,0,0-.513-0.311,1.183,1.183,0,0,0-.651.155,0.982,0.982,0,0,0-.454.524,0.647,0.647,0,0,0,.039.582,0.789,0.789,0,0,0,.513.291,0.949,0.949,0,0,0,.651-0.175,0.98,0.98,0,0,0,.454-0.523,0.641,0.641,0,0,0-.039-0.543m-3.828-5.527a0.653,0.653,0,0,0,.059.562,0.574,0.574,0,0,0,.454.272,1.036,1.036,0,0,0,.69-0.155,0.979,0.979,0,0,0,.435-0.524,0.538,0.538,0,0,0-.04-0.562,0.633,0.633,0,0,0-.493-0.291,1.183,1.183,0,0,0-.651.155,1.208,1.208,0,0,0-.454.543m1.361-2.928a2.879,2.879,0,0,0-.611-0.214,0.306,0.306,0,0,0-.336.078,0.264,0.264,0,0,0,.119.291,2.181,2.181,0,0,0,1.164.6,0.222,0.222,0,1,0,.2-0.388,1.656,1.656,0,0,0-.533-0.368m1.5-.543a2.155,2.155,0,0,0-.592-0.233,0.377,0.377,0,0,0-.355.1,0.308,0.308,0,0,0,.158.291,1.649,1.649,0,0,0,.513.388,2.189,2.189,0,0,0,.592.213c0.2,0.026.309,0,.335-0.078a0.306,0.306,0,0,0-.118-0.31,2.219,2.219,0,0,0-.533-0.368m2.111,0.155a0.292,0.292,0,0,0-.138-0.31,1.929,1.929,0,0,0-.493-0.369,1.746,1.746,0,0,0-.592-0.213,0.223,0.223,0,1,0-.2.388,1.834,1.834,0,0,0,.513.368,1.956,1.956,0,0,0,.592.194,0.3,0.3,0,0,0,.315-0.058" transform="translate(-472 -408)"/>
</svg>
