<svg enable-background="new 0 0 96.9 75.5" viewBox="0 0 96.9 75.5" xmlns="http://www.w3.org/2000/svg"><g clip-rule="evenodd" fill="#fff" fill-rule="evenodd"><path d="m54.1 33.7h11.1l-13.8 12.7-.8 4.6h19.4l1-5.1h-11.4l14.1-12.7.9-4.5h-19.5z"/><path d="m6.2 16.3c-2.7 0-5.1 2.2-5.4 4.9s1.8 4.9 4.5 4.9 5.1-2.2 5.4-4.9-1.8-4.9-4.5-4.9z"/><path d="m87.9 38.4-11.7 7.6 1.6 9.4c.2 1.1-.3 2.1-1.1 2.8-2.5 1.9-5.3 3.4-8.3 4.5-.9.3-2 .2-2.8-.4l-6-4.8-7.9 5.1c-.8.5-1.8.6-2.7.2-2.3-1-4.4-2.3-6.2-4-.9-.8-1.1-2.2-.6-3.3l4.6-9.3-8.9-7.2c-.9-.7-1.3-1.9-1-2.9.8-2.8 2-5.5 3.5-7.5.5-.7 1.4-1.1 2.2-1.1h9.8l5.6-12.2c.3-.8 1-1.3 1.8-1.5 2.2-.6 4.6-.9 6.9-.9 2.1 0 4.1.2 5.9.7 1.1.3 1.9 1.2 2.1 2.3l1.8 10.6h9.1c1.3 0 2.4.8 2.7 2.1.7 2.5.9 5.2.7 7.9.2.6-.3 1.4-1.1 1.9zm-38.4-27.3c-2.6 1.4-5 3.2-7.2 5.1h-22c-2.7 0-5.1 2.2-5.4 4.9s1.8 4.9 4.5 4.9h14.7c-1.2 2.1-2.3 4.3-3.1 6.6h-17.5c-2.7 0-5.1 2.2-5.4 4.9-.2 2.7 1.8 4.9 4.5 4.9h16.5c-.1 1.4 0 2.9.1 4.3.2 1.5.4 3 .8 4.4h-9.7c-2.7 0-5.1 2.2-5.4 4.9s1.8 4.9 4.5 4.9h15.6c1.4 1.7 3 3.3 4.9 4.6 12.8 9.3 30.6 5.5 42-4.1 3.2-2.7 6-5.9 8.3-9.4 2.1-3.3 4.2-7.4 4.9-11.3 2.9-11.4-1.1-24-11.6-30.4-10.4-6.4-23.7-5-34 .8z"/></g></svg>